G04*
G04 #@! TF.GenerationSoftware,Altium Limited,Altium Designer,19.1.9 (167)*
G04*
G04 Layer_Physical_Order=2*
G04 Layer_Color=16711680*
%FSLAX25Y25*%
%MOIN*%
G70*
G01*
G75*
%ADD26C,0.03900*%
%ADD69C,0.02000*%
%ADD71C,0.00748*%
%ADD73R,0.04724X0.03150*%
%ADD74R,0.03150X0.04724*%
%ADD75C,0.03543*%
%ADD76C,0.11811*%
%ADD77C,0.02500*%
%ADD78C,0.01968*%
G36*
X405512D02*
X0D01*
Y309055D01*
X310639D01*
X310992Y308701D01*
X310937Y296075D01*
X371992D01*
Y309055D01*
X405512D01*
Y0D01*
D02*
G37*
%LPC*%
G36*
X393701Y304183D02*
X392347Y304050D01*
X391045Y303655D01*
X389846Y303014D01*
X388794Y302151D01*
X387931Y301099D01*
X387290Y299900D01*
X386895Y298598D01*
X386762Y297244D01*
X386895Y295890D01*
X387290Y294589D01*
X387931Y293389D01*
X388794Y292337D01*
X389846Y291475D01*
X391045Y290833D01*
X392347Y290439D01*
X393701Y290305D01*
X395055Y290439D01*
X396356Y290833D01*
X397556Y291475D01*
X398607Y292337D01*
X399470Y293389D01*
X400111Y294589D01*
X400506Y295890D01*
X400640Y297244D01*
X400506Y298598D01*
X400111Y299900D01*
X399470Y301099D01*
X398607Y302151D01*
X397556Y303014D01*
X396356Y303655D01*
X395055Y304050D01*
X393701Y304183D01*
D02*
G37*
G36*
X11811D02*
X10457Y304050D01*
X9156Y303655D01*
X7956Y303014D01*
X6904Y302151D01*
X6041Y301099D01*
X5400Y299900D01*
X5005Y298598D01*
X4872Y297244D01*
X5005Y295890D01*
X5400Y294589D01*
X6041Y293389D01*
X6904Y292337D01*
X7956Y291475D01*
X9156Y290833D01*
X10457Y290439D01*
X11811Y290305D01*
X13165Y290439D01*
X14466Y290833D01*
X15666Y291475D01*
X16718Y292337D01*
X17581Y293389D01*
X18222Y294589D01*
X18617Y295890D01*
X18750Y297244D01*
X18617Y298598D01*
X18222Y299900D01*
X17581Y301099D01*
X16718Y302151D01*
X15666Y303014D01*
X14466Y303655D01*
X13165Y304050D01*
X11811Y304183D01*
D02*
G37*
G36*
X244161Y286764D02*
X243438Y286669D01*
X242764Y286389D01*
X242185Y285945D01*
X241740Y285366D01*
X241461Y284692D01*
X241366Y283968D01*
X241461Y283245D01*
X241740Y282571D01*
X242185Y281992D01*
X242764Y281547D01*
X243438Y281268D01*
X244161Y281173D01*
X244885Y281268D01*
X245559Y281547D01*
X246138Y281992D01*
X246583Y282571D01*
X246862Y283245D01*
X246957Y283968D01*
X246862Y284692D01*
X246583Y285366D01*
X246138Y285945D01*
X245559Y286389D01*
X244885Y286669D01*
X244161Y286764D01*
D02*
G37*
G36*
X226839D02*
X226115Y286669D01*
X225441Y286389D01*
X224862Y285945D01*
X224417Y285366D01*
X224138Y284692D01*
X224043Y283968D01*
X224138Y283245D01*
X224417Y282571D01*
X224862Y281992D01*
X225441Y281547D01*
X226115Y281268D01*
X226839Y281173D01*
X227562Y281268D01*
X228236Y281547D01*
X228815Y281992D01*
X229260Y282571D01*
X229539Y283245D01*
X229634Y283968D01*
X229539Y284692D01*
X229260Y285366D01*
X228815Y285945D01*
X228236Y286389D01*
X227562Y286669D01*
X226839Y286764D01*
D02*
G37*
G36*
X346500Y266794D02*
X345622Y266619D01*
X345502Y266539D01*
X308500D01*
X307720Y266384D01*
X307058Y265942D01*
X300970Y259854D01*
X291372D01*
X291252Y259934D01*
X290374Y260109D01*
X289496Y259934D01*
X288752Y259437D01*
X288255Y258693D01*
X288080Y257815D01*
X288255Y256937D01*
X288752Y256193D01*
X289496Y255696D01*
X290374Y255521D01*
X291252Y255696D01*
X291372Y255776D01*
X301815D01*
X302595Y255931D01*
X303257Y256373D01*
X309345Y262461D01*
X345502D01*
X345622Y262381D01*
X346500Y262206D01*
X347378Y262381D01*
X348122Y262878D01*
X348620Y263622D01*
X348794Y264500D01*
X348620Y265378D01*
X348122Y266122D01*
X347378Y266619D01*
X346500Y266794D01*
D02*
G37*
G36*
X299000Y265794D02*
X298122Y265619D01*
X298002Y265539D01*
X209404D01*
X208624Y265384D01*
X207962Y264942D01*
X201058Y258038D01*
X200616Y257377D01*
X200461Y256596D01*
Y166500D01*
X200616Y165720D01*
X201058Y165058D01*
X232352Y133764D01*
X232381Y133622D01*
X232878Y132878D01*
X233622Y132380D01*
X234500Y132206D01*
X235378Y132380D01*
X236122Y132878D01*
X236619Y133622D01*
X236794Y134500D01*
X236619Y135378D01*
X236122Y136122D01*
X235378Y136619D01*
X235236Y136648D01*
X204539Y167345D01*
Y255751D01*
X206910Y258122D01*
X207475Y257980D01*
X207878Y257378D01*
X208622Y256880D01*
X209500Y256706D01*
X210378Y256880D01*
X210498Y256961D01*
X257502D01*
X257622Y256880D01*
X258500Y256706D01*
X259378Y256880D01*
X260122Y257378D01*
X260619Y258122D01*
X260794Y259000D01*
X260619Y259878D01*
X260122Y260622D01*
X259615Y260961D01*
X259767Y261461D01*
X298002D01*
X298122Y261381D01*
X299000Y261206D01*
X299878Y261381D01*
X300622Y261878D01*
X301119Y262622D01*
X301294Y263500D01*
X301119Y264378D01*
X300622Y265122D01*
X299878Y265619D01*
X299000Y265794D01*
D02*
G37*
G36*
X290500Y250794D02*
X289622Y250620D01*
X289502Y250539D01*
X214498D01*
X214378Y250620D01*
X213500Y250794D01*
X212622Y250620D01*
X211878Y250122D01*
X211381Y249378D01*
X211206Y248500D01*
X211381Y247622D01*
X211878Y246878D01*
X212622Y246380D01*
X213500Y246206D01*
X214378Y246380D01*
X214498Y246461D01*
X289502D01*
X289622Y246380D01*
X290500Y246206D01*
X291378Y246380D01*
X292122Y246878D01*
X292619Y247622D01*
X292794Y248500D01*
X292619Y249378D01*
X292122Y250122D01*
X291378Y250620D01*
X290500Y250794D01*
D02*
G37*
G36*
X359039Y250681D02*
X356964D01*
Y247819D01*
X359039D01*
Y250681D01*
D02*
G37*
G36*
Y246819D02*
X356964D01*
Y243957D01*
X359039D01*
Y246819D01*
D02*
G37*
G36*
X241000Y232794D02*
X240122Y232620D01*
X240002Y232539D01*
X216998D01*
X216878Y232620D01*
X216000Y232794D01*
X215122Y232620D01*
X214378Y232122D01*
X213880Y231378D01*
X213706Y230500D01*
X213880Y229622D01*
X214378Y228878D01*
X215122Y228380D01*
X216000Y228206D01*
X216878Y228380D01*
X216998Y228461D01*
X240002D01*
X240122Y228380D01*
X240264Y228352D01*
X244558Y224058D01*
X245220Y223616D01*
X246000Y223461D01*
X280002D01*
X280122Y223380D01*
X281000Y223206D01*
X281878Y223380D01*
X282622Y223878D01*
X283120Y224622D01*
X283294Y225500D01*
X283120Y226378D01*
X282622Y227122D01*
X281878Y227620D01*
X281000Y227794D01*
X280122Y227620D01*
X280002Y227539D01*
X246845D01*
X243148Y231236D01*
X243120Y231378D01*
X242622Y232122D01*
X241878Y232620D01*
X241000Y232794D01*
D02*
G37*
G36*
X354000Y231294D02*
X353122Y231119D01*
X352378Y230622D01*
X351881Y229878D01*
X351706Y229000D01*
X351881Y228122D01*
X351961Y228002D01*
Y213498D01*
X351881Y213378D01*
X351706Y212500D01*
X351881Y211622D01*
X352378Y210878D01*
X353122Y210381D01*
X354000Y210206D01*
X354878Y210381D01*
X355622Y210878D01*
X356119Y211622D01*
X356294Y212500D01*
X356119Y213378D01*
X356039Y213498D01*
Y228002D01*
X356119Y228122D01*
X356294Y229000D01*
X356119Y229878D01*
X355622Y230622D01*
X354878Y231119D01*
X354000Y231294D01*
D02*
G37*
G36*
X251000Y202195D02*
X250622Y202119D01*
X249878Y201622D01*
X249622D01*
X248878Y202119D01*
X248500Y202195D01*
Y200000D01*
Y197805D01*
X248878Y197880D01*
X249622Y198378D01*
X249878D01*
X250622Y197880D01*
X251000Y197805D01*
Y200000D01*
Y202195D01*
D02*
G37*
G36*
X247500D02*
X247122Y202119D01*
X246378Y201622D01*
X246122D01*
X245378Y202119D01*
X245000Y202195D01*
Y200000D01*
Y197805D01*
X245378Y197880D01*
X246122Y198378D01*
X246378D01*
X247122Y197880D01*
X247500Y197805D01*
Y200000D01*
Y202195D01*
D02*
G37*
G36*
X252000D02*
Y200500D01*
X253695D01*
X253620Y200878D01*
X253122Y201622D01*
X252378Y202119D01*
X252000Y202195D01*
D02*
G37*
G36*
X244000D02*
X243622Y202119D01*
X242878Y201622D01*
X242380Y200878D01*
X242305Y200500D01*
X244000D01*
Y202195D01*
D02*
G37*
G36*
X253695Y199500D02*
X252000D01*
Y197805D01*
X252378Y197880D01*
X253122Y198378D01*
X253620Y199122D01*
X253695Y199500D01*
D02*
G37*
G36*
X244000D02*
X242305D01*
X242380Y199122D01*
X242878Y198378D01*
X243622Y197880D01*
X244000Y197805D01*
Y199500D01*
D02*
G37*
G36*
X249272Y196286D02*
X248997Y196231D01*
X248341Y195793D01*
X248250Y195656D01*
X247750D01*
X247659Y195793D01*
X247003Y196231D01*
X246728Y196286D01*
Y194362D01*
X246228D01*
Y193862D01*
X244305D01*
X244359Y193588D01*
X244798Y192932D01*
X245454Y192493D01*
X246051Y192374D01*
X245977Y192000D01*
X246051Y191626D01*
X245454Y191507D01*
X244798Y191068D01*
X244359Y190412D01*
X244305Y190138D01*
X246228D01*
Y189638D01*
X246728D01*
Y187714D01*
X247003Y187769D01*
X247659Y188207D01*
X247750Y188344D01*
X248250D01*
X248341Y188207D01*
X248997Y187769D01*
X249272Y187714D01*
Y189638D01*
X249772D01*
Y190138D01*
X251695D01*
X251641Y190412D01*
X251202Y191068D01*
X250546Y191507D01*
X249949Y191626D01*
X250023Y192000D01*
X249949Y192374D01*
X250546Y192493D01*
X251202Y192932D01*
X251641Y193588D01*
X251695Y193862D01*
X249772D01*
Y194362D01*
X249272D01*
Y196286D01*
D02*
G37*
G36*
X250272D02*
Y194862D01*
X251695D01*
X251641Y195136D01*
X251202Y195793D01*
X250546Y196231D01*
X250272Y196286D01*
D02*
G37*
G36*
X245728D02*
X245454Y196231D01*
X244798Y195793D01*
X244359Y195136D01*
X244305Y194862D01*
X245728D01*
Y196286D01*
D02*
G37*
G36*
X251695Y189138D02*
X250272D01*
Y187714D01*
X250546Y187769D01*
X251202Y188207D01*
X251641Y188864D01*
X251695Y189138D01*
D02*
G37*
G36*
X245728D02*
X244305D01*
X244359Y188864D01*
X244798Y188207D01*
X245454Y187769D01*
X245728Y187714D01*
Y189138D01*
D02*
G37*
G36*
X252000Y186195D02*
Y184500D01*
X253695D01*
X253620Y184878D01*
X253122Y185622D01*
X252378Y186119D01*
X252000Y186195D01*
D02*
G37*
G36*
X244000D02*
X243622Y186119D01*
X242878Y185622D01*
X242380Y184878D01*
X242305Y184500D01*
X244000D01*
Y186195D01*
D02*
G37*
G36*
X223500Y198294D02*
X222622Y198119D01*
X221878Y197622D01*
X221380Y196878D01*
X221206Y196000D01*
X221380Y195122D01*
X221878Y194378D01*
X222622Y193880D01*
X222764Y193852D01*
X237558Y179058D01*
X238220Y178616D01*
X239000Y178461D01*
X288000D01*
X288780Y178616D01*
X289442Y179058D01*
X291236Y180852D01*
X291378Y180880D01*
X292122Y181378D01*
X292619Y182122D01*
X292794Y183000D01*
X292619Y183878D01*
X292122Y184622D01*
X291378Y185119D01*
X290500Y185294D01*
X289622Y185119D01*
X288878Y184622D01*
X288381Y183878D01*
X288352Y183736D01*
X287155Y182539D01*
X253760D01*
X253525Y182980D01*
X253620Y183122D01*
X253695Y183500D01*
X251500D01*
Y184000D01*
X251000D01*
Y186195D01*
X250622Y186119D01*
X249878Y185622D01*
X249622D01*
X248878Y186119D01*
X248500Y186195D01*
Y184000D01*
X247500D01*
Y186195D01*
X247122Y186119D01*
X246378Y185622D01*
X246122D01*
X245378Y186119D01*
X245000Y186195D01*
Y184000D01*
X244500D01*
Y183500D01*
X242305D01*
X242380Y183122D01*
X242475Y182980D01*
X242240Y182539D01*
X239845D01*
X225648Y196736D01*
X225620Y196878D01*
X225122Y197622D01*
X224378Y198119D01*
X223500Y198294D01*
D02*
G37*
G36*
X341236Y260039D02*
X312000D01*
X311220Y259884D01*
X310558Y259442D01*
X287058Y235942D01*
X286616Y235280D01*
X286461Y234500D01*
Y206998D01*
X286381Y206878D01*
X286206Y206000D01*
X286381Y205122D01*
X286878Y204378D01*
X287622Y203881D01*
X288500Y203706D01*
X289378Y203881D01*
X290122Y204378D01*
X290619Y205122D01*
X290794Y206000D01*
X290619Y206878D01*
X290539Y206998D01*
Y233655D01*
X312845Y255961D01*
X340391D01*
X344516Y251836D01*
Y250681D01*
X323890D01*
Y243957D01*
X334516D01*
Y236400D01*
X290155Y192039D01*
X272998D01*
X272878Y192120D01*
X272000Y192294D01*
X271122Y192120D01*
X270378Y191622D01*
X269881Y190878D01*
X269706Y190000D01*
X269881Y189122D01*
X270378Y188378D01*
X271122Y187881D01*
X272000Y187706D01*
X272878Y187881D01*
X272998Y187961D01*
X291000D01*
X291780Y188116D01*
X292442Y188558D01*
X337997Y234113D01*
X338439Y234775D01*
X338594Y235555D01*
Y243957D01*
X349516D01*
Y234400D01*
X292655Y177539D01*
X245998D01*
X245878Y177620D01*
X245000Y177794D01*
X244122Y177620D01*
X243378Y177122D01*
X242881Y176378D01*
X242706Y175500D01*
X242881Y174622D01*
X243378Y173878D01*
X244122Y173380D01*
X245000Y173206D01*
X245878Y173380D01*
X245998Y173461D01*
X293500D01*
X294280Y173616D01*
X294942Y174058D01*
X352997Y232113D01*
X353439Y232775D01*
X353594Y233555D01*
Y243957D01*
X355964D01*
Y247319D01*
Y250681D01*
X348594D01*
Y252681D01*
X348439Y253462D01*
X347997Y254123D01*
X342678Y259442D01*
X342017Y259884D01*
X341236Y260039D01*
D02*
G37*
G36*
X376500Y146976D02*
X375730Y146874D01*
X375012Y146577D01*
X374396Y146104D01*
X373923Y145488D01*
X373626Y144770D01*
X373524Y144000D01*
X373626Y143230D01*
X373923Y142512D01*
X374396Y141896D01*
X375012Y141423D01*
X375730Y141126D01*
X376500Y141024D01*
X377270Y141126D01*
X377988Y141423D01*
X378604Y141896D01*
X379077Y142512D01*
X379374Y143230D01*
X379475Y144000D01*
X379374Y144770D01*
X379077Y145488D01*
X378604Y146104D01*
X377988Y146577D01*
X377270Y146874D01*
X376500Y146976D01*
D02*
G37*
G36*
X368500D02*
X367730Y146874D01*
X367012Y146577D01*
X366396Y146104D01*
X365923Y145488D01*
X365626Y144770D01*
X365525Y144000D01*
X365626Y143230D01*
X365923Y142512D01*
X366396Y141896D01*
X367012Y141423D01*
X367730Y141126D01*
X368500Y141024D01*
X369270Y141126D01*
X369988Y141423D01*
X370604Y141896D01*
X371077Y142512D01*
X371374Y143230D01*
X371476Y144000D01*
X371374Y144770D01*
X371077Y145488D01*
X370604Y146104D01*
X369988Y146577D01*
X369270Y146874D01*
X368500Y146976D01*
D02*
G37*
G36*
X393000Y136294D02*
X392122Y136119D01*
X392002Y136039D01*
X382498D01*
X382378Y136119D01*
X381500Y136294D01*
X380622Y136119D01*
X379878Y135622D01*
X379380Y134878D01*
X379206Y134000D01*
X379380Y133122D01*
X379878Y132378D01*
X380622Y131880D01*
X381254Y131755D01*
Y131245D01*
X380622Y131120D01*
X379878Y130622D01*
X379380Y129878D01*
X379305Y129500D01*
X383695D01*
X383619Y129878D01*
X383122Y130622D01*
X382378Y131120D01*
X381746Y131245D01*
Y131755D01*
X382378Y131880D01*
X382498Y131961D01*
X392002D01*
X392122Y131880D01*
X393000Y131706D01*
X393878Y131880D01*
X394622Y132378D01*
X395120Y133122D01*
X395294Y134000D01*
X395120Y134878D01*
X394622Y135622D01*
X393878Y136119D01*
X393000Y136294D01*
D02*
G37*
G36*
X383695Y128500D02*
X382000D01*
Y126805D01*
X382378Y126881D01*
X383122Y127378D01*
X383619Y128122D01*
X383695Y128500D01*
D02*
G37*
G36*
X381000D02*
X379305D01*
X379380Y128122D01*
X379878Y127378D01*
X380622Y126881D01*
X381000Y126805D01*
Y128500D01*
D02*
G37*
G36*
X372500Y116975D02*
X371730Y116874D01*
X371012Y116577D01*
X370396Y116104D01*
X369923Y115488D01*
X369626Y114770D01*
X369525Y114000D01*
X369626Y113230D01*
X369923Y112512D01*
X370396Y111896D01*
X371012Y111423D01*
X371730Y111126D01*
X372500Y111024D01*
X373270Y111126D01*
X373988Y111423D01*
X374604Y111896D01*
X375077Y112512D01*
X375374Y113230D01*
X375476Y114000D01*
X375374Y114770D01*
X375077Y115488D01*
X374604Y116104D01*
X373988Y116577D01*
X373270Y116874D01*
X372500Y116975D01*
D02*
G37*
G36*
X361362Y293575D02*
X354638D01*
Y288425D01*
Y283425D01*
Y278425D01*
Y273425D01*
Y268425D01*
Y263425D01*
Y258425D01*
Y253425D01*
X359381D01*
X359760Y253046D01*
Y195242D01*
X282009Y117491D01*
X281706Y117036D01*
X281599Y116500D01*
Y68270D01*
X281378Y68122D01*
X280880Y67378D01*
X280706Y66500D01*
X280880Y65622D01*
X281378Y64878D01*
X282122Y64381D01*
X283000Y64206D01*
X283878Y64381D01*
X284622Y64878D01*
X285120Y65622D01*
X285294Y66500D01*
X285120Y67378D01*
X284622Y68122D01*
X284401Y68270D01*
Y115920D01*
X361637Y193156D01*
X362099Y192965D01*
Y187080D01*
X294266Y119248D01*
X293622Y119120D01*
X292878Y118622D01*
X292380Y117878D01*
X292206Y117000D01*
X292380Y116122D01*
X292878Y115378D01*
X293622Y114881D01*
X294500Y114706D01*
X295378Y114881D01*
X296122Y115378D01*
X296620Y116122D01*
X296794Y117000D01*
X296659Y117678D01*
X364491Y185509D01*
X364491Y185509D01*
X364599Y185672D01*
X365099Y185520D01*
Y182080D01*
X286009Y102991D01*
X285706Y102536D01*
X285599Y102000D01*
Y70000D01*
X285706Y69464D01*
X286009Y69009D01*
X288258Y66761D01*
X288206Y66500D01*
X288381Y65622D01*
X288878Y64878D01*
X289622Y64381D01*
X290500Y64206D01*
X291378Y64381D01*
X292122Y64878D01*
X292619Y65622D01*
X292794Y66500D01*
X292619Y67378D01*
X292122Y68122D01*
X291378Y68619D01*
X290500Y68794D01*
X290239Y68742D01*
X288401Y70580D01*
Y75520D01*
X288901Y75672D01*
X289009Y75509D01*
X292258Y72261D01*
X292206Y72000D01*
X292380Y71122D01*
X292878Y70378D01*
X293622Y69881D01*
X294500Y69706D01*
X295378Y69881D01*
X296122Y70378D01*
X296620Y71122D01*
X296794Y72000D01*
X296620Y72878D01*
X296122Y73622D01*
X295378Y74119D01*
X294500Y74294D01*
X294239Y74242D01*
X291401Y77080D01*
Y87420D01*
X374991Y171009D01*
X375099Y171172D01*
X375599Y171020D01*
Y169080D01*
X294761Y88242D01*
X294500Y88294D01*
X293622Y88119D01*
X292878Y87622D01*
X292380Y86878D01*
X292206Y86000D01*
X292380Y85122D01*
X292878Y84378D01*
X293622Y83881D01*
X294500Y83706D01*
X295378Y83881D01*
X296122Y84378D01*
X296620Y85122D01*
X296794Y86000D01*
X296742Y86261D01*
X377991Y167509D01*
X378294Y167964D01*
X378401Y168500D01*
Y276500D01*
X378294Y277036D01*
X377991Y277491D01*
X373491Y281991D01*
X373036Y282294D01*
X372500Y282401D01*
X361362D01*
Y288425D01*
Y293575D01*
D02*
G37*
G36*
X326287Y74937D02*
Y73242D01*
X327982D01*
X327907Y73620D01*
X327410Y74364D01*
X326665Y74862D01*
X326287Y74937D01*
D02*
G37*
G36*
X325287D02*
X324909Y74862D01*
X324165Y74364D01*
X323668Y73620D01*
X323593Y73242D01*
X325287D01*
Y74937D01*
D02*
G37*
G36*
X261327D02*
Y73242D01*
X263021D01*
X262946Y73620D01*
X262449Y74364D01*
X261705Y74862D01*
X261327Y74937D01*
D02*
G37*
G36*
X260327D02*
X259949Y74862D01*
X259205Y74364D01*
X258707Y73620D01*
X258632Y73242D01*
X260327D01*
Y74937D01*
D02*
G37*
G36*
X327982Y72242D02*
X326287D01*
Y70547D01*
X326665Y70623D01*
X327410Y71120D01*
X327907Y71864D01*
X327982Y72242D01*
D02*
G37*
G36*
X325287D02*
X323593D01*
X323668Y71864D01*
X324165Y71120D01*
X324909Y70623D01*
X325287Y70547D01*
Y72242D01*
D02*
G37*
G36*
X263021D02*
X261327D01*
Y70547D01*
X261705Y70623D01*
X262449Y71120D01*
X262946Y71864D01*
X263021Y72242D01*
D02*
G37*
G36*
X260327D02*
X258632D01*
X258707Y71864D01*
X259205Y71120D01*
X259949Y70623D01*
X260327Y70547D01*
Y72242D01*
D02*
G37*
G36*
X320866Y76620D02*
X317717D01*
X317326Y76542D01*
X316996Y76321D01*
X316775Y75991D01*
X316697Y75600D01*
Y70482D01*
X316775Y70092D01*
X316996Y69761D01*
X317326Y69540D01*
X317717Y69463D01*
X320866D01*
X321256Y69540D01*
X321587Y69761D01*
X321808Y70092D01*
X321886Y70482D01*
Y75600D01*
X321808Y75991D01*
X321587Y76321D01*
X321256Y76542D01*
X320866Y76620D01*
D02*
G37*
G36*
X268898D02*
X265748D01*
X265358Y76542D01*
X265027Y76321D01*
X264806Y75991D01*
X264728Y75600D01*
Y70482D01*
X264806Y70092D01*
X265027Y69761D01*
X265358Y69540D01*
X265748Y69463D01*
X268898D01*
X269288Y69540D01*
X269619Y69761D01*
X269840Y70092D01*
X269917Y70482D01*
Y75600D01*
X269840Y75991D01*
X269619Y76321D01*
X269288Y76542D01*
X268898Y76620D01*
D02*
G37*
G36*
X355000Y116294D02*
X354122Y116120D01*
X353378Y115622D01*
X352881Y114878D01*
X352706Y114000D01*
X352881Y113122D01*
X352961Y113002D01*
Y70012D01*
X352378Y69622D01*
X351881Y68878D01*
X351706Y68000D01*
X351881Y67122D01*
X352378Y66378D01*
X353122Y65881D01*
X354000Y65706D01*
X354878Y65881D01*
X355622Y66378D01*
X356119Y67122D01*
X356148Y67264D01*
X356442Y67558D01*
X356884Y68220D01*
X357039Y69000D01*
Y113002D01*
X357119Y113122D01*
X357294Y114000D01*
X357119Y114878D01*
X356622Y115622D01*
X355878Y116120D01*
X355000Y116294D01*
D02*
G37*
G36*
X314000Y67294D02*
X313122Y67119D01*
X312378Y66622D01*
X311880Y65878D01*
X311706Y65000D01*
X311880Y64122D01*
X312362Y63401D01*
X312316Y63174D01*
X312238Y62916D01*
X311769Y62903D01*
X311622Y63122D01*
X310878Y63619D01*
X310000Y63794D01*
X309122Y63619D01*
X308378Y63122D01*
X307880Y62378D01*
X307706Y61500D01*
X307880Y60622D01*
X308378Y59878D01*
X309122Y59381D01*
X310000Y59206D01*
X310878Y59381D01*
X311622Y59878D01*
X311770Y60099D01*
X312591D01*
X331180Y41509D01*
X331635Y41206D01*
X332171Y41099D01*
X332171Y41099D01*
X376230D01*
X376378Y40878D01*
X377122Y40380D01*
X378000Y40206D01*
X378878Y40380D01*
X379622Y40878D01*
X380119Y41622D01*
X380294Y42500D01*
X380119Y43378D01*
X379622Y44122D01*
X378878Y44620D01*
X378000Y44794D01*
X377122Y44620D01*
X376378Y44122D01*
X376230Y43901D01*
X332751D01*
X314380Y62272D01*
X314545Y62814D01*
X314878Y62881D01*
X315273Y63144D01*
X315500Y63099D01*
X315500Y63099D01*
X331420D01*
X346258Y48261D01*
X346206Y48000D01*
X346380Y47122D01*
X346878Y46378D01*
X347622Y45880D01*
X348500Y45706D01*
X349378Y45880D01*
X350122Y46378D01*
X350620Y47122D01*
X350794Y48000D01*
X350620Y48878D01*
X350122Y49622D01*
X349378Y50120D01*
X348500Y50294D01*
X348239Y50242D01*
X332991Y65491D01*
X332536Y65794D01*
X332000Y65901D01*
X316104D01*
X315622Y66622D01*
X314878Y67119D01*
X314000Y67294D01*
D02*
G37*
G36*
X196850Y283500D02*
X31496D01*
X31106Y283422D01*
X30775Y283201D01*
X30554Y282871D01*
X30476Y282480D01*
Y26575D01*
X30554Y26185D01*
X30775Y25854D01*
X31106Y25633D01*
X31496Y25555D01*
X196850D01*
X197241Y25633D01*
X197571Y25854D01*
X197792Y26185D01*
X197870Y26575D01*
Y282480D01*
X197792Y282871D01*
X197571Y283201D01*
X197241Y283422D01*
X196850Y283500D01*
D02*
G37*
G36*
X322835Y44327D02*
X263779D01*
X263389Y44249D01*
X263059Y44028D01*
X262838Y43697D01*
X262760Y43307D01*
Y15748D01*
X262838Y15358D01*
X263059Y15027D01*
X263389Y14806D01*
X263779Y14728D01*
X322835D01*
X323225Y14806D01*
X323556Y15027D01*
X323777Y15358D01*
X323854Y15748D01*
Y43307D01*
X323777Y43697D01*
X323556Y44028D01*
X323225Y44249D01*
X322835Y44327D01*
D02*
G37*
G36*
X393701Y18750D02*
X392347Y18617D01*
X391045Y18222D01*
X389846Y17581D01*
X388794Y16718D01*
X387931Y15666D01*
X387290Y14466D01*
X386895Y13165D01*
X386762Y11811D01*
X386895Y10457D01*
X387290Y9156D01*
X387931Y7956D01*
X388794Y6904D01*
X389846Y6041D01*
X391045Y5400D01*
X392347Y5005D01*
X393701Y4872D01*
X395055Y5005D01*
X396356Y5400D01*
X397556Y6041D01*
X398607Y6904D01*
X399470Y7956D01*
X400111Y9156D01*
X400506Y10457D01*
X400640Y11811D01*
X400506Y13165D01*
X400111Y14466D01*
X399470Y15666D01*
X398607Y16718D01*
X397556Y17581D01*
X396356Y18222D01*
X395055Y18617D01*
X393701Y18750D01*
D02*
G37*
G36*
X11811D02*
X10457Y18617D01*
X9156Y18222D01*
X7956Y17581D01*
X6904Y16718D01*
X6041Y15666D01*
X5400Y14466D01*
X5005Y13165D01*
X4872Y11811D01*
X5005Y10457D01*
X5400Y9156D01*
X6041Y7956D01*
X6904Y6904D01*
X7956Y6041D01*
X9156Y5400D01*
X10457Y5005D01*
X11811Y4872D01*
X13165Y5005D01*
X14466Y5400D01*
X15666Y6041D01*
X16718Y6904D01*
X17581Y7956D01*
X18222Y9156D01*
X18617Y10457D01*
X18750Y11811D01*
X18617Y13165D01*
X18222Y14466D01*
X17581Y15666D01*
X16718Y16718D01*
X15666Y17581D01*
X14466Y18222D01*
X13165Y18617D01*
X11811Y18750D01*
D02*
G37*
%LPD*%
G36*
X375599Y275920D02*
Y274542D01*
X375501Y274482D01*
X375099Y274390D01*
X374991Y274552D01*
X374991Y274552D01*
X374552Y274991D01*
X374098Y275294D01*
X373585Y275396D01*
X371991Y276991D01*
X371536Y277294D01*
X371000Y277401D01*
X361362D01*
Y279599D01*
X371920D01*
X375599Y275920D01*
D02*
G37*
G36*
X372009Y273009D02*
X372464Y272706D01*
X372599Y272679D01*
Y172580D01*
X289009Y88991D01*
X288901Y88828D01*
X288401Y88980D01*
Y101420D01*
X367491Y180509D01*
X367794Y180964D01*
X367901Y181500D01*
X367901Y181500D01*
Y264500D01*
X367794Y265036D01*
X367491Y265491D01*
X365991Y266991D01*
X365536Y267294D01*
X365000Y267401D01*
X361362D01*
Y269599D01*
X367920D01*
X369099Y268420D01*
Y177580D01*
X294761Y103242D01*
X294500Y103294D01*
X293622Y103120D01*
X292878Y102622D01*
X292380Y101878D01*
X292206Y101000D01*
X292380Y100122D01*
X292878Y99378D01*
X293622Y98881D01*
X294500Y98706D01*
X295378Y98881D01*
X296122Y99378D01*
X296620Y100122D01*
X296794Y101000D01*
X296742Y101261D01*
X371491Y176009D01*
X371794Y176464D01*
X371901Y177000D01*
Y269000D01*
X371901Y269000D01*
X371794Y269536D01*
X371491Y269991D01*
X369491Y271991D01*
X369036Y272294D01*
X368500Y272401D01*
X361362D01*
Y274599D01*
X370420D01*
X372009Y273009D01*
D02*
G37*
D26*
X372500Y114000D02*
D03*
X376500Y144000D02*
D03*
X368500D02*
D03*
D69*
X239000Y180500D02*
X288000D01*
X223500Y196000D02*
X239000Y180500D01*
X288000D02*
X290500Y183000D01*
X293500Y175500D02*
X351555Y233555D01*
Y247319D01*
X245000Y175500D02*
X293500D01*
X290374Y257815D02*
X301815D01*
X308500Y264500D01*
X354000Y212500D02*
Y229000D01*
Y68000D02*
X355000Y69000D01*
Y114000D01*
X241000Y230500D02*
X246000Y225500D01*
X281000D01*
X202500Y256596D02*
X209404Y263500D01*
X202500Y166500D02*
Y256596D01*
Y166500D02*
X234500Y134500D01*
X213500Y248500D02*
X290500D01*
X209404Y263500D02*
X299000D01*
X308500Y264500D02*
X346500D01*
X209500Y259000D02*
X258500D01*
X288500Y234500D02*
X312000Y258000D01*
X288500Y206000D02*
Y234500D01*
X312000Y258000D02*
X341236D01*
X272000Y190000D02*
X291000D01*
X336555Y235555D02*
Y247319D01*
X291000Y190000D02*
X336555Y235555D01*
X341236Y258000D02*
X346555Y252681D01*
Y247319D02*
Y252681D01*
X381500Y134000D02*
X393000D01*
X216000Y230500D02*
X241000D01*
D71*
X351500Y247264D02*
X351555Y247319D01*
X283000Y116500D02*
X361161Y194661D01*
Y253626D01*
X358787Y256000D02*
X361161Y253626D01*
X358000Y256000D02*
X358787D01*
X315335Y64665D02*
X315500Y64500D01*
X314335Y64665D02*
X315335D01*
X314000Y65000D02*
X314335Y64665D01*
X315500Y64500D02*
X332000D01*
X348500Y48000D01*
X310000Y61500D02*
X313171D01*
X332171Y42500D01*
X378000D01*
X290000Y76500D02*
X294500Y72000D01*
X290000Y76500D02*
Y88000D01*
X287000Y70000D02*
X290500Y66500D01*
X287000Y70000D02*
Y102000D01*
X283000Y66500D02*
Y116500D01*
X287000Y102000D02*
X366500Y181500D01*
X290000Y88000D02*
X374000Y172000D01*
X294500Y117000D02*
Y117500D01*
X363500Y186500D01*
X358500Y261500D02*
X362000D01*
X358000Y261000D02*
X358500Y261500D01*
X362000D02*
X363500Y260000D01*
Y186500D02*
Y260000D01*
X358000Y266000D02*
X365000D01*
X358000Y266000D02*
X358000Y266000D01*
X365000D02*
X366500Y264500D01*
Y181500D02*
Y264500D01*
X368500Y271000D02*
X370500Y269000D01*
X358000Y271000D02*
X368500D01*
X370500Y177000D02*
Y269000D01*
X294500Y101000D02*
X370500Y177000D01*
X358000Y276000D02*
X371000D01*
X373000Y274000D01*
X373562D01*
X374000Y273562D01*
Y172000D02*
Y273562D01*
X372500Y281000D02*
X377000Y276500D01*
X358000Y281000D02*
X372500D01*
X377000Y168500D02*
Y276500D01*
X294500Y86000D02*
X377000Y168500D01*
D73*
X358000Y291000D02*
D03*
Y286000D02*
D03*
Y281000D02*
D03*
Y276000D02*
D03*
Y271000D02*
D03*
Y266000D02*
D03*
Y261000D02*
D03*
Y256000D02*
D03*
D74*
X356465Y247319D02*
D03*
X351555D02*
D03*
X346555D02*
D03*
X341555D02*
D03*
X336555D02*
D03*
X331555D02*
D03*
X326465D02*
D03*
D75*
X226839Y283968D02*
D03*
X244161D02*
D03*
D76*
X393701Y11811D02*
D03*
Y297244D02*
D03*
X11811Y11811D02*
D03*
Y297244D02*
D03*
D77*
X325787Y72742D02*
D03*
X260827D02*
D03*
X381500Y129000D02*
D03*
X290500Y183000D02*
D03*
X251500Y200000D02*
D03*
X248000D02*
D03*
X244500D02*
D03*
X251500Y184000D02*
D03*
X248000D02*
D03*
X244500D02*
D03*
X223500Y196000D02*
D03*
X290374Y257815D02*
D03*
X354000Y212500D02*
D03*
X355000Y114000D02*
D03*
X354000Y68000D02*
D03*
X281000Y225500D02*
D03*
X213500Y248500D02*
D03*
X299000Y263500D02*
D03*
X234500Y134500D02*
D03*
X346500Y264500D02*
D03*
X258500Y259000D02*
D03*
X209500D02*
D03*
X290500Y248500D02*
D03*
X272000Y190000D02*
D03*
X381500Y134000D02*
D03*
X393000D02*
D03*
X288500Y206000D02*
D03*
X354000Y229000D02*
D03*
X245000Y175500D02*
D03*
X314000Y65000D02*
D03*
X348500Y48000D02*
D03*
X310000Y61500D02*
D03*
X378000Y42500D02*
D03*
X216000Y230500D02*
D03*
X241000D02*
D03*
X294500Y72000D02*
D03*
X290500Y66500D02*
D03*
X283000D02*
D03*
X294500Y117000D02*
D03*
Y101000D02*
D03*
Y86000D02*
D03*
D78*
X248000Y192000D02*
D03*
X249772Y194362D02*
D03*
Y189638D02*
D03*
X246228D02*
D03*
Y194362D02*
D03*
M02*
