G04*
G04 #@! TF.GenerationSoftware,Altium Limited,Altium Designer,19.1.9 (167)*
G04*
G04 Layer_Color=32768*
%FSLAX25Y25*%
%MOIN*%
G70*
G01*
G75*
%ADD10C,0.00600*%
%ADD14C,0.00787*%
%ADD15C,0.00394*%
%ADD18C,0.01000*%
%ADD80C,0.00197*%
%ADD81R,0.03937X0.02362*%
D10*
X27773Y311901D02*
X23775D01*
X27773Y315900D01*
Y316900D01*
X26774Y317899D01*
X24774D01*
X23775Y316900D01*
X29773D02*
X30772Y317899D01*
X32772D01*
X33771Y316900D01*
Y312901D01*
X32772Y311901D01*
X30772D01*
X29773Y312901D01*
Y316900D01*
X36770Y310902D02*
X37770Y311901D01*
Y312901D01*
X36770D01*
Y311901D01*
X37770D01*
X36770Y310902D01*
X35771Y309902D01*
X41769Y316900D02*
X42768Y317899D01*
X44768D01*
X45768Y316900D01*
Y312901D01*
X44768Y311901D01*
X42768D01*
X41769Y312901D01*
Y316900D01*
X47767D02*
X48766Y317899D01*
X50766D01*
X51766Y316900D01*
Y312901D01*
X50766Y311901D01*
X48766D01*
X47767Y312901D01*
Y316900D01*
X240803Y39634D02*
Y35636D01*
X236804Y39634D01*
X235804D01*
X234805Y38635D01*
Y36636D01*
X235804Y35636D01*
X241802Y42634D02*
X240803Y43633D01*
X239803D01*
Y42634D01*
X240803D01*
Y43633D01*
X241802Y42634D01*
X242802Y41634D01*
X234805Y51631D02*
Y47632D01*
X237804D01*
X236804Y49631D01*
Y50631D01*
X237804Y51631D01*
X239803D01*
X240803Y50631D01*
Y48632D01*
X239803Y47632D01*
X235804Y53630D02*
X234805Y54630D01*
Y56629D01*
X235804Y57629D01*
X239803D01*
X240803Y56629D01*
Y54630D01*
X239803Y53630D01*
X235804D01*
X318174Y-18395D02*
X314175D01*
X318174Y-14396D01*
Y-13396D01*
X317174Y-12397D01*
X315175D01*
X314175Y-13396D01*
X321173Y-19395D02*
X322173Y-18395D01*
Y-17395D01*
X321173D01*
Y-18395D01*
X322173D01*
X321173Y-19395D01*
X320173Y-20394D01*
X326171Y-13396D02*
X327171Y-12397D01*
X329170D01*
X330170Y-13396D01*
Y-17395D01*
X329170Y-18395D01*
X327171D01*
X326171Y-17395D01*
Y-13396D01*
X332169D02*
X333169Y-12397D01*
X335168D01*
X336168Y-13396D01*
Y-17395D01*
X335168Y-18395D01*
X333169D01*
X332169Y-17395D01*
Y-13396D01*
X251245Y-18395D02*
X247246D01*
X251245Y-14396D01*
Y-13396D01*
X250245Y-12397D01*
X248246D01*
X247246Y-13396D01*
X254244Y-19395D02*
X255243Y-18395D01*
Y-17395D01*
X254244D01*
Y-18395D01*
X255243D01*
X254244Y-19395D01*
X253244Y-20394D01*
X259242Y-13396D02*
X260242Y-12397D01*
X262241D01*
X263241Y-13396D01*
Y-17395D01*
X262241Y-18395D01*
X260242D01*
X259242Y-17395D01*
Y-13396D01*
X265240D02*
X266240Y-12397D01*
X268239D01*
X269239Y-13396D01*
Y-17395D01*
X268239Y-18395D01*
X266240D01*
X265240Y-17395D01*
Y-13396D01*
D14*
X259500Y266500D02*
Y309500D01*
X211500Y266500D02*
X259500D01*
X211500D02*
Y309500D01*
X259500D01*
X235500Y286000D02*
Y291000D01*
X233000Y288500D02*
X238000D01*
D15*
X332012Y223453D02*
X332799Y222665D01*
Y218335D02*
X332012Y217547D01*
X320988Y217547D02*
X320201Y218335D01*
Y222665D02*
X320988Y223453D01*
X266500Y207130D02*
Y210870D01*
X264630Y209000D02*
X268370D01*
X233130Y208661D02*
X236870D01*
X235000Y206791D02*
Y210531D01*
X357031Y218374D02*
Y227626D01*
X360968Y218374D02*
Y227626D01*
X357031Y218374D02*
X360968D01*
X357031Y227626D02*
X360968D01*
X359000Y221228D02*
Y224772D01*
X357228Y223000D02*
X360772D01*
X104130Y298500D02*
X107870D01*
X106000Y296630D02*
Y300370D01*
X281130Y253000D02*
X284870D01*
X283000Y251130D02*
Y254870D01*
X255130Y208661D02*
X258870D01*
X257000Y206791D02*
Y210531D01*
X223000Y137992D02*
Y141732D01*
X221130Y139862D02*
X224870D01*
X232630Y124862D02*
X236370D01*
X234500Y122992D02*
Y126732D01*
X374071Y69500D02*
X377811D01*
X375941Y67630D02*
Y71370D01*
X374071Y62500D02*
X377811D01*
X375941Y60630D02*
Y64370D01*
X223000Y122992D02*
Y126732D01*
X221130Y124862D02*
X224870D01*
X327630Y35500D02*
X331370D01*
X329500Y33630D02*
Y37370D01*
X341000Y33862D02*
Y37799D01*
X339032Y35831D02*
X342969D01*
X332799Y218335D02*
Y222665D01*
X320988Y217547D02*
X332012D01*
X320201Y218335D02*
Y222665D01*
X320988Y223453D02*
X332012D01*
X331500Y204728D02*
Y208272D01*
X329728Y206500D02*
X333272D01*
X333469Y201874D02*
Y211126D01*
X329532Y201874D02*
Y211126D01*
X333469D01*
X329532Y201874D02*
X333469D01*
X321500Y204728D02*
Y208272D01*
X319728Y206500D02*
X323272D01*
X323468Y201874D02*
Y211126D01*
X319531Y201874D02*
Y211126D01*
X323468D01*
X319531Y201874D02*
X323468D01*
X320630Y161000D02*
X324370D01*
X322500Y159130D02*
Y162870D01*
X320630Y153500D02*
X324370D01*
X322500Y151630D02*
Y155370D01*
X293307Y74173D02*
Y78110D01*
X291339Y76142D02*
X295276D01*
X237130Y173000D02*
X240870D01*
X239000Y171130D02*
Y174870D01*
X229130Y173000D02*
X232870D01*
X231000Y171130D02*
Y174870D01*
X221130Y173000D02*
X224870D01*
X223000Y171130D02*
Y174870D01*
X246031Y192000D02*
X249969D01*
X248000Y190032D02*
Y193968D01*
X273130Y209000D02*
X276870D01*
X275000Y207130D02*
Y210870D01*
X374472Y14000D02*
X378213D01*
X376343Y12130D02*
Y15870D01*
X356500Y33968D02*
Y37905D01*
X354532Y35937D02*
X358469D01*
X385000Y34032D02*
Y37969D01*
X383032Y36000D02*
X386968D01*
X371000Y34032D02*
Y37969D01*
X369032Y36000D02*
X372969D01*
X320630Y94500D02*
X324370D01*
X322500Y92630D02*
Y96370D01*
X320630Y101500D02*
X324370D01*
X322500Y99630D02*
Y103370D01*
X320630Y108500D02*
X324370D01*
X322500Y106630D02*
Y110370D01*
X320630Y115500D02*
X324370D01*
X322500Y113630D02*
Y117370D01*
X320630Y122500D02*
X324370D01*
X322500Y120630D02*
Y124370D01*
X320630Y129500D02*
X324370D01*
X322500Y127630D02*
Y131370D01*
X320630Y136500D02*
X324370D01*
X322500Y134630D02*
Y138370D01*
X320630Y143500D02*
X324370D01*
X322500Y141630D02*
Y145370D01*
D18*
X319811Y307162D02*
X355244D01*
Y299288D02*
Y307162D01*
X319811Y299288D02*
X355244D01*
X319811D02*
Y307162D01*
X315874Y309130D02*
X367055D01*
Y238264D02*
Y309130D01*
X315874Y238264D02*
X367055D01*
X315874D02*
Y309130D01*
X0Y309000D02*
Y317500D01*
X78740Y308602D02*
Y317500D01*
X0Y316500D02*
X22175D01*
X53365D02*
X78740D01*
X0D02*
X6000Y314500D01*
X0Y316500D02*
X6000Y318500D01*
X72740D02*
X78740Y316500D01*
X72740Y314500D02*
X78740Y316500D01*
X248000Y59158D02*
X250000Y53158D01*
X252000Y59158D01*
X250000Y43307D02*
X252000Y37307D01*
X248000D02*
X250000Y43307D01*
Y53158D02*
Y63157D01*
Y33307D02*
Y43307D01*
X249000D02*
X262779D01*
X249000Y53158D02*
X254807D01*
X330709Y0D02*
X336709Y2000D01*
X330709Y0D02*
X336709Y-2000D01*
X316835D02*
X322835Y0D01*
X316835Y2000D02*
X322835Y0D01*
X330709D02*
X340709D01*
X312835D02*
X322835D01*
Y-1000D02*
Y42307D01*
X330709Y-1000D02*
Y52059D01*
X249905Y-2000D02*
X255906Y0D01*
X249905Y2000D02*
X255906Y0D01*
X263779D02*
X269779Y2000D01*
X263779Y0D02*
X269779Y-2000D01*
X245905Y0D02*
X255906D01*
X263779D02*
X273780D01*
X263779Y-1000D02*
Y42307D01*
X255906Y-1000D02*
Y52059D01*
D80*
X263547Y214315D02*
X269453D01*
X263547Y203685D02*
X269453D01*
Y214315D01*
X263547Y203685D02*
Y214315D01*
X232047Y203346D02*
Y213976D01*
X237953Y203346D02*
Y213976D01*
X232047Y203346D02*
X237953D01*
X232047Y213976D02*
X237953D01*
X111315Y295547D02*
Y301453D01*
X100685Y295547D02*
Y301453D01*
Y295547D02*
X111315D01*
X100685Y301453D02*
X111315D01*
X277685Y250047D02*
Y255953D01*
X288315Y250047D02*
Y255953D01*
X277685D02*
X288315D01*
X277685Y250047D02*
X288315D01*
X254047Y203346D02*
Y213976D01*
X259953Y203346D02*
Y213976D01*
X254047Y203346D02*
X259953D01*
X254047Y213976D02*
X259953D01*
X220047Y134547D02*
X225953D01*
X220047Y145177D02*
X225953D01*
X220047Y134547D02*
Y145177D01*
X225953Y134547D02*
Y145177D01*
X237453Y119547D02*
Y130177D01*
X231547Y119547D02*
Y130177D01*
X237453D01*
X231547Y119547D02*
X237453D01*
X370626Y66547D02*
Y72453D01*
X381256Y66547D02*
Y72453D01*
X370626D02*
X381256D01*
X370626Y66547D02*
X381256D01*
Y59547D02*
Y65453D01*
X370626Y59547D02*
Y65453D01*
Y59547D02*
X381256D01*
X370626Y65453D02*
X381256D01*
X220047Y119547D02*
X225953D01*
X220047Y130177D02*
X225953D01*
X220047Y119547D02*
Y130177D01*
X225953Y119547D02*
Y130177D01*
X332453Y30185D02*
Y40815D01*
X326547Y30185D02*
Y40815D01*
X332453D01*
X326547Y30185D02*
X332453D01*
X333717Y26677D02*
X348283D01*
Y44984D01*
X333717Y26677D02*
Y44984D01*
X348283D01*
X327815Y158047D02*
Y163953D01*
X317185Y158047D02*
Y163953D01*
Y158047D02*
X327815D01*
X317185Y163953D02*
X327815D01*
Y150547D02*
Y156453D01*
X317185Y150547D02*
Y156453D01*
Y150547D02*
X327815D01*
X317185Y156453D02*
X327815D01*
X255906Y81110D02*
X330709D01*
X255906Y53158D02*
Y81110D01*
Y53158D02*
X330709D01*
Y81110D01*
X241953Y167685D02*
Y178315D01*
X236047Y167685D02*
Y178315D01*
X241953D01*
X236047Y167685D02*
X241953D01*
X233953D02*
Y178315D01*
X228047Y167685D02*
Y178315D01*
X233953D01*
X228047Y167685D02*
X233953D01*
X225953D02*
Y178315D01*
X220047Y167685D02*
Y178315D01*
X225953D01*
X220047Y167685D02*
X225953D01*
X233827Y183929D02*
Y200071D01*
X262173Y183929D02*
Y200071D01*
X233827D02*
X262173D01*
X233827Y183929D02*
X262173D01*
X272047Y203685D02*
Y214315D01*
X277953Y203685D02*
Y214315D01*
X272047Y203685D02*
X277953D01*
X272047Y214315D02*
X277953D01*
X371028Y11047D02*
Y16953D01*
X381658Y11047D02*
Y16953D01*
X371028D02*
X381658D01*
X371028Y11047D02*
X381658D01*
X352563Y44500D02*
X360437D01*
X352563Y27374D02*
X360437D01*
Y44500D01*
X352563Y27374D02*
Y44500D01*
X381063Y27437D02*
X388937D01*
X381063Y44563D02*
X388937D01*
X381063Y27437D02*
Y44563D01*
X388937Y27437D02*
Y44563D01*
X367063Y27437D02*
X374937D01*
X367063Y44563D02*
X374937D01*
X367063Y27437D02*
Y44563D01*
X374937Y27437D02*
Y44563D01*
X327815Y91547D02*
Y97453D01*
X317185Y91547D02*
Y97453D01*
Y91547D02*
X327815D01*
X317185Y97453D02*
X327815D01*
Y98547D02*
Y104453D01*
X317185Y98547D02*
Y104453D01*
Y98547D02*
X327815D01*
X317185Y104453D02*
X327815D01*
Y105547D02*
Y111453D01*
X317185Y105547D02*
Y111453D01*
Y105547D02*
X327815D01*
X317185Y111453D02*
X327815D01*
Y112547D02*
Y118453D01*
X317185Y112547D02*
Y118453D01*
Y112547D02*
X327815D01*
X317185Y118453D02*
X327815D01*
Y119547D02*
Y125453D01*
X317185Y119547D02*
Y125453D01*
Y119547D02*
X327815D01*
X317185Y125453D02*
X327815D01*
Y126547D02*
Y132453D01*
X317185Y126547D02*
Y132453D01*
Y126547D02*
X327815D01*
X317185Y132453D02*
X327815D01*
Y133547D02*
Y139453D01*
X317185Y133547D02*
Y139453D01*
Y133547D02*
X327815D01*
X317185Y139453D02*
X327815D01*
Y140547D02*
Y146453D01*
X317185Y140547D02*
Y146453D01*
Y140547D02*
X327815D01*
X317185Y146453D02*
X327815D01*
D81*
X347371Y303225D02*
D03*
M02*
