G04*
G04 #@! TF.GenerationSoftware,Altium Limited,Altium Designer,19.1.9 (167)*
G04*
G04 Layer_Color=16711935*
%FSLAX25Y25*%
%MOIN*%
G70*
G01*
G75*
%ADD41R,0.05524X0.03950*%
%ADD42R,0.03950X0.05524*%
%ADD43C,0.04700*%
%ADD44C,0.04343*%
%ADD45C,0.12611*%
%ADD46C,0.03300*%
%ADD47C,0.02769*%
D41*
X358000Y291000D02*
D03*
Y286000D02*
D03*
Y281000D02*
D03*
Y276000D02*
D03*
Y271000D02*
D03*
Y266000D02*
D03*
Y261000D02*
D03*
Y256000D02*
D03*
D42*
X356465Y247319D02*
D03*
X351555D02*
D03*
X346555D02*
D03*
X341555D02*
D03*
X336555D02*
D03*
X331555D02*
D03*
X326465D02*
D03*
D43*
X372500Y114000D02*
D03*
X376500Y144000D02*
D03*
X368500D02*
D03*
D44*
X226839Y283968D02*
D03*
X244161D02*
D03*
D45*
X393701Y11811D02*
D03*
Y297244D02*
D03*
X11811Y11811D02*
D03*
Y297244D02*
D03*
D46*
X325787Y72742D02*
D03*
X260827D02*
D03*
X381500Y129000D02*
D03*
X290500Y183000D02*
D03*
X251500Y200000D02*
D03*
X248000D02*
D03*
X244500D02*
D03*
X251500Y184000D02*
D03*
X248000D02*
D03*
X244500D02*
D03*
X223500Y196000D02*
D03*
X290374Y257815D02*
D03*
X354000Y212500D02*
D03*
X355000Y114000D02*
D03*
X354000Y68000D02*
D03*
X281000Y225500D02*
D03*
X213500Y248500D02*
D03*
X299000Y263500D02*
D03*
X234500Y134500D02*
D03*
X346500Y264500D02*
D03*
X258500Y259000D02*
D03*
X209500D02*
D03*
X290500Y248500D02*
D03*
X272000Y190000D02*
D03*
X381500Y134000D02*
D03*
X393000D02*
D03*
X288500Y206000D02*
D03*
X354000Y229000D02*
D03*
X245000Y175500D02*
D03*
X314000Y65000D02*
D03*
X348500Y48000D02*
D03*
X310000Y61500D02*
D03*
X378000Y42500D02*
D03*
X216000Y230500D02*
D03*
X241000D02*
D03*
X294500Y72000D02*
D03*
X290500Y66500D02*
D03*
X283000D02*
D03*
X294500Y117000D02*
D03*
Y101000D02*
D03*
Y86000D02*
D03*
D47*
X248000Y192000D02*
D03*
X249772Y194362D02*
D03*
Y189638D02*
D03*
X246228D02*
D03*
Y194362D02*
D03*
M02*
