G04*
G04 #@! TF.GenerationSoftware,Altium Limited,Altium Designer,19.1.9 (167)*
G04*
G04 Layer_Physical_Order=1*
G04 Layer_Color=255*
%FSLAX25Y25*%
%MOIN*%
G70*
G01*
G75*
%ADD26C,0.03900*%
%ADD27R,0.02600X0.02200*%
%ADD48R,0.03740X0.03347*%
%ADD49R,0.03937X0.03543*%
%ADD50R,0.03150X0.02953*%
%ADD51R,0.07874X0.03150*%
%ADD52R,0.03150X0.07874*%
%ADD53R,0.05512X0.10827*%
%ADD54R,0.03347X0.03740*%
%ADD55C,0.03100*%
%ADD56R,0.10630X0.03150*%
%ADD57R,0.03937X0.07087*%
%ADD58R,0.03543X0.03937*%
%ADD59R,0.03937X0.03937*%
%ADD60R,0.01181X0.03150*%
G04:AMPARAMS|DCode=61|XSize=11.81mil|YSize=61.02mil|CornerRadius=1.95mil|HoleSize=0mil|Usage=FLASHONLY|Rotation=90.000|XOffset=0mil|YOffset=0mil|HoleType=Round|Shape=RoundedRectangle|*
%AMROUNDEDRECTD61*
21,1,0.01181,0.05713,0,0,90.0*
21,1,0.00791,0.06102,0,0,90.0*
1,1,0.00390,0.02856,0.00396*
1,1,0.00390,0.02856,-0.00396*
1,1,0.00390,-0.02856,-0.00396*
1,1,0.00390,-0.02856,0.00396*
%
%ADD61ROUNDEDRECTD61*%
G04:AMPARAMS|DCode=62|XSize=61.81mil|YSize=74.02mil|CornerRadius=1.85mil|HoleSize=0mil|Usage=FLASHONLY|Rotation=0.000|XOffset=0mil|YOffset=0mil|HoleType=Round|Shape=RoundedRectangle|*
%AMROUNDEDRECTD62*
21,1,0.06181,0.07031,0,0,0.0*
21,1,0.05810,0.07402,0,0,0.0*
1,1,0.00371,0.02905,-0.03515*
1,1,0.00371,-0.02905,-0.03515*
1,1,0.00371,-0.02905,0.03515*
1,1,0.00371,0.02905,0.03515*
%
%ADD62ROUNDEDRECTD62*%
%ADD63R,0.02362X0.06102*%
%ADD64R,0.04724X0.07087*%
%ADD65R,0.05512X0.04134*%
G04:AMPARAMS|DCode=66|XSize=78.74mil|YSize=98.43mil|CornerRadius=19.68mil|HoleSize=0mil|Usage=FLASHONLY|Rotation=0.000|XOffset=0mil|YOffset=0mil|HoleType=Round|Shape=RoundedRectangle|*
%AMROUNDEDRECTD66*
21,1,0.07874,0.05906,0,0,0.0*
21,1,0.03937,0.09843,0,0,0.0*
1,1,0.03937,0.01968,-0.02953*
1,1,0.03937,-0.01968,-0.02953*
1,1,0.03937,-0.01968,0.02953*
1,1,0.03937,0.01968,0.02953*
%
%ADD66ROUNDEDRECTD66*%
%ADD67R,0.01968X0.08858*%
%ADD68R,0.04016X0.03465*%
%ADD69C,0.02000*%
%ADD70C,0.01500*%
%ADD71C,0.00748*%
%ADD72C,0.00500*%
%ADD73R,0.04724X0.03150*%
%ADD74R,0.03150X0.04724*%
%ADD75C,0.03543*%
%ADD76C,0.11811*%
%ADD77C,0.02500*%
%ADD78C,0.01968*%
G36*
X405512D02*
X0D01*
Y309055D01*
X310639D01*
X310992Y308701D01*
X310937Y296075D01*
Y290925D01*
Y285925D01*
Y280925D01*
Y275925D01*
Y274000D01*
X315874D01*
X320811D01*
Y275925D01*
Y280925D01*
Y285925D01*
Y290925D01*
Y296075D01*
X362118D01*
Y290925D01*
Y285925D01*
Y280925D01*
Y275925D01*
Y270925D01*
Y265925D01*
Y260925D01*
Y255925D01*
Y254000D01*
X367055D01*
X371992D01*
Y255925D01*
Y260925D01*
Y265925D01*
Y270925D01*
Y276461D01*
X375155D01*
X384461Y267155D01*
Y157443D01*
X383961Y157394D01*
X383884Y157780D01*
X383442Y158442D01*
X362942Y178942D01*
X362280Y179384D01*
X361500Y179539D01*
X296845D01*
X292648Y183736D01*
X292619Y183878D01*
X292122Y184622D01*
X291378Y185119D01*
X290500Y185294D01*
X289622Y185119D01*
X288878Y184622D01*
X288381Y183878D01*
X288206Y183000D01*
X288381Y182122D01*
X288878Y181378D01*
X289622Y180880D01*
X289764Y180852D01*
X294558Y176058D01*
X294558Y176058D01*
X295220Y175616D01*
X296000Y175461D01*
X360655D01*
X379961Y156155D01*
Y144144D01*
X379461Y144111D01*
X379374Y144770D01*
X379077Y145488D01*
X378604Y146104D01*
X377988Y146577D01*
X377270Y146874D01*
X376500Y146976D01*
X375730Y146874D01*
X375012Y146577D01*
X374396Y146104D01*
X373923Y145488D01*
X373626Y144770D01*
X373524Y144000D01*
X373626Y143230D01*
X373923Y142512D01*
X374334Y141977D01*
X374245Y141450D01*
X374005Y141402D01*
X373162Y140838D01*
X372801Y140298D01*
X372199D01*
X371838Y140838D01*
X370995Y141402D01*
X370755Y141450D01*
X370666Y141977D01*
X371077Y142512D01*
X371374Y143230D01*
X371476Y144000D01*
X371374Y144770D01*
X371077Y145488D01*
X370604Y146104D01*
X369988Y146577D01*
X369270Y146874D01*
X368500Y146976D01*
X367730Y146874D01*
X367012Y146577D01*
X366396Y146104D01*
X365923Y145488D01*
X365626Y144770D01*
X365525Y144000D01*
X365626Y143230D01*
X365923Y142512D01*
X366396Y141896D01*
X367012Y141423D01*
X367730Y141126D01*
X367755Y141123D01*
X367993Y140587D01*
X367598Y139995D01*
X367400Y139000D01*
X367598Y138005D01*
X368162Y137162D01*
X368702Y136801D01*
Y136199D01*
X368162Y135838D01*
X367598Y134995D01*
X367400Y134000D01*
X367598Y133005D01*
X368162Y132162D01*
X368702Y131801D01*
Y131199D01*
X368162Y130838D01*
X367598Y129995D01*
X367400Y129000D01*
X367598Y128005D01*
X368162Y127162D01*
X368702Y126801D01*
Y126199D01*
X368162Y125838D01*
X367598Y124995D01*
X367400Y124000D01*
X367598Y123005D01*
X368162Y122162D01*
X368702Y121801D01*
Y121199D01*
X368162Y120838D01*
X367598Y119995D01*
X367400Y119000D01*
X367598Y118005D01*
X368162Y117162D01*
X369005Y116598D01*
X370000Y116400D01*
X370274Y115945D01*
X369923Y115488D01*
X369626Y114770D01*
X369525Y114000D01*
X369626Y113230D01*
X369923Y112512D01*
X370396Y111896D01*
X371012Y111423D01*
X371730Y111126D01*
X372500Y111024D01*
X373270Y111126D01*
X373988Y111423D01*
X374604Y111896D01*
X375077Y112512D01*
X375374Y113230D01*
X375476Y114000D01*
X375374Y114770D01*
X375077Y115488D01*
X374726Y115945D01*
X375000Y116400D01*
X375995Y116598D01*
X376463Y116911D01*
X380705D01*
X382632Y114984D01*
Y110016D01*
X381155Y108539D01*
X363345D01*
X357148Y114736D01*
X357119Y114878D01*
X357039Y114998D01*
Y153500D01*
Y158500D01*
X356884Y159280D01*
X356442Y159942D01*
X344501Y171883D01*
X343839Y172325D01*
X343059Y172480D01*
X273017D01*
X272826Y172942D01*
X296942Y197058D01*
X297384Y197720D01*
X297539Y198500D01*
Y206616D01*
X297384Y207397D01*
X296942Y208058D01*
X292058Y212942D01*
X291396Y213384D01*
X290616Y213539D01*
X277870D01*
Y214232D01*
X277039D01*
Y241786D01*
X277501Y241977D01*
X307461Y212017D01*
Y197500D01*
X307616Y196720D01*
X308058Y196058D01*
X313558Y190558D01*
X313558Y190558D01*
X314220Y190116D01*
X315000Y189961D01*
X339500D01*
X340280Y190116D01*
X340942Y190558D01*
X345407Y195023D01*
X345849Y195684D01*
X346004Y196465D01*
Y220959D01*
X346466Y221150D01*
X348715Y218901D01*
X348716Y218901D01*
X349377Y218459D01*
X350157Y218303D01*
X356425D01*
Y217866D01*
X361575D01*
Y222819D01*
X361575D01*
Y223181D01*
X361575D01*
Y228134D01*
X361021D01*
Y233327D01*
X361539D01*
Y243201D01*
X349465D01*
Y238264D01*
Y233327D01*
X351925D01*
Y229945D01*
X351881Y229878D01*
X351706Y229000D01*
X351881Y228122D01*
X352378Y227378D01*
X353122Y226881D01*
X354000Y226706D01*
X354878Y226881D01*
X355622Y227378D01*
X355925Y227831D01*
X356425Y227680D01*
Y223181D01*
X356425D01*
Y222882D01*
X356274Y222382D01*
X351002D01*
X346004Y227380D01*
Y233327D01*
X348465D01*
Y238264D01*
Y243201D01*
X321390D01*
Y233327D01*
X321925D01*
Y231809D01*
X320137Y230021D01*
X319695Y229359D01*
X319540Y228579D01*
Y225043D01*
X318610D01*
Y215957D01*
X319500D01*
Y211634D01*
X318925D01*
Y206819D01*
X318925Y206681D01*
Y206319D01*
X318925Y206181D01*
Y204343D01*
X321500D01*
X324075D01*
Y206181D01*
X324075Y206319D01*
Y206681D01*
X324075Y206819D01*
Y211634D01*
X323579D01*
Y215957D01*
X324547D01*
Y225043D01*
X323618D01*
Y227734D01*
X325407Y229523D01*
X325849Y230184D01*
X326004Y230965D01*
Y233327D01*
X326925D01*
Y231035D01*
X327081Y230255D01*
X327523Y229593D01*
X329382Y227734D01*
Y225043D01*
X328453D01*
Y215957D01*
X329421D01*
Y211634D01*
X328925D01*
Y206819D01*
X328925Y206681D01*
Y206319D01*
X328925Y206181D01*
Y204343D01*
X331500D01*
X334075D01*
Y206181D01*
X334075Y206319D01*
Y206681D01*
X334075Y206819D01*
Y211634D01*
X333500D01*
Y215957D01*
X334390D01*
Y225043D01*
X333460D01*
Y228579D01*
X333305Y229359D01*
X332863Y230021D01*
X331004Y231880D01*
Y233327D01*
X341925D01*
Y226535D01*
Y197309D01*
X338655Y194039D01*
X315845D01*
X311539Y198345D01*
Y212862D01*
X311384Y213643D01*
X310942Y214304D01*
X277884Y247362D01*
X280651Y250130D01*
X288232D01*
Y252789D01*
X291110Y255667D01*
X291252Y255696D01*
X291996Y256193D01*
X292494Y256937D01*
X292668Y257815D01*
X292494Y258693D01*
X292413Y258813D01*
Y261299D01*
X294130D01*
Y274126D01*
X292413D01*
Y287874D01*
X294130D01*
Y300701D01*
X286618D01*
Y287874D01*
X288335D01*
Y274126D01*
X286618D01*
Y261299D01*
X288335D01*
Y258857D01*
X285348Y255870D01*
X277768D01*
Y253014D01*
X275000Y250246D01*
X264804Y260442D01*
X264143Y260884D01*
X263362Y261039D01*
X259498D01*
X259378Y261120D01*
X258500Y261294D01*
X257622Y261120D01*
X256878Y260622D01*
X256381Y259878D01*
X256206Y259000D01*
X256381Y258122D01*
X256878Y257378D01*
X257622Y256880D01*
X258500Y256706D01*
X259378Y256880D01*
X259498Y256961D01*
X262517D01*
X272961Y246517D01*
Y214232D01*
X272130D01*
Y208886D01*
Y203768D01*
X273599D01*
Y201080D01*
X265920Y193401D01*
X265035D01*
X264844Y193863D01*
X267491Y196509D01*
X267794Y196964D01*
X267901Y197500D01*
Y203768D01*
X269370D01*
Y208886D01*
Y211059D01*
X263630D01*
Y208886D01*
Y203768D01*
X265099D01*
Y198080D01*
X262388Y195369D01*
X261369D01*
X261228Y195541D01*
Y196333D01*
X261135Y196799D01*
X260871Y197194D01*
X260476Y197458D01*
X260010Y197551D01*
X259193D01*
Y203232D01*
X259968D01*
Y208547D01*
Y210819D01*
X254031D01*
Y210006D01*
X253570Y209814D01*
X253039Y210345D01*
Y220500D01*
X253039Y220500D01*
X252884Y221280D01*
X252442Y221942D01*
X252442Y221942D01*
X243148Y231236D01*
X243120Y231378D01*
X242622Y232122D01*
X241878Y232620D01*
X241000Y232794D01*
X240122Y232620D01*
X239378Y232122D01*
X238880Y231378D01*
X238706Y230500D01*
X238880Y229622D01*
X239378Y228878D01*
X240122Y228380D01*
X240264Y228352D01*
X248961Y219655D01*
Y209500D01*
X249116Y208720D01*
X249558Y208058D01*
X253172Y204444D01*
X253834Y204002D01*
X254031Y203962D01*
Y203232D01*
X255114D01*
Y197551D01*
X254297D01*
X253831Y197458D01*
X253436Y197194D01*
X253172Y196799D01*
X253079Y196333D01*
Y195541D01*
X253172Y195075D01*
X253254Y194953D01*
X253172Y194830D01*
X253079Y194364D01*
Y193573D01*
X253172Y193107D01*
X253254Y192984D01*
X253172Y192862D01*
X253079Y192396D01*
Y191604D01*
X253172Y191138D01*
X253254Y191016D01*
X253172Y190893D01*
X253079Y190427D01*
Y189636D01*
X253172Y189170D01*
X253254Y189047D01*
X253172Y188925D01*
X253079Y188459D01*
Y187667D01*
X253172Y187201D01*
X253436Y186806D01*
X253831Y186542D01*
X254297Y186449D01*
X260010D01*
X260476Y186542D01*
X260871Y186806D01*
X261135Y187201D01*
X261228Y187667D01*
Y188459D01*
X261369Y188631D01*
X270209D01*
X270378Y188378D01*
X271122Y187881D01*
X272000Y187706D01*
X272878Y187881D01*
X273622Y188378D01*
X274119Y189122D01*
X274294Y190000D01*
X274119Y190878D01*
X273622Y191622D01*
X272878Y192120D01*
X272000Y192294D01*
X271122Y192120D01*
X270378Y191622D01*
X270251Y191432D01*
X268567D01*
X268376Y191894D01*
X275991Y199509D01*
X275991Y199509D01*
X276294Y199964D01*
X276401Y200500D01*
X276401Y200500D01*
Y203768D01*
X277870D01*
Y204057D01*
X287359D01*
X287622Y203881D01*
X288500Y203706D01*
X289378Y203881D01*
X290122Y204378D01*
X290619Y205122D01*
X290794Y206000D01*
X290619Y206878D01*
X290122Y207622D01*
X289378Y208120D01*
X288500Y208294D01*
X287700Y208135D01*
X277870D01*
Y209461D01*
X289772D01*
X293461Y205771D01*
Y199345D01*
X266596Y172480D01*
X241870D01*
Y174099D01*
X243230D01*
X243378Y173878D01*
X244122Y173380D01*
X245000Y173206D01*
X245878Y173380D01*
X246622Y173878D01*
X247119Y174622D01*
X247294Y175500D01*
X247119Y176378D01*
X246622Y177122D01*
X245878Y177620D01*
X245000Y177794D01*
X244122Y177620D01*
X243378Y177122D01*
X243230Y176901D01*
X241870D01*
Y178232D01*
X240275D01*
Y186449D01*
X241703D01*
X242169Y186542D01*
X242564Y186806D01*
X242828Y187201D01*
X242921Y187667D01*
Y188459D01*
X242828Y188925D01*
X242746Y189047D01*
X242828Y189170D01*
X242921Y189636D01*
Y190427D01*
X242828Y190893D01*
X242746Y191016D01*
X242828Y191138D01*
X242900Y191500D01*
X242248D01*
X242169Y191553D01*
X241703Y191646D01*
X238846D01*
X235990D01*
X235524Y191553D01*
X235445Y191500D01*
X234793D01*
X234827Y191326D01*
X234804Y191322D01*
X234350Y191018D01*
X230206Y186875D01*
X229903Y186420D01*
X229796Y185884D01*
Y178232D01*
X228130D01*
Y172886D01*
Y170941D01*
X231000D01*
X233870D01*
Y172886D01*
Y178232D01*
X232598D01*
Y185304D01*
X234410Y187117D01*
X235000Y186999D01*
X235129Y186806D01*
X235524Y186542D01*
X235990Y186449D01*
X237725D01*
Y178232D01*
X236130D01*
Y172886D01*
Y167768D01*
X241870D01*
Y168402D01*
X342214D01*
X352961Y157655D01*
Y154345D01*
X349155Y150539D01*
X327929D01*
Y153000D01*
X325157D01*
Y153500D01*
X324658D01*
Y156468D01*
X317071D01*
Y154816D01*
X316964Y154794D01*
X316509Y154491D01*
X316509Y154491D01*
X278438Y116419D01*
X277976Y116610D01*
Y119494D01*
X316676Y158195D01*
X317071Y158031D01*
Y158031D01*
X324658D01*
Y161000D01*
Y163969D01*
X317071D01*
Y162316D01*
X316964Y162294D01*
X316509Y161991D01*
X275584Y121065D01*
X275280Y120611D01*
X275174Y120075D01*
Y81717D01*
X269079D01*
X269079Y76769D01*
X268898Y76620D01*
X268686Y76620D01*
X266768D01*
Y77565D01*
X266690Y77955D01*
X266469Y78286D01*
X266138Y78507D01*
X265748Y78585D01*
X256299D01*
X255909Y78507D01*
X255578Y78286D01*
X255357Y77955D01*
X255280Y77565D01*
Y68903D01*
X255357Y68513D01*
X255578Y68183D01*
X255909Y67962D01*
X256299Y67884D01*
X259610D01*
Y65557D01*
X259688Y65167D01*
X259909Y64836D01*
X260240Y64615D01*
X260630Y64538D01*
X265748D01*
X266138Y64615D01*
X266469Y64836D01*
X266690Y65167D01*
X266768Y65557D01*
Y69463D01*
X268898D01*
X269288Y69540D01*
X269619Y69761D01*
X269840Y70092D01*
X269917Y70482D01*
Y75600D01*
X269840Y75991D01*
X269789Y76067D01*
X270056Y76567D01*
X271237D01*
Y63362D01*
X271343Y62826D01*
X271647Y62372D01*
X278009Y56009D01*
X278464Y55706D01*
X279000Y55599D01*
X326500D01*
X327036Y55706D01*
X327491Y56009D01*
X344580Y73099D01*
X377099D01*
Y72370D01*
X373882D01*
Y69500D01*
Y66630D01*
X379799D01*
X379990Y66168D01*
X379192Y65370D01*
X373882D01*
Y62500D01*
Y59630D01*
X381173D01*
Y60461D01*
X385250D01*
X386030Y60616D01*
X386692Y61058D01*
X387084Y61450D01*
X388800D01*
Y64619D01*
X388853Y64630D01*
X389308Y64933D01*
X390165Y65790D01*
X390468Y66245D01*
X390575Y66781D01*
Y70119D01*
X390468Y70655D01*
X390165Y71110D01*
X390165Y71110D01*
X384036Y77239D01*
X383581Y77542D01*
X383045Y77649D01*
X341505D01*
X341505Y77649D01*
X340968Y77542D01*
X340514Y77239D01*
X331761Y68486D01*
X331300Y68732D01*
X331335Y68903D01*
Y77565D01*
X331257Y77955D01*
X331036Y78286D01*
X330705Y78507D01*
X330315Y78585D01*
X320866D01*
X320476Y78507D01*
X320145Y78286D01*
X319924Y77955D01*
X319847Y77565D01*
Y76620D01*
X317928D01*
X317717Y76620D01*
X317535Y76769D01*
X317535Y81717D01*
X317346D01*
Y91531D01*
X324658D01*
Y94500D01*
Y97469D01*
X317071D01*
Y95816D01*
X316964Y95794D01*
X316509Y95491D01*
X315839Y94820D01*
X315377Y95012D01*
Y96896D01*
X316715Y98234D01*
X317071Y98532D01*
Y98532D01*
X317071Y98532D01*
X324658D01*
Y101500D01*
Y104469D01*
X317071D01*
Y102532D01*
X317009Y102491D01*
X313871Y99352D01*
X313409Y99543D01*
Y104428D01*
X316080Y107099D01*
X317071D01*
Y105532D01*
X324658D01*
Y108500D01*
Y111469D01*
X317071D01*
Y109901D01*
X315500D01*
X315500Y109901D01*
X314964Y109794D01*
X314509Y109491D01*
X314509Y109491D01*
X311902Y106884D01*
X311440Y107075D01*
Y109459D01*
X316080Y114099D01*
X317071D01*
Y112531D01*
X324658D01*
Y115500D01*
Y118468D01*
X317071D01*
Y116901D01*
X315500D01*
X314964Y116794D01*
X314509Y116491D01*
X314509Y116491D01*
X309934Y111915D01*
X309472Y112106D01*
Y114991D01*
X315580Y121099D01*
X317071D01*
Y119532D01*
X324658D01*
Y122500D01*
Y125469D01*
X317071D01*
Y123901D01*
X315000D01*
X315000Y123901D01*
X314464Y123794D01*
X314009Y123491D01*
X307965Y117446D01*
X307503Y117638D01*
Y120522D01*
X315080Y128099D01*
X317071D01*
Y126532D01*
X324658D01*
Y129500D01*
Y132468D01*
X317071D01*
Y130901D01*
X314500D01*
X313964Y130794D01*
X313509Y130491D01*
X313509Y130491D01*
X305997Y122978D01*
X305535Y123169D01*
Y125554D01*
X315080Y135099D01*
X317071D01*
Y133531D01*
X324658D01*
Y136500D01*
Y139469D01*
X317071D01*
Y137901D01*
X314500D01*
X313964Y137794D01*
X313509Y137491D01*
X313509Y137491D01*
X303143Y127125D01*
X302840Y126670D01*
X302733Y126134D01*
Y81717D01*
X302543D01*
Y79142D01*
Y76567D01*
X308634D01*
Y63294D01*
X308378Y63122D01*
X307880Y62378D01*
X307706Y61500D01*
X307850Y60777D01*
X307556Y60277D01*
X285204D01*
X276007Y69474D01*
Y76567D01*
X285016D01*
Y70498D01*
X283261Y68742D01*
X283000Y68794D01*
X282122Y68619D01*
X281378Y68122D01*
X280880Y67378D01*
X280706Y66500D01*
X280880Y65622D01*
X281378Y64878D01*
X282122Y64381D01*
X283000Y64206D01*
X283878Y64381D01*
X284622Y64878D01*
X285120Y65622D01*
X285294Y66500D01*
X285242Y66761D01*
X287408Y68927D01*
X287712Y69381D01*
X287818Y69917D01*
Y76567D01*
X288953D01*
Y68173D01*
X288878Y68122D01*
X288381Y67378D01*
X288206Y66500D01*
X288381Y65622D01*
X288878Y64878D01*
X289622Y64381D01*
X290500Y64206D01*
X291378Y64381D01*
X292122Y64878D01*
X292619Y65622D01*
X292794Y66500D01*
X292619Y67378D01*
X292122Y68122D01*
X291755Y68367D01*
Y71702D01*
X292255Y71752D01*
X292380Y71122D01*
X292878Y70378D01*
X293622Y69881D01*
X294500Y69706D01*
X295378Y69881D01*
X296122Y70378D01*
X296620Y71122D01*
X296794Y72000D01*
X296620Y72878D01*
X296122Y73622D01*
X295692Y73909D01*
Y76567D01*
X301788D01*
Y79142D01*
Y81717D01*
X301598D01*
Y128617D01*
X315080Y142099D01*
X317071D01*
Y140532D01*
X324658D01*
Y143500D01*
X325157D01*
Y144000D01*
X327929D01*
Y146461D01*
X350000D01*
X350780Y146616D01*
X351442Y147058D01*
X352499Y148115D01*
X352961Y147924D01*
Y114998D01*
X352881Y114878D01*
X352706Y114000D01*
X352881Y113122D01*
X353378Y112378D01*
X354122Y111881D01*
X354264Y111852D01*
X361058Y105058D01*
X361720Y104616D01*
X362500Y104461D01*
X382000D01*
X382780Y104616D01*
X383442Y105058D01*
X386114Y107730D01*
X386114Y107730D01*
X386556Y108391D01*
X386711Y109172D01*
Y115828D01*
X386556Y116609D01*
X386114Y117270D01*
X382992Y120392D01*
X382330Y120834D01*
X381550Y120989D01*
X376613D01*
X376425Y121115D01*
X376396Y121651D01*
X376732Y121961D01*
X384000D01*
X384780Y122116D01*
X385442Y122558D01*
X387942Y125058D01*
X388384Y125720D01*
X388539Y126500D01*
Y268000D01*
X388384Y268780D01*
X387942Y269442D01*
X377442Y279942D01*
X376780Y280384D01*
X376000Y280539D01*
X371992D01*
Y281461D01*
X380655D01*
X390961Y271155D01*
Y134998D01*
X390880Y134878D01*
X390706Y134000D01*
X390880Y133122D01*
X391378Y132378D01*
X392122Y131880D01*
X393000Y131706D01*
X393878Y131880D01*
X394622Y132378D01*
X395120Y133122D01*
X395294Y134000D01*
X395120Y134878D01*
X395039Y134998D01*
Y272000D01*
X394884Y272780D01*
X394442Y273442D01*
X394442Y273442D01*
X382942Y284942D01*
X382280Y285384D01*
X381500Y285539D01*
X371992D01*
Y290925D01*
Y296075D01*
Y309055D01*
X405512D01*
Y0D01*
D02*
G37*
G36*
X317071Y150531D02*
Y150531D01*
X320040D01*
X320192Y150031D01*
X320058Y149942D01*
X319172Y149056D01*
X318730Y148395D01*
X318575Y147614D01*
Y146468D01*
X317071D01*
Y144901D01*
X314500D01*
X314500Y144901D01*
X313964Y144794D01*
X313509Y144491D01*
X313509Y144491D01*
X299206Y130187D01*
X297238Y128219D01*
X296934Y127764D01*
X296827Y127228D01*
Y118467D01*
X296327Y118315D01*
X296122Y118622D01*
X295378Y119120D01*
X294500Y119294D01*
X293622Y119120D01*
X292878Y118622D01*
X292380Y117878D01*
X292206Y117000D01*
X292258Y116739D01*
X287261Y111743D01*
X286958Y111288D01*
X286851Y110752D01*
Y82248D01*
X286880Y82103D01*
X286563Y81717D01*
X279944D01*
Y113963D01*
X316676Y150695D01*
X317071Y150531D01*
D02*
G37*
G36*
X384461Y141557D02*
Y127345D01*
X383155Y126039D01*
X376538D01*
X376425Y126114D01*
X376396Y126651D01*
X376732Y126961D01*
X380502D01*
X380622Y126881D01*
X381000Y126805D01*
Y129000D01*
X381500D01*
Y129500D01*
X383695D01*
X383619Y129878D01*
X383122Y130622D01*
X382378Y131120D01*
X381746Y131245D01*
Y131755D01*
X382378Y131880D01*
X383122Y132378D01*
X383619Y133122D01*
X383794Y134000D01*
X383619Y134878D01*
X383122Y135622D01*
X382378Y136119D01*
X381500Y136294D01*
X380622Y136119D01*
X380502Y136039D01*
X376538D01*
X376298Y136199D01*
Y136801D01*
X376838Y137162D01*
X376845Y137171D01*
X379210D01*
X379991Y137327D01*
X380652Y137769D01*
X383442Y140558D01*
X383884Y141220D01*
X383961Y141606D01*
X384461Y141557D01*
D02*
G37*
G36*
X296827Y115533D02*
Y102467D01*
X296327Y102315D01*
X296122Y102622D01*
X295378Y103120D01*
X294500Y103294D01*
X293622Y103120D01*
X292878Y102622D01*
X292380Y101878D01*
X292206Y101000D01*
X292258Y100739D01*
X290115Y98596D01*
X289653Y98787D01*
Y110172D01*
X294239Y114758D01*
X294500Y114706D01*
X295378Y114881D01*
X296122Y115378D01*
X296327Y115685D01*
X296827Y115533D01*
D02*
G37*
G36*
Y99533D02*
Y87467D01*
X296327Y87315D01*
X296122Y87622D01*
X295378Y88119D01*
X294500Y88294D01*
X293622Y88119D01*
X292878Y87622D01*
X292380Y86878D01*
X292206Y86000D01*
X292334Y85354D01*
X291874Y85108D01*
X291401Y85580D01*
Y95920D01*
X294239Y98758D01*
X294500Y98706D01*
X295378Y98881D01*
X296122Y99378D01*
X296327Y99685D01*
X296827Y99533D01*
D02*
G37*
G36*
X330315Y68903D02*
X325984D01*
Y65557D01*
X320866D01*
Y77565D01*
X330315D01*
Y68903D01*
D02*
G37*
G36*
X265748Y65557D02*
X260630D01*
Y68903D01*
X256299D01*
Y77565D01*
X265748D01*
Y65557D01*
D02*
G37*
G36*
X316826Y76067D02*
X316775Y75991D01*
X316697Y75600D01*
Y70482D01*
X316775Y70092D01*
X316996Y69761D01*
X317326Y69540D01*
X317717Y69463D01*
X319847D01*
Y65557D01*
X319924Y65167D01*
X320145Y64836D01*
X320476Y64615D01*
X320866Y64538D01*
X325984D01*
X326375Y64615D01*
X326705Y64836D01*
X326926Y65167D01*
X327004Y65557D01*
Y67884D01*
X330315D01*
X330486Y67918D01*
X330733Y67457D01*
X323552Y60277D01*
X312444D01*
X312150Y60777D01*
X312294Y61500D01*
X312120Y62378D01*
X311622Y63122D01*
X311436Y63246D01*
Y63955D01*
X311553Y63999D01*
X311936Y64038D01*
X312378Y63378D01*
X313122Y62881D01*
X314000Y62706D01*
X314878Y62881D01*
X315622Y63378D01*
X316120Y64122D01*
X316294Y65000D01*
X316120Y65878D01*
X315622Y66622D01*
X315381Y66783D01*
Y76567D01*
X316558D01*
X316826Y76067D01*
D02*
G37*
G36*
X282656Y58863D02*
X282465Y58401D01*
X279580D01*
X274039Y63942D01*
Y66827D01*
X274501Y67018D01*
X282656Y58863D01*
D02*
G37*
%LPC*%
G36*
X96472Y307421D02*
X93217D01*
Y304854D01*
X96472D01*
Y307421D01*
D02*
G37*
G36*
X82299D02*
X79043D01*
Y304854D01*
X82299D01*
Y307421D01*
D02*
G37*
G36*
X92216D02*
X88961D01*
Y304854D01*
X92216D01*
Y307421D01*
D02*
G37*
G36*
X78043D02*
X74787D01*
Y304854D01*
X78043D01*
Y307421D01*
D02*
G37*
G36*
X96472Y303854D02*
X92716D01*
X88961D01*
Y300685D01*
X82299D01*
Y303854D01*
X78543D01*
X74787D01*
Y301287D01*
Y295579D01*
X82299D01*
Y296606D01*
X88961D01*
Y295579D01*
X93589D01*
X99955Y289212D01*
X100058Y289058D01*
X100720Y288616D01*
X101500Y288461D01*
X196155Y288461D01*
X201961Y282655D01*
Y255172D01*
X202116Y254391D01*
X202558Y253730D01*
X209230Y247058D01*
X209891Y246616D01*
X210672Y246461D01*
X212502D01*
X212622Y246380D01*
X213500Y246206D01*
X214378Y246380D01*
X215122Y246878D01*
X215619Y247622D01*
X215794Y248500D01*
X215619Y249378D01*
X215122Y250122D01*
X214378Y250620D01*
X213500Y250794D01*
X212622Y250620D01*
X212502Y250539D01*
X211516D01*
X206039Y256016D01*
Y283500D01*
X205884Y284280D01*
X205442Y284942D01*
X205442Y284942D01*
X198442Y291942D01*
X197780Y292384D01*
X197000Y292539D01*
X102396Y292539D01*
X98863Y296072D01*
X99055Y296534D01*
X100768D01*
Y295630D01*
X111232D01*
Y296264D01*
X198852D01*
X207461Y287655D01*
Y259998D01*
X207381Y259878D01*
X207206Y259000D01*
X207381Y258122D01*
X207878Y257378D01*
X208622Y256880D01*
X209500Y256706D01*
X210378Y256880D01*
X211122Y257378D01*
X211619Y258122D01*
X211794Y259000D01*
X211619Y259878D01*
X211539Y259998D01*
Y288500D01*
X211384Y289280D01*
X210942Y289942D01*
X201139Y299745D01*
X200477Y300187D01*
X199697Y300342D01*
X111232D01*
Y301370D01*
X100768D01*
Y300612D01*
X96472D01*
Y301287D01*
Y303854D01*
D02*
G37*
G36*
X254988Y301215D02*
X253520D01*
Y295768D01*
X257982D01*
Y298220D01*
X257880Y298995D01*
X257581Y299717D01*
X257105Y300338D01*
X256485Y300814D01*
X255763Y301113D01*
X254988Y301215D01*
D02*
G37*
G36*
X219949D02*
X218480D01*
Y295768D01*
X222943D01*
Y298220D01*
X222841Y298995D01*
X222542Y299717D01*
X222066Y300338D01*
X221446Y300814D01*
X220724Y301113D01*
X219949Y301215D01*
D02*
G37*
G36*
X217480D02*
X216012D01*
X215237Y301113D01*
X214515Y300814D01*
X213895Y300338D01*
X213419Y299717D01*
X213120Y298995D01*
X213018Y298220D01*
Y295768D01*
X217480D01*
Y301215D01*
D02*
G37*
G36*
X252520D02*
X251051D01*
X250276Y301113D01*
X249554Y300814D01*
X248934Y300338D01*
X248458Y299717D01*
X248159Y298995D01*
X248057Y298220D01*
Y295768D01*
X252520D01*
Y301215D01*
D02*
G37*
G36*
X278382Y300701D02*
X275126D01*
Y294787D01*
X278382D01*
Y300701D01*
D02*
G37*
G36*
X274126D02*
X270870D01*
Y294787D01*
X274126D01*
Y300701D01*
D02*
G37*
G36*
X393701Y304183D02*
X392347Y304050D01*
X391045Y303655D01*
X389846Y303014D01*
X388794Y302151D01*
X387931Y301099D01*
X387290Y299900D01*
X386895Y298598D01*
X386762Y297244D01*
X386895Y295890D01*
X387290Y294589D01*
X387931Y293389D01*
X388794Y292337D01*
X389846Y291475D01*
X391045Y290833D01*
X392347Y290439D01*
X393701Y290305D01*
X395055Y290439D01*
X396356Y290833D01*
X397556Y291475D01*
X398607Y292337D01*
X399470Y293389D01*
X400111Y294589D01*
X400506Y295890D01*
X400640Y297244D01*
X400506Y298598D01*
X400111Y299900D01*
X399470Y301099D01*
X398607Y302151D01*
X397556Y303014D01*
X396356Y303655D01*
X395055Y304050D01*
X393701Y304183D01*
D02*
G37*
G36*
X11811D02*
X10457Y304050D01*
X9156Y303655D01*
X7956Y303014D01*
X6904Y302151D01*
X6041Y301099D01*
X5400Y299900D01*
X5005Y298598D01*
X4872Y297244D01*
X5005Y295890D01*
X5400Y294589D01*
X6041Y293389D01*
X6904Y292337D01*
X7956Y291475D01*
X9156Y290833D01*
X10457Y290439D01*
X11811Y290305D01*
X13165Y290439D01*
X14466Y290833D01*
X15666Y291475D01*
X16718Y292337D01*
X17581Y293389D01*
X18222Y294589D01*
X18617Y295890D01*
X18750Y297244D01*
X18617Y298598D01*
X18222Y299900D01*
X17581Y301099D01*
X16718Y302151D01*
X15666Y303014D01*
X14466Y303655D01*
X13165Y304050D01*
X11811Y304183D01*
D02*
G37*
G36*
X257982Y294768D02*
X253520D01*
Y289321D01*
X254988D01*
X255763Y289423D01*
X256485Y289722D01*
X257105Y290198D01*
X257581Y290818D01*
X257880Y291540D01*
X257982Y292315D01*
Y294768D01*
D02*
G37*
G36*
X252520D02*
X248057D01*
Y292315D01*
X248159Y291540D01*
X248458Y290818D01*
X248934Y290198D01*
X249554Y289722D01*
X250276Y289423D01*
X251051Y289321D01*
X252520D01*
Y294768D01*
D02*
G37*
G36*
X222943D02*
X218480D01*
Y289321D01*
X219949D01*
X220724Y289423D01*
X221446Y289722D01*
X222066Y290198D01*
X222542Y290818D01*
X222841Y291540D01*
X222943Y292315D01*
Y294768D01*
D02*
G37*
G36*
X217480D02*
X213018D01*
Y292315D01*
X213120Y291540D01*
X213419Y290818D01*
X213895Y290198D01*
X214515Y289722D01*
X215237Y289423D01*
X216012Y289321D01*
X217480D01*
Y294768D01*
D02*
G37*
G36*
X278382Y293787D02*
X275126D01*
Y287874D01*
X278382D01*
Y293787D01*
D02*
G37*
G36*
X274126D02*
X270870D01*
Y287874D01*
X274126D01*
Y293787D01*
D02*
G37*
G36*
X244161Y286764D02*
X243438Y286669D01*
X242764Y286389D01*
X242185Y285945D01*
X241740Y285366D01*
X241461Y284692D01*
X241366Y283968D01*
X241461Y283245D01*
X241740Y282571D01*
X242185Y281992D01*
X242764Y281547D01*
X243438Y281268D01*
X244161Y281173D01*
X244885Y281268D01*
X245559Y281547D01*
X246138Y281992D01*
X246583Y282571D01*
X246862Y283245D01*
X246957Y283968D01*
X246862Y284692D01*
X246583Y285366D01*
X246138Y285945D01*
X245559Y286389D01*
X244885Y286669D01*
X244161Y286764D01*
D02*
G37*
G36*
X226839D02*
X226115Y286669D01*
X225441Y286389D01*
X224862Y285945D01*
X224417Y285366D01*
X224138Y284692D01*
X224043Y283968D01*
X224138Y283245D01*
X224417Y282571D01*
X224862Y281992D01*
X225441Y281547D01*
X226115Y281268D01*
X226839Y281173D01*
X227562Y281268D01*
X228236Y281547D01*
X228815Y281992D01*
X229260Y282571D01*
X229539Y283245D01*
X229634Y283968D01*
X229539Y284692D01*
X229260Y285366D01*
X228815Y285945D01*
X228236Y286389D01*
X227562Y286669D01*
X226839Y286764D01*
D02*
G37*
G36*
X254988Y279758D02*
X253520D01*
Y274311D01*
X257982D01*
Y276764D01*
X257880Y277539D01*
X257581Y278261D01*
X257105Y278881D01*
X256485Y279357D01*
X255763Y279656D01*
X254988Y279758D01*
D02*
G37*
G36*
X252520D02*
X251051D01*
X250276Y279656D01*
X249554Y279357D01*
X248934Y278881D01*
X248458Y278261D01*
X248159Y277539D01*
X248057Y276764D01*
Y274311D01*
X252520D01*
Y279758D01*
D02*
G37*
G36*
X219949D02*
X218480D01*
Y274311D01*
X222943D01*
Y276764D01*
X222841Y277539D01*
X222542Y278261D01*
X222066Y278881D01*
X221446Y279357D01*
X220724Y279656D01*
X219949Y279758D01*
D02*
G37*
G36*
X217480D02*
X216012D01*
X215237Y279656D01*
X214515Y279357D01*
X213895Y278881D01*
X213419Y278261D01*
X213120Y277539D01*
X213018Y276764D01*
Y274311D01*
X217480D01*
Y279758D01*
D02*
G37*
G36*
X228701Y278866D02*
X227217D01*
Y273937D01*
X228701D01*
Y278866D01*
D02*
G37*
G36*
X278382Y274126D02*
X275126D01*
Y268213D01*
X278382D01*
Y274126D01*
D02*
G37*
G36*
X274126D02*
X270870D01*
Y268213D01*
X274126D01*
Y274126D01*
D02*
G37*
G36*
X228701Y272937D02*
X227217D01*
Y268008D01*
X228701D01*
Y272937D01*
D02*
G37*
G36*
X257982Y273311D02*
X253520D01*
Y267864D01*
X254988D01*
X255763Y267966D01*
X256485Y268265D01*
X257105Y268741D01*
X257581Y269361D01*
X257880Y270083D01*
X257982Y270858D01*
Y273311D01*
D02*
G37*
G36*
X252520D02*
X248057D01*
Y270858D01*
X248159Y270083D01*
X248458Y269361D01*
X248934Y268741D01*
X249554Y268265D01*
X250276Y267966D01*
X251051Y267864D01*
X252520D01*
Y273311D01*
D02*
G37*
G36*
X222943Y273311D02*
X218480D01*
Y267864D01*
X219949D01*
X220724Y267966D01*
X221446Y268265D01*
X222066Y268741D01*
X222542Y269361D01*
X222841Y270083D01*
X222943Y270858D01*
Y273311D01*
D02*
G37*
G36*
X217480D02*
X213018D01*
Y270858D01*
X213120Y270083D01*
X213419Y269361D01*
X213895Y268741D01*
X214515Y268265D01*
X215237Y267966D01*
X216012Y267864D01*
X217480D01*
Y273311D01*
D02*
G37*
G36*
X320811Y273000D02*
X315874D01*
X310937D01*
Y270925D01*
Y265539D01*
X299998D01*
X299878Y265619D01*
X299000Y265794D01*
X298122Y265619D01*
X297378Y265122D01*
X296881Y264378D01*
X296706Y263500D01*
X296881Y262622D01*
X297378Y261878D01*
X298122Y261381D01*
X299000Y261206D01*
X299878Y261381D01*
X299998Y261461D01*
X310937D01*
Y255925D01*
Y250539D01*
X291498D01*
X291378Y250620D01*
X290500Y250794D01*
X289622Y250620D01*
X288878Y250122D01*
X288381Y249378D01*
X288206Y248500D01*
X288381Y247622D01*
X288878Y246878D01*
X289622Y246380D01*
X290500Y246206D01*
X291378Y246380D01*
X291498Y246461D01*
X310937D01*
Y245925D01*
X320811D01*
Y250925D01*
Y255925D01*
Y260925D01*
Y265925D01*
Y270925D01*
Y273000D01*
D02*
G37*
G36*
X278382Y267213D02*
X275126D01*
Y261299D01*
X278382D01*
Y267213D01*
D02*
G37*
G36*
X274126D02*
X270870D01*
Y261299D01*
X274126D01*
Y267213D01*
D02*
G37*
G36*
X361362Y293575D02*
X354638D01*
Y288425D01*
Y283425D01*
Y278425D01*
Y273425D01*
Y268425D01*
Y263425D01*
Y258425D01*
Y254050D01*
X354138Y253843D01*
X347901Y260080D01*
Y262730D01*
X348122Y262878D01*
X348620Y263622D01*
X348794Y264500D01*
X348620Y265378D01*
X348122Y266122D01*
X347378Y266619D01*
X346500Y266794D01*
X345622Y266619D01*
X344878Y266122D01*
X344380Y265378D01*
X344206Y264500D01*
X344380Y263622D01*
X344878Y262878D01*
X345099Y262730D01*
Y259500D01*
X345206Y258964D01*
X345509Y258509D01*
X352838Y251181D01*
X352631Y250681D01*
X323890D01*
Y243957D01*
X355964D01*
Y247319D01*
X356465D01*
Y247819D01*
X359039D01*
Y249826D01*
X359501Y250017D01*
X361509Y248009D01*
X361964Y247706D01*
X362118Y247675D01*
Y245925D01*
X371992D01*
Y250925D01*
Y253000D01*
X367055D01*
X362118D01*
Y252016D01*
X361656Y251825D01*
X360556Y252925D01*
X360605Y253190D01*
X360740Y253425D01*
X361362D01*
Y258425D01*
Y263425D01*
Y268425D01*
Y273425D01*
Y278425D01*
Y283425D01*
Y288425D01*
Y293575D01*
D02*
G37*
G36*
X359039Y246819D02*
X356964D01*
Y243957D01*
X359039D01*
Y246819D01*
D02*
G37*
G36*
X269370Y214232D02*
X267000D01*
Y212059D01*
X269370D01*
Y214232D01*
D02*
G37*
G36*
X266000D02*
X263630D01*
Y212059D01*
X266000D01*
Y214232D01*
D02*
G37*
G36*
X259968Y214090D02*
X257500D01*
Y211819D01*
X259968D01*
Y214090D01*
D02*
G37*
G36*
X256500D02*
X254031D01*
Y211819D01*
X256500D01*
Y214090D01*
D02*
G37*
G36*
X237968D02*
X235500D01*
Y211819D01*
X237968D01*
Y214090D01*
D02*
G37*
G36*
X234500D02*
X232031D01*
Y211819D01*
X234500D01*
Y214090D01*
D02*
G37*
G36*
X251000Y202195D02*
X250622Y202119D01*
X249878Y201622D01*
X249622D01*
X248878Y202119D01*
X248500Y202195D01*
Y200000D01*
Y197805D01*
X248878Y197880D01*
X249622Y198378D01*
X249878D01*
X250622Y197880D01*
X251000Y197805D01*
Y200000D01*
Y202195D01*
D02*
G37*
G36*
X247500D02*
X247122Y202119D01*
X246378Y201622D01*
X246122D01*
X245378Y202119D01*
X245000Y202195D01*
Y200000D01*
Y197805D01*
X245378Y197880D01*
X246122Y198378D01*
X246378D01*
X247122Y197880D01*
X247500Y197805D01*
Y200000D01*
Y202195D01*
D02*
G37*
G36*
X334075Y203343D02*
X332000D01*
Y201366D01*
X334075D01*
Y203343D01*
D02*
G37*
G36*
X331000D02*
X328925D01*
Y201366D01*
X331000D01*
Y203343D01*
D02*
G37*
G36*
X324075D02*
X322000D01*
Y201366D01*
X324075D01*
Y203343D01*
D02*
G37*
G36*
X321000D02*
X318925D01*
Y201366D01*
X321000D01*
Y203343D01*
D02*
G37*
G36*
X252000Y202195D02*
Y200500D01*
X253695D01*
X253620Y200878D01*
X253122Y201622D01*
X252378Y202119D01*
X252000Y202195D01*
D02*
G37*
G36*
X244000D02*
X243622Y202119D01*
X242878Y201622D01*
X242380Y200878D01*
X242305Y200500D01*
X244000D01*
Y202195D01*
D02*
G37*
G36*
X253695Y199500D02*
X252000D01*
Y197805D01*
X252378Y197880D01*
X253122Y198378D01*
X253620Y199122D01*
X253695Y199500D01*
D02*
G37*
G36*
X244000D02*
X242305D01*
X242380Y199122D01*
X242878Y198378D01*
X243622Y197880D01*
X244000Y197805D01*
Y199500D01*
D02*
G37*
G36*
X250905Y196724D02*
X248500D01*
Y192500D01*
X252114D01*
Y195515D01*
X252022Y195978D01*
X251760Y196370D01*
X251368Y196632D01*
X250905Y196724D01*
D02*
G37*
G36*
X247500D02*
X245095D01*
X244632Y196632D01*
X244240Y196370D01*
X243978Y195978D01*
X243886Y195515D01*
Y192500D01*
X247500D01*
Y196724D01*
D02*
G37*
G36*
X243783Y278866D02*
X229701D01*
Y273437D01*
Y268008D01*
X239760D01*
Y261144D01*
X226558Y247942D01*
X226116Y247280D01*
X225961Y246500D01*
Y209845D01*
X222058Y205942D01*
X221616Y205280D01*
X221461Y204500D01*
Y196998D01*
X221380Y196878D01*
X221206Y196000D01*
X221380Y195122D01*
X221878Y194378D01*
X222622Y193880D01*
X223500Y193706D01*
X224378Y193880D01*
X225122Y194378D01*
X225620Y195122D01*
X225794Y196000D01*
X225620Y196878D01*
X225539Y196998D01*
Y203655D01*
X227437Y205553D01*
X228590Y204401D01*
X229251Y203959D01*
X230031Y203803D01*
X232031D01*
Y203232D01*
X233216D01*
Y196663D01*
X233351Y195981D01*
X233426Y195869D01*
X233159Y195369D01*
X232968D01*
X232432Y195263D01*
X231978Y194959D01*
X222009Y184991D01*
X221706Y184536D01*
X221599Y184000D01*
Y178232D01*
X220130D01*
Y172886D01*
Y170941D01*
X223000D01*
X225870D01*
Y172886D01*
Y178232D01*
X224401D01*
Y183420D01*
X233549Y192568D01*
X234631D01*
X234686Y192500D01*
X235445D01*
X235524Y192447D01*
X235990Y192354D01*
X238846D01*
X241703D01*
X242169Y192447D01*
X242248Y192500D01*
X242900D01*
X242828Y192862D01*
X242746Y192984D01*
X242828Y193107D01*
X242921Y193573D01*
Y194364D01*
X242828Y194830D01*
X242746Y194953D01*
X242828Y195075D01*
X242921Y195541D01*
Y196333D01*
X242828Y196799D01*
X242564Y197194D01*
X242169Y197458D01*
X241703Y197551D01*
X240121D01*
X240108Y197571D01*
X239529Y197958D01*
X238846Y198093D01*
X236784D01*
Y203232D01*
X237968D01*
Y208547D01*
Y210819D01*
X232031D01*
Y207882D01*
X230876D01*
X230039Y208719D01*
Y209000D01*
Y245655D01*
X243241Y258857D01*
X243683Y259519D01*
X243838Y260299D01*
Y273437D01*
X243783Y273713D01*
Y278866D01*
D02*
G37*
G36*
X252114Y191500D02*
X248500D01*
Y187276D01*
X250905D01*
X251368Y187368D01*
X251760Y187630D01*
X252022Y188022D01*
X252114Y188485D01*
Y191500D01*
D02*
G37*
G36*
X247500D02*
X243886D01*
Y188485D01*
X243978Y188022D01*
X244240Y187630D01*
X244632Y187368D01*
X245095Y187276D01*
X247500D01*
Y191500D01*
D02*
G37*
G36*
X251000Y186195D02*
X250622Y186119D01*
X249878Y185622D01*
X249622D01*
X248878Y186119D01*
X248500Y186195D01*
Y184000D01*
Y181805D01*
X248878Y181880D01*
X249622Y182378D01*
X249878D01*
X250622Y181880D01*
X251000Y181805D01*
Y184000D01*
Y186195D01*
D02*
G37*
G36*
X247500D02*
X247122Y186119D01*
X246378Y185622D01*
X246122D01*
X245378Y186119D01*
X245000Y186195D01*
Y184000D01*
Y181805D01*
X245378Y181880D01*
X246122Y182378D01*
X246378D01*
X247122Y181880D01*
X247500Y181805D01*
Y184000D01*
Y186195D01*
D02*
G37*
G36*
X252000D02*
Y184500D01*
X253695D01*
X253620Y184878D01*
X253122Y185622D01*
X252378Y186119D01*
X252000Y186195D01*
D02*
G37*
G36*
X244000D02*
X243622Y186119D01*
X242878Y185622D01*
X242380Y184878D01*
X242305Y184500D01*
X244000D01*
Y186195D01*
D02*
G37*
G36*
X281000Y227794D02*
X280122Y227620D01*
X279378Y227122D01*
X278881Y226378D01*
X278706Y225500D01*
X278881Y224622D01*
X279378Y223878D01*
X280122Y223380D01*
X280264Y223352D01*
X286058Y217558D01*
X286720Y217116D01*
X287500Y216961D01*
X292155D01*
X299961Y209155D01*
Y193000D01*
X300116Y192220D01*
X300558Y191558D01*
X309558Y182558D01*
X310220Y182116D01*
X311000Y181961D01*
X343500D01*
X344280Y182116D01*
X344942Y182558D01*
X355442Y193058D01*
X355884Y193720D01*
X356039Y194500D01*
Y211502D01*
X356119Y211622D01*
X356294Y212500D01*
X356119Y213378D01*
X355622Y214122D01*
X354878Y214619D01*
X354000Y214794D01*
X353122Y214619D01*
X352378Y214122D01*
X351881Y213378D01*
X351706Y212500D01*
X351881Y211622D01*
X351961Y211502D01*
Y195345D01*
X342655Y186039D01*
X311845D01*
X304039Y193845D01*
Y210000D01*
X303884Y210780D01*
X303442Y211442D01*
X294442Y220442D01*
X293780Y220884D01*
X293000Y221039D01*
X288345D01*
X283148Y226236D01*
X283120Y226378D01*
X282622Y227122D01*
X281878Y227620D01*
X281000Y227794D01*
D02*
G37*
G36*
X253695Y183500D02*
X252000D01*
Y181805D01*
X252378Y181880D01*
X253122Y182378D01*
X253620Y183122D01*
X253695Y183500D01*
D02*
G37*
G36*
X244000D02*
X242305D01*
X242380Y183122D01*
X242878Y182378D01*
X243622Y181880D01*
X244000Y181805D01*
Y183500D01*
D02*
G37*
G36*
X233870Y169941D02*
X231500D01*
Y167768D01*
X233870D01*
Y169941D01*
D02*
G37*
G36*
X230500D02*
X228130D01*
Y167768D01*
X230500D01*
Y169941D01*
D02*
G37*
G36*
X225870D02*
X223500D01*
Y167768D01*
X225870D01*
Y169941D01*
D02*
G37*
G36*
X222500D02*
X220130D01*
Y167768D01*
X222500D01*
Y169941D01*
D02*
G37*
G36*
X327929Y163969D02*
X325658D01*
Y161500D01*
X327929D01*
Y163969D01*
D02*
G37*
G36*
Y160500D02*
X325658D01*
Y158031D01*
X327929D01*
Y160500D01*
D02*
G37*
G36*
Y156468D02*
X325658D01*
Y154000D01*
X327929D01*
Y156468D01*
D02*
G37*
G36*
X12799Y151307D02*
X11118D01*
Y147756D01*
X12799D01*
Y151307D01*
D02*
G37*
G36*
Y146756D02*
X11118D01*
Y143205D01*
X12799D01*
Y146756D01*
D02*
G37*
G36*
X327929Y143000D02*
X325658D01*
Y140532D01*
X327929D01*
Y143000D01*
D02*
G37*
G36*
Y139469D02*
X325658D01*
Y137000D01*
X327929D01*
Y139469D01*
D02*
G37*
G36*
Y136000D02*
X325658D01*
Y133531D01*
X327929D01*
Y136000D01*
D02*
G37*
G36*
Y132468D02*
X325658D01*
Y130000D01*
X327929D01*
Y132468D01*
D02*
G37*
G36*
X26898Y136543D02*
X20173D01*
Y127457D01*
X26898D01*
Y136543D01*
D02*
G37*
G36*
X10362D02*
X3638D01*
Y127457D01*
X10362D01*
Y136543D01*
D02*
G37*
G36*
X327929Y129000D02*
X325658D01*
Y126532D01*
X327929D01*
Y129000D01*
D02*
G37*
G36*
Y125469D02*
X325658D01*
Y123000D01*
X327929D01*
Y125469D01*
D02*
G37*
G36*
X225870Y121803D02*
X223500D01*
Y119630D01*
X225870D01*
Y121803D01*
D02*
G37*
G36*
X222500D02*
X220130D01*
Y119630D01*
X222500D01*
Y121803D01*
D02*
G37*
G36*
X327929Y122000D02*
X325658D01*
Y119532D01*
X327929D01*
Y122000D01*
D02*
G37*
G36*
X237469Y121705D02*
X235000D01*
Y119433D01*
X237469D01*
Y121705D01*
D02*
G37*
G36*
X234000D02*
X231532D01*
Y119433D01*
X234000D01*
Y121705D01*
D02*
G37*
G36*
X327929Y118468D02*
X325658D01*
Y116000D01*
X327929D01*
Y118468D01*
D02*
G37*
G36*
Y115000D02*
X325658D01*
Y112531D01*
X327929D01*
Y115000D01*
D02*
G37*
G36*
Y111469D02*
X325658D01*
Y109000D01*
X327929D01*
Y111469D01*
D02*
G37*
G36*
Y108000D02*
X325658D01*
Y105532D01*
X327929D01*
Y108000D01*
D02*
G37*
G36*
Y104469D02*
X325658D01*
Y102000D01*
X327929D01*
Y104469D01*
D02*
G37*
G36*
Y101000D02*
X325658D01*
Y98532D01*
X327929D01*
Y101000D01*
D02*
G37*
G36*
Y97469D02*
X325658D01*
Y95000D01*
X327929D01*
Y97469D01*
D02*
G37*
G36*
Y94000D02*
X325658D01*
Y91531D01*
X327929D01*
Y94000D01*
D02*
G37*
G36*
X372882Y72370D02*
X370709D01*
Y70000D01*
X372882D01*
Y72370D01*
D02*
G37*
G36*
Y69000D02*
X370709D01*
Y66630D01*
X372882D01*
Y69000D01*
D02*
G37*
G36*
Y65370D02*
X370709D01*
Y63000D01*
X372882D01*
Y65370D01*
D02*
G37*
G36*
Y62000D02*
X370709D01*
Y59630D01*
X372882D01*
Y62000D01*
D02*
G37*
G36*
X388008Y45169D02*
X381992D01*
Y43838D01*
X379812D01*
X379622Y44122D01*
X378878Y44620D01*
X378000Y44794D01*
X377122Y44620D01*
X376378Y44122D01*
X375881Y43378D01*
X375706Y42500D01*
X375881Y41622D01*
X376378Y40878D01*
X377122Y40380D01*
X378000Y40206D01*
X378878Y40380D01*
X379622Y40878D01*
X379728Y41036D01*
X381992D01*
Y39705D01*
X388008D01*
Y45169D01*
D02*
G37*
G36*
X374008D02*
X371500D01*
Y42937D01*
X374008D01*
Y45169D01*
D02*
G37*
G36*
X370500D02*
X367992D01*
Y42937D01*
X370500D01*
Y45169D01*
D02*
G37*
G36*
X374008Y41937D02*
X371500D01*
Y39705D01*
X374008D01*
Y41937D01*
D02*
G37*
G36*
X370500D02*
X367992D01*
Y39705D01*
X370500D01*
Y41937D01*
D02*
G37*
G36*
X348500Y50294D02*
X347622Y50120D01*
X346878Y49622D01*
X346380Y48878D01*
X346206Y48000D01*
X346380Y47122D01*
X346878Y46378D01*
X347622Y45880D01*
X348500Y45706D01*
X349378Y45880D01*
X350122Y46378D01*
X350270Y46599D01*
X352420D01*
X353615Y45404D01*
X353492Y45106D01*
X353492D01*
Y39642D01*
X359508D01*
Y45106D01*
X357747D01*
X357491Y45491D01*
X353991Y48991D01*
X353536Y49294D01*
X353000Y49401D01*
X350270D01*
X350122Y49622D01*
X349378Y50120D01*
X348500Y50294D01*
D02*
G37*
G36*
X354000Y70294D02*
X353122Y70119D01*
X352378Y69622D01*
X351881Y68878D01*
X351852Y68736D01*
X328058Y44942D01*
X327616Y44280D01*
X327461Y43500D01*
Y40929D01*
X326532D01*
Y35386D01*
Y33342D01*
X329500D01*
X332469D01*
Y35386D01*
Y38045D01*
X332545Y38122D01*
X334685D01*
Y37587D01*
X347315D01*
Y42736D01*
X334685D01*
Y42201D01*
X331701D01*
X331670Y42226D01*
X331641Y42757D01*
X354736Y65852D01*
X354878Y65881D01*
X355622Y66378D01*
X356119Y67122D01*
X356294Y68000D01*
X356119Y68878D01*
X355622Y69622D01*
X354878Y70119D01*
X354000Y70294D01*
D02*
G37*
G36*
X395800Y68100D02*
X391200D01*
Y63900D01*
X391961D01*
Y32845D01*
X390218Y31102D01*
X388008D01*
Y32295D01*
X381992D01*
Y26831D01*
X382961D01*
Y21042D01*
X378888Y16969D01*
X373797D01*
X373039Y17727D01*
Y26831D01*
X374008D01*
Y32295D01*
X367992D01*
Y31571D01*
X359508D01*
Y32232D01*
X353492D01*
Y26768D01*
X359508D01*
Y27492D01*
X367992D01*
Y26831D01*
X368961D01*
Y16882D01*
X369116Y16102D01*
X369558Y15440D01*
X370913Y14085D01*
Y11032D01*
X376961D01*
Y10345D01*
X376155Y9539D01*
X356845D01*
X347354Y19030D01*
Y30925D01*
X347315Y31122D01*
Y34075D01*
X334685D01*
Y28925D01*
X343276D01*
Y18185D01*
X343431Y17405D01*
X343873Y16743D01*
X354558Y6058D01*
X355220Y5616D01*
X356000Y5461D01*
X377000D01*
X377780Y5616D01*
X378442Y6058D01*
X380442Y8058D01*
X380884Y8720D01*
X381039Y9500D01*
Y11032D01*
X381772D01*
Y14085D01*
X386442Y18755D01*
X386884Y19417D01*
X387039Y20197D01*
Y26831D01*
X388008D01*
Y27024D01*
X391063D01*
X391843Y27179D01*
X392505Y27621D01*
X395442Y30558D01*
X395884Y31220D01*
X396039Y32000D01*
Y65500D01*
X395884Y66280D01*
X395800Y66406D01*
Y68100D01*
D02*
G37*
G36*
X332469Y32342D02*
X330000D01*
Y30071D01*
X332469D01*
Y32342D01*
D02*
G37*
G36*
X329000D02*
X326532D01*
Y30071D01*
X329000D01*
Y32342D01*
D02*
G37*
G36*
X196850Y283500D02*
X31496D01*
X31106Y283422D01*
X30775Y283201D01*
X30554Y282871D01*
X30476Y282480D01*
Y26575D01*
X30554Y26185D01*
X30775Y25854D01*
X31106Y25633D01*
X31496Y25555D01*
X196850D01*
X197241Y25633D01*
X197571Y25854D01*
X197792Y26185D01*
X197870Y26575D01*
Y282480D01*
X197792Y282871D01*
X197571Y283201D01*
X197241Y283422D01*
X196850Y283500D01*
D02*
G37*
G36*
X216000Y232794D02*
X215122Y232620D01*
X214378Y232122D01*
X213880Y231378D01*
X213706Y230500D01*
X213880Y229622D01*
X213961Y229502D01*
Y150266D01*
X209558Y145863D01*
X209116Y145202D01*
X208961Y144421D01*
Y29345D01*
X201155Y21539D01*
X27845D01*
X19275Y30108D01*
Y143205D01*
X19417D01*
Y151307D01*
X13799D01*
Y147256D01*
Y143205D01*
X15197D01*
Y29264D01*
X15352Y28483D01*
X15794Y27822D01*
X25558Y18058D01*
X26220Y17616D01*
X27000Y17461D01*
X202000D01*
X202780Y17616D01*
X203442Y18058D01*
X212442Y27058D01*
X212884Y27720D01*
X213039Y28500D01*
Y143577D01*
X216000Y146537D01*
X220130Y142408D01*
Y139748D01*
Y134630D01*
X220961D01*
Y130095D01*
X220130D01*
Y124748D01*
Y122803D01*
X223000D01*
X225870D01*
Y125431D01*
X231532D01*
Y122705D01*
X234500D01*
Y122205D01*
D01*
Y122705D01*
X237469D01*
Y124748D01*
Y130291D01*
X236539D01*
Y133502D01*
X236619Y133622D01*
X236794Y134500D01*
X236619Y135378D01*
X236122Y136122D01*
X235378Y136619D01*
X234500Y136794D01*
X233622Y136619D01*
X232878Y136122D01*
X232381Y135378D01*
X232206Y134500D01*
X232381Y133622D01*
X232461Y133502D01*
Y130291D01*
X231532D01*
Y129510D01*
X225870D01*
Y130095D01*
X225039D01*
Y134630D01*
X225870D01*
Y139748D01*
Y145095D01*
X223211D01*
X218039Y150266D01*
Y229502D01*
X218120Y229622D01*
X218294Y230500D01*
X218120Y231378D01*
X217622Y232122D01*
X216878Y232620D01*
X216000Y232794D01*
D02*
G37*
G36*
X322835Y44327D02*
X263779D01*
X263389Y44249D01*
X263059Y44028D01*
X262838Y43697D01*
X262760Y43307D01*
Y15748D01*
X262838Y15358D01*
X263059Y15027D01*
X263389Y14806D01*
X263779Y14728D01*
X322835D01*
X323225Y14806D01*
X323556Y15027D01*
X323777Y15358D01*
X323854Y15748D01*
Y43307D01*
X323777Y43697D01*
X323556Y44028D01*
X323225Y44249D01*
X322835Y44327D01*
D02*
G37*
G36*
X393701Y18750D02*
X392347Y18617D01*
X391045Y18222D01*
X389846Y17581D01*
X388794Y16718D01*
X387931Y15666D01*
X387290Y14466D01*
X386895Y13165D01*
X386762Y11811D01*
X386895Y10457D01*
X387290Y9156D01*
X387931Y7956D01*
X388794Y6904D01*
X389846Y6041D01*
X391045Y5400D01*
X392347Y5005D01*
X393701Y4872D01*
X395055Y5005D01*
X396356Y5400D01*
X397556Y6041D01*
X398607Y6904D01*
X399470Y7956D01*
X400111Y9156D01*
X400506Y10457D01*
X400640Y11811D01*
X400506Y13165D01*
X400111Y14466D01*
X399470Y15666D01*
X398607Y16718D01*
X397556Y17581D01*
X396356Y18222D01*
X395055Y18617D01*
X393701Y18750D01*
D02*
G37*
G36*
X11811D02*
X10457Y18617D01*
X9156Y18222D01*
X7956Y17581D01*
X6904Y16718D01*
X6041Y15666D01*
X5400Y14466D01*
X5005Y13165D01*
X4872Y11811D01*
X5005Y10457D01*
X5400Y9156D01*
X6041Y7956D01*
X6904Y6904D01*
X7956Y6041D01*
X9156Y5400D01*
X10457Y5005D01*
X11811Y4872D01*
X13165Y5005D01*
X14466Y5400D01*
X15666Y6041D01*
X16718Y6904D01*
X17581Y7956D01*
X18222Y9156D01*
X18617Y10457D01*
X18750Y11811D01*
X18617Y13165D01*
X18222Y14466D01*
X17581Y15666D01*
X16718Y16718D01*
X15666Y17581D01*
X14466Y18222D01*
X13165Y18617D01*
X11811Y18750D01*
D02*
G37*
G36*
X383695Y128500D02*
X382000D01*
Y126805D01*
X382378Y126881D01*
X383122Y127378D01*
X383619Y128122D01*
X383695Y128500D01*
D02*
G37*
%LPD*%
D26*
X372500Y114000D02*
D03*
X376500Y144000D02*
D03*
X368500D02*
D03*
D27*
X386500Y68450D02*
D03*
Y63550D02*
D03*
X393500Y66000D02*
D03*
D48*
X266500Y211559D02*
D03*
Y206441D02*
D03*
X223000Y137303D02*
D03*
Y142421D02*
D03*
Y122303D02*
D03*
Y127421D02*
D03*
X239000Y175559D02*
D03*
Y170441D02*
D03*
X231000Y175559D02*
D03*
Y170441D02*
D03*
X223000Y175559D02*
D03*
Y170441D02*
D03*
X275000Y206441D02*
D03*
Y211559D02*
D03*
D49*
X235000Y206004D02*
D03*
Y211319D02*
D03*
X257000Y206004D02*
D03*
Y211319D02*
D03*
X234500Y127520D02*
D03*
Y122205D02*
D03*
X329500Y38157D02*
D03*
Y32842D02*
D03*
D50*
X359000Y225658D02*
D03*
Y220342D02*
D03*
X331500Y203842D02*
D03*
Y209157D02*
D03*
X321500Y203842D02*
D03*
Y209157D02*
D03*
D51*
X367055Y293500D02*
D03*
Y288500D02*
D03*
Y283500D02*
D03*
Y278500D02*
D03*
Y273500D02*
D03*
Y268500D02*
D03*
Y263500D02*
D03*
Y258500D02*
D03*
Y253500D02*
D03*
Y248500D02*
D03*
X315874D02*
D03*
Y253500D02*
D03*
Y258500D02*
D03*
Y263500D02*
D03*
Y268500D02*
D03*
Y273500D02*
D03*
Y278500D02*
D03*
Y283500D02*
D03*
Y288500D02*
D03*
Y293500D02*
D03*
D52*
X358965Y238264D02*
D03*
X353965D02*
D03*
X348965D02*
D03*
X343965D02*
D03*
X338965D02*
D03*
X333965D02*
D03*
X328965D02*
D03*
X323965D02*
D03*
D53*
X274626Y267713D02*
D03*
X290374D02*
D03*
X274626Y294287D02*
D03*
X290374D02*
D03*
D54*
X108559Y298500D02*
D03*
X103441D02*
D03*
X280441Y253000D02*
D03*
X285559D02*
D03*
X373382Y69500D02*
D03*
X378500D02*
D03*
Y62500D02*
D03*
X373382D02*
D03*
D55*
X375000Y119000D02*
D03*
Y124000D02*
D03*
Y129000D02*
D03*
Y134000D02*
D03*
Y139000D02*
D03*
X370000Y119000D02*
D03*
Y129000D02*
D03*
Y124000D02*
D03*
Y134000D02*
D03*
Y139000D02*
D03*
D56*
X341000Y31500D02*
D03*
Y40161D02*
D03*
D57*
X321579Y220500D02*
D03*
X331421D02*
D03*
D58*
X325157Y161000D02*
D03*
X319843D02*
D03*
X325157Y153500D02*
D03*
X319843D02*
D03*
X373685Y14000D02*
D03*
X379000D02*
D03*
X325157Y94500D02*
D03*
X319843D02*
D03*
X325157Y101500D02*
D03*
X319843D02*
D03*
X325157Y108500D02*
D03*
X319843D02*
D03*
X325157Y115500D02*
D03*
X319843D02*
D03*
X325157Y122500D02*
D03*
X319843D02*
D03*
X325157Y129500D02*
D03*
X319843D02*
D03*
X325157Y136500D02*
D03*
X319843D02*
D03*
X325157Y143500D02*
D03*
X319843D02*
D03*
D59*
X325787Y72742D02*
D03*
X260827D02*
D03*
D60*
X315945Y79142D02*
D03*
X313976D02*
D03*
X312008D02*
D03*
X310039D02*
D03*
X308071D02*
D03*
X306102D02*
D03*
X304134D02*
D03*
X302165D02*
D03*
X300197D02*
D03*
X298228D02*
D03*
X296260D02*
D03*
X294291D02*
D03*
X292323D02*
D03*
X290354D02*
D03*
X288386D02*
D03*
X286417D02*
D03*
X284449D02*
D03*
X282480D02*
D03*
X280512D02*
D03*
X278543D02*
D03*
X276575D02*
D03*
X274606D02*
D03*
X272638D02*
D03*
X270669D02*
D03*
D61*
X257154Y188063D02*
D03*
Y190032D02*
D03*
Y192000D02*
D03*
Y193968D02*
D03*
X238846Y188063D02*
D03*
Y190032D02*
D03*
Y192000D02*
D03*
Y193968D02*
D03*
Y195937D02*
D03*
X257154D02*
D03*
D62*
X248000Y192000D02*
D03*
D63*
X13299Y147256D02*
D03*
X17236D02*
D03*
D64*
X7000Y132000D02*
D03*
X23535D02*
D03*
D65*
X78543Y304354D02*
D03*
Y298646D02*
D03*
X92716D02*
D03*
Y304354D02*
D03*
D66*
X217980Y273811D02*
D03*
Y295268D02*
D03*
X253020D02*
D03*
Y273811D02*
D03*
D67*
X229201Y273437D02*
D03*
X232350D02*
D03*
X241799D02*
D03*
X238650D02*
D03*
X235500D02*
D03*
D68*
X356500Y42374D02*
D03*
Y29500D02*
D03*
X385000Y29563D02*
D03*
Y42437D02*
D03*
X371000Y29563D02*
D03*
Y42437D02*
D03*
D69*
X254614Y205886D02*
X257154D01*
X251000Y209500D02*
X254614Y205886D01*
X228000Y207874D02*
Y209000D01*
Y207874D02*
X230031Y205842D01*
X235000D01*
X375000Y129000D02*
X381500D01*
X386500Y126500D02*
Y268000D01*
X384000Y124000D02*
X386500Y126500D01*
X376000Y124000D02*
X384000D01*
X290500Y183000D02*
X296000Y177500D01*
X361500D01*
X382000Y157000D01*
X223500Y204500D02*
X228000Y209000D01*
X223500Y196000D02*
Y204500D01*
X302000Y193000D02*
X311000Y184000D01*
X343500D01*
X302000Y193000D02*
Y210000D01*
X343500Y184000D02*
X354000Y194500D01*
Y212500D01*
X293000Y219000D02*
X302000Y210000D01*
X382000Y142000D02*
Y157000D01*
X379210Y139210D02*
X382000Y142000D01*
X375210Y139210D02*
X379210D01*
X375000Y139000D02*
X375210Y139210D01*
X285559Y253197D02*
X290374Y258012D01*
X376000Y278500D02*
X386500Y268000D01*
X367055Y278500D02*
X376000D01*
X393000Y134000D02*
Y272000D01*
X381500Y283500D02*
X393000Y272000D01*
X367055Y283500D02*
X381500D01*
X285559Y253000D02*
X290374Y257815D01*
X101500Y290500D02*
X197000Y290500D01*
X93478Y298573D02*
X101500Y290551D01*
X93405Y298646D02*
X93478Y298573D01*
X103368D01*
X101500Y290500D02*
Y290551D01*
X92716Y298646D02*
X93405D01*
X103368Y298573D02*
X103441Y298500D01*
X78543Y298646D02*
X92716D01*
X197000Y290500D02*
X204000Y283500D01*
X107059Y298303D02*
X199697D01*
X209500Y288500D01*
X329500Y43500D02*
X354000Y68000D01*
X329500Y38157D02*
Y43500D01*
X339500Y192000D02*
X343965Y196465D01*
X315000Y192000D02*
X339500D01*
X343965Y196465D02*
Y226535D01*
X309500Y197500D02*
X315000Y192000D01*
X309500Y197500D02*
Y212862D01*
X275000Y247362D02*
X309500Y212862D01*
X287500Y219000D02*
X293000D01*
X295500Y198500D02*
Y206616D01*
X290616Y211500D02*
X295500Y206616D01*
X275059Y211500D02*
X290616D01*
X267441Y170441D02*
X295500Y198500D01*
X281000Y225500D02*
X287500Y219000D01*
X343965Y226535D02*
Y238264D01*
X239000Y170441D02*
X267441D01*
X343059D01*
X210672Y248500D02*
X213500D01*
X204000Y255172D02*
Y283500D01*
Y255172D02*
X210672Y248500D01*
X209500Y259000D02*
Y288500D01*
X299000Y263500D02*
X315874D01*
X234500Y127520D02*
Y134500D01*
X263362Y259000D02*
X275000Y247362D01*
X258500Y259000D02*
X263362D01*
X107059Y298303D02*
Y298500D01*
X290500Y248500D02*
X315874D01*
X211000Y144421D02*
X216000Y149421D01*
X211000Y28500D02*
Y144421D01*
X202000Y19500D02*
X211000Y28500D01*
X27000Y19500D02*
X202000D01*
X17236Y29264D02*
X27000Y19500D01*
X17236Y29264D02*
Y147256D01*
X257154Y196559D02*
Y205886D01*
X251000Y209500D02*
Y220500D01*
X288404Y206096D02*
X288500Y206000D01*
X275345Y206096D02*
X288404D01*
X275000Y206441D02*
X275345Y206096D01*
X350000Y148500D02*
X355000Y153500D01*
X321500Y148500D02*
X350000D01*
X320614Y147614D02*
X321500Y148500D01*
X355000Y153500D02*
Y158500D01*
Y114000D02*
Y153500D01*
X320614Y144272D02*
Y147614D01*
X319843Y143500D02*
X320614Y144272D01*
X384672Y109172D02*
Y115828D01*
X382000Y106500D02*
X384672Y109172D01*
X362500Y106500D02*
X382000D01*
X381550Y118950D02*
X384672Y115828D01*
X375050Y118950D02*
X381550D01*
X375000Y119000D02*
X375050Y118950D01*
X355000Y114000D02*
X362500Y106500D01*
X343059Y170441D02*
X355000Y158500D01*
X275000Y211559D02*
X275059Y211500D01*
X375000Y134000D02*
X381500D01*
X325157Y94500D02*
X325472Y94185D01*
Y73057D02*
X325787Y72742D01*
X353965Y229035D02*
X354000Y229000D01*
X353965Y229035D02*
Y238264D01*
X275000Y211559D02*
Y247362D01*
X280441Y252803D01*
X329697Y38157D02*
X331701Y40161D01*
X329500Y38157D02*
X329697D01*
X331701Y40161D02*
X341000D01*
X216000Y149421D02*
Y230500D01*
Y149421D02*
X222130Y143291D01*
Y143095D02*
Y143291D01*
Y143095D02*
X222803Y142421D01*
X223000D01*
Y127421D02*
X223049Y127471D01*
X234451D01*
X234500Y127520D01*
X223000Y127421D02*
Y137303D01*
X379000Y9500D02*
Y14000D01*
X377000Y7500D02*
X379000Y9500D01*
X356000Y7500D02*
X377000D01*
X345315Y18185D02*
X356000Y7500D01*
X345315Y18185D02*
Y30925D01*
X344740Y31500D02*
X345315Y30925D01*
X341000Y31500D02*
X344740D01*
X370969Y29531D02*
X371000Y29563D01*
X356532Y29531D02*
X370969D01*
X356500Y29500D02*
X356532Y29531D01*
X394000Y32000D02*
Y65500D01*
X393800Y65700D02*
X394000Y65500D01*
X393800Y65700D02*
Y65900D01*
X393700Y66000D02*
X393800Y65900D01*
X393500Y66000D02*
X393700D01*
X391063Y29063D02*
X394000Y32000D01*
X385000Y29063D02*
X391063D01*
X386300Y63550D02*
X386500D01*
X385250Y62500D02*
X386300Y63550D01*
X378500Y62500D02*
X385250D01*
X386300Y68450D02*
X386500D01*
X385250Y69500D02*
X386300Y68450D01*
X378500Y69500D02*
X385250D01*
X373685Y14000D02*
Y14197D01*
X371000Y16882D02*
X373685Y14197D01*
X371000Y16882D02*
Y29563D01*
X379000Y14197D02*
X385000Y20197D01*
X379000Y14000D02*
Y14197D01*
X385000Y20197D02*
Y29063D01*
X350157Y220342D02*
X359000D01*
X343965Y226535D02*
X350157Y220342D01*
X358982Y225675D02*
X359000Y225658D01*
X358982Y225675D02*
Y238246D01*
X358965Y238264D02*
X358982Y238246D01*
X331461Y209197D02*
X331500Y209157D01*
X331461Y209197D02*
Y220461D01*
X331421Y220500D02*
X331461Y220461D01*
X321500Y209157D02*
X321539Y209197D01*
Y220461D01*
X321579Y220500D01*
Y228579D02*
X323965Y230965D01*
X321579Y220500D02*
Y228579D01*
X328965Y231035D02*
X331421Y228579D01*
Y220500D02*
Y228579D01*
X323965Y230965D02*
Y238264D01*
X328965Y231035D02*
Y238264D01*
X321000Y220579D02*
X321079Y220500D01*
X280441Y252803D02*
Y253000D01*
X290374Y258012D02*
Y267713D01*
X285559Y253000D02*
Y253197D01*
X290374Y267713D02*
Y294287D01*
X228000Y246500D02*
X241799Y260299D01*
Y273437D01*
X241000Y230500D02*
X251000Y220500D01*
X228000Y209000D02*
Y246500D01*
D70*
X235354Y196309D02*
X238846D01*
X235000Y196663D02*
X235354Y196309D01*
X235000Y196663D02*
Y205842D01*
D71*
X231197Y175559D02*
Y185884D01*
X235340Y190028D01*
X356500Y42374D02*
Y44500D01*
X353000Y48000D02*
X356500Y44500D01*
X348500Y48000D02*
X353000D01*
X359500Y252000D02*
X362500Y249000D01*
X354000Y252000D02*
X359500D01*
X346500Y259500D02*
X354000Y252000D01*
X362500Y249000D02*
X366555D01*
X367055Y248500D01*
X346500Y259500D02*
Y264500D01*
X262968Y193968D02*
X266500Y197500D01*
X257154Y193968D02*
X262968D01*
X271969Y190032D02*
X272000Y190000D01*
X317500Y153500D02*
X319843D01*
X278543Y114543D02*
X317500Y153500D01*
Y161000D02*
X319843D01*
X276575Y120075D02*
X317500Y161000D01*
X279000Y57000D02*
X326500D01*
X272638Y63362D02*
X279000Y57000D01*
X272638Y63362D02*
Y79142D01*
X284624Y58876D02*
X324132D01*
X274606Y68894D02*
X284624Y58876D01*
X274606Y68894D02*
Y79142D01*
X318000Y101500D02*
X319843D01*
X313976Y97476D02*
X318000Y101500D01*
X313976Y79142D02*
Y97476D01*
X239000Y175559D02*
X239059Y175500D01*
X245000D01*
X257154Y190032D02*
X271969D01*
X313980Y65020D02*
X314000Y65000D01*
X313980Y65020D02*
Y79138D01*
X313976Y79142D02*
X313980Y79138D01*
X378500Y62500D02*
Y62697D01*
X381727Y65924D01*
X388317D01*
X389174Y66781D01*
Y70119D01*
X383045Y76248D02*
X389174Y70119D01*
X341505Y76248D02*
X383045D01*
X324132Y58876D02*
X341505Y76248D01*
X326500Y57000D02*
X344000Y74500D01*
X378000D01*
X378500Y74000D01*
Y69500D02*
Y74000D01*
X310000Y61500D02*
X310035Y61536D01*
Y79138D01*
X310039Y79142D01*
X378000Y42500D02*
X378063Y42437D01*
X385000D01*
X294500Y71500D02*
Y72000D01*
X294291Y71709D02*
X294500Y71500D01*
X294291Y71709D02*
Y79142D01*
X290354Y66646D02*
Y79142D01*
Y66646D02*
X290500Y66500D01*
X283000D02*
X286417Y69917D01*
Y79142D01*
X288252Y110752D02*
X294500Y117000D01*
X288252Y82248D02*
Y110752D01*
Y82248D02*
X288386Y82114D01*
Y79142D02*
Y82114D01*
X290000Y96500D02*
X294500Y101000D01*
X290000Y85000D02*
Y96500D01*
Y85000D02*
X292323Y82677D01*
Y79142D02*
Y82677D01*
X294500Y86000D02*
X296260Y84240D01*
Y79142D02*
Y84240D01*
X298228Y79142D02*
Y127228D01*
X300197Y129197D01*
X276575Y79142D02*
Y120075D01*
X278543Y79142D02*
Y114543D01*
X314500Y143500D02*
X319843D01*
X300197Y129197D02*
X314500Y143500D01*
X300197Y79142D02*
Y129197D01*
X314500Y136500D02*
X319843D01*
X304134Y126134D02*
X314500Y136500D01*
X304134Y79142D02*
Y126134D01*
X314500Y129500D02*
X319843D01*
X306102Y121102D02*
X314500Y129500D01*
X306102Y79142D02*
Y121102D01*
X315000Y122500D02*
X319843D01*
X308071Y115571D02*
X315000Y122500D01*
X308071Y79142D02*
Y115571D01*
X315500Y115500D02*
X319843D01*
X310039Y110039D02*
X315500Y115500D01*
X310039Y79142D02*
Y110039D01*
X315500Y108500D02*
X319843D01*
X312008Y105008D02*
X315500Y108500D01*
X312008Y79142D02*
Y105008D01*
X317500Y94500D02*
X319843D01*
X315945Y92945D02*
X317500Y94500D01*
X315945Y79142D02*
Y92945D01*
X266500Y197500D02*
Y206441D01*
X275000Y200500D02*
Y206441D01*
X266500Y192000D02*
X275000Y200500D01*
X257154Y192000D02*
X266500D01*
X223000Y175559D02*
Y184000D01*
X232968Y193968D01*
X238846D01*
X238843Y190028D02*
X238846Y190032D01*
X235340Y190028D02*
X238843D01*
X231000Y175559D02*
X231197D01*
D72*
X238846Y188063D02*
X239000Y187909D01*
Y175559D02*
Y187909D01*
D73*
X358000Y291000D02*
D03*
Y286000D02*
D03*
Y281000D02*
D03*
Y276000D02*
D03*
Y271000D02*
D03*
Y266000D02*
D03*
Y261000D02*
D03*
Y256000D02*
D03*
D74*
X356465Y247319D02*
D03*
X351555D02*
D03*
X346555D02*
D03*
X341555D02*
D03*
X336555D02*
D03*
X331555D02*
D03*
X326465D02*
D03*
D75*
X226839Y283968D02*
D03*
X244161D02*
D03*
D76*
X393701Y11811D02*
D03*
Y297244D02*
D03*
X11811Y11811D02*
D03*
Y297244D02*
D03*
D77*
X325787Y72742D02*
D03*
X260827D02*
D03*
X381500Y129000D02*
D03*
X290500Y183000D02*
D03*
X251500Y200000D02*
D03*
X248000D02*
D03*
X244500D02*
D03*
X251500Y184000D02*
D03*
X248000D02*
D03*
X244500D02*
D03*
X223500Y196000D02*
D03*
X290374Y257815D02*
D03*
X354000Y212500D02*
D03*
X355000Y114000D02*
D03*
X354000Y68000D02*
D03*
X281000Y225500D02*
D03*
X213500Y248500D02*
D03*
X299000Y263500D02*
D03*
X234500Y134500D02*
D03*
X346500Y264500D02*
D03*
X258500Y259000D02*
D03*
X209500D02*
D03*
X290500Y248500D02*
D03*
X272000Y190000D02*
D03*
X381500Y134000D02*
D03*
X393000D02*
D03*
X288500Y206000D02*
D03*
X354000Y229000D02*
D03*
X245000Y175500D02*
D03*
X314000Y65000D02*
D03*
X348500Y48000D02*
D03*
X310000Y61500D02*
D03*
X378000Y42500D02*
D03*
X216000Y230500D02*
D03*
X241000D02*
D03*
X294500Y72000D02*
D03*
X290500Y66500D02*
D03*
X283000D02*
D03*
X294500Y117000D02*
D03*
Y101000D02*
D03*
Y86000D02*
D03*
D78*
X248000Y192000D02*
D03*
X249772Y194362D02*
D03*
Y189638D02*
D03*
X246228D02*
D03*
Y194362D02*
D03*
M02*
