G04*
G04 #@! TF.GenerationSoftware,Altium Limited,Altium Designer,19.1.9 (167)*
G04*
G04 Layer_Physical_Order=2*
G04 Layer_Color=16711680*
%FSLAX25Y25*%
%MOIN*%
G70*
G01*
G75*
%ADD24C,0.03900*%
%ADD70C,0.00748*%
%ADD71C,0.02000*%
%ADD72R,0.03150X0.04724*%
%ADD73R,0.04724X0.03150*%
%ADD74C,0.03543*%
%ADD75C,0.02500*%
%ADD76C,0.05000*%
%ADD77C,0.01968*%
%ADD78C,0.15748*%
G36*
X358268Y47182D02*
X357768Y47133D01*
X357727Y47338D01*
X357620Y47878D01*
X357122Y48622D01*
X356378Y49119D01*
X355500Y49294D01*
X354622Y49119D01*
X353878Y48622D01*
X353730Y48401D01*
X316093D01*
X310004Y54491D01*
X309841Y54599D01*
X309993Y55099D01*
X352230D01*
X352378Y54878D01*
X353122Y54381D01*
X354000Y54206D01*
X354878Y54381D01*
X355622Y54878D01*
X356119Y55622D01*
X356294Y56500D01*
X356119Y57378D01*
X355622Y58122D01*
X354878Y58619D01*
X354000Y58794D01*
X353122Y58619D01*
X352378Y58122D01*
X352230Y57901D01*
X299580D01*
X292242Y65239D01*
X292294Y65500D01*
X292120Y66378D01*
X291622Y67122D01*
X290878Y67619D01*
X290000Y67794D01*
X289122Y67619D01*
X288378Y67122D01*
X287880Y66378D01*
X287706Y65500D01*
X287880Y64622D01*
X288378Y63878D01*
X289122Y63381D01*
X290000Y63206D01*
X290261Y63258D01*
X298009Y55509D01*
X298172Y55401D01*
X298020Y54901D01*
X264580D01*
X255242Y64239D01*
X255294Y64500D01*
X255119Y65378D01*
X254622Y66122D01*
X253878Y66619D01*
X253000Y66794D01*
X252122Y66619D01*
X251378Y66122D01*
X250881Y65378D01*
X250706Y64500D01*
X250881Y63622D01*
X251378Y62878D01*
X252122Y62381D01*
X253000Y62206D01*
X253261Y62258D01*
X263009Y52509D01*
X263464Y52206D01*
X264000Y52099D01*
X308433D01*
X314522Y46009D01*
X314977Y45706D01*
X315513Y45599D01*
X315513Y45599D01*
X353730D01*
X353878Y45378D01*
X354622Y44881D01*
X355500Y44706D01*
X356378Y44881D01*
X357122Y45378D01*
X357620Y46122D01*
X357727Y46662D01*
X357768Y46867D01*
X358268Y46818D01*
Y27182D01*
X357768Y27132D01*
X357727Y27338D01*
X357620Y27878D01*
X357122Y28622D01*
X356378Y29120D01*
X355500Y29294D01*
X354622Y29120D01*
X353878Y28622D01*
X353730Y28401D01*
X322580D01*
X300991Y49991D01*
X300536Y50294D01*
X300000Y50401D01*
X261080D01*
X251242Y60239D01*
X251294Y60500D01*
X251119Y61378D01*
X250622Y62122D01*
X249878Y62619D01*
X249000Y62794D01*
X248122Y62619D01*
X247378Y62122D01*
X246881Y61378D01*
X246706Y60500D01*
X246881Y59622D01*
X247378Y58878D01*
X248122Y58381D01*
X249000Y58206D01*
X249261Y58258D01*
X259509Y48009D01*
X259509Y48009D01*
X259964Y47706D01*
X260500Y47599D01*
X260500Y47599D01*
X299420D01*
X321009Y26009D01*
X321464Y25706D01*
X322000Y25599D01*
X322000Y25599D01*
X353730D01*
X353878Y25378D01*
X354622Y24881D01*
X355500Y24706D01*
X356378Y24881D01*
X357122Y25378D01*
X357620Y26122D01*
X357727Y26662D01*
X357768Y26867D01*
X358268Y26818D01*
Y0D01*
X0D01*
Y309055D01*
X358268D01*
Y47182D01*
D02*
G37*
%LPC*%
G36*
X346961Y306111D02*
Y297748D01*
X355324D01*
X355202Y298984D01*
X354695Y300657D01*
X353871Y302198D01*
X352762Y303549D01*
X351411Y304658D01*
X349869Y305482D01*
X348196Y305990D01*
X346961Y306111D01*
D02*
G37*
G36*
X345953D02*
X344717Y305990D01*
X343044Y305482D01*
X341503Y304658D01*
X340152Y303549D01*
X339042Y302198D01*
X338218Y300657D01*
X337711Y298984D01*
X337589Y297748D01*
X345953D01*
Y306111D01*
D02*
G37*
G36*
X12315D02*
Y297748D01*
X20678D01*
X20557Y298984D01*
X20049Y300657D01*
X19225Y302198D01*
X18116Y303549D01*
X16765Y304658D01*
X15223Y305482D01*
X13551Y305990D01*
X12315Y306111D01*
D02*
G37*
G36*
X11307D02*
X10071Y305990D01*
X8399Y305482D01*
X6857Y304658D01*
X5506Y303549D01*
X4397Y302198D01*
X3573Y300657D01*
X3065Y298984D01*
X2944Y297748D01*
X11307D01*
Y306111D01*
D02*
G37*
G36*
X355324Y296740D02*
X346961D01*
Y288377D01*
X348196Y288498D01*
X349869Y289006D01*
X351411Y289830D01*
X352762Y290939D01*
X353871Y292290D01*
X354695Y293832D01*
X355202Y295504D01*
X355324Y296740D01*
D02*
G37*
G36*
X345953D02*
X337589D01*
X337711Y295504D01*
X338218Y293832D01*
X339042Y292290D01*
X340152Y290939D01*
X341503Y289830D01*
X343044Y289006D01*
X344717Y288498D01*
X345953Y288377D01*
Y296740D01*
D02*
G37*
G36*
X20678D02*
X12315D01*
Y288377D01*
X13551Y288498D01*
X15223Y289006D01*
X16765Y289830D01*
X18116Y290939D01*
X19225Y292290D01*
X20049Y293832D01*
X20557Y295504D01*
X20678Y296740D01*
D02*
G37*
G36*
X11307D02*
X2944D01*
X3065Y295504D01*
X3573Y293832D01*
X4397Y292290D01*
X5506Y290939D01*
X6857Y289830D01*
X8399Y289006D01*
X10071Y288498D01*
X11307Y288377D01*
Y296740D01*
D02*
G37*
G36*
X221260Y286264D02*
X220536Y286169D01*
X219862Y285890D01*
X219283Y285445D01*
X218839Y284866D01*
X218560Y284192D01*
X218464Y283469D01*
X218560Y282745D01*
X218839Y282071D01*
X219283Y281492D01*
X219862Y281048D01*
X220536Y280768D01*
X221260Y280673D01*
X221983Y280768D01*
X222658Y281048D01*
X223237Y281492D01*
X223681Y282071D01*
X223960Y282745D01*
X224055Y283469D01*
X223960Y284192D01*
X223681Y284866D01*
X223237Y285445D01*
X222658Y285890D01*
X221983Y286169D01*
X221260Y286264D01*
D02*
G37*
G36*
X203937D02*
X203214Y286169D01*
X202539Y285890D01*
X201960Y285445D01*
X201516Y284866D01*
X201237Y284192D01*
X201141Y283469D01*
X201237Y282745D01*
X201516Y282071D01*
X201960Y281492D01*
X202539Y281048D01*
X203214Y280768D01*
X203937Y280673D01*
X204661Y280768D01*
X205335Y281048D01*
X205914Y281492D01*
X206358Y282071D01*
X206637Y282745D01*
X206733Y283469D01*
X206637Y284192D01*
X206358Y284866D01*
X205914Y285445D01*
X205335Y285890D01*
X204661Y286169D01*
X203937Y286264D01*
D02*
G37*
G36*
X291039Y249181D02*
X288968D01*
Y246323D01*
X291039D01*
Y249181D01*
D02*
G37*
G36*
Y245315D02*
X288968D01*
Y242457D01*
X291039D01*
Y245315D01*
D02*
G37*
G36*
X224500Y223794D02*
X223622Y223620D01*
X223502Y223539D01*
X195498D01*
X195378Y223620D01*
X194500Y223794D01*
X193622Y223620D01*
X192878Y223122D01*
X192380Y222378D01*
X192206Y221500D01*
X192380Y220622D01*
X192878Y219878D01*
X193622Y219380D01*
X194500Y219206D01*
X195378Y219380D01*
X195498Y219461D01*
X223502D01*
X223622Y219380D01*
X224500Y219206D01*
X225378Y219380D01*
X226122Y219878D01*
X226620Y220622D01*
X226794Y221500D01*
X226620Y222378D01*
X226122Y223122D01*
X225378Y223620D01*
X224500Y223794D01*
D02*
G37*
G36*
X333500Y219476D02*
X332730Y219374D01*
X332012Y219077D01*
X331396Y218604D01*
X330923Y217988D01*
X330626Y217270D01*
X330524Y216500D01*
X330626Y215730D01*
X330923Y215012D01*
X331396Y214396D01*
X332012Y213923D01*
X332730Y213626D01*
X333500Y213525D01*
X334270Y213626D01*
X334988Y213923D01*
X335604Y214396D01*
X336077Y215012D01*
X336374Y215730D01*
X336475Y216500D01*
X336374Y217270D01*
X336077Y217988D01*
X335604Y218604D01*
X334988Y219077D01*
X334270Y219374D01*
X333500Y219476D01*
D02*
G37*
G36*
X325500D02*
X324730Y219374D01*
X324012Y219077D01*
X323396Y218604D01*
X322923Y217988D01*
X322626Y217270D01*
X322524Y216500D01*
X322626Y215730D01*
X322923Y215012D01*
X323396Y214396D01*
X324012Y213923D01*
X324730Y213626D01*
X325500Y213525D01*
X326270Y213626D01*
X326988Y213923D01*
X327604Y214396D01*
X328077Y215012D01*
X328374Y215730D01*
X328475Y216500D01*
X328374Y217270D01*
X328077Y217988D01*
X327604Y218604D01*
X326988Y219077D01*
X326270Y219374D01*
X325500Y219476D01*
D02*
G37*
G36*
X313500Y284294D02*
X312622Y284120D01*
X311878Y283622D01*
X311381Y282878D01*
X311206Y282000D01*
X311381Y281122D01*
X311878Y280378D01*
X312622Y279880D01*
X313254Y279755D01*
Y279245D01*
X312622Y279119D01*
X311878Y278622D01*
X311381Y277878D01*
X311206Y277000D01*
X311381Y276122D01*
X311878Y275378D01*
X312622Y274881D01*
X313500Y274706D01*
X314378Y274881D01*
X314498Y274961D01*
X344155D01*
X346961Y272155D01*
Y202345D01*
X343264Y198648D01*
X343122Y198619D01*
X342378Y198122D01*
X341880Y197378D01*
X341706Y196500D01*
X341880Y195622D01*
X342378Y194878D01*
X343122Y194380D01*
X344000Y194206D01*
X344878Y194380D01*
X345622Y194878D01*
X346119Y195622D01*
X346148Y195764D01*
X350442Y200058D01*
X350884Y200720D01*
X351039Y201500D01*
Y273000D01*
X350884Y273780D01*
X350442Y274442D01*
X346442Y278442D01*
X345780Y278884D01*
X345000Y279039D01*
X314498D01*
X314378Y279119D01*
X313746Y279245D01*
Y279755D01*
X314378Y279880D01*
X314498Y279961D01*
X348155D01*
X352961Y275155D01*
Y207498D01*
X352881Y207378D01*
X352706Y206500D01*
X352881Y205622D01*
X353378Y204878D01*
X354122Y204380D01*
X355000Y204206D01*
X355878Y204380D01*
X356622Y204878D01*
X357119Y205622D01*
X357294Y206500D01*
X357119Y207378D01*
X357039Y207498D01*
Y276000D01*
X356884Y276780D01*
X356442Y277442D01*
X350442Y283442D01*
X349780Y283884D01*
X349000Y284039D01*
X314498D01*
X314378Y284120D01*
X313500Y284294D01*
D02*
G37*
G36*
X340004Y203694D02*
Y202004D01*
X341694D01*
X341619Y202378D01*
X341122Y203122D01*
X340378Y203620D01*
X340004Y203694D01*
D02*
G37*
G36*
X338996D02*
X338622Y203620D01*
X337878Y203122D01*
X337381Y202378D01*
X337306Y202004D01*
X338996D01*
Y203694D01*
D02*
G37*
G36*
X179000Y301294D02*
X178122Y301119D01*
X177378Y300622D01*
X176881Y299878D01*
X176706Y299000D01*
X176881Y298122D01*
X177378Y297378D01*
X178122Y296881D01*
X178264Y296852D01*
X185461Y289655D01*
Y202845D01*
X183764Y201148D01*
X183622Y201119D01*
X182878Y200622D01*
X182622Y200239D01*
X182122Y200391D01*
Y282480D01*
X182044Y282871D01*
X181823Y283201D01*
X181492Y283422D01*
X181102Y283500D01*
X15748D01*
X15358Y283422D01*
X15027Y283201D01*
X14806Y282871D01*
X14728Y282480D01*
Y26575D01*
X14806Y26185D01*
X15027Y25854D01*
X15358Y25633D01*
X15748Y25555D01*
X181102D01*
X181492Y25633D01*
X181823Y25854D01*
X182044Y26185D01*
X182122Y26575D01*
Y197609D01*
X182622Y197761D01*
X182878Y197378D01*
X183622Y196880D01*
X184500Y196706D01*
X185378Y196880D01*
X186122Y197378D01*
X186619Y198122D01*
X186648Y198264D01*
X188942Y200558D01*
X189384Y201220D01*
X189539Y202000D01*
Y290500D01*
X189539Y290500D01*
X189384Y291280D01*
X188942Y291942D01*
X188942Y291942D01*
X181148Y299736D01*
X181120Y299878D01*
X180622Y300622D01*
X179878Y301119D01*
X179000Y301294D01*
D02*
G37*
G36*
X341694Y200996D02*
X340004D01*
Y199306D01*
X340378Y199381D01*
X341122Y199878D01*
X341619Y200622D01*
X341694Y200996D01*
D02*
G37*
G36*
X338996D02*
X337306D01*
X337381Y200622D01*
X337878Y199878D01*
X338622Y199381D01*
X338996Y199306D01*
Y200996D01*
D02*
G37*
G36*
X329500Y189476D02*
X328730Y189374D01*
X328012Y189077D01*
X327396Y188604D01*
X326923Y187988D01*
X326626Y187270D01*
X326524Y186500D01*
X326626Y185730D01*
X326923Y185012D01*
X327396Y184396D01*
X328012Y183923D01*
X328730Y183626D01*
X329500Y183525D01*
X330270Y183626D01*
X330988Y183923D01*
X331604Y184396D01*
X332077Y185012D01*
X332374Y185730D01*
X332475Y186500D01*
X332374Y187270D01*
X332077Y187988D01*
X331604Y188604D01*
X330988Y189077D01*
X330270Y189374D01*
X329500Y189476D01*
D02*
G37*
G36*
X230500Y258794D02*
X229622Y258619D01*
X228878Y258122D01*
X228380Y257378D01*
X228206Y256500D01*
X228380Y255622D01*
X228461Y255502D01*
Y247000D01*
Y204345D01*
X222058Y197942D01*
X221616Y197280D01*
X221461Y196500D01*
Y177998D01*
X221380Y177878D01*
X221206Y177000D01*
X221298Y176539D01*
X220887Y176039D01*
X188998D01*
X188878Y176119D01*
X188000Y176294D01*
X187122Y176119D01*
X186378Y175622D01*
X185880Y174878D01*
X185706Y174000D01*
X185880Y173122D01*
X186378Y172378D01*
X187122Y171880D01*
X188000Y171706D01*
X188878Y171880D01*
X188998Y171961D01*
X210233D01*
X210385Y171461D01*
X209878Y171122D01*
X209381Y170378D01*
X209206Y169500D01*
X209381Y168622D01*
X209461Y168502D01*
Y139172D01*
X209616Y138391D01*
X210058Y137730D01*
X212230Y135558D01*
X212891Y135116D01*
X213672Y134961D01*
X241500D01*
X242280Y135116D01*
X242942Y135558D01*
X289736Y182352D01*
X289878Y182380D01*
X290622Y182878D01*
X291120Y183622D01*
X291294Y184500D01*
X291120Y185378D01*
X290622Y186122D01*
X289878Y186619D01*
X289000Y186794D01*
X288122Y186619D01*
X287378Y186122D01*
X286880Y185378D01*
X286852Y185236D01*
X240655Y139039D01*
X214516D01*
X213539Y140016D01*
Y168502D01*
X213619Y168622D01*
X213794Y169500D01*
X213619Y170378D01*
X213122Y171122D01*
X212615Y171461D01*
X212767Y171961D01*
X214740D01*
X214975Y171520D01*
X214880Y171378D01*
X214806Y171004D01*
X217000D01*
Y170500D01*
X217504D01*
Y168306D01*
X217878Y168380D01*
X218622Y168878D01*
X218878D01*
X219622Y168380D01*
X219996Y168306D01*
Y170500D01*
X221004D01*
Y168306D01*
X221378Y168380D01*
X222122Y168878D01*
X222378D01*
X223122Y168380D01*
X223496Y168306D01*
Y170500D01*
X224000D01*
Y171004D01*
X226194D01*
X226119Y171378D01*
X225622Y172122D01*
X224927Y172586D01*
X224842Y172736D01*
X224732Y173098D01*
X224942Y173308D01*
X225384Y173970D01*
X225539Y174750D01*
Y176002D01*
X225620Y176122D01*
X225794Y177000D01*
X225620Y177878D01*
X225539Y177998D01*
Y195655D01*
X231942Y202058D01*
X231942Y202058D01*
X232384Y202720D01*
X232539Y203500D01*
Y247000D01*
Y255502D01*
X232620Y255622D01*
X232794Y256500D01*
X232620Y257378D01*
X232122Y258122D01*
X231378Y258619D01*
X230500Y258794D01*
D02*
G37*
G36*
X226194Y169996D02*
X224504D01*
Y168306D01*
X224878Y168380D01*
X225622Y168878D01*
X226119Y169622D01*
X226194Y169996D01*
D02*
G37*
G36*
X216496D02*
X214806D01*
X214880Y169622D01*
X215378Y168878D01*
X216122Y168380D01*
X216496Y168306D01*
Y169996D01*
D02*
G37*
G36*
X221768Y166785D02*
X221497Y166731D01*
X220841Y166293D01*
X220750Y166156D01*
X220250D01*
X220159Y166293D01*
X219503Y166731D01*
X219232Y166785D01*
Y164862D01*
X218728D01*
Y164358D01*
X216806D01*
X216859Y164088D01*
X217298Y163432D01*
X217954Y162993D01*
X218551Y162874D01*
X218477Y162500D01*
X218551Y162126D01*
X217954Y162007D01*
X217298Y161568D01*
X216859Y160912D01*
X216806Y160642D01*
X218728D01*
Y160138D01*
X219232D01*
Y158215D01*
X219503Y158269D01*
X220159Y158707D01*
X220250Y158844D01*
X220750D01*
X220841Y158707D01*
X221497Y158269D01*
X221768Y158215D01*
Y160138D01*
X222272D01*
Y160642D01*
X224195D01*
X224141Y160912D01*
X223702Y161568D01*
X223046Y162007D01*
X222449Y162126D01*
X222523Y162500D01*
X222449Y162874D01*
X223046Y162993D01*
X223702Y163432D01*
X224141Y164088D01*
X224195Y164358D01*
X222272D01*
Y164862D01*
X221768D01*
Y166785D01*
D02*
G37*
G36*
X222776D02*
Y165366D01*
X224195D01*
X224141Y165636D01*
X223702Y166293D01*
X223046Y166731D01*
X222776Y166785D01*
D02*
G37*
G36*
X218224D02*
X217954Y166731D01*
X217298Y166293D01*
X216859Y165636D01*
X216806Y165366D01*
X218224D01*
Y166785D01*
D02*
G37*
G36*
X224195Y159634D02*
X222776D01*
Y158215D01*
X223046Y158269D01*
X223702Y158707D01*
X224141Y159364D01*
X224195Y159634D01*
D02*
G37*
G36*
X218224D02*
X216806D01*
X216859Y159364D01*
X217298Y158707D01*
X217954Y158269D01*
X218224Y158215D01*
Y159634D01*
D02*
G37*
G36*
X223496Y156694D02*
X223122Y156620D01*
X222378Y156122D01*
X222122D01*
X221378Y156620D01*
X221004Y156694D01*
Y154500D01*
Y152306D01*
X221378Y152381D01*
X222122Y152878D01*
X222378D01*
X223122Y152381D01*
X223496Y152306D01*
Y154500D01*
Y156694D01*
D02*
G37*
G36*
X219996D02*
X219622Y156620D01*
X218878Y156122D01*
X218750Y155931D01*
X218250D01*
X218122Y156122D01*
X217378Y156620D01*
X217004Y156694D01*
Y154500D01*
Y152306D01*
X217378Y152381D01*
X218122Y152878D01*
X218250Y153069D01*
X218750D01*
X218878Y152878D01*
X219622Y152381D01*
X219996Y152306D01*
Y154500D01*
Y156694D01*
D02*
G37*
G36*
X224504D02*
Y155004D01*
X226194D01*
X226119Y155378D01*
X225622Y156122D01*
X224878Y156620D01*
X224504Y156694D01*
D02*
G37*
G36*
X215996D02*
X215622Y156620D01*
X214878Y156122D01*
X214381Y155378D01*
X214306Y155004D01*
X215996D01*
Y156694D01*
D02*
G37*
G36*
X226194Y153996D02*
X224504D01*
Y152306D01*
X224878Y152381D01*
X225622Y152878D01*
X226119Y153622D01*
X226194Y153996D01*
D02*
G37*
G36*
X215996D02*
X214306D01*
X214381Y153622D01*
X214878Y152878D01*
X215622Y152381D01*
X215996Y152306D01*
Y153996D01*
D02*
G37*
G36*
X287961Y249181D02*
X255890D01*
Y242457D01*
X267099D01*
Y200080D01*
X234009Y166991D01*
X233706Y166536D01*
X233599Y166000D01*
Y156270D01*
X233378Y156122D01*
X232880Y155378D01*
X232706Y154500D01*
X232880Y153622D01*
X233378Y152878D01*
X234122Y152381D01*
X235000Y152206D01*
X235022Y152210D01*
X235268Y151750D01*
X232920Y149401D01*
X230270D01*
X230122Y149622D01*
X229378Y150119D01*
X228500Y150294D01*
X227622Y150119D01*
X226878Y149622D01*
X226380Y148878D01*
X226206Y148000D01*
X226380Y147122D01*
X226878Y146378D01*
X227622Y145880D01*
X228500Y145706D01*
X229378Y145880D01*
X230122Y146378D01*
X230270Y146599D01*
X233500D01*
X234036Y146706D01*
X234491Y147009D01*
X288991Y201509D01*
X289294Y201964D01*
X289401Y202500D01*
Y237500D01*
X289401Y237500D01*
X289294Y238036D01*
X288991Y238491D01*
X286991Y240491D01*
X286536Y240794D01*
X286000Y240901D01*
X284956D01*
Y242457D01*
X287961D01*
Y245819D01*
Y249181D01*
D02*
G37*
G36*
X293362Y292075D02*
X286638D01*
Y286925D01*
Y281925D01*
Y276925D01*
Y271925D01*
Y266925D01*
Y261925D01*
Y256925D01*
Y251925D01*
X293362D01*
Y252175D01*
X293862Y252421D01*
X294099Y252240D01*
Y174080D01*
X249009Y128991D01*
X248706Y128536D01*
X248599Y128000D01*
Y85000D01*
X248706Y84464D01*
X249009Y84009D01*
X273258Y59761D01*
X273206Y59500D01*
X273380Y58622D01*
X273878Y57878D01*
X274622Y57381D01*
X275500Y57206D01*
X276378Y57381D01*
X277122Y57878D01*
X277620Y58622D01*
X277794Y59500D01*
X277620Y60378D01*
X277122Y61122D01*
X276378Y61619D01*
X275746Y61745D01*
Y62255D01*
X276378Y62381D01*
X277122Y62878D01*
X277620Y63622D01*
X277794Y64500D01*
X277620Y65378D01*
X277122Y66122D01*
X276378Y66619D01*
X275500Y66794D01*
X275239Y66742D01*
X274608Y67374D01*
X274854Y67834D01*
X275500Y67706D01*
X276378Y67881D01*
X277122Y68378D01*
X277620Y69122D01*
X277794Y70000D01*
X277620Y70878D01*
X277122Y71622D01*
X276378Y72119D01*
X275500Y72294D01*
X275239Y72242D01*
X257901Y89580D01*
Y118920D01*
X305491Y166509D01*
X305794Y166964D01*
X305901Y167500D01*
Y258000D01*
X305901Y258000D01*
X305794Y258536D01*
X305491Y258991D01*
X298991Y265491D01*
X298536Y265794D01*
X298000Y265901D01*
X293362D01*
Y268099D01*
X297920D01*
X306509Y259509D01*
X306964Y259206D01*
X307500Y259099D01*
X308099D01*
Y151580D01*
X260009Y103491D01*
X259706Y103036D01*
X259599Y102500D01*
Y93000D01*
X259706Y92464D01*
X260009Y92009D01*
X263174Y88845D01*
X263629Y88541D01*
X264165Y88434D01*
X264506D01*
X264878Y87878D01*
X265622Y87381D01*
X266500Y87206D01*
X267378Y87381D01*
X268122Y87878D01*
X268619Y88622D01*
X268794Y89500D01*
X268619Y90378D01*
X268122Y91122D01*
X267378Y91619D01*
X266500Y91794D01*
X265622Y91619D01*
X265048Y91236D01*
X264745D01*
X262401Y93580D01*
Y101920D01*
X310491Y150009D01*
X310794Y150464D01*
X310901Y151000D01*
X310901Y151000D01*
Y260500D01*
X310794Y261036D01*
X310491Y261491D01*
X310036Y261794D01*
X309500Y261901D01*
X308080D01*
X299491Y270491D01*
X299036Y270794D01*
X298500Y270901D01*
X293362D01*
Y273099D01*
X299420D01*
X308509Y264009D01*
X308964Y263706D01*
X309500Y263599D01*
X313099D01*
Y149580D01*
X264509Y100991D01*
X264206Y100536D01*
X264099Y100000D01*
Y98770D01*
X263878Y98622D01*
X263381Y97878D01*
X263206Y97000D01*
X263381Y96122D01*
X263878Y95378D01*
X264622Y94881D01*
X265500Y94706D01*
X266378Y94881D01*
X267122Y95378D01*
X267619Y96122D01*
X267794Y97000D01*
X267619Y97878D01*
X267122Y98622D01*
X266901Y98770D01*
Y99420D01*
X315491Y148009D01*
X315491Y148009D01*
X315794Y148464D01*
X315901Y149000D01*
Y265000D01*
X315794Y265536D01*
X315491Y265991D01*
X315036Y266294D01*
X314500Y266401D01*
X310080D01*
X300991Y275491D01*
X300536Y275794D01*
X300000Y275901D01*
X293362D01*
Y278099D01*
X299920D01*
X308509Y269509D01*
X308964Y269206D01*
X309500Y269099D01*
X317599D01*
Y145580D01*
X271261Y99242D01*
X271000Y99294D01*
X270122Y99119D01*
X269378Y98622D01*
X268881Y97878D01*
X268706Y97000D01*
X268881Y96122D01*
X269378Y95378D01*
X270122Y94881D01*
X271000Y94706D01*
X271878Y94881D01*
X272622Y95378D01*
X273119Y96122D01*
X273294Y97000D01*
X273242Y97261D01*
X319991Y144009D01*
X320294Y144464D01*
X320401Y145000D01*
Y270500D01*
X320294Y271036D01*
X319991Y271491D01*
X319536Y271794D01*
X319000Y271901D01*
X310080D01*
X301491Y280491D01*
X301036Y280794D01*
X300500Y280901D01*
X293362D01*
Y286925D01*
Y292075D01*
D02*
G37*
G36*
X245276Y74651D02*
X242126D01*
X241736Y74574D01*
X241405Y74353D01*
X241184Y74022D01*
X241106Y73632D01*
Y71759D01*
X240615Y71687D01*
X240262Y72539D01*
X239701Y73270D01*
X238970Y73831D01*
X238118Y74183D01*
X237709Y74238D01*
Y70774D01*
Y67310D01*
X238118Y67364D01*
X238970Y67716D01*
X239701Y68277D01*
X240262Y69008D01*
X240615Y69860D01*
X241106Y69788D01*
Y68514D01*
X241184Y68124D01*
X241405Y67793D01*
X241736Y67572D01*
X242126Y67494D01*
X245276D01*
X245666Y67572D01*
X245997Y67793D01*
X246218Y68124D01*
X246295Y68514D01*
Y73632D01*
X246218Y74022D01*
X245997Y74353D01*
X245666Y74574D01*
X245276Y74651D01*
D02*
G37*
G36*
X302669Y74238D02*
Y71278D01*
X305629D01*
X305575Y71687D01*
X305223Y72539D01*
X304662Y73270D01*
X303930Y73831D01*
X303079Y74183D01*
X302669Y74238D01*
D02*
G37*
G36*
X236701D02*
X236291Y74183D01*
X235440Y73831D01*
X234708Y73270D01*
X234148Y72539D01*
X233795Y71687D01*
X233741Y71278D01*
X236701D01*
Y74238D01*
D02*
G37*
G36*
X305629Y70270D02*
X302669D01*
Y67310D01*
X303079Y67364D01*
X303930Y67716D01*
X304662Y68277D01*
X305223Y69008D01*
X305575Y69860D01*
X305629Y70270D01*
D02*
G37*
G36*
X297244Y74651D02*
X294094D01*
X293704Y74574D01*
X293374Y74353D01*
X293152Y74022D01*
X293075Y73632D01*
Y68514D01*
X293152Y68124D01*
X293374Y67793D01*
X293704Y67572D01*
X294094Y67494D01*
X297244D01*
X297634Y67572D01*
X297965Y67793D01*
X298186Y68124D01*
X298264Y68514D01*
Y69788D01*
X298756Y69860D01*
X299108Y69008D01*
X299669Y68277D01*
X300400Y67716D01*
X301252Y67364D01*
X301661Y67310D01*
Y70774D01*
Y74238D01*
X301252Y74183D01*
X300400Y73831D01*
X299669Y73270D01*
X299108Y72539D01*
X298756Y71687D01*
X298264Y71759D01*
Y73632D01*
X298186Y74022D01*
X297965Y74353D01*
X297634Y74574D01*
X297244Y74651D01*
D02*
G37*
G36*
X236701Y70270D02*
X233741D01*
X233795Y69860D01*
X234148Y69008D01*
X234708Y68277D01*
X235440Y67716D01*
X236291Y67364D01*
X236701Y67310D01*
Y70270D01*
D02*
G37*
G36*
X310500Y79901D02*
X292000D01*
X291464Y79794D01*
X291009Y79491D01*
X291009Y79491D01*
X286761Y75242D01*
X286500Y75294D01*
X285622Y75119D01*
X284878Y74622D01*
X284381Y73878D01*
X284206Y73000D01*
X284381Y72122D01*
X284878Y71378D01*
X285622Y70881D01*
X286500Y70706D01*
X287378Y70881D01*
X288122Y71378D01*
X288619Y72122D01*
X288794Y73000D01*
X288742Y73261D01*
X292580Y77099D01*
X309920D01*
X318509Y68509D01*
X318964Y68206D01*
X319500Y68099D01*
X324230D01*
X324378Y67878D01*
X325122Y67381D01*
X326000Y67206D01*
X326878Y67381D01*
X327622Y67878D01*
X328119Y68622D01*
X328294Y69500D01*
X328119Y70378D01*
X327622Y71122D01*
X326878Y71619D01*
X326000Y71794D01*
X325122Y71619D01*
X324378Y71122D01*
X324230Y70901D01*
X320080D01*
X311491Y79491D01*
X311036Y79794D01*
X310500Y79901D01*
D02*
G37*
G36*
X299213Y44327D02*
X240158D01*
X239767Y44249D01*
X239437Y44028D01*
X239215Y43697D01*
X239138Y43307D01*
Y15748D01*
X239215Y15358D01*
X239437Y15027D01*
X239767Y14806D01*
X240158Y14728D01*
X299213D01*
X299603Y14806D01*
X299934Y15027D01*
X300155Y15358D01*
X300232Y15748D01*
Y43307D01*
X300155Y43697D01*
X299934Y44028D01*
X299603Y44249D01*
X299213Y44327D01*
D02*
G37*
G36*
X346961Y20678D02*
Y12315D01*
X355324D01*
X355202Y13551D01*
X354695Y15223D01*
X353871Y16765D01*
X352762Y18116D01*
X351411Y19225D01*
X349869Y20049D01*
X348196Y20557D01*
X346961Y20678D01*
D02*
G37*
G36*
X345953D02*
X344717Y20557D01*
X343044Y20049D01*
X341503Y19225D01*
X340152Y18116D01*
X339042Y16765D01*
X338218Y15223D01*
X337711Y13551D01*
X337589Y12315D01*
X345953D01*
Y20678D01*
D02*
G37*
G36*
X12315D02*
Y12315D01*
X20678D01*
X20557Y13551D01*
X20049Y15223D01*
X19225Y16765D01*
X18116Y18116D01*
X16765Y19225D01*
X15223Y20049D01*
X13551Y20557D01*
X12315Y20678D01*
D02*
G37*
G36*
X11307D02*
X10071Y20557D01*
X8399Y20049D01*
X6857Y19225D01*
X5506Y18116D01*
X4397Y16765D01*
X3573Y15223D01*
X3065Y13551D01*
X2944Y12315D01*
X11307D01*
Y20678D01*
D02*
G37*
G36*
X355324Y11307D02*
X346961D01*
Y2944D01*
X348196Y3065D01*
X349869Y3573D01*
X351411Y4397D01*
X352762Y5506D01*
X353871Y6857D01*
X354695Y8399D01*
X355202Y10071D01*
X355324Y11307D01*
D02*
G37*
G36*
X345953D02*
X337589D01*
X337711Y10071D01*
X338218Y8399D01*
X339042Y6857D01*
X340152Y5506D01*
X341503Y4397D01*
X343044Y3573D01*
X344717Y3065D01*
X345953Y2944D01*
Y11307D01*
D02*
G37*
G36*
X20678D02*
X12315D01*
Y2944D01*
X13551Y3065D01*
X15223Y3573D01*
X16765Y4397D01*
X18116Y5506D01*
X19225Y6857D01*
X20049Y8399D01*
X20557Y10071D01*
X20678Y11307D01*
D02*
G37*
G36*
X11307D02*
X2944D01*
X3065Y10071D01*
X3573Y8399D01*
X4397Y6857D01*
X5506Y5506D01*
X6857Y4397D01*
X8399Y3573D01*
X10071Y3065D01*
X11307Y2944D01*
Y11307D01*
D02*
G37*
%LPD*%
G36*
X282154Y239945D02*
X282261Y239409D01*
X282564Y238954D01*
X283009Y238509D01*
X283009Y238509D01*
X283464Y238206D01*
X284000Y238099D01*
X285420D01*
X286599Y236920D01*
Y203080D01*
X237751Y154232D01*
X237290Y154478D01*
X237294Y154500D01*
X237120Y155378D01*
X236622Y156122D01*
X236401Y156270D01*
Y165420D01*
X269491Y198509D01*
X269491Y198509D01*
X269794Y198964D01*
X269901Y199500D01*
Y242457D01*
X277154D01*
Y200135D01*
X241761Y164742D01*
X241500Y164794D01*
X240622Y164620D01*
X239878Y164122D01*
X239381Y163378D01*
X239206Y162500D01*
X239381Y161622D01*
X239878Y160878D01*
X240622Y160380D01*
X241500Y160206D01*
X242378Y160380D01*
X243122Y160878D01*
X243619Y161622D01*
X243794Y162500D01*
X243742Y162761D01*
X279546Y198565D01*
X279546Y198565D01*
X279849Y199019D01*
X279956Y199555D01*
Y242457D01*
X282154D01*
Y239945D01*
D02*
G37*
%LPC*%
G36*
X283500Y230294D02*
X282622Y230119D01*
X281878Y229622D01*
X281381Y228878D01*
X281206Y228000D01*
X281381Y227122D01*
X281461Y227002D01*
Y209498D01*
X281381Y209378D01*
X281206Y208500D01*
X281381Y207622D01*
X281878Y206878D01*
X282622Y206381D01*
X283500Y206206D01*
X284378Y206381D01*
X285122Y206878D01*
X285619Y207622D01*
X285794Y208500D01*
X285619Y209378D01*
X285539Y209498D01*
Y227002D01*
X285619Y227122D01*
X285794Y228000D01*
X285619Y228878D01*
X285122Y229622D01*
X284378Y230119D01*
X283500Y230294D01*
D02*
G37*
%LPD*%
G36*
X298599Y254920D02*
Y170080D01*
X252009Y123491D01*
X251901Y123328D01*
X251401Y123480D01*
Y127420D01*
X296491Y172509D01*
X296794Y172964D01*
X296901Y173500D01*
X296901Y173500D01*
Y253000D01*
X296794Y253536D01*
X296491Y253991D01*
X294991Y255491D01*
X294536Y255794D01*
X294000Y255901D01*
X293362D01*
Y258099D01*
X295420D01*
X298599Y254920D01*
D02*
G37*
G36*
X303099Y257420D02*
Y168080D01*
X255509Y120491D01*
X255206Y120036D01*
X255099Y119500D01*
Y89000D01*
X255206Y88464D01*
X255509Y88009D01*
X273258Y70261D01*
X273206Y70000D01*
X273334Y69354D01*
X272874Y69108D01*
X254401Y87580D01*
Y121920D01*
X300991Y168509D01*
X301294Y168964D01*
X301401Y169500D01*
X301401Y169500D01*
Y255500D01*
X301294Y256036D01*
X300991Y256491D01*
X300991Y256491D01*
X296991Y260491D01*
X296536Y260794D01*
X296000Y260901D01*
X293362D01*
Y263099D01*
X297420D01*
X303099Y257420D01*
D02*
G37*
D24*
X325500Y216500D02*
D03*
X333500D02*
D03*
X329500Y186500D02*
D03*
D70*
X290000Y65500D02*
X299000Y56500D01*
X354000D01*
X286500Y73000D02*
X292000Y78500D01*
X310500D01*
X319500Y69500D01*
X326000D01*
X250000Y128000D02*
X295500Y173500D01*
X250000Y85000D02*
Y128000D01*
X295500Y173500D02*
Y253000D01*
X288000Y202500D02*
Y237500D01*
X233500Y148000D02*
X288000Y202500D01*
X228500Y148000D02*
X233500D01*
X283555Y239945D02*
X284000Y239500D01*
X283555Y239945D02*
Y245819D01*
X284000Y239500D02*
X286000D01*
X288000Y237500D01*
X268500Y199500D02*
Y245764D01*
X268555Y245819D01*
X235000Y166000D02*
X268500Y199500D01*
X235000Y154500D02*
Y166000D01*
X278555Y199555D02*
Y245819D01*
X241500Y162500D02*
X278555Y199555D01*
X309500Y151000D02*
Y260500D01*
X307500D02*
X309500D01*
X298500Y269500D02*
X307500Y260500D01*
X261000Y102500D02*
X309500Y151000D01*
X314500Y149000D02*
Y265000D01*
X265500Y100000D02*
X314500Y149000D01*
X300000Y274500D02*
X309500Y265000D01*
X314500D01*
X319000Y145000D02*
Y270500D01*
X271000Y97000D02*
X319000Y145000D01*
X309500Y270500D02*
X319000D01*
X256500Y119500D02*
X304500Y167500D01*
Y258000D01*
X256500Y89000D02*
Y119500D01*
X298000Y264500D02*
X304500Y258000D01*
X296000Y259500D02*
X300000Y255500D01*
Y169500D02*
Y255500D01*
X253000Y122500D02*
X300000Y169500D01*
X294000Y254500D02*
X295500Y253000D01*
X290000Y254500D02*
X294000D01*
X290000Y254500D02*
X290000Y254500D01*
X250000Y85000D02*
X275500Y59500D01*
X290000Y259500D02*
X296000D01*
X253000Y87000D02*
Y122500D01*
Y87000D02*
X275500Y64500D01*
X290000Y264500D02*
X298000D01*
X256500Y89000D02*
X275500Y70000D01*
X290000Y269500D02*
X298500D01*
X290000Y269500D02*
X290000Y269500D01*
X261000Y93000D02*
Y102500D01*
Y93000D02*
X264165Y89835D01*
X266165D01*
X266500Y89500D01*
X290000Y274500D02*
X300000D01*
X290000Y274500D02*
X290000Y274500D01*
X265500Y97000D02*
Y100000D01*
X300500Y279500D02*
X309500Y270500D01*
X290000Y279500D02*
X300500D01*
X300000Y49000D02*
X322000Y27000D01*
X253000Y64500D02*
X264000Y53500D01*
X309013D01*
X315513Y47000D01*
X322000Y27000D02*
X355500D01*
X260500Y49000D02*
X300000D01*
X249000Y60500D02*
X260500Y49000D01*
X315513Y47000D02*
X355500D01*
X290000Y279500D02*
X290000Y279500D01*
D71*
X179000Y299000D02*
X187500Y290500D01*
Y202000D02*
Y290500D01*
X184500Y199000D02*
X187500Y202000D01*
X194500Y221500D02*
X224500D01*
X241500Y137000D02*
X289000Y184500D01*
X213672Y137000D02*
X241500D01*
X211500Y139172D02*
X213672Y137000D01*
X211500Y139172D02*
Y169500D01*
X188000Y174000D02*
X222750D01*
X223500Y174750D02*
Y177000D01*
X222750Y174000D02*
X223500Y174750D01*
X283500Y208500D02*
Y228000D01*
X355000Y206500D02*
Y276000D01*
X349000Y282000D02*
X355000Y276000D01*
X313500Y282000D02*
X349000D01*
X344000Y196500D02*
X349000Y201500D01*
Y273000D01*
X345000Y277000D02*
X349000Y273000D01*
X313500Y277000D02*
X345000D01*
X230500Y247000D02*
Y256500D01*
Y203500D02*
Y247000D01*
X223500Y177000D02*
Y196500D01*
X230500Y203500D01*
D72*
X258465Y245819D02*
D03*
X263555D02*
D03*
X268555D02*
D03*
X273555D02*
D03*
X278555D02*
D03*
X283555D02*
D03*
X288464D02*
D03*
D73*
X290000Y254500D02*
D03*
Y259500D02*
D03*
Y264500D02*
D03*
Y269500D02*
D03*
Y274500D02*
D03*
Y279500D02*
D03*
Y284500D02*
D03*
Y289500D02*
D03*
D74*
X203937Y283469D02*
D03*
X221260D02*
D03*
D75*
X290000Y65500D02*
D03*
X354000Y56500D02*
D03*
X286500Y73000D02*
D03*
X326000Y69500D02*
D03*
X194500Y221500D02*
D03*
X184500Y199000D02*
D03*
X179000Y299000D02*
D03*
X224500Y221500D02*
D03*
X211500Y169500D02*
D03*
X289000Y184500D02*
D03*
X283500Y208500D02*
D03*
X228500Y148000D02*
D03*
X235000Y154500D02*
D03*
X241500Y162500D02*
D03*
X313500Y282000D02*
D03*
X355000Y206500D02*
D03*
X344000Y196500D02*
D03*
X313500Y277000D02*
D03*
X275500Y59500D02*
D03*
Y64500D02*
D03*
Y70000D02*
D03*
X265500Y97000D02*
D03*
X266500Y89500D02*
D03*
X253000Y64500D02*
D03*
X355500Y47000D02*
D03*
X249000Y60500D02*
D03*
X355500Y27000D02*
D03*
X283500Y228000D02*
D03*
X230500Y256500D02*
D03*
X223500Y177000D02*
D03*
X188000Y174000D02*
D03*
X339500Y201500D02*
D03*
X271000Y97000D02*
D03*
X224000Y154500D02*
D03*
X216500D02*
D03*
X220500D02*
D03*
X224000Y170500D02*
D03*
X220500D02*
D03*
X217000D02*
D03*
D76*
X237205Y70774D02*
D03*
X302165D02*
D03*
D77*
X220500Y162500D02*
D03*
X222272Y164862D02*
D03*
Y160138D02*
D03*
X218728D02*
D03*
Y164862D02*
D03*
D78*
X346457Y297244D02*
D03*
Y11811D02*
D03*
X11811D02*
D03*
Y297244D02*
D03*
M02*
