G04*
G04 #@! TF.GenerationSoftware,Altium Limited,Altium Designer,19.1.9 (167)*
G04*
G04 Layer_Color=16711935*
%FSLAX25Y25*%
%MOIN*%
G70*
G01*
G75*
%ADD18C,0.00394*%
D18*
X219910Y165059D02*
X219646Y166043D01*
X218925Y166764D01*
X217941Y167028D01*
X216957Y166764D01*
X216236Y166043D01*
X215972Y165059D01*
X216236Y164075D01*
X216957Y163354D01*
X217941Y163091D01*
X218925Y163354D01*
X219646Y164075D01*
X219910Y165059D01*
X308130Y33445D02*
X311870D01*
X308130Y26555D02*
X311870D01*
Y33445D01*
X308130Y26555D02*
Y33445D01*
X344555Y25130D02*
X351445D01*
X344555Y28870D02*
X351445D01*
Y25130D02*
Y28870D01*
X344555Y25130D02*
Y28870D01*
X344555Y48870D02*
X351445D01*
X344555Y45130D02*
X351445D01*
X344555D02*
Y48870D01*
X351445Y45130D02*
Y48870D01*
X329287Y46630D02*
Y50370D01*
X322398Y46630D02*
Y50370D01*
Y46630D02*
X329287D01*
X322398Y50370D02*
X329287D01*
X316898Y23898D02*
Y36102D01*
X329102D01*
Y23898D02*
Y36102D01*
X316898Y23898D02*
X329102D01*
X239870Y142055D02*
Y148945D01*
X236130Y142055D02*
Y148945D01*
X239870D01*
X236130Y142055D02*
X239870D01*
X213370Y141996D02*
Y148886D01*
X209630Y141996D02*
Y148886D01*
X213370D01*
X209630Y141996D02*
X213370D01*
X204870Y142055D02*
Y148945D01*
X201130Y142055D02*
Y148945D01*
X204870D01*
X201130Y142055D02*
X204870D01*
X201130Y176555D02*
Y183445D01*
X204870Y176555D02*
Y183445D01*
X201130Y176555D02*
X204870D01*
X201130Y183445D02*
X204870D01*
X236496Y112630D02*
X243386D01*
X236496Y116370D02*
X243386D01*
Y112630D02*
Y116370D01*
X236496Y112630D02*
Y116370D01*
X214398Y156398D02*
Y168602D01*
X226602Y156398D02*
Y168602D01*
X214398D02*
X226602D01*
X214398Y156398D02*
X226602D01*
X234130Y235713D02*
X237870D01*
X234130Y242602D02*
X237870D01*
X234130Y235713D02*
Y242602D01*
X237870Y235713D02*
Y242602D01*
X227870Y250213D02*
Y257102D01*
X224130Y250213D02*
Y257102D01*
X227870D01*
X224130Y250213D02*
X227870D01*
Y235713D02*
Y242602D01*
X224130Y235713D02*
Y242602D01*
X227870D01*
X224130Y235713D02*
X227870D01*
X236555Y105130D02*
Y108870D01*
X243445Y105130D02*
Y108870D01*
X236555D02*
X243445D01*
X236555Y105130D02*
X243445D01*
X236555Y97630D02*
Y101370D01*
X243445Y97630D02*
Y101370D01*
X236555D02*
X243445D01*
X236555Y97630D02*
X243445D01*
X303445Y134130D02*
Y137870D01*
X296555Y134130D02*
Y137870D01*
Y134130D02*
X303445D01*
X296555Y137870D02*
X303445D01*
Y141630D02*
Y145370D01*
X296555Y141630D02*
Y145370D01*
Y141630D02*
X303445D01*
X296555Y145370D02*
X303445D01*
Y126630D02*
Y130370D01*
X296555Y126630D02*
Y130370D01*
Y126630D02*
X303445D01*
X296555Y130370D02*
X303445D01*
Y119130D02*
Y122870D01*
X296555Y119130D02*
Y122870D01*
Y119130D02*
X303445D01*
X296555Y122870D02*
X303445D01*
Y111630D02*
Y115370D01*
X296555Y111630D02*
Y115370D01*
Y111630D02*
X303445D01*
X296555Y115370D02*
X303445D01*
Y104130D02*
Y107870D01*
X296555Y104130D02*
Y107870D01*
Y104130D02*
X303445D01*
X296555Y107870D02*
X303445D01*
Y96630D02*
Y100370D01*
X296555Y96630D02*
Y100370D01*
Y96630D02*
X303445D01*
X296555Y100370D02*
X303445D01*
Y89130D02*
Y92870D01*
X296555Y89130D02*
Y92870D01*
Y89130D02*
X303445D01*
X296555Y92870D02*
X303445D01*
X89055Y300870D02*
X95945D01*
X89055Y297130D02*
X95945D01*
X89055D02*
Y300870D01*
X95945Y297130D02*
Y300870D01*
X233072Y51583D02*
X306300D01*
X237008Y74811D02*
X302362D01*
X306299Y55520D02*
X306299Y51583D01*
X300986Y61031D02*
X302364D01*
X302362D02*
Y74811D01*
X300986Y55520D02*
Y61032D01*
Y55520D02*
X306299D01*
X233071Y51583D02*
X233071Y55520D01*
X237006Y61031D02*
X238384D01*
X237008D02*
Y74811D01*
X238384Y55520D02*
Y61032D01*
X233071Y55520D02*
X238384D01*
X344457Y57390D02*
X351543D01*
X344457Y68610D02*
X351543D01*
X344457Y57390D02*
Y68610D01*
X351543Y57390D02*
Y68610D01*
X315457Y57390D02*
X322543D01*
X315457Y68610D02*
X322543D01*
X315457Y57390D02*
Y68610D01*
X322543Y57390D02*
Y68610D01*
X329957Y57390D02*
X337043D01*
X329957Y68610D02*
X337043D01*
X329957Y57390D02*
Y68610D01*
X337043Y57390D02*
Y68610D01*
X352870Y243114D02*
Y250004D01*
X349130Y243114D02*
Y250004D01*
X352870D01*
X349130Y243114D02*
X352870D01*
X227630Y183445D02*
X231370D01*
X227630Y176555D02*
X231370D01*
Y183445D01*
X227630Y176555D02*
Y183445D01*
X209630D02*
X213370D01*
X209630Y176555D02*
X213370D01*
Y183445D01*
X209630Y176555D02*
Y183445D01*
X236130Y176555D02*
Y183445D01*
X239870Y176555D02*
Y183445D01*
X236130Y176555D02*
X239870D01*
X236130Y183445D02*
X239870D01*
M02*
