G04*
G04 #@! TF.GenerationSoftware,Altium Limited,Altium Designer,19.1.9 (167)*
G04*
G04 Layer_Color=32768*
%FSLAX25Y25*%
%MOIN*%
G70*
G01*
G75*
%ADD15C,0.00787*%
%ADD18C,0.00394*%
%ADD79C,0.00200*%
D15*
X316250Y177000D02*
Y226000D01*
X321508Y181520D02*
Y221480D01*
X316250Y226000D02*
X342750D01*
X321508Y221480D02*
X337492D01*
X316250Y177000D02*
X342750D01*
X321508Y181520D02*
X337492D01*
X342750Y177000D02*
Y226000D01*
X337492Y181520D02*
Y221480D01*
D18*
X327428Y216500D02*
X327170Y217463D01*
X326465Y218168D01*
X325502Y218426D01*
X324539Y218168D01*
X323834Y217463D01*
X323576Y216500D01*
X323834Y215537D01*
X324539Y214832D01*
X325502Y214574D01*
X326465Y214832D01*
X327170Y215537D01*
X327428Y216500D01*
X328546Y211500D02*
X328251Y212408D01*
X327479Y212969D01*
X326524D01*
X325751Y212408D01*
X325457Y211500D01*
X325751Y210592D01*
X326524Y210031D01*
X327479D01*
X328251Y210592D01*
X328546Y211500D01*
Y206500D02*
X328251Y207408D01*
X327479Y207969D01*
X326524D01*
X325751Y207408D01*
X325457Y206500D01*
X325751Y205592D01*
X326524Y205031D01*
X327479D01*
X328251Y205592D01*
X328546Y206500D01*
Y191500D02*
X328251Y192408D01*
X327479Y192969D01*
X326524D01*
X325751Y192408D01*
X325457Y191500D01*
X325751Y190592D01*
X326524Y190031D01*
X327479D01*
X328251Y190592D01*
X328546Y191500D01*
Y201500D02*
X328251Y202408D01*
X327479Y202969D01*
X326524D01*
X325751Y202408D01*
X325457Y201500D01*
X325751Y200592D01*
X326524Y200031D01*
X327479D01*
X328251Y200592D01*
X328546Y201500D01*
X333543Y211500D02*
X333248Y212408D01*
X332476Y212969D01*
X331521D01*
X330749Y212408D01*
X330454Y211500D01*
X330749Y210592D01*
X331521Y210031D01*
X332476D01*
X333248Y210592D01*
X333543Y211500D01*
Y206500D02*
X333248Y207408D01*
X332476Y207969D01*
X331521D01*
X330749Y207408D01*
X330454Y206500D01*
X330749Y205592D01*
X331521Y205031D01*
X332476D01*
X333248Y205592D01*
X333543Y206500D01*
X335424Y216500D02*
X335166Y217463D01*
X334461Y218168D01*
X333498Y218426D01*
X332535Y218168D01*
X331830Y217463D01*
X331572Y216500D01*
X331830Y215537D01*
X332535Y214832D01*
X333498Y214574D01*
X334461Y214832D01*
X335166Y215537D01*
X335424Y216500D01*
X328546Y196500D02*
X328251Y197408D01*
X327479Y197969D01*
X326524D01*
X325751Y197408D01*
X325457Y196500D01*
X325751Y195592D01*
X326524Y195031D01*
X327479D01*
X328251Y195592D01*
X328546Y196500D01*
X333543Y201500D02*
X333248Y202408D01*
X332476Y202969D01*
X331521D01*
X330749Y202408D01*
X330454Y201500D01*
X330749Y200592D01*
X331521Y200031D01*
X332476D01*
X333248Y200592D01*
X333543Y201500D01*
X331426Y186500D02*
X331168Y187463D01*
X330463Y188168D01*
X329500Y188426D01*
X328537Y188168D01*
X327832Y187463D01*
X327574Y186500D01*
X327832Y185537D01*
X328537Y184832D01*
X329500Y184574D01*
X330463Y184832D01*
X331168Y185537D01*
X331426Y186500D01*
X333543Y196500D02*
X333248Y197408D01*
X332476Y197969D01*
X331521D01*
X330749Y197408D01*
X330454Y196500D01*
X330749Y195592D01*
X331521Y195031D01*
X332476D01*
X333248Y195592D01*
X333543Y196500D01*
Y191500D02*
X333248Y192408D01*
X332476Y192969D01*
X331521D01*
X330749Y192408D01*
X330454Y191500D01*
X330749Y190592D01*
X331521Y190031D01*
X332476D01*
X333248Y190592D01*
X333543Y191500D01*
X97853Y15017D02*
X97263Y14426D01*
X97853Y13835D01*
X97854Y11084D02*
X97264Y10494D01*
X97854Y9903D01*
X335582Y250295D02*
X334749Y250737D01*
X333863Y251059D01*
X332941Y251254D01*
X332000Y251320D01*
X331059Y251254D01*
X330137Y251059D01*
X329251Y250737D01*
X328418Y250295D01*
X330262Y274705D02*
X330986Y273942D01*
X332000Y273661D01*
X333014Y273942D01*
X333738Y274705D01*
X337906Y262500D02*
X337821Y263498D01*
X337568Y264467D01*
X337156Y265380D01*
X336595Y266210D01*
X335902Y266933D01*
X335096Y267529D01*
X334202Y267980D01*
X333244Y268273D01*
X332251Y268400D01*
X331250Y268358D01*
X330271Y268147D01*
X329341Y267773D01*
X328488Y267248D01*
X327736Y266586D01*
X327107Y265807D01*
X326619Y264932D01*
X326285Y263988D01*
X326116Y263001D01*
Y261999D01*
X326285Y261012D01*
X326619Y260068D01*
X327107Y259193D01*
X327736Y258414D01*
X328488Y257752D01*
X329341Y257227D01*
X330271Y256853D01*
X331250Y256642D01*
X332251Y256600D01*
X333244Y256727D01*
X334202Y257020D01*
X335096Y257471D01*
X335902Y258067D01*
X336595Y258790D01*
X337156Y259620D01*
X337568Y260533D01*
X337821Y261502D01*
X337906Y262500D01*
X338777D02*
X338705Y263487D01*
X338489Y264452D01*
X338136Y265376D01*
X337652Y266239D01*
X337047Y267022D01*
X336335Y267709D01*
X335530Y268285D01*
X334650Y268737D01*
X333714Y269056D01*
X332741Y269236D01*
X331752Y269272D01*
X330769Y269164D01*
X329812Y268914D01*
X328901Y268527D01*
X328057Y268011D01*
X327296Y267379D01*
X326636Y266642D01*
X326090Y265817D01*
X325670Y264921D01*
X325385Y263973D01*
X325241Y262995D01*
Y262005D01*
X325385Y261027D01*
X325670Y260079D01*
X326090Y259183D01*
X326636Y258358D01*
X327296Y257621D01*
X328057Y256989D01*
X328901Y256473D01*
X329812Y256086D01*
X330769Y255836D01*
X331752Y255728D01*
X332741Y255764D01*
X333714Y255944D01*
X334650Y256263D01*
X335530Y256715D01*
X336335Y257291D01*
X337047Y257978D01*
X337652Y258761D01*
X338136Y259624D01*
X338489Y260548D01*
X338705Y261513D01*
X338777Y262500D01*
X265272Y205654D02*
Y212347D01*
X261728Y205654D02*
Y212347D01*
X265272D01*
X261728Y205654D02*
X265272D01*
X255272D02*
Y212347D01*
X251728Y205654D02*
Y212347D01*
X255272D01*
X251728Y205654D02*
X255272D01*
X264799Y218547D02*
Y224453D01*
X252201D02*
X264799D01*
X252201Y218547D02*
Y224453D01*
Y218547D02*
X264799D01*
X97853Y13835D02*
X99779D01*
X97853Y15017D02*
X99779Y15017D01*
X97854Y9903D02*
X99779D01*
X97854Y11084D02*
X99779D01*
X114478Y18329D02*
X116512D01*
X114478Y17258D02*
Y18329D01*
X102769Y17258D02*
X114478D01*
X102769D02*
Y18480D01*
Y20343D01*
X99779Y18480D02*
X102769D01*
X114478Y6608D02*
X116512D01*
X114478D02*
Y7679D01*
X102769D02*
X114478D01*
X102769Y6457D02*
Y7679D01*
Y4594D02*
Y6457D01*
X99779D02*
X102769D01*
X99779Y4594D02*
X116512Y4594D01*
X99779Y4594D02*
Y20343D01*
X116512D01*
X116512Y4594D02*
X116512Y20343D01*
X322578Y275493D02*
X325676D01*
X322578Y276674D02*
X325676D01*
Y274705D02*
Y276674D01*
X322578Y274705D02*
Y276674D01*
X338324Y275493D02*
X341422D01*
X338324Y276674D02*
X341422D01*
X338324Y274705D02*
Y276674D01*
X341422Y274705D02*
Y276674D01*
X322578Y249507D02*
X325676D01*
X322578Y248326D02*
X325676D01*
Y250295D01*
X322578Y248326D02*
Y250295D01*
X338324Y249507D02*
X341422D01*
X338324Y248326D02*
X341422D01*
X338324D02*
Y250295D01*
X341422Y248326D02*
Y250295D01*
X319599D02*
X344402D01*
X319599D02*
Y274705D01*
X344402D01*
Y250295D02*
Y274705D01*
X289228Y221153D02*
Y227847D01*
X292772Y221153D02*
Y227847D01*
X289228Y221153D02*
X292772D01*
X289228Y227847D02*
X292772D01*
D79*
X263913Y209948D02*
X264113Y210148D01*
Y210548D01*
X263913Y210748D01*
X263113D01*
X262913Y210548D01*
Y210148D01*
X263113Y209948D01*
X262913Y208749D02*
Y209548D01*
X263713Y208749D01*
X263913D01*
X264113Y208949D01*
Y209349D01*
X263913Y209548D01*
X253913Y209948D02*
X254113Y210148D01*
Y210548D01*
X253913Y210748D01*
X253113D01*
X252913Y210548D01*
Y210148D01*
X253113Y209948D01*
X252913Y209548D02*
Y209149D01*
Y209349D01*
X254113D01*
X253913Y209548D01*
X257474Y221974D02*
X258274Y220775D01*
Y221974D02*
X257474Y220775D01*
X258674D02*
X259073D01*
X258874D01*
Y221974D01*
X258674Y221774D01*
X109210Y12600D02*
Y13000D01*
Y12800D01*
X108210D01*
X108010Y13000D01*
Y13200D01*
X108210Y13400D01*
X108010Y12200D02*
Y11801D01*
Y12000D01*
X109210D01*
X109010Y12200D01*
X331510Y261870D02*
X331310Y261670D01*
Y261270D01*
X331510Y261070D01*
X331710D01*
X331910Y261270D01*
Y261670D01*
X332110Y261870D01*
X332310D01*
X332509Y261670D01*
Y261270D01*
X332310Y261070D01*
X331310Y262270D02*
X332509D01*
X332110Y262670D01*
X332509Y263069D01*
X331310D01*
X332509Y263469D02*
Y263869D01*
Y263669D01*
X331310D01*
X331510Y263469D01*
X291600Y225342D02*
X290400D01*
Y224542D01*
Y223343D02*
Y224143D01*
X291200Y223343D01*
X291400D01*
X291600Y223543D01*
Y223943D01*
X291400Y224143D01*
M02*
