G04*
G04 #@! TF.GenerationSoftware,Altium Limited,Altium Designer,19.1.9 (167)*
G04*
G04 Layer_Color=65535*
%FSLAX25Y25*%
%MOIN*%
G70*
G01*
G75*
%ADD10C,0.00600*%
%ADD11C,0.00394*%
%ADD12C,0.00984*%
%ADD13C,0.00591*%
%ADD14C,0.00787*%
%ADD15C,0.00394*%
%ADD16C,0.01181*%
%ADD17C,0.01575*%
%ADD18C,0.01000*%
D10*
X288802Y281000D02*
X288725Y281986D01*
X288494Y282947D01*
X288115Y283861D01*
X287599Y284704D01*
X286956Y285456D01*
X286204Y286099D01*
X285361Y286615D01*
X284448Y286994D01*
X283486Y287225D01*
X282500Y287302D01*
X281514Y287225D01*
X280553Y286994D01*
X279639Y286615D01*
X278796Y286099D01*
X278044Y285456D01*
X277401Y284704D01*
X276885Y283861D01*
X276506Y282947D01*
X276275Y281986D01*
X276198Y281000D01*
X276275Y280014D01*
X276506Y279052D01*
X276885Y278139D01*
X277401Y277296D01*
X278044Y276544D01*
X278796Y275901D01*
X279639Y275385D01*
X280553Y275006D01*
X281514Y274775D01*
X282500Y274698D01*
X283486Y274775D01*
X284448Y275006D01*
X285361Y275385D01*
X286204Y275901D01*
X286956Y276544D01*
X287599Y277296D01*
X288115Y278139D01*
X288494Y279052D01*
X288725Y280014D01*
X288802Y281000D01*
X357031Y227626D02*
X360968D01*
X357031Y218374D02*
X360968D01*
Y223984D02*
Y227626D01*
Y218374D02*
Y222016D01*
X357031Y223984D02*
Y227626D01*
Y218374D02*
Y222016D01*
X270689Y292811D02*
X294311D01*
X270689Y269189D02*
Y292811D01*
Y269189D02*
X294311D01*
Y292811D01*
X333469Y207484D02*
Y211126D01*
Y201874D02*
Y205516D01*
X329532Y207484D02*
Y211126D01*
Y201874D02*
Y205516D01*
Y201874D02*
X333469D01*
X329532Y211126D02*
X333469D01*
X323468Y207484D02*
Y211126D01*
Y201874D02*
Y205516D01*
X319531Y207484D02*
Y211126D01*
Y201874D02*
Y205516D01*
Y201874D02*
X323468D01*
X319531Y211126D02*
X323468D01*
D11*
X347890Y43705D02*
D03*
D12*
X271161Y82882D02*
X270423Y83308D01*
Y82456D01*
X271161Y82882D01*
X239339Y198988D02*
X238600Y199414D01*
Y198562D01*
X239339Y198988D01*
D13*
X263744Y209000D02*
X269256D01*
X268500Y214000D02*
X269256D01*
Y204000D02*
Y214000D01*
X268500Y204000D02*
X269256D01*
X263744D02*
X264500D01*
X263744D02*
Y214000D01*
X264500D01*
X232244Y208661D02*
X237756D01*
X236575Y214173D02*
X237756D01*
Y203150D02*
Y214173D01*
X236575Y203150D02*
X237756D01*
X232244D02*
X233425D01*
X232244D02*
Y214173D01*
X233425D01*
X106000Y295744D02*
Y301256D01*
X111000Y295744D02*
Y296500D01*
X101000Y295744D02*
X111000D01*
X101000D02*
Y296500D01*
Y300500D02*
Y301256D01*
X111000D01*
Y300500D02*
Y301256D01*
X283000Y250244D02*
Y255756D01*
X278000Y255000D02*
Y255756D01*
X288000D01*
Y255000D02*
Y255756D01*
Y250244D02*
Y251000D01*
X278000Y250244D02*
X288000D01*
X278000D02*
Y251000D01*
X254244Y208661D02*
X259756D01*
X258575Y214173D02*
X259756D01*
Y203150D02*
Y214173D01*
X258575Y203150D02*
X259756D01*
X254244D02*
X255425D01*
X254244D02*
Y214173D01*
X255425D01*
X220244Y139862D02*
X225756D01*
X220244Y134862D02*
X221000D01*
X220244D02*
Y144862D01*
X221000D01*
X225000D02*
X225756D01*
Y134862D02*
Y144862D01*
X225000Y134862D02*
X225756D01*
X231744Y124862D02*
X237256D01*
X231744Y119350D02*
X232925D01*
X231744D02*
Y130374D01*
X232925D01*
X236075D02*
X237256D01*
Y119350D02*
Y130374D01*
X236075Y119350D02*
X237256D01*
X375941Y66744D02*
Y72256D01*
X370941Y71500D02*
Y72256D01*
X380941D01*
Y71500D02*
Y72256D01*
Y66744D02*
Y67500D01*
X370941Y66744D02*
X380941D01*
X370941D02*
Y67500D01*
X375941Y59744D02*
Y65256D01*
X380941Y59744D02*
Y60500D01*
X370941Y59744D02*
X380941D01*
X370941D02*
Y60500D01*
Y64500D02*
Y65256D01*
X380941D01*
Y64500D02*
Y65256D01*
X220244Y124862D02*
X225756D01*
X220244Y119862D02*
X221000D01*
X220244D02*
Y129862D01*
X221000D01*
X225000D02*
X225756D01*
Y119862D02*
Y129862D01*
X225000Y119862D02*
X225756D01*
X326744Y35500D02*
X332256D01*
X326744Y29988D02*
X327925D01*
X326744D02*
Y41012D01*
X327925D01*
X331075D02*
X332256D01*
Y29988D02*
Y41012D01*
X331075Y29988D02*
X332256D01*
X334898Y29728D02*
X347102D01*
Y41933D01*
X334898Y29728D02*
Y41933D01*
X347102D01*
X328012Y162575D02*
Y163756D01*
X316988D02*
X328012D01*
X316988Y162575D02*
Y163756D01*
Y158244D02*
Y159425D01*
Y158244D02*
X328012D01*
Y159425D01*
X322500Y158244D02*
Y163756D01*
X328012Y155075D02*
Y156256D01*
X316988D02*
X328012D01*
X316988Y155075D02*
Y156256D01*
Y150744D02*
Y151925D01*
Y150744D02*
X328012D01*
Y151925D01*
X322500Y150744D02*
Y156256D01*
X241000Y168000D02*
X241756D01*
Y178000D01*
X241000D02*
X241756D01*
X236244D02*
X237000D01*
X236244Y168000D02*
Y178000D01*
Y168000D02*
X237000D01*
X236244Y173000D02*
X241756D01*
X233000Y168000D02*
X233756D01*
Y178000D01*
X233000D02*
X233756D01*
X228244D02*
X229000D01*
X228244Y168000D02*
Y178000D01*
Y168000D02*
X229000D01*
X228244Y173000D02*
X233756D01*
X225000Y168000D02*
X225756D01*
Y178000D01*
X225000D02*
X225756D01*
X220244D02*
X221000D01*
X220244Y168000D02*
Y178000D01*
Y168000D02*
X221000D01*
X220244Y173000D02*
X225756D01*
X272244Y214000D02*
X273000D01*
X272244Y204000D02*
Y214000D01*
Y204000D02*
X273000D01*
X277000D02*
X277756D01*
Y214000D01*
X277000D02*
X277756D01*
X272244Y209000D02*
X277756D01*
X370831Y11244D02*
Y12425D01*
Y11244D02*
X381854D01*
Y12425D01*
Y15575D02*
Y16756D01*
X370831D02*
X381854D01*
X370831Y15575D02*
Y16756D01*
X376343Y11244D02*
Y16756D01*
X328012Y96075D02*
Y97256D01*
X316988D02*
X328012D01*
X316988Y96075D02*
Y97256D01*
Y91744D02*
Y92925D01*
Y91744D02*
X328012D01*
Y92925D01*
X322500Y91744D02*
Y97256D01*
X328012Y103075D02*
Y104256D01*
X316988D02*
X328012D01*
X316988Y103075D02*
Y104256D01*
Y98744D02*
Y99925D01*
Y98744D02*
X328012D01*
Y99925D01*
X322500Y98744D02*
Y104256D01*
X328012Y110075D02*
Y111256D01*
X316988D02*
X328012D01*
X316988Y110075D02*
Y111256D01*
Y105744D02*
Y106925D01*
Y105744D02*
X328012D01*
Y106925D01*
X322500Y105744D02*
Y111256D01*
X328012Y117075D02*
Y118256D01*
X316988D02*
X328012D01*
X316988Y117075D02*
Y118256D01*
Y112744D02*
Y113925D01*
Y112744D02*
X328012D01*
Y113925D01*
X322500Y112744D02*
Y118256D01*
X328012Y124075D02*
Y125256D01*
X316988D02*
X328012D01*
X316988Y124075D02*
Y125256D01*
Y119744D02*
Y120925D01*
Y119744D02*
X328012D01*
Y120925D01*
X322500Y119744D02*
Y125256D01*
X328012Y131075D02*
Y132256D01*
X316988D02*
X328012D01*
X316988Y131075D02*
Y132256D01*
Y126744D02*
Y127925D01*
Y126744D02*
X328012D01*
Y127925D01*
X322500Y126744D02*
Y132256D01*
X328012Y138075D02*
Y139256D01*
X316988D02*
X328012D01*
X316988Y138075D02*
Y139256D01*
Y133744D02*
Y134925D01*
Y133744D02*
X328012D01*
Y134925D01*
X322500Y133744D02*
Y139256D01*
X328012Y145075D02*
Y146256D01*
X316988D02*
X328012D01*
X316988Y145075D02*
Y146256D01*
Y140744D02*
Y141925D01*
Y140744D02*
X328012D01*
Y141925D01*
X322500Y140744D02*
Y146256D01*
X263500Y217000D02*
Y220936D01*
X265468D01*
X266124Y220280D01*
Y218968D01*
X265468Y218312D01*
X263500D01*
X264812D02*
X266124Y217000D01*
X270060Y220936D02*
X268748Y220280D01*
X267436Y218968D01*
Y217656D01*
X268092Y217000D01*
X269404D01*
X270060Y217656D01*
Y218312D01*
X269404Y218968D01*
X267436D01*
X234124Y218941D02*
X233468Y219597D01*
X232156D01*
X231500Y218941D01*
Y216317D01*
X232156Y215661D01*
X233468D01*
X234124Y216317D01*
X235436Y218941D02*
X236092Y219597D01*
X237404D01*
X238060Y218941D01*
Y218285D01*
X237404Y217629D01*
X236748D01*
X237404D01*
X238060Y216973D01*
Y216317D01*
X237404Y215661D01*
X236092D01*
X235436Y216317D01*
X363000Y224936D02*
Y221000D01*
X365624D01*
X369560D02*
X366936D01*
X369560Y223624D01*
Y224280D01*
X368904Y224936D01*
X367592D01*
X366936Y224280D01*
X303000Y303936D02*
Y300656D01*
X303656Y300000D01*
X304968D01*
X305624Y300656D01*
Y303936D01*
X306936Y300000D02*
X308248D01*
X307592D01*
Y303936D01*
X306936Y303280D01*
X280124Y306280D02*
X279468Y306936D01*
X278156D01*
X277500Y306280D01*
Y305624D01*
X278156Y304968D01*
X279468D01*
X280124Y304312D01*
Y303656D01*
X279468Y303000D01*
X278156D01*
X277500Y303656D01*
X281436Y306936D02*
Y303000D01*
X282748Y304312D01*
X284060Y303000D01*
Y306936D01*
X285371Y303000D02*
X286683D01*
X286027D01*
Y306936D01*
X285371Y306280D01*
X102500Y303000D02*
Y306936D01*
X104468D01*
X105124Y306280D01*
Y304968D01*
X104468Y304312D01*
X102500D01*
X103812D02*
X105124Y303000D01*
X108404D02*
Y306936D01*
X106436Y304968D01*
X109060D01*
X290000Y251000D02*
Y254936D01*
X291968D01*
X292624Y254280D01*
Y252968D01*
X291968Y252312D01*
X290000D01*
X291312D02*
X292624Y251000D01*
X293936D02*
X295248D01*
X294592D01*
Y254936D01*
X293936Y254280D01*
X257124Y219941D02*
X256468Y220597D01*
X255156D01*
X254500Y219941D01*
Y217317D01*
X255156Y216661D01*
X256468D01*
X257124Y217317D01*
X260404Y216661D02*
Y220597D01*
X258436Y218629D01*
X261060D01*
X371124Y154936D02*
X369812D01*
X370468D01*
Y151656D01*
X369812Y151000D01*
X369156D01*
X368500Y151656D01*
X372436Y154280D02*
X373092Y154936D01*
X374404D01*
X375060Y154280D01*
Y153624D01*
X374404Y152968D01*
X373748D01*
X374404D01*
X375060Y152312D01*
Y151656D01*
X374404Y151000D01*
X373092D01*
X372436Y151656D01*
X220000Y146500D02*
Y150436D01*
X221968D01*
X222624Y149780D01*
Y148468D01*
X221968Y147812D01*
X220000D01*
X221312D02*
X222624Y146500D01*
X223936Y149780D02*
X224592Y150436D01*
X225904D01*
X226560Y149780D01*
Y149124D01*
X225904Y148468D01*
X226560Y147812D01*
Y147156D01*
X225904Y146500D01*
X224592D01*
X223936Y147156D01*
Y147812D01*
X224592Y148468D01*
X223936Y149124D01*
Y149780D01*
X224592Y148468D02*
X225904D01*
X234124Y117280D02*
X233468Y117936D01*
X232156D01*
X231500Y117280D01*
Y114656D01*
X232156Y114000D01*
X233468D01*
X234124Y114656D01*
X238060Y117936D02*
X235436D01*
Y115968D01*
X236748Y116624D01*
X237404D01*
X238060Y115968D01*
Y114656D01*
X237404Y114000D01*
X236092D01*
X235436Y114656D01*
X400624Y65156D02*
Y67780D01*
X399968Y68436D01*
X398656D01*
X398000Y67780D01*
Y65156D01*
X398656Y64500D01*
X399968D01*
X399312Y65812D02*
X400624Y64500D01*
X399968D02*
X400624Y65156D01*
X401936Y64500D02*
X403248D01*
X402592D01*
Y68436D01*
X401936Y67780D01*
X363000Y67500D02*
Y71436D01*
X364968D01*
X365624Y70780D01*
Y69468D01*
X364968Y68812D01*
X363000D01*
X364312D02*
X365624Y67500D01*
X366936Y70780D02*
X367592Y71436D01*
X368904D01*
X369560Y70780D01*
Y70124D01*
X368904Y69468D01*
X368248D01*
X368904D01*
X369560Y68812D01*
Y68156D01*
X368904Y67500D01*
X367592D01*
X366936Y68156D01*
X363000Y60500D02*
Y64436D01*
X364968D01*
X365624Y63780D01*
Y62468D01*
X364968Y61812D01*
X363000D01*
X364312D02*
X365624Y60500D01*
X369560D02*
X366936D01*
X369560Y63124D01*
Y63780D01*
X368904Y64436D01*
X367592D01*
X366936Y63780D01*
X218500Y113862D02*
Y117798D01*
X220468D01*
X221124Y117142D01*
Y115830D01*
X220468Y115174D01*
X218500D01*
X219812D02*
X221124Y113862D01*
X222436D02*
X223748D01*
X223092D01*
Y117798D01*
X222436Y117142D01*
X225715D02*
X226372Y117798D01*
X227683D01*
X228339Y117142D01*
Y114518D01*
X227683Y113862D01*
X226372D01*
X225715Y114518D01*
Y117142D01*
X330780Y25876D02*
X331436Y26532D01*
Y27844D01*
X330780Y28500D01*
X328156D01*
X327500Y27844D01*
Y26532D01*
X328156Y25876D01*
X327500Y24564D02*
Y23252D01*
Y23908D01*
X331436D01*
X330780Y24564D01*
Y21284D02*
X331436Y20628D01*
Y19317D01*
X330780Y18661D01*
X328156D01*
X327500Y19317D01*
Y20628D01*
X328156Y21284D01*
X330780D01*
X334200Y51636D02*
Y47700D01*
X336824D01*
X338136D02*
X339448D01*
X338792D01*
Y51636D01*
X338136Y50980D01*
X312000Y222436D02*
X314624Y218500D01*
Y222436D02*
X312000Y218500D01*
X315936D02*
X317248D01*
X316592D01*
Y222436D01*
X315936Y221780D01*
X331124Y199280D02*
X330468Y199936D01*
X329156D01*
X328500Y199280D01*
Y196656D01*
X329156Y196000D01*
X330468D01*
X331124Y196656D01*
X335060Y196000D02*
X332436D01*
X335060Y198624D01*
Y199280D01*
X334404Y199936D01*
X333092D01*
X332436Y199280D01*
X321624D02*
X320968Y199936D01*
X319656D01*
X319000Y199280D01*
Y196656D01*
X319656Y196000D01*
X320968D01*
X321624Y196656D01*
X322936Y196000D02*
X324248D01*
X323592D01*
Y199936D01*
X322936Y199280D01*
X83254Y293280D02*
X82598Y293936D01*
X81286D01*
X80630Y293280D01*
Y292624D01*
X81286Y291968D01*
X82598D01*
X83254Y291312D01*
Y290656D01*
X82598Y290000D01*
X81286D01*
X80630Y290656D01*
X84566Y293936D02*
Y290000D01*
X85878Y291312D01*
X87190Y290000D01*
Y293936D01*
X91125Y290000D02*
X88501D01*
X91125Y292624D01*
Y293280D01*
X90469Y293936D01*
X89157D01*
X88501Y293280D01*
X244500Y206936D02*
Y203656D01*
X245156Y203000D01*
X246468D01*
X247124Y203656D01*
Y206936D01*
X251060Y203000D02*
X248436D01*
X251060Y205624D01*
Y206280D01*
X250404Y206936D01*
X249092D01*
X248436Y206280D01*
X236000Y162500D02*
Y166436D01*
X237968D01*
X238624Y165780D01*
Y164468D01*
X237968Y163812D01*
X236000D01*
X237312D02*
X238624Y162500D01*
X239936D02*
X241248D01*
X240592D01*
Y166436D01*
X239936Y165780D01*
X243215Y162500D02*
X244527D01*
X243871D01*
Y166436D01*
X243215Y165780D01*
X272500Y217000D02*
Y220936D01*
X274468D01*
X275124Y220280D01*
Y218968D01*
X274468Y218312D01*
X272500D01*
X273812D02*
X275124Y217000D01*
X276436Y217656D02*
X277092Y217000D01*
X278404D01*
X279060Y217656D01*
Y220280D01*
X278404Y220936D01*
X277092D01*
X276436Y220280D01*
Y219624D01*
X277092Y218968D01*
X279060D01*
X228000Y162500D02*
Y166436D01*
X229968D01*
X230624Y165780D01*
Y164468D01*
X229968Y163812D01*
X228000D01*
X229312D02*
X230624Y162500D01*
X231936Y166436D02*
X234560D01*
Y165780D01*
X231936Y163156D01*
Y162500D01*
X219500D02*
Y166436D01*
X221468D01*
X222124Y165780D01*
Y164468D01*
X221468Y163812D01*
X219500D01*
X220812D02*
X222124Y162500D01*
X226060Y166436D02*
X223436D01*
Y164468D01*
X224748Y165124D01*
X225404D01*
X226060Y164468D01*
Y163156D01*
X225404Y162500D01*
X224092D01*
X223436Y163156D01*
X206124Y305436D02*
X204812D01*
X205468D01*
Y302156D01*
X204812Y301500D01*
X204156D01*
X203500Y302156D01*
X210060Y301500D02*
X207436D01*
X210060Y304124D01*
Y304780D01*
X209404Y305436D01*
X208092D01*
X207436Y304780D01*
X381300Y53436D02*
Y49500D01*
X383268D01*
X383924Y50156D01*
Y52780D01*
X383268Y53436D01*
X381300D01*
X385236Y52780D02*
X385892Y53436D01*
X387204D01*
X387860Y52780D01*
Y52124D01*
X387204Y51468D01*
X386548D01*
X387204D01*
X387860Y50812D01*
Y50156D01*
X387204Y49500D01*
X385892D01*
X385236Y50156D01*
X367300Y53436D02*
Y49500D01*
X369268D01*
X369924Y50156D01*
Y52780D01*
X369268Y53436D01*
X367300D01*
X373860Y49500D02*
X371236D01*
X373860Y52124D01*
Y52780D01*
X373204Y53436D01*
X371892D01*
X371236Y52780D01*
X352800Y51136D02*
Y47200D01*
X354768D01*
X355424Y47856D01*
Y50480D01*
X354768Y51136D01*
X352800D01*
X356736Y47200D02*
X358048D01*
X357392D01*
Y51136D01*
X356736Y50480D01*
X373724Y22880D02*
X373068Y23536D01*
X371756D01*
X371100Y22880D01*
Y20256D01*
X371756Y19600D01*
X373068D01*
X373724Y20256D01*
X375036Y19600D02*
X376348D01*
X375692D01*
Y23536D01*
X375036Y22880D01*
X380939Y23536D02*
X379627Y22880D01*
X378315Y21568D01*
Y20256D01*
X378972Y19600D01*
X380283D01*
X380939Y20256D01*
Y20912D01*
X380283Y21568D01*
X378315D01*
X333124Y154780D02*
X332468Y155436D01*
X331156D01*
X330500Y154780D01*
Y152156D01*
X331156Y151500D01*
X332468D01*
X333124Y152156D01*
X334436Y155436D02*
X337060D01*
Y154780D01*
X334436Y152156D01*
Y151500D01*
X333124Y162280D02*
X332468Y162936D01*
X331156D01*
X330500Y162280D01*
Y159656D01*
X331156Y159000D01*
X332468D01*
X333124Y159656D01*
X337060Y162936D02*
X335748Y162280D01*
X334436Y160968D01*
Y159656D01*
X335092Y159000D01*
X336404D01*
X337060Y159656D01*
Y160312D01*
X336404Y160968D01*
X334436D01*
X333124Y95780D02*
X332468Y96436D01*
X331156D01*
X330500Y95780D01*
Y93156D01*
X331156Y92500D01*
X332468D01*
X333124Y93156D01*
X334436Y92500D02*
X335748D01*
X335092D01*
Y96436D01*
X334436Y95780D01*
X337716Y96436D02*
X340339D01*
Y95780D01*
X337716Y93156D01*
Y92500D01*
X333124Y102780D02*
X332468Y103436D01*
X331156D01*
X330500Y102780D01*
Y100156D01*
X331156Y99500D01*
X332468D01*
X333124Y100156D01*
X334436Y99500D02*
X335748D01*
X335092D01*
Y103436D01*
X334436Y102780D01*
X340339Y103436D02*
X337716D01*
Y101468D01*
X339027Y102124D01*
X339683D01*
X340339Y101468D01*
Y100156D01*
X339683Y99500D01*
X338371D01*
X337716Y100156D01*
X333124Y109780D02*
X332468Y110436D01*
X331156D01*
X330500Y109780D01*
Y107156D01*
X331156Y106500D01*
X332468D01*
X333124Y107156D01*
X334436Y106500D02*
X335748D01*
X335092D01*
Y110436D01*
X334436Y109780D01*
X339683Y106500D02*
Y110436D01*
X337716Y108468D01*
X340339D01*
X333124Y116780D02*
X332468Y117436D01*
X331156D01*
X330500Y116780D01*
Y114156D01*
X331156Y113500D01*
X332468D01*
X333124Y114156D01*
X334436Y113500D02*
X335748D01*
X335092D01*
Y117436D01*
X334436Y116780D01*
X337716D02*
X338371Y117436D01*
X339683D01*
X340339Y116780D01*
Y116124D01*
X339683Y115468D01*
X339027D01*
X339683D01*
X340339Y114812D01*
Y114156D01*
X339683Y113500D01*
X338371D01*
X337716Y114156D01*
X333124Y123780D02*
X332468Y124436D01*
X331156D01*
X330500Y123780D01*
Y121156D01*
X331156Y120500D01*
X332468D01*
X333124Y121156D01*
X334436Y120500D02*
X335748D01*
X335092D01*
Y124436D01*
X334436Y123780D01*
X340339Y120500D02*
X337716D01*
X340339Y123124D01*
Y123780D01*
X339683Y124436D01*
X338371D01*
X337716Y123780D01*
X333124Y130780D02*
X332468Y131436D01*
X331156D01*
X330500Y130780D01*
Y128156D01*
X331156Y127500D01*
X332468D01*
X333124Y128156D01*
X334436Y127500D02*
X335748D01*
X335092D01*
Y131436D01*
X334436Y130780D01*
X337716Y127500D02*
X339027D01*
X338371D01*
Y131436D01*
X337716Y130780D01*
X333124Y137780D02*
X332468Y138436D01*
X331156D01*
X330500Y137780D01*
Y135156D01*
X331156Y134500D01*
X332468D01*
X333124Y135156D01*
X334436D02*
X335092Y134500D01*
X336404D01*
X337060Y135156D01*
Y137780D01*
X336404Y138436D01*
X335092D01*
X334436Y137780D01*
Y137124D01*
X335092Y136468D01*
X337060D01*
X333124Y144780D02*
X332468Y145436D01*
X331156D01*
X330500Y144780D01*
Y142156D01*
X331156Y141500D01*
X332468D01*
X333124Y142156D01*
X334436Y144780D02*
X335092Y145436D01*
X336404D01*
X337060Y144780D01*
Y144124D01*
X336404Y143468D01*
X337060Y142812D01*
Y142156D01*
X336404Y141500D01*
X335092D01*
X334436Y142156D01*
Y142812D01*
X335092Y143468D01*
X334436Y144124D01*
Y144780D01*
X335092Y143468D02*
X336404D01*
D14*
X360181Y222606D02*
Y223394D01*
X357819Y222606D02*
Y223394D01*
X389276Y70331D02*
X392657D01*
Y61669D02*
Y63424D01*
Y68576D02*
Y70331D01*
X389276Y61669D02*
X392657D01*
X324138Y223453D02*
X328862D01*
X324138Y217547D02*
X328862D01*
X332681Y206106D02*
Y206894D01*
X330319Y206106D02*
Y206894D01*
X322681Y206106D02*
Y206894D01*
X320319Y206106D02*
Y206894D01*
X256693Y53553D02*
X329921D01*
X260630Y62999D02*
Y63984D01*
X256694Y57489D02*
X262008D01*
X260629Y62999D02*
X262008D01*
Y57489D02*
Y62999D01*
X256693Y53552D02*
Y57489D01*
Y53552D02*
X256694Y53552D01*
X329920D02*
X329921Y53552D01*
Y57489D01*
X324606Y57489D02*
Y62999D01*
X325986D01*
X324606Y57489D02*
X329921D01*
X325984Y62999D02*
Y63984D01*
X243472Y198102D02*
X252528D01*
X243472Y185898D02*
X252528D01*
X88976Y307209D02*
Y309768D01*
X82284Y307209D02*
Y309768D01*
X88976D01*
X78740Y295791D02*
X92520D01*
X78740Y307209D02*
X92520D01*
X78740Y295791D02*
Y307209D01*
X92520Y295791D02*
Y307209D01*
X255000Y301468D02*
Y306968D01*
X216000D02*
X255000D01*
X216000Y301468D02*
Y306968D01*
X244000Y269969D02*
X248000D01*
X223000D02*
X227000D01*
X255000Y280469D02*
Y288968D01*
X216000Y280469D02*
Y288968D01*
X360043Y31575D02*
Y40299D01*
X352957Y31575D02*
Y40299D01*
X381457Y31638D02*
Y40362D01*
X388543Y31638D02*
Y40362D01*
X367457Y31638D02*
Y40362D01*
X374543Y31638D02*
Y40362D01*
D15*
X315874Y309130D02*
X367055D01*
Y238264D02*
Y309130D01*
X315874Y238264D02*
X367055D01*
X315874D02*
Y309130D01*
X336209Y286712D02*
X334110D01*
Y283563D01*
X336209D01*
X334110Y285137D02*
X335160D01*
X337259Y286712D02*
X339358D01*
Y286187D01*
X337259Y284088D01*
Y283563D01*
X340407Y286187D02*
X340932Y286712D01*
X341982D01*
X342506Y286187D01*
Y285662D01*
X341982Y285137D01*
X341457D01*
X341982D01*
X342506Y284612D01*
Y284088D01*
X341982Y283563D01*
X340932D01*
X340407Y284088D01*
X327709Y275563D02*
X325610D01*
X327709Y277662D01*
Y278187D01*
X327184Y278712D01*
X326135D01*
X325610Y278187D01*
X330858D02*
X330333Y278712D01*
X329283D01*
X328759Y278187D01*
Y276088D01*
X329283Y275563D01*
X330333D01*
X330858Y276088D01*
Y277137D01*
X329808D01*
X333482Y275563D02*
Y278712D01*
X331907Y277137D01*
X334006D01*
X335056Y275563D02*
Y278712D01*
X336105Y277662D01*
X337155Y278712D01*
Y275563D01*
X338204Y278187D02*
X338729Y278712D01*
X339779D01*
X340303Y278187D01*
Y276088D01*
X339779Y275563D01*
X338729D01*
X338204Y276088D01*
Y278187D01*
X341353D02*
X341878Y278712D01*
X342927D01*
X343452Y278187D01*
Y277662D01*
X342927Y277137D01*
X343452Y276612D01*
Y276088D01*
X342927Y275563D01*
X341878D01*
X341353Y276088D01*
Y276612D01*
X341878Y277137D01*
X341353Y277662D01*
Y278187D01*
X341878Y277137D02*
X342927D01*
X346601Y278187D02*
X346076Y278712D01*
X345026D01*
X344502Y278187D01*
Y277662D01*
X345026Y277137D01*
X346076D01*
X346601Y276612D01*
Y276088D01*
X346076Y275563D01*
X345026D01*
X344502Y276088D01*
X347650Y275563D02*
X348700D01*
X348175D01*
Y278712D01*
X347650Y278187D01*
X352373D02*
X351848Y278712D01*
X350799D01*
X350274Y278187D01*
Y276088D01*
X350799Y275563D01*
X351848D01*
X352373Y276088D01*
D16*
X7394Y145976D02*
X23142D01*
X7394Y129244D02*
Y145976D01*
Y129244D02*
X23142D01*
Y145976D01*
D17*
X352957Y25799D02*
X360043D01*
X381457Y46138D02*
X388543D01*
X367457D02*
X374543D01*
D18*
X4999Y154498D02*
X2999D01*
X3999D01*
Y149500D01*
X2999Y148500D01*
X2000D01*
X1000Y149500D01*
X6998Y148500D02*
X8997D01*
X7998D01*
Y154498D01*
X6998Y153498D01*
X242999Y60998D02*
X240999D01*
X241999D01*
Y56000D01*
X240999Y55000D01*
X240000D01*
X239000Y56000D01*
X247997Y55000D02*
Y60998D01*
X244998Y57999D01*
X248997D01*
M02*
