M48
;Layer_Color=9474304
;FILE_FORMAT=2:5
INCH,TZ
;TYPE=PLATED
T1F00S00C0.00787
T2F00S00C0.01398
T3F00S00C0.02362
T4F00S00C0.11811
;TYPE=NON_PLATED
T5F00S00C0.03543
T6F00S00C0.03900
%
T01
X246228Y189638
X249772
X248000Y192000
X249772Y194362
X246228
T02
X260827Y72742
X283000Y66500
X290500
X294500Y72000
Y86000
Y101000
Y117000
X310000Y61500
X234500Y134500
X355000Y114000
X381500Y129000
Y134000
X393000
X354000Y68000
X348500Y48000
X378000Y42500
X325787Y72742
X314000Y65000
X354000Y212500
Y229000
X346500Y264500
X299000Y263500
X290374Y257815
X290500Y248500
X281000Y225500
X288500Y206000
X290500Y183000
X272000Y190000
X251500Y184000
X248000
X244500
X245000Y175500
X244500Y200000
X248000
X251500
X223500Y196000
X216000Y230500
X213500Y248500
X209500Y259000
X258500
X241000Y230500
T03
X326465Y247319
X331555
X336555
X341555
X346555
X351555
X356465
X358000Y256000
Y261000
Y266000
Y271000
Y276000
Y281000
Y286000
Y291000
T04
X11811Y11811
X393701
Y297244
X11811
T05
X226839Y283968
X244161
T06
X372500Y114000
X376500Y144000
X368500
M30
