G04*
G04 #@! TF.GenerationSoftware,Altium Limited,Altium Designer,19.1.9 (167)*
G04*
G04 Layer_Color=32768*
%FSLAX25Y25*%
%MOIN*%
G70*
G01*
G75*
%ADD12C,0.00600*%
%ADD13C,0.01000*%
%ADD15C,0.00787*%
%ADD18C,0.00394*%
%ADD80C,0.00197*%
%ADD81R,0.03937X0.02362*%
D12*
X16400Y273401D02*
X18400D01*
X17400D01*
Y279399D01*
X16400Y278400D01*
X25398Y279399D02*
X23398Y278400D01*
X21399Y276400D01*
Y274401D01*
X22399Y273401D01*
X24398D01*
X25398Y274401D01*
Y275401D01*
X24398Y276400D01*
X21399D01*
X28397Y272402D02*
X29396Y273401D01*
Y274401D01*
X28397D01*
Y273401D01*
X29396D01*
X28397Y272402D01*
X27397Y271402D01*
X33395Y278400D02*
X34395Y279399D01*
X36394D01*
X37394Y278400D01*
Y274401D01*
X36394Y273401D01*
X34395D01*
X33395Y274401D01*
Y278400D01*
X39393D02*
X40393Y279399D01*
X42392D01*
X43392Y278400D01*
Y274401D01*
X42392Y273401D01*
X40393D01*
X39393Y274401D01*
Y278400D01*
X158000Y9998D02*
X159000Y10998D01*
X160999D01*
X161999Y9998D01*
Y8999D01*
X160999Y7999D01*
X161999Y6999D01*
Y6000D01*
X160999Y5000D01*
X159000D01*
X158000Y6000D01*
Y6999D01*
X159000Y7999D01*
X158000Y8999D01*
Y9998D01*
X159000Y7999D02*
X160999D01*
X163998Y9998D02*
X164998Y10998D01*
X166997D01*
X167997Y9998D01*
Y8999D01*
X166997Y7999D01*
X167997Y6999D01*
Y6000D01*
X166997Y5000D01*
X164998D01*
X163998Y6000D01*
Y6999D01*
X164998Y7999D01*
X163998Y8999D01*
Y9998D01*
X164998Y7999D02*
X166997D01*
X170996Y4000D02*
X171995Y5000D01*
Y6000D01*
X170996D01*
Y5000D01*
X171995D01*
X170996Y4000D01*
X169996Y3001D01*
X175994Y9998D02*
X176994Y10998D01*
X178993D01*
X179993Y9998D01*
Y6000D01*
X178993Y5000D01*
X176994D01*
X175994Y6000D01*
Y9998D01*
X181992D02*
X182992Y10998D01*
X184991D01*
X185991Y9998D01*
Y6000D01*
X184991Y5000D01*
X182992D01*
X181992Y6000D01*
Y9998D01*
X-6691Y-13396D02*
X-5691Y-12397D01*
X-3692D01*
X-2692Y-13396D01*
Y-14396D01*
X-3692Y-15396D01*
X-4692D01*
X-3692D01*
X-2692Y-16396D01*
Y-17395D01*
X-3692Y-18395D01*
X-5691D01*
X-6691Y-17395D01*
X307Y-19395D02*
X1307Y-18395D01*
Y-17395D01*
X307D01*
Y-18395D01*
X1307D01*
X307Y-19395D01*
X-693Y-20394D01*
X5305Y-13396D02*
X6305Y-12397D01*
X8304D01*
X9304Y-13396D01*
Y-17395D01*
X8304Y-18395D01*
X6305D01*
X5305Y-17395D01*
Y-13396D01*
X11303D02*
X12303Y-12397D01*
X14302D01*
X15302Y-13396D01*
Y-17395D01*
X14302Y-18395D01*
X12303D01*
X11303Y-17395D01*
Y-13396D01*
X4002Y28000D02*
X3002Y29000D01*
Y30999D01*
X4002Y31999D01*
X5001D01*
X6001Y30999D01*
Y29999D01*
Y30999D01*
X7001Y31999D01*
X8000D01*
X9000Y30999D01*
Y29000D01*
X8000Y28000D01*
X10000Y34998D02*
X9000Y35997D01*
X8000D01*
Y34998D01*
X9000D01*
Y35997D01*
X10000Y34998D01*
X10999Y33998D01*
X4002Y39996D02*
X3002Y40996D01*
Y42995D01*
X4002Y43995D01*
X8000D01*
X9000Y42995D01*
Y40996D01*
X8000Y39996D01*
X4002D01*
Y45994D02*
X3002Y46994D01*
Y48993D01*
X4002Y49993D01*
X8000D01*
X9000Y48993D01*
Y46994D01*
X8000Y45994D01*
X4002D01*
X6598Y260999D02*
Y257000D01*
X2599Y260999D01*
X1600D01*
X600Y259999D01*
Y258000D01*
X1600Y257000D01*
X7598Y263998D02*
X6598Y264997D01*
X5598D01*
Y263998D01*
X6598D01*
Y264997D01*
X7598Y263998D01*
X8597Y262998D01*
X5598Y268996D02*
X6598Y269996D01*
Y271995D01*
X5598Y272995D01*
X1600D01*
X600Y271995D01*
Y269996D01*
X1600Y268996D01*
X2599D01*
X3599Y269996D01*
Y272995D01*
X5598Y274994D02*
X6598Y275994D01*
Y277993D01*
X5598Y278993D01*
X1600D01*
X600Y277993D01*
Y275994D01*
X1600Y274994D01*
X2599D01*
X3599Y275994D01*
Y278993D01*
X-6691Y331696D02*
X-5691Y332696D01*
X-3692D01*
X-2692Y331696D01*
Y330696D01*
X-3692Y329696D01*
X-4692D01*
X-3692D01*
X-2692Y328697D01*
Y327697D01*
X-3692Y326697D01*
X-5691D01*
X-6691Y327697D01*
X307Y325698D02*
X1307Y326697D01*
Y327697D01*
X307D01*
Y326697D01*
X1307D01*
X307Y325698D01*
X-693Y324698D01*
X5305Y331696D02*
X6305Y332696D01*
X8304D01*
X9304Y331696D01*
Y327697D01*
X8304Y326697D01*
X6305D01*
X5305Y327697D01*
Y331696D01*
X11303D02*
X12303Y332696D01*
X14302D01*
X15302Y331696D01*
Y327697D01*
X14302Y326697D01*
X12303D01*
X11303Y327697D01*
Y331696D01*
X217803Y38650D02*
Y34652D01*
X213804Y38650D01*
X212804D01*
X211805Y37651D01*
Y35651D01*
X212804Y34652D01*
X218802Y41649D02*
X217803Y42649D01*
X216803D01*
Y41649D01*
X217803D01*
Y42649D01*
X218802Y41649D01*
X219802Y40650D01*
X212804Y46648D02*
X211805Y47647D01*
Y49647D01*
X212804Y50646D01*
X216803D01*
X217803Y49647D01*
Y47647D01*
X216803Y46648D01*
X212804D01*
Y52646D02*
X211805Y53645D01*
Y55645D01*
X212804Y56644D01*
X216803D01*
X217803Y55645D01*
Y53645D01*
X216803Y52646D01*
X212804D01*
X227623Y-18395D02*
X223624D01*
X227623Y-14396D01*
Y-13396D01*
X226623Y-12397D01*
X224624D01*
X223624Y-13396D01*
X230622Y-19395D02*
X231621Y-18395D01*
Y-17395D01*
X230622D01*
Y-18395D01*
X231621D01*
X230622Y-19395D01*
X229622Y-20394D01*
X235620Y-13396D02*
X236620Y-12397D01*
X238619D01*
X239619Y-13396D01*
Y-17395D01*
X238619Y-18395D01*
X236620D01*
X235620Y-17395D01*
Y-13396D01*
X241618D02*
X242618Y-12397D01*
X244617D01*
X245617Y-13396D01*
Y-17395D01*
X244617Y-18395D01*
X242618D01*
X241618Y-17395D01*
Y-13396D01*
X294552Y-18395D02*
X290553D01*
X294552Y-14396D01*
Y-13396D01*
X293552Y-12397D01*
X291553D01*
X290553Y-13396D01*
X297551Y-19395D02*
X298551Y-18395D01*
Y-17395D01*
X297551D01*
Y-18395D01*
X298551D01*
X297551Y-19395D01*
X296551Y-20394D01*
X302549Y-13396D02*
X303549Y-12397D01*
X305548D01*
X306548Y-13396D01*
Y-17395D01*
X305548Y-18395D01*
X303549D01*
X302549Y-17395D01*
Y-13396D01*
X308547D02*
X309547Y-12397D01*
X311546D01*
X312546Y-13396D01*
Y-17395D01*
X311546Y-18395D01*
X309547D01*
X308547Y-17395D01*
Y-13396D01*
D13*
X247874Y236764D02*
Y307630D01*
Y236764D02*
X299055D01*
Y307630D01*
X247874D02*
X299055D01*
X251811Y297788D02*
Y305662D01*
Y297788D02*
X287244D01*
Y305662D01*
X251811D02*
X287244D01*
X56992Y276000D02*
X62992Y278000D01*
X56992Y280000D02*
X62992Y278000D01*
X0D02*
X6000Y280000D01*
X0Y278000D02*
X6000Y276000D01*
X44992Y278000D02*
X62992D01*
X0D02*
X14800D01*
X62992Y277000D02*
Y306169D01*
X0Y277000D02*
Y309000D01*
X340457Y500D02*
X346457Y2500D01*
X340457Y4500D02*
X346457Y2500D01*
X0D02*
X6000Y4500D01*
X0Y2500D02*
X6000Y500D01*
X187591Y2500D02*
X346457D01*
X0D02*
X156400D01*
X346457Y1500D02*
Y2937D01*
X0Y0D02*
Y3500D01*
X11811Y0D02*
X17811Y2000D01*
X11811Y0D02*
X17811Y-2000D01*
X-6000D02*
X0Y0D01*
X-6000Y2000D02*
X0Y0D01*
X11811D02*
X21811D01*
X-10000D02*
X0D01*
Y-1000D02*
Y1000D01*
X11811Y-1000D02*
Y2937D01*
X0Y11811D02*
X2000Y5811D01*
X-2000D02*
X0Y11811D01*
X-2000Y6000D02*
X0Y0D01*
X2000Y6000D01*
X0Y5906D02*
Y11811D01*
Y0D02*
Y5906D01*
X-1000Y11811D02*
X2937D01*
X0Y-1000D02*
Y1000D01*
X21500Y303244D02*
X23500Y297244D01*
X25500Y303244D01*
X23500Y309000D02*
X25500Y303000D01*
X21500D02*
X23500Y309000D01*
Y297244D02*
Y303122D01*
Y309000D01*
X20685Y297244D02*
X24500D01*
X0Y309000D02*
X24500D01*
X-6000Y315500D02*
X0Y317500D01*
X-6000Y319500D02*
X0Y317500D01*
X11811D02*
X17811Y319500D01*
X11811Y317500D02*
X17811Y315500D01*
X-10000Y317500D02*
X0D01*
X11811D02*
X21811D01*
X11811Y306118D02*
Y318500D01*
X0Y309000D02*
Y318500D01*
X225000Y57189D02*
X227000Y51189D01*
X229000Y57189D01*
X227000Y43307D02*
X229000Y37307D01*
X225000D02*
X227000Y43307D01*
Y51189D02*
Y61189D01*
Y33307D02*
Y43307D01*
X226000D02*
X239158D01*
X226000Y51189D02*
X231185D01*
X226284Y-2000D02*
X232283Y0D01*
X226284Y2000D02*
X232283Y0D01*
X240158D02*
X246158Y2000D01*
X240158Y0D02*
X246158Y-2000D01*
X222284Y0D02*
X232283D01*
X240158D02*
X250157D01*
X240158Y-1000D02*
Y42307D01*
X232283Y-1000D02*
Y50091D01*
X307087Y0D02*
X313087Y2000D01*
X307087Y0D02*
X313087Y-2000D01*
X293213D02*
X299213Y0D01*
X293213Y2000D02*
X299213Y0D01*
X307087D02*
X317087D01*
X289213D02*
X299213D01*
Y-1000D02*
Y42307D01*
X307087Y-1000D02*
Y50091D01*
D15*
X236598Y266000D02*
Y309000D01*
X188598Y266000D02*
X236598D01*
X188598D02*
Y309000D01*
X236598D01*
X212598Y285500D02*
Y290500D01*
X210098Y288000D02*
X215098D01*
D18*
X252201Y223665D02*
X252988Y224453D01*
X252988Y218547D02*
X252201Y219335D01*
X264799Y219335D02*
X264012Y218547D01*
X264012Y224453D02*
X264799Y223665D01*
X310000Y28130D02*
Y31870D01*
X308130Y30000D02*
X311870D01*
X348000Y25130D02*
Y28870D01*
X346130Y27000D02*
X349870D01*
X348000Y45130D02*
Y48870D01*
X346130Y47000D02*
X349870D01*
X323972Y48500D02*
X327713D01*
X325842Y46630D02*
Y50370D01*
X323000Y28032D02*
Y31969D01*
X321031Y30000D02*
X324969D01*
X236130Y145500D02*
X239870D01*
X238000Y143630D02*
Y147370D01*
X209630Y145441D02*
X213370D01*
X211500Y143571D02*
Y147311D01*
X201130Y145500D02*
X204870D01*
X203000Y143630D02*
Y147370D01*
X201130Y180000D02*
X204870D01*
X203000Y178130D02*
Y181870D01*
X261531Y204374D02*
X265469D01*
X261531Y213626D02*
X265469D01*
X261531Y204374D02*
Y213626D01*
X265469Y204374D02*
Y213626D01*
X261728Y209000D02*
X265272D01*
X263500Y207228D02*
Y210772D01*
X251532Y204374D02*
X255469D01*
X251532Y213626D02*
X255469D01*
X251532Y204374D02*
Y213626D01*
X255469Y204374D02*
Y213626D01*
X251728Y209000D02*
X255272D01*
X253500Y207228D02*
Y210772D01*
X252988Y224453D02*
X264012D01*
X252201Y219335D02*
Y223665D01*
X252988Y218547D02*
X264012D01*
X264799Y219335D02*
Y223665D01*
X239941Y112630D02*
Y116370D01*
X238071Y114500D02*
X241811D01*
X218531Y162500D02*
X222468D01*
X220500Y160531D02*
Y164469D01*
X236000Y237287D02*
Y241028D01*
X234130Y239158D02*
X237870D01*
X224130Y253658D02*
X227870D01*
X226000Y251787D02*
Y255528D01*
X224130Y239158D02*
X227870D01*
X226000Y237287D02*
Y241028D01*
X238130Y107000D02*
X241870D01*
X240000Y105130D02*
Y108870D01*
X238130Y99500D02*
X241870D01*
X240000Y97630D02*
Y101370D01*
X298130Y136000D02*
X301870D01*
X300000Y134130D02*
Y137870D01*
X298130Y143500D02*
X301870D01*
X300000Y141630D02*
Y145370D01*
X298130Y128500D02*
X301870D01*
X300000Y126630D02*
Y130370D01*
X298130Y121000D02*
X301870D01*
X300000Y119130D02*
Y122870D01*
X298130Y113500D02*
X301870D01*
X300000Y111630D02*
Y115370D01*
X298130Y106000D02*
X301870D01*
X300000Y104130D02*
Y107870D01*
X298130Y98500D02*
X301870D01*
X300000Y96630D02*
Y100370D01*
X298130Y91000D02*
X301870D01*
X300000Y89130D02*
Y92870D01*
X92500Y297130D02*
Y300870D01*
X90630Y299000D02*
X94370D01*
X269685Y72205D02*
Y76142D01*
X267717Y74173D02*
X271654D01*
X348000Y61032D02*
Y64969D01*
X346031Y63000D02*
X349969D01*
X319000Y61032D02*
Y64969D01*
X317032Y63000D02*
X320969D01*
X333500Y61032D02*
Y64969D01*
X331532Y63000D02*
X335469D01*
X349130Y246559D02*
X352870D01*
X351000Y244689D02*
Y248429D01*
X289228Y224500D02*
X292772D01*
X291000Y222728D02*
Y226272D01*
X289032Y229126D02*
X292969D01*
X289032Y219874D02*
X292969D01*
Y229126D01*
X289032Y219874D02*
Y229126D01*
X229500Y178130D02*
Y181870D01*
X227630Y180000D02*
X231370D01*
X211500Y178130D02*
Y181870D01*
X209630Y180000D02*
X213370D01*
X236130D02*
X239870D01*
X238000Y178130D02*
Y181870D01*
D80*
X307047Y35315D02*
X312953D01*
X307047Y24685D02*
X312953D01*
Y35315D01*
X307047Y24685D02*
Y35315D01*
X342685Y24047D02*
X353315D01*
X342685Y29953D02*
X353315D01*
Y24047D02*
Y29953D01*
X342685Y24047D02*
Y29953D01*
X342685Y49953D02*
X353315D01*
X342685Y44047D02*
X353315D01*
X342685D02*
Y49953D01*
X353315Y44047D02*
Y49953D01*
X331157Y45547D02*
Y51453D01*
X320528Y45547D02*
Y51453D01*
Y45547D02*
X331157D01*
X320528Y51453D02*
X331157D01*
X315717Y39154D02*
X330283D01*
X315717Y20846D02*
Y39154D01*
X330283Y20846D02*
Y39154D01*
X315717Y20846D02*
X330283D01*
X240953Y140185D02*
Y150815D01*
X235047Y140185D02*
Y150815D01*
X240953D01*
X235047Y140185D02*
X240953D01*
X214453Y140126D02*
Y150756D01*
X208547Y140126D02*
Y150756D01*
X214453D01*
X208547Y140126D02*
X214453D01*
X205953Y140185D02*
Y150815D01*
X200047Y140185D02*
Y150815D01*
X205953D01*
X200047Y140185D02*
X205953D01*
X200047Y174685D02*
Y185315D01*
X205953Y174685D02*
Y185315D01*
X200047Y174685D02*
X205953D01*
X200047Y185315D02*
X205953D01*
X234626Y111547D02*
X245256D01*
X234626Y117453D02*
X245256D01*
Y111547D02*
Y117453D01*
X234626Y111547D02*
Y117453D01*
X206327Y154429D02*
Y170571D01*
X234673Y154429D02*
Y170571D01*
X206327D02*
X234673D01*
X206327Y154429D02*
X234673D01*
X233047Y233842D02*
X238953D01*
X233047Y244472D02*
X238953D01*
X233047Y233842D02*
Y244472D01*
X238953Y233842D02*
Y244472D01*
X228953Y248342D02*
Y258972D01*
X223047Y248342D02*
Y258972D01*
X228953D01*
X223047Y248342D02*
X228953D01*
Y233842D02*
Y244472D01*
X223047Y233842D02*
Y244472D01*
X228953D01*
X223047Y233842D02*
X228953D01*
X234685Y104047D02*
Y109953D01*
X245315Y104047D02*
Y109953D01*
X234685D02*
X245315D01*
X234685Y104047D02*
X245315D01*
X234685Y96547D02*
Y102453D01*
X245315Y96547D02*
Y102453D01*
X234685D02*
X245315D01*
X234685Y96547D02*
X245315D01*
X305315Y133047D02*
Y138953D01*
X294685Y133047D02*
Y138953D01*
Y133047D02*
X305315D01*
X294685Y138953D02*
X305315D01*
Y140547D02*
Y146453D01*
X294685Y140547D02*
Y146453D01*
Y140547D02*
X305315D01*
X294685Y146453D02*
X305315D01*
Y125547D02*
Y131453D01*
X294685Y125547D02*
Y131453D01*
Y125547D02*
X305315D01*
X294685Y131453D02*
X305315D01*
Y118047D02*
Y123953D01*
X294685Y118047D02*
Y123953D01*
Y118047D02*
X305315D01*
X294685Y123953D02*
X305315D01*
Y110547D02*
Y116453D01*
X294685Y110547D02*
Y116453D01*
Y110547D02*
X305315D01*
X294685Y116453D02*
X305315D01*
Y103047D02*
Y108953D01*
X294685Y103047D02*
Y108953D01*
Y103047D02*
X305315D01*
X294685Y108953D02*
X305315D01*
Y95547D02*
Y101453D01*
X294685Y95547D02*
Y101453D01*
Y95547D02*
X305315D01*
X294685Y101453D02*
X305315D01*
Y88047D02*
Y93953D01*
X294685Y88047D02*
Y93953D01*
Y88047D02*
X305315D01*
X294685Y93953D02*
X305315D01*
X87185Y301953D02*
X97815D01*
X87185Y296047D02*
X97815D01*
X87185D02*
Y301953D01*
X97815Y296047D02*
Y301953D01*
X232283Y79142D02*
X307087D01*
X232283Y51189D02*
Y79142D01*
Y51189D02*
X307087D01*
Y79142D01*
X344063Y54437D02*
X351937D01*
X344063Y71563D02*
X351937D01*
X344063Y54437D02*
Y71563D01*
X351937Y54437D02*
Y71563D01*
X315063Y54437D02*
X322937D01*
X315063Y71563D02*
X322937D01*
X315063Y54437D02*
Y71563D01*
X322937Y54437D02*
Y71563D01*
X329563Y54437D02*
X337437D01*
X329563Y71563D02*
X337437D01*
X329563Y54437D02*
Y71563D01*
X337437Y54437D02*
Y71563D01*
X353953Y241244D02*
Y251874D01*
X348047Y241244D02*
Y251874D01*
X353953D01*
X348047Y241244D02*
X353953D01*
X226547Y185315D02*
X232453D01*
X226547Y174685D02*
X232453D01*
Y185315D01*
X226547Y174685D02*
Y185315D01*
X208547D02*
X214453D01*
X208547Y174685D02*
X214453D01*
Y185315D01*
X208547Y174685D02*
Y185315D01*
X235047Y174685D02*
Y185315D01*
X240953Y174685D02*
Y185315D01*
X235047Y174685D02*
X240953D01*
X235047Y185315D02*
X240953D01*
D81*
X279371Y301725D02*
D03*
M02*
