G04*
G04 #@! TF.GenerationSoftware,Altium Limited,Altium Designer,19.1.9 (167)*
G04*
G04 Layer_Color=32768*
%FSLAX25Y25*%
%MOIN*%
G70*
G01*
G75*
%ADD14C,0.00787*%
%ADD15C,0.00394*%
%ADD79C,0.00200*%
D14*
X380492Y109020D02*
Y148980D01*
X385750Y104500D02*
Y153500D01*
X364508Y109020D02*
X380492D01*
X359250Y104500D02*
X385750D01*
X364508Y148980D02*
X380492D01*
X359250Y153500D02*
X385750D01*
X364508Y109020D02*
Y148980D01*
X359250Y104500D02*
Y153500D01*
D15*
X289277Y281000D02*
X289205Y281987D01*
X288989Y282952D01*
X288636Y283876D01*
X288152Y284739D01*
X287547Y285522D01*
X286835Y286209D01*
X286030Y286785D01*
X285150Y287237D01*
X284214Y287556D01*
X283241Y287736D01*
X282253Y287772D01*
X281269Y287664D01*
X280312Y287414D01*
X279401Y287027D01*
X278557Y286511D01*
X277796Y285879D01*
X277136Y285142D01*
X276590Y284317D01*
X276170Y283421D01*
X275885Y282473D01*
X275741Y281495D01*
Y280505D01*
X275885Y279526D01*
X276170Y278579D01*
X276590Y277683D01*
X277136Y276858D01*
X277796Y276121D01*
X278557Y275488D01*
X279401Y274973D01*
X280312Y274586D01*
X281269Y274336D01*
X282253Y274228D01*
X283241Y274264D01*
X284214Y274444D01*
X285150Y274763D01*
X286030Y275215D01*
X286835Y275791D01*
X287547Y276478D01*
X288152Y277261D01*
X288636Y278124D01*
X288989Y279048D01*
X289205Y280013D01*
X289277Y281000D01*
X288405D02*
X288321Y281998D01*
X288068Y282967D01*
X287656Y283880D01*
X287095Y284710D01*
X286402Y285433D01*
X285596Y286029D01*
X284702Y286480D01*
X283744Y286773D01*
X282751Y286900D01*
X281750Y286858D01*
X280771Y286647D01*
X279841Y286273D01*
X278988Y285748D01*
X278237Y285086D01*
X277607Y284307D01*
X277119Y283433D01*
X276785Y282488D01*
X276616Y281501D01*
Y280499D01*
X276785Y279512D01*
X277119Y278568D01*
X277607Y277693D01*
X278237Y276914D01*
X278988Y276252D01*
X279841Y275727D01*
X280771Y275353D01*
X281750Y275142D01*
X282751Y275100D01*
X283744Y275227D01*
X284702Y275520D01*
X285596Y275971D01*
X286402Y276567D01*
X287095Y277290D01*
X287656Y278120D01*
X288068Y279033D01*
X288321Y280002D01*
X288405Y281000D01*
X280762Y293205D02*
X281487Y292442D01*
X282500Y292161D01*
X283513Y292442D01*
X284238Y293205D01*
X286082Y268795D02*
X285249Y269237D01*
X284363Y269559D01*
X283441Y269754D01*
X282500Y269820D01*
X281559Y269754D01*
X280637Y269559D01*
X279751Y269237D01*
X278918Y268795D01*
X376543Y119000D02*
X376249Y119908D01*
X375476Y120469D01*
X374521D01*
X373749Y119908D01*
X373454Y119000D01*
X373749Y118092D01*
X374521Y117531D01*
X375476D01*
X376249Y118092D01*
X376543Y119000D01*
Y124000D02*
X376249Y124908D01*
X375476Y125469D01*
X374521D01*
X373749Y124908D01*
X373454Y124000D01*
X373749Y123092D01*
X374521Y122531D01*
X375476D01*
X376249Y123092D01*
X376543Y124000D01*
X374426Y114000D02*
X374168Y114963D01*
X373463Y115668D01*
X372500Y115926D01*
X371537Y115668D01*
X370832Y114963D01*
X370574Y114000D01*
X370832Y113037D01*
X371537Y112332D01*
X372500Y112074D01*
X373463Y112332D01*
X374168Y113037D01*
X374426Y114000D01*
X376543Y129000D02*
X376249Y129908D01*
X375476Y130469D01*
X374521D01*
X373749Y129908D01*
X373454Y129000D01*
X373749Y128092D01*
X374521Y127531D01*
X375476D01*
X376249Y128092D01*
X376543Y129000D01*
X371546Y124000D02*
X371251Y124908D01*
X370479Y125469D01*
X369524D01*
X368752Y124908D01*
X368457Y124000D01*
X368752Y123092D01*
X369524Y122531D01*
X370479D01*
X371251Y123092D01*
X371546Y124000D01*
X378424Y144000D02*
X378166Y144963D01*
X377461Y145668D01*
X376498Y145926D01*
X375535Y145668D01*
X374830Y144963D01*
X374572Y144000D01*
X374830Y143037D01*
X375535Y142332D01*
X376498Y142074D01*
X377461Y142332D01*
X378166Y143037D01*
X378424Y144000D01*
X376543Y134000D02*
X376249Y134908D01*
X375476Y135469D01*
X374521D01*
X373749Y134908D01*
X373454Y134000D01*
X373749Y133092D01*
X374521Y132531D01*
X375476D01*
X376249Y133092D01*
X376543Y134000D01*
Y139000D02*
X376249Y139908D01*
X375476Y140469D01*
X374521D01*
X373749Y139908D01*
X373454Y139000D01*
X373749Y138092D01*
X374521Y137531D01*
X375476D01*
X376249Y138092D01*
X376543Y139000D01*
X371546Y129000D02*
X371251Y129908D01*
X370479Y130469D01*
X369524D01*
X368752Y129908D01*
X368457Y129000D01*
X368752Y128092D01*
X369524Y127531D01*
X370479D01*
X371251Y128092D01*
X371546Y129000D01*
Y119000D02*
X371251Y119908D01*
X370479Y120469D01*
X369524D01*
X368752Y119908D01*
X368457Y119000D01*
X368752Y118092D01*
X369524Y117531D01*
X370479D01*
X371251Y118092D01*
X371546Y119000D01*
Y134000D02*
X371251Y134908D01*
X370479Y135469D01*
X369524D01*
X368752Y134908D01*
X368457Y134000D01*
X368752Y133092D01*
X369524Y132531D01*
X370479D01*
X371251Y133092D01*
X371546Y134000D01*
Y139000D02*
X371251Y139908D01*
X370479Y140469D01*
X369524D01*
X368752Y139908D01*
X368457Y139000D01*
X368752Y138092D01*
X369524Y137531D01*
X370479D01*
X371251Y138092D01*
X371546Y139000D01*
X370428Y144000D02*
X370170Y144963D01*
X369465Y145668D01*
X368502Y145926D01*
X367539Y145668D01*
X366834Y144963D01*
X366576Y144000D01*
X366834Y143037D01*
X367539Y142332D01*
X368502Y142074D01*
X369465Y142332D01*
X370170Y143037D01*
X370428Y144000D01*
X17816Y147903D02*
X17225Y148493D01*
X16635Y147903D01*
X13883Y147902D02*
X13293Y148492D01*
X12702Y147902D01*
X357228Y226346D02*
X360772D01*
X357228Y219654D02*
X360772D01*
Y226346D01*
X357228Y219654D02*
Y226346D01*
X294901Y268795D02*
Y293205D01*
X270098D02*
X294901D01*
X270098Y268795D02*
Y293205D01*
Y268795D02*
X294901D01*
X291922Y266826D02*
Y268795D01*
X288824Y266826D02*
Y268795D01*
Y266826D02*
X291922D01*
X288824Y268007D02*
X291922D01*
X273078Y266826D02*
Y268795D01*
X276176Y266826D02*
Y268795D01*
X273078Y266826D02*
X276176D01*
X273078Y268007D02*
X276176D01*
X291922Y293205D02*
Y295174D01*
X288824Y293205D02*
Y295174D01*
X291922D01*
X288824Y293993D02*
X291922D01*
X273078Y293205D02*
Y295174D01*
X276176Y293205D02*
Y295174D01*
X273078D02*
X276176D01*
X273078Y293993D02*
X276176D01*
X320201Y217547D02*
X332799D01*
X320201D02*
Y223453D01*
X332799D01*
Y217547D02*
Y223453D01*
X329728Y203153D02*
X333272D01*
X329728Y209846D02*
X333272D01*
X329728Y203153D02*
Y209846D01*
X333272Y203153D02*
Y209846D01*
X319728Y203153D02*
X323272D01*
X319728Y209846D02*
X323272D01*
X319728Y203153D02*
Y209846D01*
X323272Y203153D02*
Y209846D01*
X16635Y145976D02*
Y147903D01*
X17816D02*
X17816Y145976D01*
X12702D02*
Y147902D01*
X13883Y145976D02*
Y147902D01*
X21128Y129244D02*
Y131278D01*
X20057D02*
X21128D01*
X20057D02*
Y142986D01*
X21279D01*
X23142D01*
X21279D02*
Y145976D01*
X9407Y129244D02*
Y131278D01*
X10479D01*
Y142986D01*
X9256D02*
X10479D01*
X7394D02*
X9256D01*
Y145976D01*
X7394D02*
X7394Y129244D01*
X7394Y145976D02*
X23142D01*
Y129244D02*
Y145976D01*
X7394Y129244D02*
X23142Y129244D01*
D79*
X359600Y223842D02*
X358400D01*
Y223042D01*
Y221843D02*
Y222642D01*
X359200Y221843D01*
X359400D01*
X359600Y222043D01*
Y222443D01*
X359400Y222642D01*
X282010Y280370D02*
X281810Y280170D01*
Y279770D01*
X282010Y279570D01*
X282210D01*
X282410Y279770D01*
Y280170D01*
X282610Y280370D01*
X282809D01*
X283010Y280170D01*
Y279770D01*
X282809Y279570D01*
X281810Y280770D02*
X283010D01*
X282610Y281170D01*
X283010Y281569D01*
X281810D01*
X283010Y281969D02*
Y282369D01*
Y282169D01*
X281810D01*
X282010Y281969D01*
X325474Y220974D02*
X326274Y219775D01*
Y220974D02*
X325474Y219775D01*
X326674D02*
X327073D01*
X326873D01*
Y220974D01*
X326674Y220774D01*
X331913Y207448D02*
X332113Y207648D01*
Y208048D01*
X331913Y208248D01*
X331113D01*
X330913Y208048D01*
Y207648D01*
X331113Y207448D01*
X330913Y206249D02*
Y207048D01*
X331713Y206249D01*
X331913D01*
X332113Y206449D01*
Y206849D01*
X331913Y207048D01*
X321913Y207448D02*
X322113Y207648D01*
Y208048D01*
X321913Y208248D01*
X321113D01*
X320913Y208048D01*
Y207648D01*
X321113Y207448D01*
X320913Y207048D02*
Y206649D01*
Y206849D01*
X322113D01*
X321913Y207048D01*
X15400Y136546D02*
X15799D01*
X15599D01*
Y137546D01*
X15799Y137746D01*
X15999D01*
X16199Y137546D01*
X15000Y137746D02*
X14600D01*
X14800D01*
Y136546D01*
X15000Y136746D01*
M02*
