G04*
G04 #@! TF.GenerationSoftware,Altium Limited,Altium Designer,19.1.9 (167)*
G04*
G04 Layer_Color=16711935*
%FSLAX25Y25*%
%MOIN*%
G70*
G01*
G75*
%ADD41C,0.04700*%
%ADD42R,0.03950X0.05524*%
%ADD43R,0.05524X0.03950*%
%ADD44C,0.04343*%
%ADD45C,0.03300*%
%ADD46C,0.05800*%
%ADD47C,0.02769*%
%ADD48C,0.16548*%
D41*
X325500Y216500D02*
D03*
X333500D02*
D03*
X329500Y186500D02*
D03*
D42*
X258465Y245819D02*
D03*
X263555D02*
D03*
X268555D02*
D03*
X273555D02*
D03*
X278555D02*
D03*
X283555D02*
D03*
X288464D02*
D03*
D43*
X290000Y254500D02*
D03*
Y259500D02*
D03*
Y264500D02*
D03*
Y269500D02*
D03*
Y274500D02*
D03*
Y279500D02*
D03*
Y284500D02*
D03*
Y289500D02*
D03*
D44*
X203937Y283469D02*
D03*
X221260D02*
D03*
D45*
X290000Y65500D02*
D03*
X354000Y56500D02*
D03*
X286500Y73000D02*
D03*
X326000Y69500D02*
D03*
X194500Y221500D02*
D03*
X184500Y199000D02*
D03*
X179000Y299000D02*
D03*
X224500Y221500D02*
D03*
X211500Y169500D02*
D03*
X289000Y184500D02*
D03*
X283500Y208500D02*
D03*
X228500Y148000D02*
D03*
X235000Y154500D02*
D03*
X241500Y162500D02*
D03*
X313500Y282000D02*
D03*
X355000Y206500D02*
D03*
X344000Y196500D02*
D03*
X313500Y277000D02*
D03*
X275500Y59500D02*
D03*
Y64500D02*
D03*
Y70000D02*
D03*
X265500Y97000D02*
D03*
X266500Y89500D02*
D03*
X253000Y64500D02*
D03*
X355500Y47000D02*
D03*
X249000Y60500D02*
D03*
X355500Y27000D02*
D03*
X283500Y228000D02*
D03*
X230500Y256500D02*
D03*
X223500Y177000D02*
D03*
X188000Y174000D02*
D03*
X339500Y201500D02*
D03*
X271000Y97000D02*
D03*
X224000Y154500D02*
D03*
X216500D02*
D03*
X220500D02*
D03*
X224000Y170500D02*
D03*
X220500D02*
D03*
X217000D02*
D03*
D46*
X237205Y70774D02*
D03*
X302165D02*
D03*
D47*
X220500Y162500D02*
D03*
X222272Y164862D02*
D03*
Y160138D02*
D03*
X218728D02*
D03*
Y164862D02*
D03*
D48*
X346457Y297244D02*
D03*
Y11811D02*
D03*
X11811D02*
D03*
Y297244D02*
D03*
M02*
