G04*
G04 #@! TF.GenerationSoftware,Altium Limited,Altium Designer,19.1.9 (167)*
G04*
G04 Layer_Physical_Order=1*
G04 Layer_Color=255*
%FSLAX25Y25*%
%MOIN*%
G70*
G01*
G75*
%ADD21R,0.02600X0.02200*%
%ADD24C,0.03900*%
%ADD49R,0.03937X0.03543*%
%ADD50R,0.03347X0.03740*%
%ADD51R,0.03543X0.03937*%
%ADD52R,0.10630X0.03150*%
%ADD53C,0.03100*%
%ADD54R,0.03740X0.03347*%
%ADD55R,0.03150X0.02953*%
%ADD56R,0.03937X0.07087*%
G04:AMPARAMS|DCode=57|XSize=11.81mil|YSize=61.02mil|CornerRadius=1.95mil|HoleSize=0mil|Usage=FLASHONLY|Rotation=90.000|XOffset=0mil|YOffset=0mil|HoleType=Round|Shape=RoundedRectangle|*
%AMROUNDEDRECTD57*
21,1,0.01181,0.05713,0,0,90.0*
21,1,0.00791,0.06102,0,0,90.0*
1,1,0.00390,0.02856,0.00396*
1,1,0.00390,0.02856,-0.00396*
1,1,0.00390,-0.02856,-0.00396*
1,1,0.00390,-0.02856,0.00396*
%
%ADD57ROUNDEDRECTD57*%
G04:AMPARAMS|DCode=58|XSize=61.81mil|YSize=74.02mil|CornerRadius=1.85mil|HoleSize=0mil|Usage=FLASHONLY|Rotation=0.000|XOffset=0mil|YOffset=0mil|HoleType=Round|Shape=RoundedRectangle|*
%AMROUNDEDRECTD58*
21,1,0.06181,0.07031,0,0,0.0*
21,1,0.05810,0.07402,0,0,0.0*
1,1,0.00371,0.02905,-0.03515*
1,1,0.00371,-0.02905,-0.03515*
1,1,0.00371,-0.02905,0.03515*
1,1,0.00371,0.02905,0.03515*
%
%ADD58ROUNDEDRECTD58*%
%ADD59R,0.05512X0.04134*%
%ADD60R,0.03937X0.03937*%
%ADD61R,0.01181X0.03150*%
%ADD62R,0.06102X0.02362*%
%ADD63R,0.07087X0.04724*%
%ADD64R,0.04016X0.03465*%
%ADD65R,0.07874X0.03150*%
%ADD66R,0.03150X0.07874*%
G04:AMPARAMS|DCode=67|XSize=78.74mil|YSize=98.43mil|CornerRadius=19.68mil|HoleSize=0mil|Usage=FLASHONLY|Rotation=0.000|XOffset=0mil|YOffset=0mil|HoleType=Round|Shape=RoundedRectangle|*
%AMROUNDEDRECTD67*
21,1,0.07874,0.05906,0,0,0.0*
21,1,0.03937,0.09843,0,0,0.0*
1,1,0.03937,0.01968,-0.02953*
1,1,0.03937,-0.01968,-0.02953*
1,1,0.03937,-0.01968,0.02953*
1,1,0.03937,0.01968,0.02953*
%
%ADD67ROUNDEDRECTD67*%
%ADD68R,0.01968X0.08858*%
%ADD69R,0.05512X0.10827*%
%ADD70C,0.00748*%
%ADD71C,0.02000*%
%ADD72R,0.03150X0.04724*%
%ADD73R,0.04724X0.03150*%
%ADD74C,0.03543*%
%ADD75C,0.02500*%
%ADD76C,0.05000*%
%ADD77C,0.01968*%
%ADD78C,0.15748*%
G36*
X358268Y47182D02*
X357768Y47133D01*
X357727Y47338D01*
X357620Y47878D01*
X357122Y48622D01*
X356378Y49119D01*
X355500Y49294D01*
X354622Y49119D01*
X354502Y49039D01*
X353232D01*
Y49870D01*
X345945D01*
Y47000D01*
Y44130D01*
X348490D01*
Y41550D01*
X348200D01*
Y37350D01*
X352800D01*
Y41550D01*
X352569D01*
Y44130D01*
X353232D01*
Y44961D01*
X354502D01*
X354622Y44881D01*
X355500Y44706D01*
X356378Y44881D01*
X357122Y45378D01*
X357620Y46122D01*
X357727Y46662D01*
X357768Y46867D01*
X358268Y46818D01*
Y27182D01*
X357768Y27132D01*
X357727Y27338D01*
X357620Y27878D01*
X357122Y28622D01*
X356378Y29120D01*
X355500Y29294D01*
X354622Y29120D01*
X354502Y29039D01*
X353232D01*
Y29870D01*
X352569D01*
Y32450D01*
X352800D01*
Y36650D01*
X348200D01*
Y32450D01*
X348490D01*
Y29870D01*
X345945D01*
Y27000D01*
Y24130D01*
X353232D01*
Y24961D01*
X354502D01*
X354622Y24881D01*
X355500Y24706D01*
X356378Y24881D01*
X357122Y25378D01*
X357620Y26122D01*
X357727Y26662D01*
X357768Y26867D01*
X358268Y26818D01*
Y0D01*
X0D01*
Y309055D01*
X358268D01*
Y47182D01*
D02*
G37*
%LPC*%
G36*
X80724Y307776D02*
X77472D01*
Y305213D01*
X80724D01*
Y307776D01*
D02*
G37*
G36*
X66551D02*
X63299D01*
Y305213D01*
X66551D01*
Y307776D01*
D02*
G37*
G36*
X76465D02*
X73213D01*
Y305213D01*
X76465D01*
Y307776D01*
D02*
G37*
G36*
X62291D02*
X59039D01*
Y305213D01*
X62291D01*
Y307776D01*
D02*
G37*
G36*
X80724Y304205D02*
X76968D01*
X73213D01*
Y301039D01*
X66551D01*
Y304205D01*
X62795D01*
X59039D01*
Y301642D01*
Y295933D01*
X66551D01*
Y296961D01*
X73213D01*
Y295933D01*
X80724D01*
Y296961D01*
X87268D01*
Y296130D01*
X87902D01*
Y295059D01*
X88057Y294279D01*
X88499Y293617D01*
X94382Y287734D01*
X94500Y287558D01*
X95161Y287116D01*
X95942Y286961D01*
X182155D01*
X184461Y284655D01*
Y229500D01*
X184616Y228720D01*
X185058Y228058D01*
X192352Y220764D01*
X192380Y220622D01*
X192878Y219878D01*
X193622Y219380D01*
X194500Y219206D01*
X195378Y219380D01*
X196122Y219878D01*
X196619Y220622D01*
X196794Y221500D01*
X196619Y222378D01*
X196122Y223122D01*
X195378Y223620D01*
X195236Y223648D01*
X188539Y230345D01*
Y285500D01*
X188384Y286280D01*
X187942Y286942D01*
X184442Y290442D01*
X183780Y290884D01*
X183000Y291039D01*
X96845D01*
X92254Y295630D01*
X92461Y296130D01*
X97732D01*
Y296961D01*
X178002D01*
X178122Y296881D01*
X179000Y296706D01*
X179878Y296881D01*
X180622Y297378D01*
X181120Y298122D01*
X181294Y299000D01*
X181120Y299878D01*
X180622Y300622D01*
X179878Y301119D01*
X179000Y301294D01*
X178122Y301119D01*
X178002Y301039D01*
X97732D01*
Y301870D01*
X87268D01*
Y301039D01*
X80724D01*
Y301642D01*
Y304205D01*
D02*
G37*
G36*
X346961Y306111D02*
Y297748D01*
X355324D01*
X355202Y298984D01*
X354695Y300657D01*
X353871Y302198D01*
X352762Y303549D01*
X351411Y304658D01*
X349869Y305482D01*
X348196Y305990D01*
X346961Y306111D01*
D02*
G37*
G36*
X345953D02*
X344717Y305990D01*
X343044Y305482D01*
X341503Y304658D01*
X340152Y303549D01*
X339042Y302198D01*
X338218Y300657D01*
X337711Y298984D01*
X337589Y297748D01*
X345953D01*
Y306111D01*
D02*
G37*
G36*
X12315D02*
Y297748D01*
X20678D01*
X20557Y298984D01*
X20049Y300657D01*
X19225Y302198D01*
X18116Y303549D01*
X16765Y304658D01*
X15223Y305482D01*
X13551Y305990D01*
X12315Y306111D01*
D02*
G37*
G36*
X11307D02*
X10071Y305990D01*
X8399Y305482D01*
X6857Y304658D01*
X5506Y303549D01*
X4397Y302198D01*
X3573Y300657D01*
X3065Y298984D01*
X2944Y297748D01*
X11307D01*
Y306111D01*
D02*
G37*
G36*
X232087Y300715D02*
X230622D01*
Y295272D01*
X235081D01*
Y297721D01*
X234979Y298495D01*
X234680Y299218D01*
X234204Y299838D01*
X233584Y300313D01*
X232862Y300613D01*
X232087Y300715D01*
D02*
G37*
G36*
X197047D02*
X195583D01*
Y295272D01*
X200041D01*
Y297721D01*
X199939Y298495D01*
X199640Y299218D01*
X199164Y299838D01*
X198544Y300313D01*
X197822Y300613D01*
X197047Y300715D01*
D02*
G37*
G36*
X194575D02*
X193110D01*
X192335Y300613D01*
X191613Y300313D01*
X190993Y299838D01*
X190517Y299218D01*
X190218Y298495D01*
X190116Y297721D01*
Y295272D01*
X194575D01*
Y300715D01*
D02*
G37*
G36*
X229614D02*
X228150D01*
X227375Y300613D01*
X226653Y300313D01*
X226032Y299838D01*
X225557Y299218D01*
X225257Y298495D01*
X225155Y297721D01*
Y295272D01*
X229614D01*
Y300715D01*
D02*
G37*
G36*
X235081Y294264D02*
X230622D01*
Y288821D01*
X232087D01*
X232862Y288923D01*
X233584Y289222D01*
X234204Y289698D01*
X234680Y290318D01*
X234979Y291040D01*
X235081Y291815D01*
Y294264D01*
D02*
G37*
G36*
X229614D02*
X225155D01*
Y291815D01*
X225257Y291040D01*
X225557Y290318D01*
X226032Y289698D01*
X226653Y289222D01*
X227375Y288923D01*
X228150Y288821D01*
X229614D01*
Y294264D01*
D02*
G37*
G36*
X200041D02*
X195583D01*
Y288821D01*
X197047D01*
X197822Y288923D01*
X198544Y289222D01*
X199164Y289698D01*
X199640Y290318D01*
X199939Y291040D01*
X200041Y291815D01*
Y294264D01*
D02*
G37*
G36*
X194575D02*
X190116D01*
Y291815D01*
X190218Y291040D01*
X190517Y290318D01*
X190993Y289698D01*
X191613Y289222D01*
X192335Y288923D01*
X193110Y288821D01*
X194575D01*
Y294264D01*
D02*
G37*
G36*
X355324Y296740D02*
X346961D01*
Y288377D01*
X348196Y288498D01*
X349869Y289006D01*
X351411Y289830D01*
X352762Y290939D01*
X353871Y292290D01*
X354695Y293832D01*
X355202Y295504D01*
X355324Y296740D01*
D02*
G37*
G36*
X345953D02*
X337589D01*
X337711Y295504D01*
X338218Y293832D01*
X339042Y292290D01*
X340152Y290939D01*
X341503Y289830D01*
X343044Y289006D01*
X344717Y288498D01*
X345953Y288377D01*
Y296740D01*
D02*
G37*
G36*
X20678D02*
X12315D01*
Y288377D01*
X13551Y288498D01*
X15223Y289006D01*
X16765Y289830D01*
X18116Y290939D01*
X19225Y292290D01*
X20049Y293832D01*
X20557Y295504D01*
X20678Y296740D01*
D02*
G37*
G36*
X11307D02*
X2944D01*
X3065Y295504D01*
X3573Y293832D01*
X4397Y292290D01*
X5506Y290939D01*
X6857Y289830D01*
X8399Y289006D01*
X10071Y288498D01*
X11307Y288377D01*
Y296740D01*
D02*
G37*
G36*
X221260Y286264D02*
X220536Y286169D01*
X219862Y285890D01*
X219283Y285445D01*
X218839Y284866D01*
X218560Y284192D01*
X218464Y283469D01*
X218560Y282745D01*
X218839Y282071D01*
X219283Y281492D01*
X219862Y281048D01*
X220536Y280768D01*
X221260Y280673D01*
X221983Y280768D01*
X222658Y281048D01*
X223237Y281492D01*
X223681Y282071D01*
X223960Y282745D01*
X224055Y283469D01*
X223960Y284192D01*
X223681Y284866D01*
X223237Y285445D01*
X222658Y285890D01*
X221983Y286169D01*
X221260Y286264D01*
D02*
G37*
G36*
X203937D02*
X203214Y286169D01*
X202539Y285890D01*
X201960Y285445D01*
X201516Y284866D01*
X201237Y284192D01*
X201141Y283469D01*
X201237Y282745D01*
X201516Y282071D01*
X201960Y281492D01*
X202539Y281048D01*
X203214Y280768D01*
X203937Y280673D01*
X204661Y280768D01*
X205335Y281048D01*
X205914Y281492D01*
X206358Y282071D01*
X206637Y282745D01*
X206733Y283469D01*
X206637Y284192D01*
X206358Y284866D01*
X205914Y285445D01*
X205335Y285890D01*
X204661Y286169D01*
X203937Y286264D01*
D02*
G37*
G36*
X327882Y282201D02*
X324630D01*
Y276291D01*
X327882D01*
Y282201D01*
D02*
G37*
G36*
X323622D02*
X320370D01*
Y276291D01*
X323622D01*
Y282201D01*
D02*
G37*
G36*
X303992Y294575D02*
X294118D01*
Y289425D01*
Y284425D01*
Y279425D01*
Y274425D01*
Y269425D01*
Y264425D01*
Y259425D01*
Y254425D01*
Y252504D01*
X299055D01*
X303992D01*
Y254425D01*
Y259425D01*
Y264425D01*
Y269425D01*
Y274961D01*
X312502D01*
X312622Y274881D01*
X313500Y274706D01*
X314378Y274881D01*
X315122Y275378D01*
X315619Y276122D01*
X315794Y277000D01*
X315619Y277878D01*
X315122Y278622D01*
X314378Y279119D01*
X313746Y279245D01*
Y279755D01*
X314378Y279880D01*
X315122Y280378D01*
X315619Y281122D01*
X315794Y282000D01*
X315619Y282878D01*
X315122Y283622D01*
X314378Y284120D01*
X313500Y284294D01*
X312622Y284120D01*
X312502Y284039D01*
X303992D01*
Y289425D01*
Y294575D01*
D02*
G37*
G36*
X232087Y279258D02*
X230622D01*
Y273815D01*
X235081D01*
Y276264D01*
X234979Y277039D01*
X234680Y277761D01*
X234204Y278381D01*
X233584Y278857D01*
X232862Y279156D01*
X232087Y279258D01*
D02*
G37*
G36*
X229614D02*
X228150D01*
X227375Y279156D01*
X226653Y278857D01*
X226032Y278381D01*
X225557Y277761D01*
X225257Y277039D01*
X225155Y276264D01*
Y273815D01*
X229614D01*
Y279258D01*
D02*
G37*
G36*
X197047D02*
X195583D01*
Y273815D01*
X200041D01*
Y276264D01*
X199939Y277039D01*
X199640Y277761D01*
X199164Y278381D01*
X198544Y278857D01*
X197822Y279156D01*
X197047Y279258D01*
D02*
G37*
G36*
X194575D02*
X193110D01*
X192335Y279156D01*
X191613Y278857D01*
X190993Y278381D01*
X190517Y277761D01*
X190218Y277039D01*
X190116Y276264D01*
Y273815D01*
X194575D01*
Y279258D01*
D02*
G37*
G36*
X205795Y278366D02*
X204315D01*
Y273441D01*
X205795D01*
Y278366D01*
D02*
G37*
G36*
X252811Y294575D02*
X242937D01*
Y289425D01*
Y284425D01*
Y279425D01*
Y274425D01*
Y272504D01*
X247874D01*
X252811D01*
Y274425D01*
Y279425D01*
Y284425D01*
Y289425D01*
Y294575D01*
D02*
G37*
G36*
X327882Y275284D02*
X324630D01*
Y269374D01*
X327882D01*
Y275284D01*
D02*
G37*
G36*
X323622D02*
X320370D01*
Y269374D01*
X323622D01*
Y275284D01*
D02*
G37*
G36*
X205795Y272433D02*
X204315D01*
Y267508D01*
X205795D01*
Y272433D01*
D02*
G37*
G36*
X235081Y272807D02*
X230622D01*
Y267364D01*
X232087D01*
X232862Y267466D01*
X233584Y267765D01*
X234204Y268241D01*
X234680Y268861D01*
X234979Y269583D01*
X235081Y270358D01*
Y272807D01*
D02*
G37*
G36*
X229614D02*
X225155D01*
Y270358D01*
X225257Y269583D01*
X225557Y268861D01*
X226032Y268241D01*
X226653Y267765D01*
X227375Y267466D01*
X228150Y267364D01*
X229614D01*
Y272807D01*
D02*
G37*
G36*
X200041Y272807D02*
X195583D01*
Y267364D01*
X197047D01*
X197822Y267466D01*
X198544Y267765D01*
X199164Y268241D01*
X199640Y268861D01*
X199939Y269583D01*
X200041Y270358D01*
Y272807D01*
D02*
G37*
G36*
X194575D02*
X190116D01*
Y270358D01*
X190218Y269583D01*
X190517Y268861D01*
X190993Y268241D01*
X191613Y267765D01*
X192335Y267466D01*
X193110Y267364D01*
X194575D01*
Y272807D01*
D02*
G37*
G36*
X293362Y292075D02*
X286638D01*
Y286925D01*
Y281925D01*
Y276925D01*
Y271925D01*
Y266925D01*
Y261925D01*
Y256925D01*
Y251925D01*
X293362D01*
Y256925D01*
Y261925D01*
Y266925D01*
Y271925D01*
Y276925D01*
Y281925D01*
Y286925D01*
Y292075D01*
D02*
G37*
G36*
X327882Y255626D02*
X324630D01*
Y249716D01*
X327882D01*
Y255626D01*
D02*
G37*
G36*
X323622D02*
X320370D01*
Y249716D01*
X323622D01*
Y255626D01*
D02*
G37*
G36*
X291039Y249181D02*
X288968D01*
Y246323D01*
X291039D01*
Y249181D01*
D02*
G37*
G36*
X327882Y248709D02*
X324630D01*
Y242799D01*
X327882D01*
Y248709D01*
D02*
G37*
G36*
X323622D02*
X320370D01*
Y242799D01*
X323622D01*
Y248709D01*
D02*
G37*
G36*
X291039Y245315D02*
X288968D01*
Y242457D01*
X291039D01*
Y245315D01*
D02*
G37*
G36*
X287961Y249181D02*
X255890D01*
Y242457D01*
X287961D01*
Y245819D01*
Y249181D01*
D02*
G37*
G36*
X228870Y236094D02*
X226504D01*
Y233925D01*
X228870D01*
Y236094D01*
D02*
G37*
G36*
X225496D02*
X223130D01*
Y233925D01*
X225496D01*
Y236094D01*
D02*
G37*
G36*
X238968Y235996D02*
X236504D01*
Y233728D01*
X238968D01*
Y235996D01*
D02*
G37*
G36*
X235496D02*
X233032D01*
Y233728D01*
X235496D01*
Y235996D01*
D02*
G37*
G36*
X252811Y271496D02*
X247874D01*
X242937D01*
Y269425D01*
Y264039D01*
X241500D01*
X240720Y263884D01*
X240058Y263442D01*
X240058Y263442D01*
X234558Y257942D01*
X234116Y257280D01*
X233961Y256500D01*
Y244587D01*
X233032D01*
Y243805D01*
X228870D01*
Y244390D01*
X228039D01*
Y248425D01*
X228870D01*
Y254461D01*
X229502D01*
X229622Y254380D01*
X230500Y254206D01*
X231378Y254380D01*
X232122Y254878D01*
X232620Y255622D01*
X232794Y256500D01*
X232620Y257378D01*
X232122Y258122D01*
X231378Y258619D01*
X230500Y258794D01*
X229622Y258619D01*
X229502Y258539D01*
X228870D01*
Y258890D01*
X223130D01*
Y253543D01*
Y248425D01*
X223961D01*
Y244390D01*
X223130D01*
Y239043D01*
Y237102D01*
X226000D01*
X228870D01*
Y239727D01*
X233032D01*
Y237004D01*
X236000D01*
X238968D01*
Y239043D01*
Y244587D01*
X238039D01*
Y255655D01*
X242345Y259961D01*
X242937D01*
Y254425D01*
Y249425D01*
Y244425D01*
X245961D01*
Y236345D01*
X233155Y223539D01*
X225498D01*
X225378Y223620D01*
X224500Y223794D01*
X223622Y223620D01*
X222878Y223122D01*
X222380Y222378D01*
X222206Y221500D01*
X222380Y220622D01*
X222878Y219878D01*
X223622Y219380D01*
X224500Y219206D01*
X225378Y219380D01*
X225498Y219461D01*
X234000D01*
X234780Y219616D01*
X235442Y220058D01*
X249442Y234058D01*
X249884Y234720D01*
X250039Y235500D01*
Y244425D01*
X252811D01*
Y249425D01*
Y254425D01*
Y259425D01*
Y264425D01*
Y269425D01*
Y271496D01*
D02*
G37*
G36*
X181102Y283500D02*
X15748D01*
X15358Y283422D01*
X15027Y283201D01*
X14806Y282871D01*
X14728Y282480D01*
Y26575D01*
X14806Y26185D01*
X15027Y25854D01*
X15358Y25633D01*
X15748Y25555D01*
X181102D01*
X181492Y25633D01*
X181823Y25854D01*
X182044Y26185D01*
X182122Y26575D01*
Y197609D01*
X182622Y197761D01*
X182878Y197378D01*
X183622Y196880D01*
X183764Y196852D01*
X192961Y187655D01*
Y132672D01*
X193116Y131891D01*
X193558Y131230D01*
X194730Y130058D01*
X194730Y130058D01*
X195391Y129616D01*
X196172Y129461D01*
X207000D01*
X207780Y129616D01*
X208442Y130058D01*
X212942Y134558D01*
X213384Y135220D01*
X213539Y136000D01*
Y140209D01*
X214370D01*
Y140872D01*
X235130D01*
Y140268D01*
X240870D01*
Y140902D01*
X264319D01*
X265099Y141057D01*
X265761Y141499D01*
X281223Y156961D01*
X301924D01*
X302115Y156499D01*
X295901Y150284D01*
X295459Y149623D01*
X295303Y148843D01*
Y146468D01*
X294571D01*
Y145386D01*
X294500Y144901D01*
X293964Y144794D01*
X293509Y144491D01*
X275584Y126565D01*
X273616Y124597D01*
X273312Y124142D01*
X273205Y123606D01*
Y98649D01*
X272705Y98498D01*
X272622Y98622D01*
X271878Y99119D01*
X271000Y99294D01*
X270122Y99119D01*
X269378Y98622D01*
X268881Y97878D01*
X268706Y97000D01*
X268881Y96122D01*
X269378Y95378D01*
X270122Y94881D01*
X271000Y94706D01*
X271237Y94511D01*
Y92898D01*
X270775Y92706D01*
X267515Y95966D01*
X267619Y96122D01*
X267794Y97000D01*
X267619Y97878D01*
X267122Y98622D01*
X266378Y99119D01*
X265500Y99294D01*
X264622Y99119D01*
X263878Y98622D01*
X263381Y97878D01*
X263206Y97000D01*
X263381Y96122D01*
X263878Y95378D01*
X264622Y94881D01*
X264642Y94876D01*
X267392Y92126D01*
X267146Y91666D01*
X266500Y91794D01*
X265622Y91619D01*
X264878Y91122D01*
X264381Y90378D01*
X264206Y89500D01*
X264381Y88622D01*
X264878Y87878D01*
X265099Y87730D01*
Y83503D01*
X265206Y82967D01*
X265509Y82512D01*
X267304Y80718D01*
Y79748D01*
X262228D01*
Y99173D01*
X262228Y99173D01*
X262121Y99709D01*
X261817Y100164D01*
X246491Y115491D01*
X246036Y115794D01*
X245500Y115901D01*
X245173D01*
Y117370D01*
X237886D01*
Y114500D01*
Y111630D01*
X245173D01*
Y112192D01*
X245635Y112384D01*
X259426Y98593D01*
Y79748D01*
X256322D01*
Y98079D01*
X256216Y98615D01*
X255912Y99069D01*
X246991Y107991D01*
X246536Y108294D01*
X246000Y108401D01*
X245429D01*
Y109968D01*
X237846D01*
Y107000D01*
Y104032D01*
X245429D01*
Y104936D01*
X245891Y105128D01*
X253520Y97498D01*
Y94614D01*
X253058Y94423D01*
X246991Y100491D01*
X246536Y100794D01*
X246000Y100901D01*
X245429D01*
Y102469D01*
X237846D01*
Y99500D01*
Y96531D01*
X245429D01*
Y97436D01*
X245891Y97628D01*
X251552Y91967D01*
Y79748D01*
X245457D01*
X245457Y74800D01*
X245276Y74651D01*
X245064Y74651D01*
X243146D01*
Y75596D01*
X243068Y75987D01*
X242847Y76317D01*
X242516Y76538D01*
X242126Y76616D01*
X232677D01*
X232287Y76538D01*
X231956Y76317D01*
X231735Y75987D01*
X231658Y75596D01*
Y66935D01*
X231735Y66545D01*
X231956Y66214D01*
X232287Y65993D01*
X232677Y65916D01*
X235988D01*
Y63589D01*
X236066Y63198D01*
X236287Y62868D01*
X236618Y62647D01*
X237008Y62569D01*
X242126D01*
X242516Y62647D01*
X242847Y62868D01*
X243068Y63198D01*
X243146Y63589D01*
Y67494D01*
X245276D01*
X245666Y67572D01*
X245997Y67793D01*
X246218Y68124D01*
X246295Y68514D01*
Y73632D01*
X246218Y74022D01*
X246167Y74098D01*
X246434Y74598D01*
X247611D01*
Y62278D01*
X247378Y62122D01*
X246881Y61378D01*
X246706Y60500D01*
X246881Y59622D01*
X247378Y58878D01*
X248122Y58381D01*
X249000Y58206D01*
X249878Y58381D01*
X250622Y58878D01*
X251119Y59622D01*
X251294Y60500D01*
X251119Y61378D01*
X250622Y62122D01*
X250413Y62262D01*
Y63234D01*
X250497Y63296D01*
X251177Y63178D01*
X251378Y62878D01*
X252122Y62381D01*
X253000Y62206D01*
X253878Y62381D01*
X254622Y62878D01*
X255119Y63622D01*
X255294Y64500D01*
X255119Y65378D01*
X254622Y66122D01*
X253878Y66619D01*
X253000Y66794D01*
X252739Y66742D01*
X252385Y67096D01*
Y74598D01*
X261394D01*
Y64705D01*
X261501Y64169D01*
X261805Y63714D01*
X267009Y58509D01*
X267464Y58206D01*
X268000Y58099D01*
X268000Y58099D01*
X273730D01*
X273878Y57878D01*
X274622Y57381D01*
X275500Y57206D01*
X276378Y57381D01*
X277122Y57878D01*
X277620Y58622D01*
X277794Y59500D01*
X277620Y60378D01*
X277122Y61122D01*
X276378Y61619D01*
X275746Y61745D01*
Y62255D01*
X276378Y62381D01*
X277122Y62878D01*
X277620Y63622D01*
X277794Y64500D01*
X277620Y65378D01*
X277122Y66122D01*
X276378Y66619D01*
X275500Y66794D01*
X274622Y66619D01*
X273878Y66122D01*
X273730Y65901D01*
X269080D01*
X266165Y68817D01*
Y71701D01*
X266627Y71892D01*
X268009Y70509D01*
X268464Y70206D01*
X269000Y70099D01*
X269000Y70099D01*
X273125D01*
X273206Y70000D01*
X273380Y69122D01*
X273878Y68378D01*
X274622Y67881D01*
X275500Y67706D01*
X276378Y67881D01*
X277122Y68378D01*
X277620Y69122D01*
X277794Y70000D01*
X277620Y70878D01*
X277122Y71622D01*
X276378Y72119D01*
X275500Y72294D01*
X275239Y72242D01*
X274991Y72491D01*
X274536Y72794D01*
X274000Y72901D01*
X269580D01*
X268383Y74098D01*
X268590Y74598D01*
X278166D01*
Y77173D01*
Y79748D01*
X277976D01*
Y124995D01*
X294109Y141128D01*
X294571Y140936D01*
Y140532D01*
X302153D01*
Y143500D01*
Y146468D01*
X299382D01*
Y147998D01*
X308345Y156961D01*
X312655D01*
X322961Y146655D01*
Y95345D01*
X309558Y81942D01*
X309116Y81280D01*
X308961Y80500D01*
Y49345D01*
X302558Y42942D01*
X302116Y42280D01*
X301961Y41500D01*
Y28514D01*
X302116Y27734D01*
X302558Y27072D01*
X303730Y25901D01*
X303730Y25901D01*
X304391Y25459D01*
X305172Y25303D01*
X307031D01*
Y24571D01*
X310085D01*
X310428Y24227D01*
X311090Y23785D01*
X311870Y23630D01*
X316685D01*
Y23095D01*
X329315D01*
Y28244D01*
X316685D01*
Y27709D01*
X312968D01*
Y29886D01*
Y32154D01*
X307031D01*
Y29382D01*
X306039D01*
Y40655D01*
X312442Y47058D01*
X312442Y47058D01*
X312884Y47720D01*
X313039Y48500D01*
Y79655D01*
X326442Y93058D01*
X326884Y93720D01*
X327039Y94500D01*
Y147500D01*
X327039Y147500D01*
X326884Y148280D01*
X326442Y148942D01*
X318885Y156499D01*
X319076Y156961D01*
X326000D01*
X326780Y157116D01*
X327442Y157558D01*
X344942Y175058D01*
X345384Y175720D01*
X345539Y176500D01*
Y191500D01*
X345384Y192280D01*
X344942Y192942D01*
X344280Y193384D01*
X343500Y193539D01*
X333538D01*
X333425Y193614D01*
X333397Y194151D01*
X333732Y194461D01*
X343002D01*
X343122Y194380D01*
X344000Y194206D01*
X344878Y194380D01*
X345622Y194878D01*
X346119Y195622D01*
X346294Y196500D01*
X346119Y197378D01*
X345622Y198122D01*
X344878Y198619D01*
X344000Y198794D01*
X343122Y198619D01*
X343002Y198539D01*
X333538D01*
X333425Y198615D01*
X333397Y199151D01*
X333732Y199461D01*
X338502D01*
X338622Y199381D01*
X338996Y199306D01*
Y201500D01*
Y203694D01*
X338622Y203620D01*
X338502Y203539D01*
X333538D01*
X333425Y203614D01*
X333397Y204151D01*
X333732Y204461D01*
X354002D01*
X354122Y204380D01*
X355000Y204206D01*
X355878Y204380D01*
X356622Y204878D01*
X357119Y205622D01*
X357294Y206500D01*
X357119Y207378D01*
X356622Y208122D01*
X355878Y208619D01*
X355000Y208794D01*
X354122Y208619D01*
X354002Y208539D01*
X333538D01*
X333425Y208614D01*
X333397Y209151D01*
X333732Y209461D01*
X337000D01*
X337780Y209616D01*
X338442Y210058D01*
X345942Y217558D01*
X346384Y218220D01*
X346539Y219000D01*
Y223000D01*
X346384Y223780D01*
X345942Y224442D01*
X343942Y226442D01*
X343280Y226884D01*
X342500Y227039D01*
X320500D01*
X319720Y226884D01*
X319058Y226442D01*
X287558Y194942D01*
X287116Y194280D01*
X286961Y193500D01*
Y185498D01*
X286880Y185378D01*
X286706Y184500D01*
X286880Y183622D01*
X286961Y183502D01*
Y167500D01*
X287116Y166720D01*
X287558Y166058D01*
X288220Y165616D01*
X289000Y165461D01*
X289780Y165616D01*
X290442Y166058D01*
X290884Y166720D01*
X291039Y167500D01*
Y183502D01*
X291120Y183622D01*
X291294Y184500D01*
X291120Y185378D01*
X291039Y185498D01*
Y192655D01*
X321345Y222961D01*
X341655D01*
X342461Y222155D01*
Y219845D01*
X336155Y213539D01*
X335309D01*
X335139Y214039D01*
X335604Y214396D01*
X336077Y215012D01*
X336374Y215730D01*
X336475Y216500D01*
X336374Y217270D01*
X336077Y217988D01*
X335604Y218604D01*
X334988Y219077D01*
X334270Y219374D01*
X333500Y219476D01*
X332730Y219374D01*
X332012Y219077D01*
X331396Y218604D01*
X330923Y217988D01*
X330626Y217270D01*
X330524Y216500D01*
X330626Y215730D01*
X330923Y215012D01*
X331334Y214477D01*
X331245Y213950D01*
X331005Y213902D01*
X330161Y213338D01*
X329801Y212798D01*
X329199D01*
X328838Y213338D01*
X327995Y213902D01*
X327755Y213950D01*
X327666Y214477D01*
X328077Y215012D01*
X328374Y215730D01*
X328475Y216500D01*
X328374Y217270D01*
X328077Y217988D01*
X327604Y218604D01*
X326988Y219077D01*
X326270Y219374D01*
X325500Y219476D01*
X324730Y219374D01*
X324012Y219077D01*
X323396Y218604D01*
X322923Y217988D01*
X322626Y217270D01*
X322524Y216500D01*
X322626Y215730D01*
X322923Y215012D01*
X323396Y214396D01*
X324012Y213923D01*
X324730Y213626D01*
X324755Y213623D01*
X324993Y213087D01*
X324598Y212495D01*
X324400Y211500D01*
X324598Y210505D01*
X325162Y209662D01*
X325702Y209301D01*
Y208699D01*
X325162Y208338D01*
X324598Y207495D01*
X324400Y206500D01*
X324598Y205505D01*
X325162Y204662D01*
X325702Y204301D01*
Y203699D01*
X325162Y203338D01*
X324598Y202495D01*
X324400Y201500D01*
X324598Y200505D01*
X325162Y199662D01*
X325702Y199301D01*
Y198699D01*
X325162Y198338D01*
X324598Y197495D01*
X324400Y196500D01*
X324598Y195505D01*
X325162Y194662D01*
X325702Y194301D01*
Y193699D01*
X325162Y193338D01*
X324598Y192495D01*
X324400Y191500D01*
X324598Y190505D01*
X325162Y189662D01*
X326005Y189098D01*
X327000Y188900D01*
X327274Y188445D01*
X326923Y187988D01*
X326626Y187270D01*
X326524Y186500D01*
X326626Y185730D01*
X326923Y185012D01*
X327396Y184396D01*
X328012Y183923D01*
X328730Y183626D01*
X329500Y183525D01*
X330270Y183626D01*
X330988Y183923D01*
X331604Y184396D01*
X332077Y185012D01*
X332374Y185730D01*
X332475Y186500D01*
X332374Y187270D01*
X332077Y187988D01*
X331726Y188445D01*
X332000Y188900D01*
X332995Y189098D01*
X333538Y189461D01*
X341461D01*
Y177345D01*
X325155Y161039D01*
X307500D01*
X307500Y161039D01*
X307500Y161039D01*
X282417D01*
Y194533D01*
X308284Y220401D01*
X318845Y230961D01*
X346500D01*
X347280Y231116D01*
X347942Y231558D01*
X352442Y236058D01*
X352884Y236720D01*
X353039Y237500D01*
Y241327D01*
X353870D01*
Y246445D01*
Y251791D01*
X348130D01*
Y251157D01*
X343630D01*
Y255626D01*
X341913D01*
Y269374D01*
X343630D01*
Y282201D01*
X336118D01*
Y269374D01*
X337835D01*
Y255626D01*
X336118D01*
Y242799D01*
X337896D01*
X337915Y242299D01*
X336655Y241039D01*
X316345D01*
X308942Y248442D01*
X308280Y248884D01*
X307500Y249039D01*
X303992D01*
Y251496D01*
X299055D01*
X294118D01*
Y249425D01*
Y244425D01*
X303992D01*
Y244961D01*
X306655D01*
X314058Y237558D01*
X314720Y237116D01*
X315500Y236961D01*
X337500D01*
X338280Y237116D01*
X338942Y237558D01*
X341410Y240027D01*
X341852Y240688D01*
X342008Y241469D01*
Y242799D01*
X343630D01*
Y247079D01*
X348130D01*
Y241327D01*
X348961D01*
Y238345D01*
X345655Y235039D01*
X318000D01*
X317220Y234884D01*
X316558Y234442D01*
X305998Y223882D01*
X293726D01*
X293575Y224319D01*
Y224681D01*
X293575D01*
Y229634D01*
X293021D01*
Y231827D01*
X293539D01*
Y241701D01*
X281469D01*
Y236764D01*
Y231827D01*
X283925D01*
Y231309D01*
X282764Y230148D01*
X282622Y230119D01*
X281878Y229622D01*
X281381Y228878D01*
X281206Y228000D01*
X281381Y227122D01*
X281878Y226378D01*
X282622Y225881D01*
X283500Y225706D01*
X284378Y225881D01*
X285122Y226378D01*
X285619Y227122D01*
X285648Y227264D01*
X287406Y229023D01*
X287849Y229684D01*
X288004Y230465D01*
Y231827D01*
X288943D01*
Y229634D01*
X288425D01*
Y224681D01*
X288425D01*
Y224382D01*
X288274Y223882D01*
X280002D01*
X278004Y225880D01*
Y231827D01*
X280461D01*
Y236764D01*
Y241701D01*
X253390D01*
Y231827D01*
X253925D01*
Y226305D01*
X253663Y226043D01*
X250610D01*
Y216957D01*
X251500D01*
Y214134D01*
X250925D01*
Y209319D01*
X250925Y209181D01*
Y208819D01*
X250925Y208681D01*
Y206846D01*
X253500D01*
X256075D01*
Y208681D01*
X256075Y208819D01*
Y209181D01*
X256075Y209319D01*
Y214134D01*
X255578D01*
Y216957D01*
X256547D01*
Y223160D01*
X257406Y224019D01*
X257849Y224680D01*
X258004Y225461D01*
Y231827D01*
X258925D01*
Y225532D01*
X259081Y224751D01*
X259523Y224090D01*
X260453Y223160D01*
Y216957D01*
X261421D01*
Y214134D01*
X260925D01*
Y209319D01*
X260925Y209181D01*
Y208819D01*
X260925Y208681D01*
Y206846D01*
X263500D01*
X266075D01*
Y208681D01*
X266075Y208819D01*
Y209181D01*
X266075Y209319D01*
Y214134D01*
X265500D01*
Y216957D01*
X266390D01*
Y226043D01*
X263337D01*
X263004Y226376D01*
Y231827D01*
X273925D01*
Y225035D01*
X274081Y224255D01*
X274523Y223593D01*
X277716Y220401D01*
X278377Y219959D01*
X279157Y219803D01*
X288425D01*
Y219366D01*
X293575D01*
Y219803D01*
X301266D01*
X301458Y219341D01*
X278936Y196820D01*
X278494Y196158D01*
X278339Y195378D01*
Y159845D01*
X263474Y144980D01*
X240870D01*
Y150732D01*
X239401D01*
Y160000D01*
X239294Y160536D01*
X239653Y160887D01*
X239706Y160900D01*
X239878Y160878D01*
X240622Y160380D01*
X241500Y160206D01*
X242378Y160380D01*
X243122Y160878D01*
X243619Y161622D01*
X243794Y162500D01*
X243619Y163378D01*
X243122Y164122D01*
X242378Y164620D01*
X241500Y164794D01*
X240622Y164620D01*
X239878Y164122D01*
X239730Y163901D01*
X237535D01*
X237344Y164363D01*
X238991Y166009D01*
X239294Y166464D01*
X239401Y167000D01*
X239401Y167000D01*
Y174768D01*
X240870D01*
Y179886D01*
Y182055D01*
X235130D01*
Y179886D01*
Y174768D01*
X236599D01*
Y167580D01*
X234888Y165869D01*
X233869D01*
X233728Y166041D01*
Y166833D01*
X233635Y167299D01*
X233371Y167694D01*
X232976Y167958D01*
X232510Y168051D01*
X231693D01*
Y174571D01*
X232469D01*
Y179886D01*
Y182153D01*
X226532D01*
Y179135D01*
X225539D01*
Y186961D01*
X264000D01*
X264780Y187116D01*
X265442Y187558D01*
X284236Y206352D01*
X284378Y206381D01*
X285122Y206878D01*
X285619Y207622D01*
X285794Y208500D01*
X285619Y209378D01*
X285122Y210122D01*
X284378Y210619D01*
X283500Y210794D01*
X282622Y210619D01*
X281878Y210122D01*
X281381Y209378D01*
X281352Y209236D01*
X263155Y191039D01*
X224672D01*
X223891Y190884D01*
X223230Y190442D01*
X223230Y190442D01*
X222058Y189270D01*
X221616Y188609D01*
X221461Y187828D01*
Y177998D01*
X221380Y177878D01*
X221206Y177000D01*
X221380Y176122D01*
X221878Y175378D01*
X222622Y174881D01*
X223500Y174706D01*
X224378Y174881D01*
X224641Y175057D01*
X226532D01*
Y174571D01*
X227614D01*
Y168051D01*
X226797D01*
X226331Y167958D01*
X225936Y167694D01*
X225672Y167299D01*
X225579Y166833D01*
Y166041D01*
X225672Y165575D01*
X225753Y165453D01*
X225672Y165330D01*
X225579Y164864D01*
Y164073D01*
X225672Y163607D01*
X225753Y163484D01*
X225672Y163362D01*
X225579Y162896D01*
Y162104D01*
X225672Y161638D01*
X225753Y161516D01*
X225672Y161393D01*
X225579Y160927D01*
Y160136D01*
X225672Y159670D01*
X225753Y159547D01*
X225672Y159425D01*
X225579Y158959D01*
Y158167D01*
X225672Y157701D01*
X225936Y157306D01*
X226331Y157042D01*
X226797Y156949D01*
X232510D01*
X232976Y157042D01*
X233099Y157124D01*
X233599Y156857D01*
Y156270D01*
X233378Y156122D01*
X232880Y155378D01*
X232706Y154500D01*
X232880Y153622D01*
X233378Y152878D01*
X234122Y152381D01*
X235000Y152206D01*
X235878Y152381D01*
X236158Y152568D01*
X236599Y152332D01*
Y150732D01*
X235130D01*
Y144951D01*
X214370D01*
Y146599D01*
X226730D01*
X226878Y146378D01*
X227622Y145880D01*
X228500Y145706D01*
X229378Y145880D01*
X230122Y146378D01*
X230620Y147122D01*
X230794Y148000D01*
X230620Y148878D01*
X230122Y149622D01*
X229378Y150119D01*
X228500Y150294D01*
X227622Y150119D01*
X226878Y149622D01*
X226730Y149401D01*
X214370D01*
Y150673D01*
X213386D01*
Y156949D01*
X214203D01*
X214669Y157042D01*
X215064Y157306D01*
X215328Y157701D01*
X215421Y158167D01*
Y158959D01*
X215328Y159425D01*
X215247Y159547D01*
X215328Y159670D01*
X215421Y160136D01*
Y160927D01*
X215328Y161393D01*
X215247Y161516D01*
X215328Y161638D01*
X215400Y161996D01*
X214754D01*
X214669Y162053D01*
X214203Y162146D01*
X211347D01*
X208490D01*
X208024Y162053D01*
X207939Y161996D01*
X207183D01*
X207131Y161932D01*
X205532D01*
X204995Y161826D01*
X204541Y161522D01*
X202009Y158991D01*
X201706Y158536D01*
X201599Y158000D01*
Y150732D01*
X200130D01*
Y145386D01*
Y143445D01*
X203000D01*
X205870D01*
Y145386D01*
Y150732D01*
X204401D01*
Y157420D01*
X206112Y159131D01*
X207131D01*
X207272Y158959D01*
Y158167D01*
X207365Y157701D01*
X207629Y157306D01*
X208024Y157042D01*
X208490Y156949D01*
X209307D01*
Y150673D01*
X208630D01*
Y145327D01*
Y140209D01*
X209461D01*
Y136845D01*
X206155Y133539D01*
X197039D01*
Y188500D01*
X196884Y189280D01*
X196442Y189942D01*
X186648Y199736D01*
X186619Y199878D01*
X186122Y200622D01*
X185378Y201119D01*
X184500Y201294D01*
X183622Y201119D01*
X182878Y200622D01*
X182622Y200239D01*
X182122Y200391D01*
Y282480D01*
X182044Y282871D01*
X181823Y283201D01*
X181492Y283422D01*
X181102Y283500D01*
D02*
G37*
G36*
X266075Y205839D02*
X264004D01*
Y203866D01*
X266075D01*
Y205839D01*
D02*
G37*
G36*
X262996D02*
X260925D01*
Y203866D01*
X262996D01*
Y205839D01*
D02*
G37*
G36*
X256075D02*
X254004D01*
Y203866D01*
X256075D01*
Y205839D01*
D02*
G37*
G36*
X252996D02*
X250925D01*
Y203866D01*
X252996D01*
Y205839D01*
D02*
G37*
G36*
X340004Y203694D02*
Y202004D01*
X341694D01*
X341619Y202378D01*
X341122Y203122D01*
X340378Y203620D01*
X340004Y203694D01*
D02*
G37*
G36*
X341694Y200996D02*
X340004D01*
Y199306D01*
X340378Y199381D01*
X341122Y199878D01*
X341619Y200622D01*
X341694Y200996D01*
D02*
G37*
G36*
X232469Y185429D02*
X230004D01*
Y183161D01*
X232469D01*
Y185429D01*
D02*
G37*
G36*
X228996D02*
X226532D01*
Y183161D01*
X228996D01*
Y185429D01*
D02*
G37*
G36*
X214469D02*
X212004D01*
Y183161D01*
X214469D01*
Y185429D01*
D02*
G37*
G36*
X210996D02*
X208531D01*
Y183161D01*
X210996D01*
Y185429D01*
D02*
G37*
G36*
X240870Y185232D02*
X238504D01*
Y183063D01*
X240870D01*
Y185232D01*
D02*
G37*
G36*
X237496D02*
X235130D01*
Y183063D01*
X237496D01*
Y185232D01*
D02*
G37*
G36*
X205870D02*
X203504D01*
Y183063D01*
X205870D01*
Y185232D01*
D02*
G37*
G36*
X202496D02*
X200130D01*
Y183063D01*
X202496D01*
Y185232D01*
D02*
G37*
G36*
X220882Y278366D02*
X206803D01*
Y272937D01*
Y267508D01*
X216859D01*
Y181242D01*
X215155Y179539D01*
X214469D01*
Y182153D01*
X208531D01*
Y179886D01*
Y174571D01*
X209307D01*
Y170010D01*
X209206Y169500D01*
X209307Y168990D01*
Y168051D01*
X208490D01*
X208024Y167958D01*
X207629Y167694D01*
X207365Y167299D01*
X207272Y166833D01*
Y166041D01*
X207134Y165873D01*
X206108D01*
X204401Y167580D01*
Y174768D01*
X205870D01*
Y179886D01*
Y182055D01*
X200130D01*
Y179886D01*
Y174768D01*
X201599D01*
Y167000D01*
X201706Y166464D01*
X202009Y166009D01*
X204537Y163482D01*
X204991Y163178D01*
X205528Y163072D01*
X207128D01*
X207183Y163004D01*
X207939D01*
X208024Y162947D01*
X208490Y162854D01*
X211347D01*
X214203D01*
X214669Y162947D01*
X214754Y163004D01*
X215400D01*
X215328Y163362D01*
X215247Y163484D01*
X215328Y163607D01*
X215421Y164073D01*
Y164864D01*
X215328Y165330D01*
X215247Y165453D01*
X215328Y165575D01*
X215421Y166041D01*
Y166833D01*
X215328Y167299D01*
X215064Y167694D01*
X214669Y167958D01*
X214203Y168051D01*
X213839D01*
X213572Y168551D01*
X213619Y168622D01*
X213794Y169500D01*
X213619Y170378D01*
X213386Y170728D01*
Y174571D01*
X214469D01*
Y175461D01*
X216000D01*
X216780Y175616D01*
X217442Y176058D01*
X220340Y178956D01*
X220782Y179617D01*
X220937Y180398D01*
X220937Y180398D01*
Y272937D01*
X220882Y273213D01*
Y278366D01*
D02*
G37*
G36*
X223496Y172694D02*
X223122Y172619D01*
X222378Y172122D01*
X222122D01*
X221378Y172619D01*
X221004Y172694D01*
Y170500D01*
Y168306D01*
X221378Y168380D01*
X222122Y168878D01*
X222378D01*
X223122Y168380D01*
X223496Y168306D01*
Y170500D01*
Y172694D01*
D02*
G37*
G36*
X219996D02*
X219622Y172619D01*
X218878Y172122D01*
X218622D01*
X217878Y172619D01*
X217504Y172694D01*
Y170500D01*
Y168306D01*
X217878Y168380D01*
X218622Y168878D01*
X218878D01*
X219622Y168380D01*
X219996Y168306D01*
Y170500D01*
Y172694D01*
D02*
G37*
G36*
X224504D02*
Y171004D01*
X226194D01*
X226119Y171378D01*
X225622Y172122D01*
X224878Y172619D01*
X224504Y172694D01*
D02*
G37*
G36*
X216496D02*
X216122Y172619D01*
X215378Y172122D01*
X214880Y171378D01*
X214806Y171004D01*
X216496D01*
Y172694D01*
D02*
G37*
G36*
X226194Y169996D02*
X224504D01*
Y168306D01*
X224878Y168380D01*
X225622Y168878D01*
X226119Y169622D01*
X226194Y169996D01*
D02*
G37*
G36*
X216496D02*
X214806D01*
X214880Y169622D01*
X215378Y168878D01*
X216122Y168380D01*
X216496Y168306D01*
Y169996D01*
D02*
G37*
G36*
X223405Y167224D02*
X221004D01*
Y163004D01*
X224614D01*
Y166015D01*
X224522Y166478D01*
X224260Y166870D01*
X223868Y167132D01*
X223405Y167224D01*
D02*
G37*
G36*
X219996D02*
X217595D01*
X217132Y167132D01*
X216740Y166870D01*
X216478Y166478D01*
X216386Y166015D01*
Y163004D01*
X219996D01*
Y167224D01*
D02*
G37*
G36*
X224614Y161996D02*
X221004D01*
Y157776D01*
X223405D01*
X223868Y157868D01*
X224260Y158130D01*
X224522Y158522D01*
X224614Y158985D01*
Y161996D01*
D02*
G37*
G36*
X219996D02*
X216386D01*
Y158985D01*
X216478Y158522D01*
X216740Y158130D01*
X217132Y157868D01*
X217595Y157776D01*
X219996D01*
Y161996D01*
D02*
G37*
G36*
X223496Y156694D02*
X223122Y156620D01*
X222378Y156122D01*
X222122D01*
X221378Y156620D01*
X221004Y156694D01*
Y154500D01*
Y152306D01*
X221378Y152381D01*
X222122Y152878D01*
X222378D01*
X223122Y152381D01*
X223496Y152306D01*
Y154500D01*
Y156694D01*
D02*
G37*
G36*
X219996D02*
X219622Y156620D01*
X218878Y156122D01*
X218750Y155931D01*
X218250D01*
X218122Y156122D01*
X217378Y156620D01*
X217004Y156694D01*
Y154500D01*
Y152306D01*
X217378Y152381D01*
X218122Y152878D01*
X218250Y153069D01*
X218750D01*
X218878Y152878D01*
X219622Y152381D01*
X219996Y152306D01*
Y154500D01*
Y156694D01*
D02*
G37*
G36*
X224504D02*
Y155004D01*
X226194D01*
X226119Y155378D01*
X225622Y156122D01*
X224878Y156620D01*
X224504Y156694D01*
D02*
G37*
G36*
X215996D02*
X215622Y156620D01*
X214878Y156122D01*
X214381Y155378D01*
X214306Y155004D01*
X215996D01*
Y156694D01*
D02*
G37*
G36*
X226194Y153996D02*
X224504D01*
Y152306D01*
X224878Y152381D01*
X225622Y152878D01*
X226119Y153622D01*
X226194Y153996D01*
D02*
G37*
G36*
X215996D02*
X214306D01*
X214381Y153622D01*
X214878Y152878D01*
X215622Y152381D01*
X215996Y152306D01*
Y153996D01*
D02*
G37*
G36*
X305429Y146468D02*
X303161D01*
Y144004D01*
X305429D01*
Y146468D01*
D02*
G37*
G36*
Y142996D02*
X303161D01*
Y140532D01*
X305429D01*
Y142996D01*
D02*
G37*
G36*
X205870Y142437D02*
X203504D01*
Y140268D01*
X205870D01*
Y142437D01*
D02*
G37*
G36*
X202496D02*
X200130D01*
Y140268D01*
X202496D01*
Y142437D01*
D02*
G37*
G36*
X305429Y138969D02*
X303161D01*
Y136504D01*
X305429D01*
Y138969D01*
D02*
G37*
G36*
Y135496D02*
X303161D01*
Y133031D01*
X305429D01*
Y135496D01*
D02*
G37*
G36*
X302153Y138969D02*
X294571D01*
Y137886D01*
X294500Y137401D01*
X293964Y137294D01*
X293509Y136991D01*
X293509Y136991D01*
X279521Y123002D01*
X279218Y122548D01*
X279111Y122012D01*
Y79748D01*
X278921D01*
Y77173D01*
Y74598D01*
X284332D01*
X284567Y74158D01*
X284381Y73878D01*
X284206Y73000D01*
X284381Y72122D01*
X284878Y71378D01*
X285622Y70881D01*
X286500Y70706D01*
X287378Y70881D01*
X288122Y71378D01*
X288453Y71874D01*
X288953Y71722D01*
Y67507D01*
X288378Y67122D01*
X287880Y66378D01*
X287706Y65500D01*
X287880Y64622D01*
X288378Y63878D01*
X289122Y63381D01*
X290000Y63206D01*
X290878Y63381D01*
X291622Y63878D01*
X292120Y64622D01*
X292294Y65500D01*
X292120Y66378D01*
X291755Y66923D01*
Y74598D01*
X292936D01*
X293203Y74098D01*
X293152Y74022D01*
X293075Y73632D01*
Y68514D01*
X293152Y68124D01*
X293374Y67793D01*
X293704Y67572D01*
X294094Y67494D01*
X296224D01*
Y63589D01*
X296302Y63198D01*
X296523Y62868D01*
X296854Y62647D01*
X297244Y62569D01*
X302362D01*
X302752Y62647D01*
X303083Y62868D01*
X303304Y63198D01*
X303382Y63589D01*
Y65916D01*
X306693D01*
X307083Y65993D01*
X307414Y66214D01*
X307635Y66545D01*
X307713Y66935D01*
Y75596D01*
X307635Y75987D01*
X307414Y76317D01*
X307083Y76538D01*
X306693Y76616D01*
X297244D01*
X296854Y76538D01*
X296523Y76317D01*
X296302Y75987D01*
X296224Y75596D01*
Y74651D01*
X294306D01*
X294094Y74651D01*
X293913Y74800D01*
X293913Y79748D01*
X293724D01*
Y87743D01*
X294176Y88195D01*
X294571Y88032D01*
Y88032D01*
X302153D01*
Y91000D01*
Y93968D01*
X294571D01*
Y92316D01*
X294464Y92294D01*
X294009Y91991D01*
X292217Y90198D01*
X291755Y90390D01*
Y93774D01*
X294109Y96128D01*
X294571Y95936D01*
Y95531D01*
X302153D01*
Y98500D01*
Y101469D01*
X294571D01*
Y99901D01*
X294500D01*
X293964Y99794D01*
X293509Y99491D01*
X293509Y99491D01*
X290249Y96230D01*
X289787Y96421D01*
Y99306D01*
X294109Y103628D01*
X294571Y103436D01*
Y103032D01*
X302153D01*
Y106000D01*
Y108968D01*
X294571D01*
Y107401D01*
X294500D01*
X293964Y107294D01*
X293509Y106991D01*
X293509Y106991D01*
X288280Y101761D01*
X287818Y101953D01*
Y104837D01*
X294109Y111128D01*
X294571Y110936D01*
Y110531D01*
X302153D01*
Y113500D01*
Y116469D01*
X294571D01*
Y114901D01*
X294500D01*
X293964Y114794D01*
X293509Y114491D01*
X293509Y114491D01*
X286312Y107293D01*
X285850Y107484D01*
Y110369D01*
X294109Y118628D01*
X294571Y118436D01*
Y118032D01*
X302153D01*
Y121000D01*
Y123969D01*
X294571D01*
Y122401D01*
X294500D01*
X293964Y122294D01*
X293509Y121991D01*
X284343Y112824D01*
X283881Y113016D01*
Y115900D01*
X294109Y126128D01*
X294571Y125936D01*
Y125531D01*
X302153D01*
Y128500D01*
Y131468D01*
X294571D01*
Y130386D01*
X294500Y129901D01*
X293964Y129794D01*
X293509Y129491D01*
X293509Y129491D01*
X282375Y118356D01*
X281913Y118547D01*
Y121432D01*
X294109Y133628D01*
X294571Y133436D01*
Y133031D01*
X302153D01*
Y136000D01*
Y138969D01*
D02*
G37*
G36*
X305429Y131468D02*
X303161D01*
Y129004D01*
X305429D01*
Y131468D01*
D02*
G37*
G36*
Y127996D02*
X303161D01*
Y125531D01*
X305429D01*
Y127996D01*
D02*
G37*
G36*
Y123969D02*
X303161D01*
Y121504D01*
X305429D01*
Y123969D01*
D02*
G37*
G36*
Y120496D02*
X303161D01*
Y118032D01*
X305429D01*
Y120496D01*
D02*
G37*
G36*
X236878Y117370D02*
X234709D01*
Y115004D01*
X236878D01*
Y117370D01*
D02*
G37*
G36*
X305429Y116469D02*
X303161D01*
Y114004D01*
X305429D01*
Y116469D01*
D02*
G37*
G36*
X236878Y113996D02*
X234709D01*
Y111630D01*
X236878D01*
Y113996D01*
D02*
G37*
G36*
X305429Y112996D02*
X303161D01*
Y110531D01*
X305429D01*
Y112996D01*
D02*
G37*
G36*
X236839Y109968D02*
X234571D01*
Y107504D01*
X236839D01*
Y109968D01*
D02*
G37*
G36*
X305429Y108968D02*
X303161D01*
Y106504D01*
X305429D01*
Y108968D01*
D02*
G37*
G36*
X236839Y106496D02*
X234571D01*
Y104032D01*
X236839D01*
Y106496D01*
D02*
G37*
G36*
X305429Y105496D02*
X303161D01*
Y103032D01*
X305429D01*
Y105496D01*
D02*
G37*
G36*
X236839Y102469D02*
X234571D01*
Y100004D01*
X236839D01*
Y102469D01*
D02*
G37*
G36*
X305429Y101469D02*
X303161D01*
Y99004D01*
X305429D01*
Y101469D01*
D02*
G37*
G36*
X236839Y98996D02*
X234571D01*
Y96531D01*
X236839D01*
Y98996D01*
D02*
G37*
G36*
X305429Y97996D02*
X303161D01*
Y95531D01*
X305429D01*
Y97996D01*
D02*
G37*
G36*
Y93968D02*
X303161D01*
Y91504D01*
X305429D01*
Y93968D01*
D02*
G37*
G36*
Y90496D02*
X303161D01*
Y88032D01*
X305429D01*
Y90496D01*
D02*
G37*
G36*
X336508Y72169D02*
X334004D01*
Y69941D01*
X336508D01*
Y72169D01*
D02*
G37*
G36*
X332996D02*
X330492D01*
Y69941D01*
X332996D01*
Y72169D01*
D02*
G37*
G36*
X322008D02*
X315992D01*
Y66705D01*
X322008D01*
Y68036D01*
X324272D01*
X324378Y67878D01*
X325122Y67381D01*
X326000Y67206D01*
X326878Y67381D01*
X327622Y67878D01*
X328119Y68622D01*
X328294Y69500D01*
X328119Y70378D01*
X327622Y71122D01*
X326878Y71619D01*
X326000Y71794D01*
X325122Y71619D01*
X324378Y71122D01*
X324188Y70838D01*
X322008D01*
Y72169D01*
D02*
G37*
G36*
X351008D02*
X344992D01*
Y71031D01*
X342992D01*
X342212Y70876D01*
X341550Y70434D01*
X339558Y68442D01*
X339116Y67780D01*
X338961Y67000D01*
Y58845D01*
X338655Y58539D01*
X336508D01*
Y59295D01*
X330492D01*
Y53831D01*
X331185D01*
Y53069D01*
X329585Y51468D01*
X323297D01*
X321435Y53331D01*
X321605Y53831D01*
X322008D01*
Y59295D01*
X315992D01*
Y53831D01*
X317236D01*
Y52606D01*
X317392Y51826D01*
X317834Y51164D01*
X320413Y48585D01*
Y45531D01*
X321146D01*
Y36906D01*
X316685D01*
Y31756D01*
X329315D01*
Y34961D01*
X341200D01*
Y34900D01*
X345800D01*
Y39100D01*
X341200D01*
Y39039D01*
X325224D01*
Y45531D01*
X331272D01*
Y47388D01*
X334666Y50783D01*
X335108Y51444D01*
X335264Y52224D01*
Y53831D01*
X336508D01*
Y54461D01*
X339500D01*
X340280Y54616D01*
X340942Y55058D01*
X342442Y56558D01*
X342884Y57220D01*
X343039Y58000D01*
Y66155D01*
X343837Y66953D01*
X344992D01*
Y66705D01*
X351008D01*
Y72169D01*
D02*
G37*
G36*
X336508Y68933D02*
X334004D01*
Y66705D01*
X336508D01*
Y68933D01*
D02*
G37*
G36*
X332996D02*
X330492D01*
Y66705D01*
X332996D01*
Y68933D01*
D02*
G37*
G36*
X351008Y59295D02*
X344992D01*
Y53831D01*
X351008D01*
Y55162D01*
X352188D01*
X352378Y54878D01*
X353122Y54381D01*
X354000Y54206D01*
X354878Y54381D01*
X355622Y54878D01*
X356119Y55622D01*
X356294Y56500D01*
X356119Y57378D01*
X355622Y58122D01*
X354878Y58619D01*
X354000Y58794D01*
X353122Y58619D01*
X352378Y58122D01*
X352272Y57964D01*
X351008D01*
Y59295D01*
D02*
G37*
G36*
X344937Y49870D02*
X342768D01*
Y47504D01*
X344937D01*
Y49870D01*
D02*
G37*
G36*
Y46496D02*
X342768D01*
Y44130D01*
X344937D01*
Y46496D01*
D02*
G37*
G36*
X312968Y35429D02*
X310504D01*
Y33161D01*
X312968D01*
Y35429D01*
D02*
G37*
G36*
X309496D02*
X307031D01*
Y33161D01*
X309496D01*
Y35429D01*
D02*
G37*
G36*
X344937Y29870D02*
X342768D01*
Y27504D01*
X344937D01*
Y29870D01*
D02*
G37*
G36*
Y26496D02*
X342768D01*
Y24130D01*
X344937D01*
Y26496D01*
D02*
G37*
G36*
X118299Y24098D02*
X109213D01*
Y17374D01*
X118299D01*
Y24098D01*
D02*
G37*
G36*
X299213Y44327D02*
X240158D01*
X239767Y44249D01*
X239437Y44028D01*
X239215Y43697D01*
X239138Y43307D01*
Y15748D01*
X239215Y15358D01*
X239437Y15027D01*
X239767Y14806D01*
X240158Y14728D01*
X299213D01*
X299603Y14806D01*
X299934Y15027D01*
X300155Y15358D01*
X300232Y15748D01*
Y43307D01*
X300155Y43697D01*
X299934Y44028D01*
X299603Y44249D01*
X299213Y44327D01*
D02*
G37*
G36*
X188000Y176294D02*
X187122Y176119D01*
X186378Y175622D01*
X185880Y174878D01*
X185706Y174000D01*
X185880Y173122D01*
X185961Y173002D01*
Y22845D01*
X177655Y14539D01*
X108345D01*
X107005Y15879D01*
X106343Y16321D01*
X105563Y16476D01*
X102551D01*
Y16618D01*
X94449D01*
Y12256D01*
Y11004D01*
X98500D01*
X102551D01*
Y12398D01*
X104718D01*
X106058Y11058D01*
X106720Y10616D01*
X107500Y10461D01*
X178500D01*
X179280Y10616D01*
X179942Y11058D01*
X189442Y20558D01*
X189884Y21220D01*
X190039Y22000D01*
Y173002D01*
X190120Y173122D01*
X190294Y174000D01*
X190120Y174878D01*
X189622Y175622D01*
X188878Y176119D01*
X188000Y176294D01*
D02*
G37*
G36*
X346961Y20678D02*
Y12315D01*
X355324D01*
X355202Y13551D01*
X354695Y15223D01*
X353871Y16765D01*
X352762Y18116D01*
X351411Y19225D01*
X349869Y20049D01*
X348196Y20557D01*
X346961Y20678D01*
D02*
G37*
G36*
X345953D02*
X344717Y20557D01*
X343044Y20049D01*
X341503Y19225D01*
X340152Y18116D01*
X339042Y16765D01*
X338218Y15223D01*
X337711Y13551D01*
X337589Y12315D01*
X345953D01*
Y20678D01*
D02*
G37*
G36*
X12315D02*
Y12315D01*
X20678D01*
X20557Y13551D01*
X20049Y15223D01*
X19225Y16765D01*
X18116Y18116D01*
X16765Y19225D01*
X15223Y20049D01*
X13551Y20557D01*
X12315Y20678D01*
D02*
G37*
G36*
X11307D02*
X10071Y20557D01*
X8399Y20049D01*
X6857Y19225D01*
X5506Y18116D01*
X4397Y16765D01*
X3573Y15223D01*
X3065Y13551D01*
X2944Y12315D01*
X11307D01*
Y20678D01*
D02*
G37*
G36*
X102551Y9996D02*
X99004D01*
Y8319D01*
X102551D01*
Y9996D01*
D02*
G37*
G36*
X97996D02*
X94449D01*
Y8319D01*
X97996D01*
Y9996D01*
D02*
G37*
G36*
X355324Y11307D02*
X346961D01*
Y2944D01*
X348196Y3065D01*
X349869Y3573D01*
X351411Y4397D01*
X352762Y5506D01*
X353871Y6857D01*
X354695Y8399D01*
X355202Y10071D01*
X355324Y11307D01*
D02*
G37*
G36*
X345953D02*
X337589D01*
X337711Y10071D01*
X338218Y8399D01*
X339042Y6857D01*
X340152Y5506D01*
X341503Y4397D01*
X343044Y3573D01*
X344717Y3065D01*
X345953Y2944D01*
Y11307D01*
D02*
G37*
G36*
X20678D02*
X12315D01*
Y2944D01*
X13551Y3065D01*
X15223Y3573D01*
X16765Y4397D01*
X18116Y5506D01*
X19225Y6857D01*
X20049Y8399D01*
X20557Y10071D01*
X20678Y11307D01*
D02*
G37*
G36*
X11307D02*
X2944D01*
X3065Y10071D01*
X3573Y8399D01*
X4397Y6857D01*
X5506Y5506D01*
X6857Y4397D01*
X8399Y3573D01*
X10071Y3065D01*
X11307Y2944D01*
Y11307D01*
D02*
G37*
G36*
X118299Y7563D02*
X109213D01*
Y839D01*
X118299D01*
Y7563D01*
D02*
G37*
%LPD*%
G36*
X242126Y63589D02*
X237008D01*
Y66935D01*
X232677D01*
Y75596D01*
X242126D01*
Y63589D01*
D02*
G37*
G36*
X306693Y66935D02*
X302362D01*
Y63589D01*
X297244D01*
Y75596D01*
X306693D01*
Y66935D01*
D02*
G37*
D21*
X343500Y37000D02*
D03*
X350500Y39450D02*
D03*
Y34550D02*
D03*
D24*
X325500Y216500D02*
D03*
X333500D02*
D03*
X329500Y186500D02*
D03*
D49*
X310000Y32658D02*
D03*
Y27343D02*
D03*
X236000Y236500D02*
D03*
Y241815D02*
D03*
X229500Y182658D02*
D03*
Y177342D02*
D03*
X211500Y182658D02*
D03*
Y177342D02*
D03*
D50*
X350559Y27000D02*
D03*
X345441D02*
D03*
X345441Y47000D02*
D03*
X350559D02*
D03*
X242500Y114500D02*
D03*
X237382D02*
D03*
X89941Y299000D02*
D03*
X95059D02*
D03*
D51*
X328500Y48500D02*
D03*
X323185D02*
D03*
X237343Y107000D02*
D03*
X242657D02*
D03*
X237343Y99500D02*
D03*
X242657D02*
D03*
X302658Y136000D02*
D03*
X297342D02*
D03*
X302658Y143500D02*
D03*
X297342D02*
D03*
X302658Y128500D02*
D03*
X297342D02*
D03*
X302658Y121000D02*
D03*
X297342D02*
D03*
X302658Y113500D02*
D03*
X297342D02*
D03*
X302658Y106000D02*
D03*
X297342D02*
D03*
X302658Y98500D02*
D03*
X297342D02*
D03*
X302658Y91000D02*
D03*
X297342D02*
D03*
D52*
X323000Y34331D02*
D03*
Y25669D02*
D03*
D53*
X327000Y211500D02*
D03*
Y206500D02*
D03*
Y196500D02*
D03*
Y201500D02*
D03*
Y191500D02*
D03*
X332000Y211500D02*
D03*
Y206500D02*
D03*
Y201500D02*
D03*
Y196500D02*
D03*
Y191500D02*
D03*
D54*
X238000Y148059D02*
D03*
Y142941D02*
D03*
X211500Y148000D02*
D03*
Y142882D02*
D03*
X203000Y148059D02*
D03*
Y142941D02*
D03*
Y177441D02*
D03*
Y182559D02*
D03*
X226000Y256217D02*
D03*
Y251098D02*
D03*
Y241717D02*
D03*
Y236598D02*
D03*
X351000Y249118D02*
D03*
Y244000D02*
D03*
X238000Y177441D02*
D03*
Y182559D02*
D03*
D55*
X263500Y211658D02*
D03*
Y206343D02*
D03*
X253500Y211658D02*
D03*
Y206343D02*
D03*
X291000Y221843D02*
D03*
Y227157D02*
D03*
D56*
X263421Y221500D02*
D03*
X253579D02*
D03*
D57*
X229654Y158563D02*
D03*
Y160531D02*
D03*
Y162500D02*
D03*
Y164469D02*
D03*
X211347Y158563D02*
D03*
Y160531D02*
D03*
Y162500D02*
D03*
Y164469D02*
D03*
Y166437D02*
D03*
X229654D02*
D03*
D58*
X220500Y162500D02*
D03*
D59*
X62795Y304709D02*
D03*
Y299000D02*
D03*
X76968D02*
D03*
Y304709D02*
D03*
D60*
X302165Y70774D02*
D03*
X237205D02*
D03*
D61*
X292323Y77173D02*
D03*
X290354D02*
D03*
X288386D02*
D03*
X286417D02*
D03*
X284449D02*
D03*
X282480D02*
D03*
X280512D02*
D03*
X278543D02*
D03*
X276575D02*
D03*
X274606D02*
D03*
X272638D02*
D03*
X270669D02*
D03*
X268701D02*
D03*
X266732D02*
D03*
X264764D02*
D03*
X262795D02*
D03*
X260827D02*
D03*
X258858D02*
D03*
X256890D02*
D03*
X254921D02*
D03*
X252953D02*
D03*
X250984D02*
D03*
X249016D02*
D03*
X247047D02*
D03*
D62*
X98500Y10500D02*
D03*
Y14437D02*
D03*
D63*
X113756Y4201D02*
D03*
Y20736D02*
D03*
D64*
X348000Y56563D02*
D03*
Y69437D02*
D03*
X319000Y56563D02*
D03*
Y69437D02*
D03*
X333500Y56563D02*
D03*
Y69437D02*
D03*
D65*
X247874Y292000D02*
D03*
Y287000D02*
D03*
Y282000D02*
D03*
Y277000D02*
D03*
Y272000D02*
D03*
Y267000D02*
D03*
Y262000D02*
D03*
Y257000D02*
D03*
Y252000D02*
D03*
Y247000D02*
D03*
X299055D02*
D03*
Y252000D02*
D03*
Y257000D02*
D03*
Y262000D02*
D03*
Y267000D02*
D03*
Y272000D02*
D03*
Y277000D02*
D03*
Y282000D02*
D03*
Y287000D02*
D03*
Y292000D02*
D03*
D66*
X255965Y236764D02*
D03*
X260965D02*
D03*
X265965D02*
D03*
X270965D02*
D03*
X275965D02*
D03*
X280965D02*
D03*
X285965D02*
D03*
X290965D02*
D03*
D67*
X195079Y273311D02*
D03*
Y294768D02*
D03*
X230118D02*
D03*
Y273311D02*
D03*
D68*
X206299Y272937D02*
D03*
X209449D02*
D03*
X218898D02*
D03*
X215748D02*
D03*
X212598D02*
D03*
D69*
X339874Y275787D02*
D03*
X324126D02*
D03*
X339874Y249213D02*
D03*
X324126D02*
D03*
D70*
X290000Y65500D02*
Y65974D01*
X290354Y66328D01*
Y77173D01*
X353937Y56563D02*
X354000Y56500D01*
X348000Y56563D02*
X353937D01*
X319000Y69437D02*
X326437D01*
X286421Y73079D02*
X286500Y73000D01*
X286421Y73079D02*
Y77169D01*
X286417Y77173D02*
X286421Y77169D01*
X326000Y69500D02*
X326500D01*
X326437Y69437D02*
X326500Y69500D01*
X235000Y154500D02*
Y159000D01*
X233472Y160528D02*
X235000Y159000D01*
X229658Y160528D02*
X233472D01*
X205528Y164472D02*
X211343D01*
X203000Y167000D02*
X205528Y164472D01*
X211500Y148000D02*
X228500D01*
X229654Y160531D02*
X229658Y160528D01*
X237000Y148059D02*
X238000Y149059D01*
X235500Y162500D02*
X241500D01*
X268000Y59500D02*
X275500D01*
X262795Y64705D02*
X268000Y59500D01*
X262795Y64705D02*
Y77173D01*
X268500Y64500D02*
X275500D01*
X264764Y68236D02*
X268500Y64500D01*
X264764Y68236D02*
Y77173D01*
X274000Y71500D02*
X275500Y70000D01*
X269000Y71500D02*
X274000D01*
X266732Y73768D02*
X269000Y71500D01*
X266732Y73768D02*
Y77173D01*
X265500Y96000D02*
Y97000D01*
Y96000D02*
X270669Y90831D01*
Y77173D02*
Y90831D01*
X268705Y77177D02*
Y81298D01*
X266500Y83503D02*
X268705Y81298D01*
X266500Y83503D02*
Y89500D01*
X254921Y77173D02*
Y98079D01*
X246000Y107000D02*
X254921Y98079D01*
X242657Y107000D02*
X246000D01*
X235500Y162500D02*
X238000Y160000D01*
Y149059D02*
Y160000D01*
X205532Y160531D02*
X211347D01*
X203000Y158000D02*
X205532Y160531D01*
X203000Y148059D02*
Y158000D01*
Y167000D02*
Y177441D01*
X250984Y66516D02*
Y77173D01*
Y66516D02*
X253000Y64500D01*
X249012Y60512D02*
Y77169D01*
X249000Y60500D02*
X249012Y60512D01*
Y77169D02*
X249016Y77173D01*
X268701D02*
X268705Y77177D01*
X274606Y77173D02*
Y123606D01*
X276575Y77173D02*
Y125575D01*
X294500Y143500D02*
X297342D01*
X276575Y125575D02*
X294500Y143500D01*
X274606Y123606D02*
X276575Y125575D01*
X271000Y97000D02*
X272000D01*
X272638Y96362D01*
Y77173D02*
Y96362D01*
X211343Y164472D02*
X211347Y164469D01*
X238000Y167000D02*
Y177441D01*
X235469Y164469D02*
X238000Y167000D01*
X229654Y164469D02*
X235469D01*
X229654Y162500D02*
X235500D01*
X242500Y114500D02*
X245500D01*
X260827Y99173D01*
Y77173D02*
Y99173D01*
X243000Y99500D02*
X246000D01*
X252953Y92547D01*
Y77173D02*
Y92547D01*
X294500Y136000D02*
X297342D01*
X280512Y122012D02*
X294500Y136000D01*
X280512Y77173D02*
Y122012D01*
X294500Y128500D02*
X297342D01*
X282480Y116480D02*
X294500Y128500D01*
X282480Y77173D02*
Y116480D01*
X294500Y121000D02*
X297342D01*
X284449Y110949D02*
X294500Y121000D01*
X284449Y77173D02*
Y110949D01*
X294500Y113500D02*
X297342D01*
X286417Y105417D02*
X294500Y113500D01*
X286417Y77173D02*
Y105417D01*
X294500Y106000D02*
X297342D01*
X288386Y99886D02*
X294500Y106000D01*
X288386Y77173D02*
Y99886D01*
X294500Y98500D02*
X297342D01*
X290354Y94354D02*
X294500Y98500D01*
X290354Y77173D02*
Y94354D01*
X295000Y91000D02*
X297342D01*
X292323Y88323D02*
X295000Y91000D01*
X292323Y77173D02*
Y88323D01*
D71*
X89941Y295059D02*
X95942Y289058D01*
Y289000D02*
Y289058D01*
Y289000D02*
X183000D01*
X89941Y295059D02*
Y299000D01*
X186500Y229500D02*
Y285500D01*
X183000Y289000D02*
X186500Y285500D01*
Y229500D02*
X194500Y221500D01*
X211500Y136000D02*
Y142882D01*
X207000Y131500D02*
X211500Y136000D01*
X196172Y131500D02*
X207000D01*
X195000Y132672D02*
X196172Y131500D01*
X195000Y132672D02*
Y188500D01*
X184500Y199000D02*
X195000Y188500D01*
X95059Y299000D02*
X179000D01*
X211347Y167059D02*
Y177189D01*
X216000Y177500D02*
X218898Y180398D01*
Y272937D01*
X248000Y235500D02*
Y246874D01*
X247874Y247000D02*
X248000Y246874D01*
X234000Y221500D02*
X248000Y235500D01*
X224500Y221500D02*
X234000D01*
X289000Y184500D02*
Y193500D01*
Y167500D02*
Y184500D01*
Y193500D02*
X320500Y225000D01*
X342500D01*
X344500Y223000D01*
Y219000D02*
Y223000D01*
X337000Y211500D02*
X344500Y219000D01*
X332000Y211500D02*
X337000D01*
X229000Y177342D02*
X229654Y176689D01*
X223500Y187828D02*
X224672Y189000D01*
X264000D01*
X283500Y208500D01*
X223500Y177000D02*
Y187828D01*
X279157Y221843D02*
X291000D01*
X275965Y225035D02*
X279157Y221843D01*
X275965Y225035D02*
Y236764D01*
X238000Y142941D02*
X264319D01*
X280378Y159000D01*
Y195378D01*
X306842Y221843D01*
X326000Y159000D02*
X343500Y176500D01*
X313500Y159000D02*
X326000D01*
X280378D02*
X307500D01*
X343500Y176500D02*
Y191500D01*
X332000D02*
X343500D01*
X307500Y159000D02*
X313500D01*
X313500Y282000D02*
X313500Y282000D01*
X299055Y282000D02*
X313500D01*
X299055Y282000D02*
X299055Y282000D01*
X332000Y206500D02*
X355000D01*
X346500Y233000D02*
X351000Y237500D01*
X237000Y142941D02*
X238000D01*
X339968Y241469D02*
Y249118D01*
X337500Y239000D02*
X339968Y241469D01*
X339874Y249213D02*
X339968Y249118D01*
X339874Y249213D02*
Y275787D01*
X332000Y196500D02*
X344000D01*
X313500Y277000D02*
X313500Y277000D01*
X299055Y277000D02*
X313500D01*
X339968Y249118D02*
X351000D01*
X315500Y239000D02*
X337500D01*
X307500Y247000D02*
X315500Y239000D01*
X299055Y247000D02*
X307500D01*
X211347Y148153D02*
Y157941D01*
Y148153D02*
X211500Y148000D01*
X211529Y142911D02*
X236970D01*
X211500Y142882D02*
X211529Y142911D01*
X236970D02*
X237000Y142941D01*
X188000Y22000D02*
Y174000D01*
X178500Y12500D02*
X188000Y22000D01*
X107500Y12500D02*
X178500D01*
X313500Y159000D02*
X325000Y147500D01*
Y94500D02*
Y147500D01*
X311000Y80500D02*
X325000Y94500D01*
X311000Y48500D02*
Y80500D01*
X304000Y41500D02*
X311000Y48500D01*
X304000Y28514D02*
Y41500D01*
Y28514D02*
X305172Y27343D01*
X310000D01*
X350559Y47000D02*
X355500D01*
X350559Y27000D02*
X355500D01*
X310000Y27343D02*
X310197D01*
X311870Y25669D01*
X323000D01*
X323185Y35685D02*
Y48500D01*
Y34516D02*
Y35685D01*
X324500Y37000D01*
X323000Y34331D02*
X323185Y34516D01*
X319276Y52606D02*
Y56563D01*
X324500Y37000D02*
X343500D01*
X350530Y27029D02*
X350559Y27000D01*
X350530Y27029D02*
Y34521D01*
X350500Y34550D02*
X350530Y34521D01*
X350530Y46970D02*
X350559Y47000D01*
X350530Y39480D02*
Y46970D01*
X350500Y39450D02*
X350530Y39480D01*
X333224Y52224D02*
Y56563D01*
X329500Y48500D02*
X333224Y52224D01*
X328500Y48500D02*
X329500D01*
X319276Y52606D02*
X323185Y48697D01*
X333224Y56563D02*
X333500D01*
X323185Y48500D02*
Y48697D01*
X319000Y56563D02*
X319276D01*
X333563Y56500D02*
X339500D01*
X333500Y56563D02*
X333563Y56500D01*
X339500D02*
X341000Y58000D01*
Y67000D01*
X342992Y68992D01*
X347555D01*
X348000Y69437D01*
X285965Y230465D02*
Y236764D01*
X283500Y228000D02*
X285965Y230465D01*
X226284Y256500D02*
X230500D01*
X226000Y256217D02*
X226284Y256500D01*
X241500Y262000D02*
X247874D01*
X247874Y262000D01*
X236000Y256500D02*
X241500Y262000D01*
X236000Y241815D02*
Y256500D01*
X235951Y241766D02*
X236000Y241815D01*
X226049Y241766D02*
X235951D01*
X226000Y241717D02*
X226049Y241766D01*
X226000Y241717D02*
Y251098D01*
X223500Y177000D02*
X223596Y177096D01*
X228753D01*
X229000Y177342D01*
X105563Y14437D02*
X107500Y12500D01*
X98500Y14437D02*
X105563D01*
X211500Y177342D02*
X211658Y177500D01*
X211347Y177189D02*
X211500Y177342D01*
X211658Y177500D02*
X216000D01*
X297342Y148843D02*
X307500Y159000D01*
X297342Y143500D02*
Y148843D01*
X351000Y237500D02*
Y244000D01*
X318000Y233000D02*
X346500D01*
X306842Y221843D02*
X318000Y233000D01*
X291000Y221843D02*
X306842D01*
X332000Y201500D02*
X339500D01*
X229654Y167059D02*
Y176689D01*
X290982Y227175D02*
X291000Y227157D01*
X290982Y227175D02*
Y236746D01*
X290965Y236764D02*
X290982Y236746D01*
X253539Y211697D02*
Y223035D01*
X255965Y225461D01*
Y236764D01*
X263421Y221500D02*
Y223075D01*
X260965Y225532D02*
X263421Y223075D01*
X260965Y225532D02*
Y236764D01*
X263421Y221500D02*
X263461Y221461D01*
Y211697D02*
Y221461D01*
Y211697D02*
X263500Y211658D01*
X253500D02*
X253539Y211697D01*
X76968Y299000D02*
X89941D01*
X62795D02*
X76968D01*
D72*
X258465Y245819D02*
D03*
X263555D02*
D03*
X268555D02*
D03*
X273555D02*
D03*
X278555D02*
D03*
X283555D02*
D03*
X288464D02*
D03*
D73*
X290000Y254500D02*
D03*
Y259500D02*
D03*
Y264500D02*
D03*
Y269500D02*
D03*
Y274500D02*
D03*
Y279500D02*
D03*
Y284500D02*
D03*
Y289500D02*
D03*
D74*
X203937Y283469D02*
D03*
X221260D02*
D03*
D75*
X290000Y65500D02*
D03*
X354000Y56500D02*
D03*
X286500Y73000D02*
D03*
X326000Y69500D02*
D03*
X194500Y221500D02*
D03*
X184500Y199000D02*
D03*
X179000Y299000D02*
D03*
X224500Y221500D02*
D03*
X211500Y169500D02*
D03*
X289000Y184500D02*
D03*
X283500Y208500D02*
D03*
X228500Y148000D02*
D03*
X235000Y154500D02*
D03*
X241500Y162500D02*
D03*
X313500Y282000D02*
D03*
X355000Y206500D02*
D03*
X344000Y196500D02*
D03*
X313500Y277000D02*
D03*
X275500Y59500D02*
D03*
Y64500D02*
D03*
Y70000D02*
D03*
X265500Y97000D02*
D03*
X266500Y89500D02*
D03*
X253000Y64500D02*
D03*
X355500Y47000D02*
D03*
X249000Y60500D02*
D03*
X355500Y27000D02*
D03*
X283500Y228000D02*
D03*
X230500Y256500D02*
D03*
X223500Y177000D02*
D03*
X188000Y174000D02*
D03*
X339500Y201500D02*
D03*
X271000Y97000D02*
D03*
X224000Y154500D02*
D03*
X216500D02*
D03*
X220500D02*
D03*
X224000Y170500D02*
D03*
X220500D02*
D03*
X217000D02*
D03*
D76*
X237205Y70774D02*
D03*
X302165D02*
D03*
D77*
X220500Y162500D02*
D03*
X222272Y164862D02*
D03*
Y160138D02*
D03*
X218728D02*
D03*
Y164862D02*
D03*
D78*
X346457Y297244D02*
D03*
Y11811D02*
D03*
X11811D02*
D03*
Y297244D02*
D03*
M02*
