M48
;Layer_Color=9474304
;FILE_FORMAT=2:5
INCH,TZ
;TYPE=PLATED
T1F00S00C0.00787
T2F00S00C0.01398
T3F00S00C0.02362
T4F00S00C0.02800
T5F00S00C0.08268
;TYPE=NON_PLATED
T6F00S00C0.03543
T7F00S00C0.03900
%
T01
X218728Y160138
X222272
X220500Y162500
X222272Y164862
X218728
T02
X249000Y60500
X253000Y64500
X275500
Y59500
Y70000
X286500Y73000
X290000Y65500
X266500Y89500
X265500Y97000
X271000
X228500Y148000
X224000Y154500
X220500
X216500
X235000
X326000Y69500
X354000Y56500
X355500Y47000
Y27000
X355000Y206500
X339500Y201500
X344000Y196500
X313500Y277000
Y282000
X283500Y228000
Y208500
X289000Y184500
X241500Y162500
X224000Y170500
X220500
X217000
X211500Y169500
X223500Y177000
X188000Y174000
X184500Y199000
X194500Y221500
X224500
X230500Y256500
X179000Y299000
T03
X258465Y245819
X263555
X268555
X273555
X278555
X283555
X288464
X290000Y254500
Y259500
Y264500
Y269500
Y274500
Y279500
Y284500
Y289500
T04
X237205Y70774
X302165
T05
X11811Y11811
X346457
Y297244
X11811
T06
X203937Y283469
X221260
T07
X329500Y186500
X325500Y216500
X333500
M30
