G04*
G04 #@! TF.GenerationSoftware,Altium Limited,Altium Designer,19.1.9 (167)*
G04*
G04 Layer_Color=65535*
%FSLAX25Y25*%
%MOIN*%
G70*
G01*
G75*
%ADD10C,0.00787*%
%ADD11C,0.00984*%
%ADD12C,0.00600*%
%ADD13C,0.01000*%
%ADD14C,0.00591*%
%ADD15C,0.01181*%
%ADD16C,0.00394*%
D10*
X91850Y45279D02*
X90831Y45145D01*
X89882Y44752D01*
X89066Y44126D01*
X88441Y43311D01*
X88047Y42362D01*
X87913Y41342D01*
X101488Y25083D02*
X101934Y26084D01*
X102087Y27169D01*
X87913D02*
X88066Y26084D01*
X88512Y25083D01*
X91787Y19251D02*
X92413Y18549D01*
X93187Y18016D01*
X94067Y17684D01*
X95000Y17571D01*
X95934Y17684D01*
X96813Y18016D01*
X97588Y18549D01*
X98214Y19251D01*
X102087Y41342D02*
X101953Y42362D01*
X101559Y43311D01*
X100934Y44126D01*
X100118Y44752D01*
X99169Y45145D01*
X98150Y45279D01*
X219000Y85000D02*
X221000D01*
X219000Y73000D02*
Y85000D01*
Y73000D02*
X221000D01*
X199000Y69000D02*
X221000D01*
X199000D02*
Y89000D01*
X221000D01*
Y69000D02*
Y89000D01*
X98213Y19251D02*
X101488Y25083D01*
X87913Y27169D02*
Y41342D01*
X88512Y25083D02*
X91787Y19251D01*
X102087Y27169D02*
X102087Y41342D01*
X91850Y45279D02*
X98150D01*
X72472Y114102D02*
X81528D01*
X72472Y101898D02*
X81528D01*
X168319Y100106D02*
Y100894D01*
X170681Y100106D02*
Y100894D01*
X178319Y100106D02*
Y100894D01*
X180681Y100106D02*
Y100894D01*
X172138Y84047D02*
X176862D01*
X172138Y89953D02*
X176862D01*
X2932Y55520D02*
X8432D01*
X2932Y16520D02*
Y55520D01*
Y16520D02*
X8432D01*
X39931Y44520D02*
Y48520D01*
Y23520D02*
Y27520D01*
X20932Y55520D02*
X29432D01*
X20932Y16520D02*
X29432D01*
X6516Y73150D02*
X17106D01*
Y154331D01*
X6516D02*
X17106D01*
X6516Y73150D02*
Y154331D01*
D11*
X68339Y114988D02*
X67600Y115414D01*
Y114562D01*
X68339Y114988D01*
D12*
X168802Y129500D02*
X168725Y130486D01*
X168494Y131448D01*
X168115Y132361D01*
X167599Y133204D01*
X166956Y133956D01*
X166204Y134599D01*
X165361Y135115D01*
X164447Y135494D01*
X163486Y135725D01*
X162500Y135802D01*
X161514Y135725D01*
X160553Y135494D01*
X159639Y135115D01*
X158796Y134599D01*
X158044Y133956D01*
X157401Y133204D01*
X156885Y132361D01*
X156506Y131448D01*
X156275Y130486D01*
X156198Y129500D01*
X156275Y128514D01*
X156506Y127552D01*
X156885Y126639D01*
X157401Y125796D01*
X158044Y125044D01*
X158796Y124401D01*
X159639Y123885D01*
X160553Y123506D01*
X161514Y123275D01*
X162500Y123198D01*
X163486Y123275D01*
X164447Y123506D01*
X165361Y123885D01*
X166204Y124401D01*
X166956Y125044D01*
X167599Y125796D01*
X168115Y126639D01*
X168494Y127552D01*
X168725Y128514D01*
X168802Y129500D01*
X167532Y95874D02*
Y99516D01*
Y101484D02*
Y105126D01*
X171468Y95874D02*
Y99516D01*
Y101484D02*
Y105126D01*
X167532D02*
X171468D01*
X167532Y95874D02*
X171468D01*
X177532D02*
Y99516D01*
Y101484D02*
Y105126D01*
X181468Y95874D02*
Y99516D01*
Y101484D02*
Y105126D01*
X177532D02*
X181468D01*
X177532Y95874D02*
X181468D01*
X150689Y117689D02*
X174311D01*
X150689D02*
Y141311D01*
X174311D01*
Y117689D02*
Y141311D01*
X21836Y80236D02*
X22503Y79570D01*
Y78237D01*
X21836Y77570D01*
X21170D01*
X20503Y78237D01*
X19837Y77570D01*
X19170D01*
X18504Y78237D01*
Y79570D01*
X19170Y80236D01*
X19837D01*
X20503Y79570D01*
X21170Y80236D01*
X21836D01*
X20503Y79570D02*
Y78237D01*
X18504Y149213D02*
Y147880D01*
Y148546D01*
X22503D01*
X21836Y149213D01*
D13*
X185000Y0D02*
X236221D01*
X184500Y500D02*
X185000Y0D01*
X184500Y500D02*
X184500D01*
X0Y0D02*
X132819D01*
X184500Y500D02*
Y13138D01*
X184319Y13319D02*
X184500Y13138D01*
X133319Y13319D02*
X184319D01*
X133319Y500D02*
Y13319D01*
X236221Y0D02*
Y157480D01*
X0D02*
X236221D01*
X0Y0D02*
Y157480D01*
X33000Y148998D02*
Y143000D01*
X35999D01*
X36999Y144000D01*
Y147998D01*
X35999Y148998D01*
X33000D01*
X42997Y147998D02*
X41997Y148998D01*
X39998D01*
X38998Y147998D01*
Y144000D01*
X39998Y143000D01*
X41997D01*
X42997Y144000D01*
X44996Y143000D02*
Y148998D01*
X48995Y143000D01*
Y148998D01*
X50994D02*
Y143000D01*
X53993D01*
X54993Y144000D01*
Y147998D01*
X53993Y148998D01*
X50994D01*
X62990Y143000D02*
Y148998D01*
X65989D01*
X66989Y147998D01*
Y145999D01*
X65989Y144999D01*
X62990D01*
X68988Y146999D02*
Y143000D01*
Y144999D01*
X69988Y145999D01*
X70988Y146999D01*
X71987D01*
X75986Y143000D02*
X77986D01*
X78985Y144000D01*
Y145999D01*
X77986Y146999D01*
X75986D01*
X74986Y145999D01*
Y144000D01*
X75986Y143000D01*
X80984Y141001D02*
X81984D01*
X82984Y142000D01*
Y146999D01*
X89982Y143000D02*
X87982D01*
X86983Y144000D01*
Y145999D01*
X87982Y146999D01*
X89982D01*
X90981Y145999D01*
Y144999D01*
X86983D01*
X96979Y146999D02*
X93980D01*
X92981Y145999D01*
Y144000D01*
X93980Y143000D01*
X96979D01*
X99978Y147998D02*
Y146999D01*
X98979D01*
X100978D01*
X99978D01*
Y144000D01*
X100978Y143000D01*
X109975Y148998D02*
Y144999D01*
X111975Y143000D01*
X113974Y144999D01*
Y148998D01*
X115973Y143000D02*
X117973D01*
X116973D01*
Y148998D01*
X115973Y147998D01*
X200599Y101398D02*
X198599D01*
X199599D01*
Y96400D01*
X198599Y95400D01*
X197600D01*
X196600Y96400D01*
X205597Y95400D02*
Y101398D01*
X202598Y98399D01*
X206597D01*
X87999Y60398D02*
X85999D01*
X86999D01*
Y55400D01*
X85999Y54400D01*
X85000D01*
X84000Y55400D01*
X89998Y59398D02*
X90998Y60398D01*
X92997D01*
X93997Y59398D01*
Y58399D01*
X92997Y57399D01*
X91997D01*
X92997D01*
X93997Y56399D01*
Y55400D01*
X92997Y54400D01*
X90998D01*
X89998Y55400D01*
X63700Y125198D02*
Y120200D01*
X64700Y119200D01*
X66699D01*
X67699Y120200D01*
Y125198D01*
X73697Y119200D02*
X69698D01*
X73697Y123199D01*
Y124198D01*
X72697Y125198D01*
X70698D01*
X69698Y124198D01*
X215000Y47500D02*
X209002D01*
Y50499D01*
X210002Y51499D01*
X212001D01*
X213001Y50499D01*
Y47500D01*
Y49499D02*
X215000Y51499D01*
X210002Y53498D02*
X209002Y54498D01*
Y56497D01*
X210002Y57497D01*
X211001D01*
X212001Y56497D01*
X213001Y57497D01*
X214000D01*
X215000Y56497D01*
Y54498D01*
X214000Y53498D01*
X213001D01*
X212001Y54498D01*
X211001Y53498D01*
X210002D01*
X212001Y54498D02*
Y56497D01*
X207000Y15000D02*
X201002D01*
Y17999D01*
X202002Y18999D01*
X204001D01*
X205001Y17999D01*
Y15000D01*
Y16999D02*
X207000Y18999D01*
Y20998D02*
Y22997D01*
Y21998D01*
X201002D01*
X202002Y20998D01*
Y25996D02*
X201002Y26996D01*
Y28995D01*
X202002Y29995D01*
X206000D01*
X207000Y28995D01*
Y26996D01*
X206000Y25996D01*
X202002D01*
X72500Y70441D02*
X66502D01*
Y73440D01*
X67502Y74440D01*
X69501D01*
X70501Y73440D01*
Y70441D01*
Y72440D02*
X72500Y74440D01*
Y76439D02*
Y78438D01*
Y77439D01*
X66502D01*
X67502Y76439D01*
X72500Y81437D02*
Y83437D01*
Y82437D01*
X66502D01*
X67502Y81437D01*
X86500Y72000D02*
X80502D01*
Y74999D01*
X81502Y75999D01*
X83501D01*
X84501Y74999D01*
Y72000D01*
Y73999D02*
X86500Y75999D01*
X85500Y77998D02*
X86500Y78998D01*
Y80997D01*
X85500Y81997D01*
X81502D01*
X80502Y80997D01*
Y78998D01*
X81502Y77998D01*
X82501D01*
X83501Y78998D01*
Y81997D01*
X61000Y84500D02*
X55002D01*
Y87499D01*
X56002Y88499D01*
X58001D01*
X59001Y87499D01*
Y84500D01*
Y86499D02*
X61000Y88499D01*
X55002Y90498D02*
Y94497D01*
X56002D01*
X60000Y90498D01*
X61000D01*
X116500Y95941D02*
X110502D01*
Y98940D01*
X111502Y99940D01*
X113501D01*
X114501Y98940D01*
Y95941D01*
Y97940D02*
X116500Y99940D01*
X110502Y105938D02*
X111502Y103938D01*
X113501Y101939D01*
X115500D01*
X116500Y102939D01*
Y104938D01*
X115500Y105938D01*
X114501D01*
X113501Y104938D01*
Y101939D01*
X52000Y84500D02*
X46002D01*
Y87499D01*
X47002Y88499D01*
X49001D01*
X50001Y87499D01*
Y84500D01*
Y86499D02*
X52000Y88499D01*
X46002Y94497D02*
Y90498D01*
X49001D01*
X48001Y92497D01*
Y93497D01*
X49001Y94497D01*
X51000D01*
X52000Y93497D01*
Y91498D01*
X51000Y90498D01*
X131400Y132400D02*
Y138398D01*
X134399D01*
X135399Y137398D01*
Y135399D01*
X134399Y134399D01*
X131400D01*
X133399D02*
X135399Y132400D01*
X137398D02*
X139397D01*
X138398D01*
Y138398D01*
X137398Y137398D01*
X213502Y21499D02*
X212502Y20499D01*
Y18500D01*
X213502Y17500D01*
X217500D01*
X218500Y18500D01*
Y20499D01*
X217500Y21499D01*
X212502Y27497D02*
Y23498D01*
X215501D01*
X214501Y25497D01*
Y26497D01*
X215501Y27497D01*
X217500D01*
X218500Y26497D01*
Y24498D01*
X217500Y23498D01*
X104502Y115999D02*
X103502Y114999D01*
Y113000D01*
X104502Y112000D01*
X108500D01*
X109500Y113000D01*
Y114999D01*
X108500Y115999D01*
X109500Y120997D02*
X103502D01*
X106501Y117998D01*
Y121997D01*
X37002Y87999D02*
X36002Y86999D01*
Y85000D01*
X37002Y84000D01*
X41000D01*
X42000Y85000D01*
Y86999D01*
X41000Y87999D01*
X37002Y89998D02*
X36002Y90998D01*
Y92997D01*
X37002Y93997D01*
X38001D01*
X39001Y92997D01*
Y91997D01*
Y92997D01*
X40001Y93997D01*
X41000D01*
X42000Y92997D01*
Y90998D01*
X41000Y89998D01*
X4999Y69418D02*
X2999D01*
X3999D01*
Y64419D01*
X2999Y63420D01*
X2000D01*
X1000Y64419D01*
X10997Y63420D02*
X6998D01*
X10997Y67418D01*
Y68418D01*
X9997Y69418D01*
X7998D01*
X6998Y68418D01*
X148399Y150098D02*
X147399Y151098D01*
X145400D01*
X144400Y150098D01*
Y149099D01*
X145400Y148099D01*
X147399D01*
X148399Y147099D01*
Y146100D01*
X147399Y145100D01*
X145400D01*
X144400Y146100D01*
X150398Y151098D02*
Y145100D01*
X152397Y147099D01*
X154397Y145100D01*
Y151098D01*
X156396Y145100D02*
X158396D01*
X157396D01*
Y151098D01*
X156396Y150098D01*
X156000Y89998D02*
X159999Y84000D01*
Y89998D02*
X156000Y84000D01*
X161998D02*
X163997D01*
X162998D01*
Y89998D01*
X161998Y88998D01*
X158999Y102998D02*
X157999Y103998D01*
X156000D01*
X155000Y102998D01*
Y99000D01*
X156000Y98000D01*
X157999D01*
X158999Y99000D01*
X164997Y98000D02*
X160998D01*
X164997Y101999D01*
Y102998D01*
X163997Y103998D01*
X161998D01*
X160998Y102998D01*
X187499D02*
X186499Y103998D01*
X184500D01*
X183500Y102998D01*
Y99000D01*
X184500Y98000D01*
X186499D01*
X187499Y99000D01*
X189498Y98000D02*
X191497D01*
X190498D01*
Y103998D01*
X189498Y102998D01*
X205555Y155566D02*
X203555D01*
X204555D01*
Y150567D01*
X203555Y149568D01*
X202556D01*
X201556Y150567D01*
X207554Y149568D02*
X209553D01*
X208554D01*
Y155566D01*
X207554Y154566D01*
X129974Y84728D02*
Y79729D01*
X130974Y78730D01*
X132973D01*
X133973Y79729D01*
Y84728D01*
X135972Y78730D02*
X137971D01*
X136972D01*
Y84728D01*
X135972Y83728D01*
X6600Y158200D02*
Y164198D01*
X9599D01*
X10599Y163198D01*
Y161199D01*
X9599Y160199D01*
X6600D01*
X12598Y158200D02*
X14597D01*
X13598D01*
Y164198D01*
X12598Y163198D01*
D14*
X85000Y85500D02*
X85756D01*
Y95500D01*
X85000D02*
X85756D01*
X80244D02*
X81000D01*
X80244Y85500D02*
Y95500D01*
Y85500D02*
X81000D01*
X80244Y90500D02*
X85756D01*
X71500Y85500D02*
X72256D01*
Y95500D01*
X71500D02*
X72256D01*
X66744D02*
X67500D01*
X66744Y85500D02*
Y95500D01*
Y85500D02*
X67500D01*
X66744Y90500D02*
X72256D01*
X96244Y122012D02*
X97425D01*
X96244Y110988D02*
Y122012D01*
Y110988D02*
X97425D01*
X100575D02*
X101756D01*
Y122012D01*
X100575D02*
X101756D01*
X96244Y116500D02*
X101756D01*
X108000Y96500D02*
X108756D01*
Y106500D01*
X108000D02*
X108756D01*
X103244D02*
X104000D01*
X103244Y96500D02*
Y106500D01*
Y96500D02*
X104000D01*
X103244Y101500D02*
X108756D01*
X50630Y96386D02*
X51386D01*
Y106386D01*
X50630D02*
X51386D01*
X45874D02*
X46630D01*
X45874Y96386D02*
Y106386D01*
Y96386D02*
X46630D01*
X45874Y101386D02*
X51386D01*
X40575Y95488D02*
X41756D01*
Y106512D01*
X40575D02*
X41756D01*
X36244D02*
X37425D01*
X36244Y95488D02*
Y106512D01*
Y95488D02*
X37425D01*
X36244Y101000D02*
X41756D01*
X59500Y96500D02*
X60256D01*
Y106500D01*
X59500D02*
X60256D01*
X54744D02*
X55500D01*
X54744Y96500D02*
Y106500D01*
Y96500D02*
X55500D01*
X54744Y101500D02*
X60256D01*
X206000Y47000D02*
X206756D01*
Y57000D01*
X206000D02*
X206756D01*
X201244D02*
X202000D01*
X201244Y47000D02*
Y57000D01*
Y47000D02*
X202000D01*
X201244Y52000D02*
X206756D01*
X217075Y31988D02*
X218256D01*
Y43012D01*
X217075D02*
X218256D01*
X212744D02*
X213925D01*
X212744Y31988D02*
Y43012D01*
Y31988D02*
X213925D01*
X212744Y37500D02*
X218256D01*
X206000Y32500D02*
X206756D01*
Y42500D01*
X206000D02*
X206756D01*
X201244D02*
X202000D01*
X201244Y32500D02*
Y42500D01*
Y32500D02*
X202000D01*
X201244Y37500D02*
X206756D01*
X135500Y119000D02*
X136256D01*
Y129000D01*
X135500D02*
X136256D01*
X130744D02*
X131500D01*
X130744Y119000D02*
Y129000D01*
Y119000D02*
X131500D01*
X130744Y124000D02*
X136256D01*
D15*
X205279Y127626D02*
Y143374D01*
Y127626D02*
X222012D01*
Y143374D01*
X205279D02*
X222012D01*
D16*
X184500Y500D02*
Y71366D01*
X133319D02*
X184500D01*
X133319Y500D02*
Y71366D01*
Y500D02*
X184500D01*
X172665Y34067D02*
X174764D01*
X172665Y31968D01*
Y31443D01*
X173190Y30918D01*
X174239D01*
X174764Y31443D01*
X169516D02*
X170041Y30918D01*
X171091D01*
X171615Y31443D01*
Y33542D01*
X171091Y34067D01*
X170041D01*
X169516Y33542D01*
Y32493D01*
X170566D01*
X166893Y34067D02*
Y30918D01*
X168467Y32493D01*
X166368D01*
X165318Y34067D02*
Y30918D01*
X164269Y31968D01*
X163219Y30918D01*
Y34067D01*
X162170Y31443D02*
X161645Y30918D01*
X160595D01*
X160071Y31443D01*
Y33542D01*
X160595Y34067D01*
X161645D01*
X162170Y33542D01*
Y31443D01*
X159021D02*
X158496Y30918D01*
X157447D01*
X156922Y31443D01*
Y31968D01*
X157447Y32493D01*
X156922Y33017D01*
Y33542D01*
X157447Y34067D01*
X158496D01*
X159021Y33542D01*
Y33017D01*
X158496Y32493D01*
X159021Y31968D01*
Y31443D01*
X158496Y32493D02*
X157447D01*
X153773Y31443D02*
X154298Y30918D01*
X155348D01*
X155872Y31443D01*
Y31968D01*
X155348Y32493D01*
X154298D01*
X153773Y33017D01*
Y33542D01*
X154298Y34067D01*
X155348D01*
X155872Y33542D01*
X152724Y34067D02*
X151674D01*
X152199D01*
Y30918D01*
X152724Y31443D01*
X148001D02*
X148526Y30918D01*
X149575D01*
X150100Y31443D01*
Y33542D01*
X149575Y34067D01*
X148526D01*
X148001Y33542D01*
X164165Y22918D02*
X166264D01*
Y26067D01*
X164165D01*
X166264Y24493D02*
X165214D01*
X163115Y22918D02*
X161016D01*
Y23443D01*
X163115Y25542D01*
Y26067D01*
X159967Y23443D02*
X159442Y22918D01*
X158393D01*
X157868Y23443D01*
Y23968D01*
X158393Y24493D01*
X158917D01*
X158393D01*
X157868Y25017D01*
Y25542D01*
X158393Y26067D01*
X159442D01*
X159967Y25542D01*
M02*
