G04*
G04 #@! TF.GenerationSoftware,Altium Limited,Altium Designer,19.1.9 (167)*
G04*
G04 Layer_Color=32768*
%FSLAX25Y25*%
%MOIN*%
G70*
G01*
G75*
%ADD16C,0.00394*%
%ADD64C,0.00200*%
D16*
X150295Y125918D02*
X150737Y126751D01*
X151058Y127637D01*
X151254Y128559D01*
X151320Y129500D01*
X151254Y130441D01*
X151058Y131363D01*
X150737Y132249D01*
X150295Y133082D01*
X174705Y131238D02*
X173942Y130514D01*
X173661Y129500D01*
X173942Y128486D01*
X174705Y127762D01*
X168405Y129500D02*
X168321Y130498D01*
X168068Y131467D01*
X167656Y132380D01*
X167095Y133210D01*
X166402Y133933D01*
X165596Y134529D01*
X164702Y134980D01*
X163744Y135273D01*
X162751Y135400D01*
X161750Y135358D01*
X160771Y135147D01*
X159841Y134773D01*
X158988Y134248D01*
X158237Y133586D01*
X157607Y132807D01*
X157119Y131932D01*
X156785Y130988D01*
X156616Y130001D01*
Y128999D01*
X156785Y128012D01*
X157119Y127067D01*
X157607Y126193D01*
X158237Y125414D01*
X158988Y124752D01*
X159841Y124227D01*
X160771Y123853D01*
X161750Y123642D01*
X162751Y123600D01*
X163744Y123727D01*
X164702Y124020D01*
X165596Y124471D01*
X166402Y125067D01*
X167095Y125790D01*
X167656Y126620D01*
X168068Y127533D01*
X168321Y128502D01*
X168405Y129500D01*
X169277D02*
X169204Y130487D01*
X168989Y131452D01*
X168636Y132376D01*
X168152Y133239D01*
X167547Y134022D01*
X166835Y134709D01*
X166030Y135285D01*
X165150Y135737D01*
X164214Y136056D01*
X163241Y136236D01*
X162252Y136272D01*
X161269Y136164D01*
X160312Y135914D01*
X159401Y135527D01*
X158557Y135011D01*
X157796Y134379D01*
X157136Y133642D01*
X156590Y132817D01*
X156170Y131921D01*
X155885Y130973D01*
X155741Y129995D01*
Y129005D01*
X155885Y128026D01*
X156170Y127079D01*
X156590Y126183D01*
X157136Y125358D01*
X157796Y124621D01*
X158557Y123988D01*
X159401Y123473D01*
X160312Y123086D01*
X161269Y122836D01*
X162252Y122728D01*
X163241Y122764D01*
X164214Y122944D01*
X165150Y123263D01*
X166030Y123715D01*
X166835Y124291D01*
X167547Y124978D01*
X168152Y125761D01*
X168636Y126624D01*
X168990Y127548D01*
X169205Y128513D01*
X169277Y129500D01*
X203353Y138048D02*
X202763Y137458D01*
X203353Y136867D01*
X203354Y134116D02*
X202764Y133525D01*
X203354Y132935D01*
X167728Y103847D02*
X171272D01*
X167728Y97154D02*
X171272D01*
Y103847D01*
X167728Y97154D02*
Y103847D01*
X177728D02*
X181272D01*
X177728Y97154D02*
X181272D01*
Y103847D01*
X177728Y97154D02*
Y103847D01*
X168201Y89953D02*
X180799D01*
Y84047D02*
Y89953D01*
X168201Y84047D02*
X180799D01*
X168201D02*
Y89953D01*
X175493Y135824D02*
Y138922D01*
X176674Y135824D02*
Y138922D01*
X174705Y135824D02*
X176674D01*
X174705Y138922D02*
X176674D01*
X175493Y120078D02*
Y123176D01*
X176674Y120078D02*
Y123176D01*
X174705D02*
X176674D01*
X174705Y120078D02*
X176674D01*
X149507Y135824D02*
Y138922D01*
X148326Y135824D02*
Y138922D01*
Y135824D02*
X150295D01*
X148326Y138922D02*
X150295D01*
X149507Y120078D02*
Y123176D01*
X148326Y120078D02*
Y123176D01*
X150295D01*
X148326Y120078D02*
X150295D01*
Y117098D02*
Y141902D01*
X174705D01*
Y117098D02*
Y141902D01*
X150295Y117098D02*
X174705D01*
X203353Y136867D02*
X205279D01*
X203353Y138048D02*
X205279Y138048D01*
X203354Y132935D02*
X205279D01*
X203354Y134116D02*
X205279D01*
X219978Y141361D02*
X222012D01*
X219978Y140289D02*
Y141361D01*
X208270Y140289D02*
X219978D01*
X208270D02*
Y141511D01*
Y143374D01*
X205279Y141511D02*
X208270D01*
X219978Y129639D02*
X222012D01*
X219978D02*
Y130711D01*
X208270D02*
X219978D01*
X208270Y129489D02*
Y130711D01*
Y127626D02*
Y129489D01*
X205279D02*
X208270D01*
X205279Y127626D02*
X222012Y127626D01*
X205279Y127626D02*
Y143374D01*
X222012D01*
X222012Y127626D02*
X222012Y143374D01*
D64*
X169087Y99552D02*
X168887Y99352D01*
Y98952D01*
X169087Y98752D01*
X169887D01*
X170087Y98952D01*
Y99352D01*
X169887Y99552D01*
X170087Y100751D02*
Y99952D01*
X169287Y100751D01*
X169087D01*
X168887Y100551D01*
Y100152D01*
X169087Y99952D01*
X179087Y99552D02*
X178887Y99352D01*
Y98952D01*
X179087Y98752D01*
X179887D01*
X180087Y98952D01*
Y99352D01*
X179887Y99552D01*
X180087Y99952D02*
Y100351D01*
Y100152D01*
X178887D01*
X179087Y99952D01*
X175526Y86526D02*
X174726Y87725D01*
Y86526D02*
X175526Y87725D01*
X174327D02*
X173927D01*
X174127D01*
Y86526D01*
X174327Y86726D01*
X161870Y129990D02*
X161670Y130190D01*
X161270D01*
X161070Y129990D01*
Y129790D01*
X161270Y129590D01*
X161670D01*
X161870Y129390D01*
Y129191D01*
X161670Y128991D01*
X161270D01*
X161070Y129191D01*
X162270Y130190D02*
Y128991D01*
X162670Y129390D01*
X163069Y128991D01*
Y130190D01*
X163469Y128991D02*
X163869D01*
X163669D01*
Y130190D01*
X163469Y129990D01*
X214710Y135632D02*
Y136032D01*
Y135832D01*
X213710D01*
X213510Y136032D01*
Y136232D01*
X213710Y136432D01*
X213510Y135232D02*
Y134832D01*
Y135032D01*
X214710D01*
X214510Y135232D01*
M02*
