M48
;Layer_Color=9474304
;FILE_FORMAT=2:5
INCH,TZ
;TYPE=PLATED
T1F00S00C0.00787
T2F00S00C0.01398
T3F00S00C0.02362
T4F00S00C0.04331
T5F00S00C0.04724
;TYPE=NON_PLATED
T6F00S00C0.03543
%
T01
X75228Y105638
X78772
X77000Y108000
X78772Y110362
X75228
T02
X57500Y44000
X83000Y69500
X91500
X83000Y82500
X81500Y99000
X77000
X72500
Y116500
X77000
X81500
X91500Y99000
X142500Y97500
X150000Y100500
X142500Y87000
X133500Y74500
Y114000
T03
X142374Y18630
Y23630
Y28630
Y33630
Y38630
Y43630
Y48630
Y53630
X143910Y62311
X148819
X153819
X158819
X163819
X168819
X173909
T04
X11811Y78740
Y88740
Y98740
Y108740
Y118740
Y128740
Y138740
Y148740
T05
X210000Y74000
Y84000
T06
X25932Y27358
Y44681
X91000Y41500
X99000
X95000Y21500
M30
