G04*
G04 #@! TF.GenerationSoftware,Altium Limited,Altium Designer,19.1.9 (167)*
G04*
G04 Layer_Color=16711935*
%FSLAX25Y25*%
%MOIN*%
G70*
G01*
G75*
%ADD10C,0.00787*%
%ADD16C,0.00394*%
D10*
X217000Y85000D02*
X221418D01*
X217000Y73000D02*
Y85000D01*
Y73000D02*
X221418D01*
X198584Y68999D02*
X221418D01*
X198584D02*
Y88999D01*
X221418D01*
Y68999D02*
Y88999D01*
D16*
X76410Y110559D02*
X76146Y111543D01*
X75425Y112264D01*
X74441Y112528D01*
X73457Y112264D01*
X72736Y111543D01*
X72473Y110559D01*
X72736Y109575D01*
X73457Y108854D01*
X74441Y108591D01*
X75425Y108854D01*
X76146Y109575D01*
X76410Y110559D01*
X84870Y87055D02*
Y93945D01*
X81130Y87055D02*
Y93945D01*
X84870D01*
X81130Y87055D02*
X84870D01*
X71370D02*
Y93945D01*
X67630Y87055D02*
Y93945D01*
X71370D01*
X67630Y87055D02*
X71370D01*
X97130Y119945D02*
X100870D01*
X97130Y113055D02*
X100870D01*
Y119945D01*
X97130Y113055D02*
Y119945D01*
X107870Y98055D02*
Y104945D01*
X104130Y98055D02*
Y104945D01*
X107870D01*
X104130Y98055D02*
X107870D01*
X50500Y97941D02*
Y104831D01*
X46760Y97941D02*
Y104831D01*
X50500D01*
X46760Y97941D02*
X50500D01*
X37130Y97555D02*
X40870D01*
X37130Y104445D02*
X40870D01*
X37130Y97555D02*
Y104445D01*
X40870Y97555D02*
Y104445D01*
X59370Y98055D02*
Y104945D01*
X55630Y98055D02*
Y104945D01*
X59370D01*
X55630Y98055D02*
X59370D01*
X205870Y48555D02*
Y55445D01*
X202130Y48555D02*
Y55445D01*
X205870D01*
X202130Y48555D02*
X205870D01*
X213630Y34055D02*
X217370D01*
X213630Y40945D02*
X217370D01*
X213630Y34055D02*
Y40945D01*
X217370Y34055D02*
Y40945D01*
X205870Y34055D02*
Y40945D01*
X202130Y34055D02*
Y40945D01*
X205870D01*
X202130Y34055D02*
X205870D01*
X70898Y101898D02*
Y114102D01*
X83102Y101898D02*
Y114102D01*
X70898D02*
X83102D01*
X70898Y101898D02*
X83102D01*
X135370Y120555D02*
Y127445D01*
X131630Y120555D02*
Y127445D01*
X135370D01*
X131630Y120555D02*
X135370D01*
X16811Y73740D02*
Y153740D01*
X6811Y73740D02*
Y153740D01*
X16811D01*
X6811Y73740D02*
X16811D01*
M02*
