G04*
G04 #@! TF.GenerationSoftware,Altium Limited,Altium Designer,19.1.9 (167)*
G04*
G04 Layer_Color=8388736*
%FSLAX25Y25*%
%MOIN*%
G70*
G01*
G75*
%ADD17C,0.03950*%
%ADD18R,0.04540X0.04147*%
%ADD19R,0.04737X0.04343*%
G04:AMPARAMS|DCode=20|XSize=19.81mil|YSize=69.02mil|CornerRadius=5.95mil|HoleSize=0mil|Usage=FLASHONLY|Rotation=90.000|XOffset=0mil|YOffset=0mil|HoleType=Round|Shape=RoundedRectangle|*
%AMROUNDEDRECTD20*
21,1,0.01981,0.05713,0,0,90.0*
21,1,0.00791,0.06902,0,0,90.0*
1,1,0.01190,0.02856,0.00396*
1,1,0.01190,0.02856,-0.00396*
1,1,0.01190,-0.02856,-0.00396*
1,1,0.01190,-0.02856,0.00396*
%
%ADD20ROUNDEDRECTD20*%
G04:AMPARAMS|DCode=21|XSize=69.81mil|YSize=82.02mil|CornerRadius=5.85mil|HoleSize=0mil|Usage=FLASHONLY|Rotation=0.000|XOffset=0mil|YOffset=0mil|HoleType=Round|Shape=RoundedRectangle|*
%AMROUNDEDRECTD21*
21,1,0.06981,0.07031,0,0,0.0*
21,1,0.05810,0.08202,0,0,0.0*
1,1,0.01171,0.02905,-0.03515*
1,1,0.01171,-0.02905,-0.03515*
1,1,0.01171,-0.02905,0.03515*
1,1,0.01171,0.02905,0.03515*
%
%ADD21ROUNDEDRECTD21*%
%ADD22R,0.03950X0.03753*%
%ADD23R,0.04737X0.07887*%
G04:AMPARAMS|DCode=24|XSize=86.74mil|YSize=106.42mil|CornerRadius=23.68mil|HoleSize=0mil|Usage=FLASHONLY|Rotation=90.000|XOffset=0mil|YOffset=0mil|HoleType=Round|Shape=RoundedRectangle|*
%AMROUNDEDRECTD24*
21,1,0.08674,0.05906,0,0,90.0*
21,1,0.03937,0.10642,0,0,90.0*
1,1,0.04737,0.02953,0.01968*
1,1,0.04737,0.02953,-0.01968*
1,1,0.04737,-0.02953,-0.01968*
1,1,0.04737,-0.02953,0.01968*
%
%ADD24ROUNDEDRECTD24*%
%ADD25R,0.09658X0.02769*%
%ADD26R,0.11627X0.06312*%
%ADD27R,0.06902X0.03162*%
%ADD28R,0.07887X0.05524*%
%ADD29R,0.08674X0.03950*%
%ADD30R,0.03950X0.08674*%
%ADD31O,0.12611X0.08674*%
%ADD32C,0.03347*%
%ADD33C,0.04343*%
%ADD34R,0.03950X0.05524*%
%ADD35R,0.05524X0.03950*%
%ADD36C,0.07099*%
%ADD37R,0.07099X0.07099*%
%ADD38C,0.03300*%
%ADD39C,0.02769*%
D17*
X92500Y36500D02*
D03*
X97500Y26500D02*
D03*
X92500D02*
D03*
X97500Y31500D02*
D03*
Y36500D02*
D03*
X92500Y31500D02*
D03*
D18*
X83000Y93059D02*
D03*
Y87941D02*
D03*
X69500Y93059D02*
D03*
Y87941D02*
D03*
X106000Y104059D02*
D03*
Y98941D02*
D03*
X48630Y103945D02*
D03*
Y98827D02*
D03*
X57500Y104059D02*
D03*
Y98941D02*
D03*
X204000Y54559D02*
D03*
Y49441D02*
D03*
Y40059D02*
D03*
Y34941D02*
D03*
X133500Y126559D02*
D03*
Y121441D02*
D03*
D19*
X99000Y119158D02*
D03*
Y113842D02*
D03*
X39000Y98343D02*
D03*
Y103657D02*
D03*
X215500Y34843D02*
D03*
Y40157D02*
D03*
D20*
X86154Y104063D02*
D03*
Y106032D02*
D03*
Y108000D02*
D03*
Y109968D02*
D03*
X67847Y104063D02*
D03*
Y106032D02*
D03*
Y108000D02*
D03*
Y109968D02*
D03*
Y111937D02*
D03*
X86154D02*
D03*
D21*
X77000Y108000D02*
D03*
D22*
X169500Y103157D02*
D03*
Y97843D02*
D03*
X179500Y103157D02*
D03*
Y97843D02*
D03*
D23*
X179421Y87000D02*
D03*
X169579D02*
D03*
D24*
X36089Y18500D02*
D03*
X14632D02*
D03*
Y53539D02*
D03*
X36089D02*
D03*
D25*
X36463Y29721D02*
D03*
Y32870D02*
D03*
Y42319D02*
D03*
Y39169D02*
D03*
Y36020D02*
D03*
D26*
X175787Y121626D02*
D03*
Y137374D02*
D03*
X149213Y121626D02*
D03*
Y137374D02*
D03*
D27*
X204000Y133531D02*
D03*
Y137469D02*
D03*
D28*
X219256Y127232D02*
D03*
Y143768D02*
D03*
D29*
X184500Y16130D02*
D03*
Y21130D02*
D03*
Y26130D02*
D03*
Y31130D02*
D03*
Y36130D02*
D03*
Y41130D02*
D03*
Y46130D02*
D03*
Y51130D02*
D03*
Y56130D02*
D03*
Y61130D02*
D03*
X133319D02*
D03*
Y56130D02*
D03*
Y51130D02*
D03*
Y46130D02*
D03*
Y41130D02*
D03*
Y36130D02*
D03*
Y31130D02*
D03*
Y26130D02*
D03*
Y21130D02*
D03*
Y16130D02*
D03*
D30*
X176409Y71366D02*
D03*
X171409D02*
D03*
X166409D02*
D03*
X161409D02*
D03*
X156409D02*
D03*
X151409D02*
D03*
X146409D02*
D03*
X141409D02*
D03*
D31*
X210000Y84000D02*
D03*
Y74000D02*
D03*
D32*
X99000Y41500D02*
D03*
X91000D02*
D03*
X95000Y21500D02*
D03*
D33*
X25932Y27358D02*
D03*
Y44681D02*
D03*
D34*
X173909Y62311D02*
D03*
X168819D02*
D03*
X163819D02*
D03*
X158819D02*
D03*
X153819D02*
D03*
X148819D02*
D03*
X143910D02*
D03*
D35*
X142374Y53630D02*
D03*
Y48630D02*
D03*
Y43630D02*
D03*
Y38630D02*
D03*
Y33630D02*
D03*
Y28630D02*
D03*
Y23630D02*
D03*
Y18630D02*
D03*
D36*
X11811Y78740D02*
D03*
Y88740D02*
D03*
Y108740D02*
D03*
Y128740D02*
D03*
Y138740D02*
D03*
Y118740D02*
D03*
Y98740D02*
D03*
D37*
Y148740D02*
D03*
D38*
X150000Y100500D02*
D03*
X142500Y97500D02*
D03*
Y87000D02*
D03*
X133500Y114000D02*
D03*
Y74500D02*
D03*
X57500Y44000D02*
D03*
X91500Y69500D02*
D03*
X83000D02*
D03*
Y82500D02*
D03*
X72500Y116500D02*
D03*
X77000D02*
D03*
X81500D02*
D03*
Y99000D02*
D03*
X77000D02*
D03*
X72500D02*
D03*
X91500D02*
D03*
D39*
X77000Y108000D02*
D03*
X78772Y110362D02*
D03*
Y105638D02*
D03*
X75228D02*
D03*
Y110362D02*
D03*
M02*
