G04*
G04 #@! TF.GenerationSoftware,Altium Limited,Altium Designer,19.1.9 (167)*
G04*
G04 Layer_Physical_Order=1*
G04 Layer_Color=255*
%FSLAX25Y25*%
%MOIN*%
G70*
G01*
G75*
%ADD11C,0.15748*%
G36*
X358268D02*
X11037D01*
X9502Y202D01*
X8006Y603D01*
X6576Y1195D01*
X5235Y1969D01*
X4007Y2912D01*
X2912Y4007D01*
X1969Y5235D01*
X1195Y6576D01*
X603Y8006D01*
X202Y9502D01*
X0Y11037D01*
Y11811D01*
Y309055D01*
X358268D01*
Y0D01*
D02*
G37*
%LPC*%
G36*
X346957Y306112D02*
Y297744D01*
X355324D01*
X355202Y298984D01*
X354695Y300657D01*
X353871Y302198D01*
X352762Y303549D01*
X351411Y304658D01*
X349869Y305482D01*
X348196Y305990D01*
X346957Y306112D01*
D02*
G37*
G36*
X345957D02*
X344717Y305990D01*
X343044Y305482D01*
X341503Y304658D01*
X340152Y303549D01*
X339042Y302198D01*
X338218Y300657D01*
X337711Y298984D01*
X337589Y297744D01*
X345957D01*
Y306112D01*
D02*
G37*
G36*
X12311D02*
Y297744D01*
X20679D01*
X20557Y298984D01*
X20049Y300657D01*
X19225Y302198D01*
X18116Y303549D01*
X16765Y304658D01*
X15223Y305482D01*
X13551Y305990D01*
X12311Y306112D01*
D02*
G37*
G36*
X11311D02*
X10071Y305990D01*
X8399Y305482D01*
X6857Y304658D01*
X5506Y303549D01*
X4397Y302198D01*
X3573Y300657D01*
X3065Y298984D01*
X2943Y297744D01*
X11311D01*
Y306112D01*
D02*
G37*
G36*
X355324Y296744D02*
X346957D01*
Y288376D01*
X348196Y288498D01*
X349869Y289006D01*
X351411Y289830D01*
X352762Y290939D01*
X353871Y292290D01*
X354695Y293832D01*
X355202Y295504D01*
X355324Y296744D01*
D02*
G37*
G36*
X345957D02*
X337589D01*
X337711Y295504D01*
X338218Y293832D01*
X339042Y292290D01*
X340152Y290939D01*
X341503Y289830D01*
X343044Y289006D01*
X344717Y288498D01*
X345957Y288376D01*
Y296744D01*
D02*
G37*
G36*
X20679D02*
X12311D01*
Y288376D01*
X13551Y288498D01*
X15223Y289006D01*
X16765Y289830D01*
X18116Y290939D01*
X19225Y292290D01*
X20049Y293832D01*
X20557Y295504D01*
X20679Y296744D01*
D02*
G37*
G36*
X11311D02*
X2943D01*
X3065Y295504D01*
X3573Y293832D01*
X4397Y292290D01*
X5506Y290939D01*
X6857Y289830D01*
X8399Y289006D01*
X10071Y288498D01*
X11311Y288376D01*
Y296744D01*
D02*
G37*
G36*
X346957Y20679D02*
Y12311D01*
X355324D01*
X355202Y13551D01*
X354695Y15223D01*
X353871Y16765D01*
X352762Y18116D01*
X351411Y19225D01*
X349869Y20049D01*
X348196Y20557D01*
X346957Y20679D01*
D02*
G37*
G36*
X345957D02*
X344717Y20557D01*
X343044Y20049D01*
X341503Y19225D01*
X340152Y18116D01*
X339042Y16765D01*
X338218Y15223D01*
X337711Y13551D01*
X337589Y12311D01*
X345957D01*
Y20679D01*
D02*
G37*
G36*
X12311D02*
Y12311D01*
X20679D01*
X20557Y13551D01*
X20049Y15223D01*
X19225Y16765D01*
X18116Y18116D01*
X16765Y19225D01*
X15223Y20049D01*
X13551Y20557D01*
X12311Y20679D01*
D02*
G37*
G36*
X11311D02*
X10071Y20557D01*
X8399Y20049D01*
X6857Y19225D01*
X5506Y18116D01*
X4397Y16765D01*
X3573Y15223D01*
X3065Y13551D01*
X2943Y12311D01*
X11311D01*
Y20679D01*
D02*
G37*
G36*
X20679Y11311D02*
X12311D01*
Y2943D01*
X13551Y3065D01*
X15223Y3573D01*
X16765Y4397D01*
X18116Y5506D01*
X19225Y6857D01*
X20049Y8399D01*
X20557Y10071D01*
X20679Y11311D01*
D02*
G37*
G36*
X11311D02*
X2943D01*
X3065Y10071D01*
X3573Y8399D01*
X4397Y6857D01*
X5506Y5506D01*
X6857Y4397D01*
X8399Y3573D01*
X10071Y3065D01*
X11311Y2943D01*
Y11311D01*
D02*
G37*
G36*
X355324D02*
X346957D01*
Y2943D01*
X348196Y3065D01*
X349869Y3573D01*
X351411Y4397D01*
X352762Y5506D01*
X353871Y6857D01*
X354695Y8399D01*
X355202Y10071D01*
X355324Y11311D01*
D02*
G37*
G36*
X345957D02*
X337589D01*
X337711Y10071D01*
X338218Y8399D01*
X339042Y6857D01*
X340152Y5506D01*
X341503Y4397D01*
X343044Y3573D01*
X344717Y3065D01*
X345957Y2943D01*
Y11311D01*
D02*
G37*
%LPD*%
D11*
X346457Y11811D02*
D03*
Y297244D02*
D03*
X11811D02*
D03*
Y11811D02*
D03*
M02*
